<?xml version="1.0" encoding="iso-8859-1"?>
<!-- Generator: Adobe Illustrator 11 Build 196, SVG Export Plug-In . SVG Version: 6.0.0 Build 78)  -->
<!DOCTYPE svg PUBLIC "-//W3C//DTD SVG 1.0//EN"    "http://www.w3.org/TR/2001/REC-SVG-20010904/DTD/svg10.dtd" [
	<!ENTITY ns_flows "http://ns.adobe.com/Flows/1.0/">
	<!ENTITY ns_svg "http://www.w3.org/2000/svg">
	<!ENTITY ns_xlink "http://www.w3.org/1999/xlink">
]>
<svg  xmlns="&ns_svg;" xmlns:xlink="&ns_xlink;" xmlns:a="http://ns.adobe.com/AdobeSVGViewerExtensions/3.0/"
	 width="291.82" height="453.398" viewBox="0 0 291.82 453.398" overflow="visible" enable-background="new 0 0 291.82 453.398"
	 xml:space="preserve">
	<metadata>
<?xpacket begin='﻿' id='W5M0MpCehiHzreSzNTczkc9d'?><x:xmpmeta xmlns:x='adobe:ns:meta/' x:xmptk='XMP toolkit 3.0-29, framework 1.6'>
<rdf:RDF xmlns:rdf='http://www.w3.org/1999/02/22-rdf-syntax-ns#' xmlns:iX='http://ns.adobe.com/iX/1.0/'>

 <rdf:Description rdf:about=''
  xmlns:pdf='http://ns.adobe.com/pdf/1.3/'>
 </rdf:Description>

 <rdf:Description rdf:about=''
  xmlns:tiff='http://ns.adobe.com/tiff/1.0/'>
 </rdf:Description>

 <rdf:Description rdf:about=''
  xmlns:xap='http://ns.adobe.com/xap/1.0/'
  xmlns:xapGImg='http://ns.adobe.com/xap/1.0/g/img/'>
  <xap:CreateDate>2007-11-13T06:24:49Z</xap:CreateDate>
  <xap:ModifyDate>2007-11-13T06:24:49Z</xap:ModifyDate>
  <xap:CreatorTool>Illustrator</xap:CreatorTool>
  <xap:Thumbnails>
   <rdf:Alt>
    <rdf:li rdf:parseType='Resource'>
     <xapGImg:format>JPEG</xapGImg:format>
     <xapGImg:width>168</xapGImg:width>
     <xapGImg:height>256</xapGImg:height>
     <xapGImg:image>/9j/4AAQSkZJRgABAgEASABIAAD/7QAsUGhvdG9zaG9wIDMuMAA4QklNA+0AAAAAABAASAAAAAEA&#xA;AQBIAAAAAQAB/+4ADkFkb2JlAGTAAAAAAf/bAIQABgQEBAUEBgUFBgkGBQYJCwgGBggLDAoKCwoK&#xA;DBAMDAwMDAwQDA4PEA8ODBMTFBQTExwbGxscHx8fHx8fHx8fHwEHBwcNDA0YEBAYGhURFRofHx8f&#xA;Hx8fHx8fHx8fHx8fHx8fHx8fHx8fHx8fHx8fHx8fHx8fHx8fHx8fHx8fHx8f/8AAEQgBAACoAwER&#xA;AAIRAQMRAf/EAaIAAAAHAQEBAQEAAAAAAAAAAAQFAwIGAQAHCAkKCwEAAgIDAQEBAQEAAAAAAAAA&#xA;AQACAwQFBgcICQoLEAACAQMDAgQCBgcDBAIGAnMBAgMRBAAFIRIxQVEGE2EicYEUMpGhBxWxQiPB&#xA;UtHhMxZi8CRygvElQzRTkqKyY3PCNUQnk6OzNhdUZHTD0uIIJoMJChgZhJRFRqS0VtNVKBry4/PE&#xA;1OT0ZXWFlaW1xdXl9WZ2hpamtsbW5vY3R1dnd4eXp7fH1+f3OEhYaHiImKi4yNjo+Ck5SVlpeYmZ&#xA;qbnJ2en5KjpKWmp6ipqqusra6voRAAICAQIDBQUEBQYECAMDbQEAAhEDBCESMUEFURNhIgZxgZEy&#xA;obHwFMHR4SNCFVJicvEzJDRDghaSUyWiY7LCB3PSNeJEgxdUkwgJChgZJjZFGidkdFU38qOzwygp&#xA;0+PzhJSktMTU5PRldYWVpbXF1eX1RlZmdoaWprbG1ub2R1dnd4eXp7fH1+f3OEhYaHiImKi4yNjo&#xA;+DlJWWl5iZmpucnZ6fkqOkpaanqKmqq6ytrq+v/aAAwDAQACEQMRAD8A9UEgCp2AxVh+u+elidrf&#xA;SwJGXZrlt1r/AJA7/M5tdP2de8/k4OXV1tFiz3Ot6rIQXnu2PVF5MBX/ACV2GbIQx4x0i4hlOfeX&#xA;HQ9ciHP6lOvHfkEbb7hj+YxnbiC+FMdCiLDzNrmnyBRO0iKaNBNVh8t9x9ByGTSY5jl8mUM849Wd&#xA;aD5lstWTiv7q6UVeBj+KnuM0up0ksXnHvdhhzifvTjMVvaJABJNANyTirDtd898Ha30oBiNmumFR&#xA;X/IXv8zm20/Z17z+Tg5dX0ixd59b1WQgtPdt3ReTAf7EbDNiI48Q6RcQmc+8uOh65EOf1KdeP7QR&#xA;tvuGP5jGduIL4Ux0KI0/zRrenuFE7SouzQzVYfLf4h9ByvLo8cxyr3MoaicerO9B8yWWrxkJ+6uV&#xA;FZIGNTTxU9xmm1OlliO+473Y4c4n703zFbmmZVUsxCqoqzHYADucQFYZrvnsq7W+lAGmzXTCo/2C&#xA;n9Zzbafs7rP5ODl1fSLGWm1vVJCOU923dRycD6BsM2IjjxjpFxLnPvLm0TXIR6n1KdeP7QRtvuGP&#xA;5jGduIL4Ux0KJ07zVrdg4HrGaMbNDNVht2BPxD78ry6PHPpXuZQ1E49WeaF5istXiPp/u7hBWSBj&#xA;uPcHuM0uo0ssR35d7scWYT96a5jNzDvPWuvEo0u3bi0g5XLDrxPRPp6nNr2dp79Z+Dg6vLXpCWeV&#xA;fKv6RpeXgK2SmiINjIR13/lzI1ms8P0x+r7mrT6fi3PJn9vbW9tEsNvGsUS9EQAD8M0kpmRsmy7K&#xA;MQBQVcilLdX0HTtUiK3EYEtPgnXZ1+nuPY5fg1M8Z25dzVkwxnzec31nf6HqgTlwmiIeGZejL2Yf&#xA;xGb/AB5I5oeRdXOMscnpOh6qmqabFdLQOfhlQfsuOo/iM0GownHMxdriyccbY357110/3FW7UJAa&#xA;6YeB3VP4nM/s7TX6z8HF1eb+EIDyr5TGoAXt6CLMH93GNjIR13/ly/Wa3g9Mfq+5q0+n4tzyZ9Bb&#xA;wW8QigjWKNeiIAB9wzSSkZGzu7IADYKmRSlmseX9O1SIieMLNT4LhQA4P8R7HMjBqZ4zty7mrLhj&#xA;Pm85urbUNC1UKW4XEJDxSL0YdiPEHN9CcM0PIurlGWOXm9L0XVI9T06K7TZmFJE/lcfaH9M5/PhO&#xA;OZi7XFk442xjz3rrh/0VbtQUDXTDvXcJ/E5seztP/Gfg4mrzfwhCeVPKa3yi+vgRa1/dRdDJTuT2&#xA;XLdZreD0x+r7mGn0/FueTPIIIYIlihjWONdlRQAB9AzSykZGy7EADYKmRSles+XdO1WJvVQJcU+C&#xA;4UfGD2r/ADD2OZODVTxnbl3NOXDGfPm86nh1HQtV41MdxA3JHHRl7H3Vhm9jKGaHkXWESxy8w9N0&#xA;jUotS0+K7j29QfGv8rDZh9+c9nxHHMxLtsc+KNvMbl5NV1tyDV7ufih60DNxX7hnRQAx4/6odTI8&#xA;c/eXqttbxW1vHbwrxiiUIg9gKZzU5GRJPMu4jEAUFXIpdirsVY15709J9IF0B+9tWBr/AJDkKR99&#xA;Dmw7Oy8OTh6ScXVwuN9yT+QdTit5rq2nlWOJ1Eil2Cjkp4nc9yG/DMrtLEZAEDdo0eQAkFIXMmra&#xA;0d/ivJ6AnsHag+4ZmisWP+qHHPrn7y9XghighSGJeMcahUUdgBQZzMpEmy7gChQVMCXYq7FWMefd&#xA;PSbSlvAP3tswBb/Ic8SP+Cpmx7Ny1Ph6FxNZC433JX5C1SG3N3b3EqxxELKhdgoqNmpXuRTMntLC&#xA;ZUQN2nSZALBY/GJdW1oBied5P8R8A7b/AHDM01ix/wBUOMPXP3l6xDFHDEkUahY41Coo6AAUAzmZ&#xA;SJNl3IFCl+BLsVdirFfP+npLp0d6B+8t2Csf8h9v+JUzZdm5amY97h6yFxvuQn5d3bf6XZk/D8Mq&#xA;DwP2W/41y3tSHKXwYaKXMMa0MiLXLLn8PGdA1e3xAZsNRvjlXc4uLaY971rOYdy7FXYqk/mDzJa6&#xA;REFI9W7cVjhB7fzN4DMrTaSWU90WjNnEPe8/1PX9V1Jj9ZnPpHpCnwxj/Yjr9ObzDpoY+Q3dbkzS&#xA;lzKhp2l32ozNDZxerIq82FVWi1A6sQO+Ty5o4xcjTGGMyNBDo8kbh0Yo6mqspIII8CMsIBG7EGmT&#xA;6J54vLd1h1Em4t+nq/7sX/mr6d812o7PjLeGx+xy8WrI2luGeQTw3EKTQuJIpByR16EZpZRMTR5u&#xA;xBBFhUyKUl8w+ZrXSECAeteOKpCDsB/Mx7DMvS6SWXflFozZxD3vP9S13VNRY/WZ2MZ6Qr8MY/2I&#xA;/jm8xaaGPkHWzzSlzKlp+l3+oSPHZxeq8a83FVWg6ftEZLLmjAXI0xhjMuSHjkkjdZI2KOpqrqSC&#xA;D7EZYQCKLEGmUaH55u4HWHUqzwHb1h/eL7n+b9ea3UdnxlvDYuXi1ZG0twzyGaKaJZYmDxuOSOu4&#xA;IOaWUSDRdiDe4X4EuxVJPObqvly6DdWMaqPf1FP8MzNAP3o+P3OPqj+7LG/y8Vv0pct+yIKEe5da&#xA;fqzP7TPoHvcXRfUfclnmawk0/XJwoKpI3rQMPBjXb5GozJ0mQTxj5NWeHDMvQNB1eLVNOjuFI9UD&#xA;jOn8rjr9B6jNFqcBxzrp0dlhyccbTLKG1B6vqUenafNduK+mPgX+Zjso+/LcGI5JiIYZJ8MbeZWt&#xA;vf65q3HlznnYtJIeir3J9h2zoZyjhh5B1MYyyS8ymfmddM02CPR7ABpFIkvJzu7NT4VJ/GmY+kM8&#xA;h8SXwDbn4Yjhj8U5/L7TmjtJ75xQzkJF/qp1P0t+rMXtPLchHub9HCgT3sY8x2D6drU6KOKFvWgP&#xA;+SxqKfI7ZsdLkGTGD8C4meHDMpjqOkWmpaUNZ0tQkiD/AE60TorD7TKO3jTwzHxZ5Y5+HP4FtnjE&#xA;o8cfiF3kfW2trwadM3+j3J/dV/Zk7U/1unzwdoafijxjmPuTpMtHhPIs01nU49N06a7ehKCkaH9p&#xA;zso+/NTgxHJMRc7Lk4Y28zsrS/1zVeHLlPMS80rdFXux+XbOgyTjhh5B1UYnJJMvM402wjj0ewAL&#xA;RkPeT9WZwKKpPtWtOmUaTjmTkl8G3Pwx9MfinnkDTmhsZr1xQ3LBY/8AUSu/0sfwzD7Sy3IRHRyN&#xA;HChfexTXrGTTNamiUcVV/VgP+Sx5L93TNlpsgyYwfm4eaHBMplqej2d/pQ1rS1CFR/ptqvRGH2io&#xA;7U608N8x8OeUJ+HP4FtyYhKPHH4hW8ja28F3+jZmrBPUw1/Zk60+TfryPaOnuPGOYZaTLR4Sz7NI&#xA;7F2KsE8+6yk0semwtyWE85yOnOlAv+xB3zddm4CBxnryddq8tnhCZeQdOaDTpbtxRrphwr/IlQD9&#xA;JJzH7Sy3MR7m7RwqN96Y+ZdBTVrLitFuoqtA5/FT7HMfSak4pf0TzbM+HjHm8/s77VNDv24AxTJ8&#xA;M0Lj4WHgw/Uc3mTHDNHvDrYzljkzPT/PmkToBdBrWXvUF0r7FRX7xmpy9nZB9PqDnw1cTz2Snzvr&#xA;lle29rb2c6zJyaSXjXYgAL/xI5k9n6eUCTIU06rKJAAFJNL1ybTLadbVAt1cUU3B3KIOyjxJzMza&#xA;cZCOLkOjj48pgDXMqmg6Dd6zdkksturVuLg79dyAT1Y4NTqY4o+fQJw4TM+T06CCK3hSCFQkUahU&#xA;UdgM52UjI2ebtgABQSrzN5fTV7QcKJdw1MLnoa9VPscydJqfClv9Jac+HjHmwCyv9T0S+cKDHIp4&#xA;z28g+FgOzD9Rzd5McM0fuLrYzljKDacLdGeBfSo/OJa140NQK+2W8Ppo7sL3sMl8567a39tZRWso&#xA;dd5ZlFdmoAoPyqc1+g08oGRkHK1WUSAASjTNcm020njtEC3NwQGuTuVQDYKPGtd8ysunGSQMuQ6N&#xA;OPKYg1zKt5f8v3Ws3Zdyy2qtWec9STuVUnqxyOp1McUdufQMsOEzPk9NhhihiSGJQkcahUUdABsB&#xA;nOykSbLtQKFBJ/NHl5dWtA0VFvIamFjsGHdD8+2Zej1PhS3+ktGow8Y82BWGo6jot44VeDfYuLaQ&#xA;fCw8GXN1kxQzR+4uuhOWMoNZzHdC4gHplJPUiWteNDVRXatMtMbjRYXRsPTG82+X1iDtdrUivBQz&#xA;H5bDOeGiy3VO1/MQ72Pa159eVGg0xGiB2Nw9OX+xXenzzPwdm1vPfycbLq72ilPl3y9c6vdB5Ay2&#xA;atWaY9z14r4k5k6rVDFGh9TThwmZ8npkUUcUaRRqFjQBUUdAAKAZzxJJsu1ApfgSgNV0PTdTj43U&#xA;VXAokq7OvyP8Dl+HUTxn0lryYoz5sVu/y7uQxNndoy9lmBUj6V5V+7NlDtQfxD5OHLRHoUh1jQL/&#xA;AEkxfWuB9blwKEn7NK1qB/Nmbg1Mct8PRxsuEw5pz5S8r6dqVr9cuZGfhIUMC/CKgA/EevftTMTW&#xA;6yeOXDH5uRp8EZCyzqCCG3iWGBFjiQUVFFAM00pGRs83YAACgqZFLsVS/VtC03VEAuo/3gFEmXZx&#xA;9P8AXL8Opnj+ktWTDGfN5lrFlFY6ncWkUhlSFuIcih6CvTwO2dDgyGcBI9XVZIiMiAv1TRb3TVga&#xA;5C0uF5x8TXpSoOw33wYc8cl10TkxGNX1T7yn5W07UbQXt07ScXKG3HwqCtOpG52PtmFrdZOEuGPz&#xA;cjT6eMhZZzDDDBEsUKLHGgoqKKAD5DNNKRJsuwAA2C/Al2Kpdq2gabqiUuY/3gFFmTZx9Pf6cvw6&#xA;mePkWrJhjPm8y1W0is9RuLWJzIkLlA5FCadenvnRYZmcBI9XU5I8MiE5h8g61IFZnhjBAPxM1d/Y&#xA;LmJLtLGO9yBo5nuTrTfIFjCwe+mNyR/utRwT6d+R/DMTL2lI7RFN8NGBz3ZRDDFDGsUSCONBRUUU&#xA;AHsBmtlIk2XLAA2C/Al2KuxV2Ksf866a15o5kjXlLat6oA6laUcfdv8ARmdoMvBko8i42qhxR9zG&#xA;fJWtpYXzW07cba6oOR6K4+yfkehzYa/TmcbHMOJpcvCaPIvRs0LtHYq7FUBrWrQaXYvcykF6Uhj7&#xA;u/Yf1y7BhOSVBry5BAW830eym1fWo43q/quZblv8mvJyfn0zoM+QYsZI+Dq8UTObNfO+mNd6R68Y&#xA;rJaH1Kf5BFH/AIH6M1HZ+XhyUf4nO1WPijfcx3yTrkdjeNaXDcbe5I4ueiyDYV9m6ZndoaczjxDm&#xA;HG0uXhNHkXomaJ2bsVdiqXa5rEGlWD3DkGUgiCM9Wft9A75fp8BySocurVlyCAt53oVjLqutRI9X&#xA;DP6tyx/lBqxPz6fTm+1OQY8Z+QdZhgZzeq5zTuHYq7FXYq7FXYq7FWiARQ7g4q8881eVZLGR7yzQ&#xA;vZOSWUCpiJ7H/J8Dm90esExwy+r73WajT8O45LdD863tgiwXK/WrZdlqaOo9j3Hzw6jQRmbjsUYt&#xA;UY7HcMli89aA61Z5Ij/KyEn/AIXkM157OyjucsauCFvvzA06NSLOF55OzP8AAn8W/DLMfZkz9Rph&#xA;PWRHLdiV1earrl+vOs87fDFEg+FR4KOw8T9+bSGOGGPcHClKWQs+8s+Xk0i1Jej3k1DM46DwVfYZ&#xA;pNXqTllt9Idlgw8A805IBBBFQdiDmI3vOvNPlabT5XurVS9i5qQNzET2P+T4HN9o9YJjhl9X3ur1&#xA;GnMTY5LtE87XljGtvdJ9at12Rq0kUeFe4+eOo7PjM3HYpxaox2O4ZHF550B0DM8kZ/lZCT/wvIZr&#xA;z2dlHc5Q1cELffmDYRqRZQvPJ2Z/gT+LH7stx9mSP1GmE9ZEcgxG4udV1zUF5cp7h9o41FAo8AOw&#xA;zaRhDDHuDhSlLJLvL0Hy35fi0i0IYh7uWhmkHT2VfYZotVqTll/RDssGHgHmnGYre7FXYq7FXYq7&#xA;FXYq7FWiARQ7g4qkGp+SdHvGMkQNpKepipwJ90O33UzOxdoZIbH1BxsmljLlskr/AJdXIb4L1GXx&#xA;ZCD9wJzLHag6xaDoj3oi1/LqMMDdXhYd0iTj/wAMxP6shPtQ/wAMWUdF3lkum6Pp2mxlLSEIT9pz&#xA;u7fNjvmuy555D6i5UMcY8kblTY7FWiAQQRUHYg4qx/UvJGkXbGSHlaSHr6dOBP8AqH+FMzsXaGSO&#xA;x9TjT0sZctkmf8uroN8F6jL2JQg/cCcyx2pH+a0HRHvRFr+XUQIN1eMw7pEoX/hmLfqyE+1D/DFl&#xA;HRDqWTadpGn6dH6dpCI6/afqzfNjvmuy555Dci5cMcY8kZlTN2KuxV2KuxV2KuxV2KuxV2KuxV2K&#xA;uxV2KuxV2KuxV2KuxV2KuxV2KuxV2KuxV2KuxV2KuxV2KuxV2KuxV2KuxV2Kqf1i3rx9VK+HIVyX&#xA;Ce5HEF4IIqNwehyKW8VdirsVdirsVdirsVdirsVdirsVdirsVdirsVQWqataaZbie55cWPFAoqSe&#xA;tPD78tw4ZZDQa8mQQFljR89yyXkSpAsVqXUSs5LPwrudqAbZsP5OAibNycT84SeWzMs1TnpF5zBO&#xA;hSEHo6E/KtMzNB/ehxtV9DzzN66t6tpacNMtE6cYYxT5IM5rMbmfeXdYx6R7kSSAKnplbNiMXn0C&#xA;d1ntuUPI8HjPxca7fC3U0982h7N22O7gjWb7hkWnaxp+ooWtZQzDdozs4+YOYGXBPH9QcrHljLkj&#xA;cqbHYq7FXYq7FXYq7FXYq7FXYqteSNCodwpc8UBIFT4DCASgldgSgda04ahps1t+2w5RE9nXdf6Z&#xA;dp8vBMFryw4okPLmVlYqwowNCD1BGdGHTMqi89SRWcEK23OVEVZJHbYlRSoAHf55rT2cDIm9nNGs&#xA;oAUy27s7W/tDBOvOCSjUBIrQgjcb5q4TlCVjm50oiQo8mJ+btG0vT7CFrSARO8tC3JmNOJNPiJzZ&#xA;6LPOcjxHo4OpxRjEUEntPMutWtAlyzoNgklHFB233zLnpMcuYaI6iY6vQwk9xpwSU+lPNFxkZR9l&#xA;mWhoCexzRWIzscgXaUTHfmwbVvKF/YRPcI6z26CrMPhYDxKn+BzcYdbGZrkXXZNNKIvmGvJ1k1xr&#xA;CS1IS2BkYg0qeij8cOuycOOu9dLC533PQ80TtGqitK79aYq3irsVdirsVdirsVdiqW61rdrpVvzk&#xA;+OZ/7qEHdj4+w98v0+nlkNDk1ZcogHnt9qt9e3YuppD6imsfHYJQ1HHwze48MYR4QHVzySkbLPfL&#xA;euJqln8ZAu4qCZfHwYexzS6rT+HL+iXZYM3GPNM454JWdY5FdojxkCkEqetDmOYkc24SBY95v0e2&#xA;OlPcW8KpLFJ6shVQCwc0atPnXM7RZzx0TsXF1OIcNhgmbl1r1PRZ/X0izkrUmJAx91FD+IznNRGs&#xA;hHm7nEbiEg8/t/o9mvi7mvyA/rmb2aNy42t5BjGi2n1vVbWClQ8gLD/JX4m/AZsM8+GBLh4o8UgH&#xA;qec47linnrU+EEWnofil/eTf6gPwj6W/Vmy7OxWTM9HC1mTbhYjZXV3bXKS2jFZwaJx3Jr2p3r4Z&#xA;tMkIyFS5ODCRBsc3o99qc9jo/wBcngLXARecSbgOR3PZQc0GPEJ5OEHZ208hjCyN2ArrupDUv0j6&#xA;pNwTv/KV/kp/Lm7OnhwcFbOs8aXFxdXoWkatb6nZrcRbN0lj7q3h/TNHnwnHKi7TFkExYR2UtjsV&#xA;dirsVdirsVSvXNBtdVh+P4LhBSKYdR7HxGZGn1MsZ8mnNhEx5vPdQ067sLlre5Ti46H9lh4qfDN7&#xA;iyxmLDq5wMTRWo99ZMJEMlu0qfCwqpZG8PY4SIz250oMo+SZ+U9V+paoqSNSC5pHJXoG/Zb78xtb&#xA;h44bcw26bJwy8i9BnhSaGSGQVSRSjD2YUOaOMiDYdoRYp5Td2721zLbyfbico3+xNM6aEhIAjq6W&#xA;UaNM98mT+poUa1qYXdPx5f8AG2aTXxrJ73ZaU3BK/wAwG+OxXwEp+/h/TMns0fV8GnW9EN5EtPU1&#xA;Ga5IqII6D2ZzT9QOWdozqAHex0cbkT3M4kkSONpHPFEBZmPQACpOacCzQdgTTyzVb97/AFCa6bpI&#xA;3wDwUbKPuzo8OPgiIunyT4pEsm8m6BQLqdyu5/3lQ/8AE/6ffmv12p/gHxcvS4f4iy5lVlKsAysK&#xA;EHcEHNWC5zzXXLPT01hrfT5AY2YAgkBEcmhUMewzoNPORx3N1GaMeOos30HQoNKtyFPqXElDNL2N&#xA;Oy+wzUanUHIfJ2OHCIDzTTMZudirsVdiq2SRI0aR2CogLMx6ADcnCBZoIJpIdO846ddXLwSj6v8A&#xA;ERDIx+Fh2qf2TmZl0M4ixu48NVGRo7MgzCclA3EWlajKbWYRzy2xV2jO5Unp99Nxl0TOAsbAtchG&#xA;Ro70pa7okOqWfp7JPHvBJ4HwPsclp9Qccr6dWObEJjzebTwTW8zwzKUljPF1PUEZv4yEhY5OpIIN&#xA;F6R5b1MahpcUjGs0f7ubx5KOv+yG+aHVYeCZHR22DJxRYv54sfR1JLpR8Fyu/wDrpsfwpmx7PyXD&#xA;h7nD1cKlfemHkCasF5BX7LI4H+sCD/xHKO0o7gtuiOxCE8/NW9tU8Iifbdv7Ms7NHpPvYazmE28k&#xA;Wno6OZiPiuJGYH/JX4R+IOY3aE7yV3N2kjUL71vnXU/q2nC0Q0lujRqdRGPtff0w6DFxT4jyC6vJ&#xA;Ua72O+WNBOpXXqzD/Q4TWT/Kbsg/jmdq9T4caH1FxNPh4zZ5PRAAoAAoBsAOlM0TtWJ+avM4QPp9&#xA;i/7zpcTL+z4op8fE5s9HpL9Uvg4Wp1FemLDM2zr2ceTdckuIjYXBLSQrWKQ71QbUJ9u2afXacRPE&#xA;OrsdLmscJRl35v0m3u0t1YygtxllTdE96/tfRlUNFOUb5NktTEGk7BBFRuD0OYbkN4q7FWK+eNWa&#xA;KFNOiNGmHOYj+QHYfSRmy7Pw2eM9HC1eShwhhObd16bWXmbVbSzktY5OUbLxjLbtH/qHMbJpISlx&#xA;Eftb4aiURSBs7+6s7tbqFyJlNSTvyr1DeNcuyY4yjwnk1xmYmw9I0bWLfVLQTRfDIu0sRO6t/Q9j&#xA;mgz4DjlRdriyiYsJf5q8vC/h+tWy/wCmRDcD/dijt8x2y/R6ngPCfpP2NWowcQsc2OeUdUNjqghk&#xA;NILmkb17N+wfv2+nM/W4eOFjmHF02ThlXeynzdY/WtGkZRWS3Pqr8l+1/wALmt0WThyDz2czUwuH&#xA;uY75Em4arLEeksR+9WB/VXM/tGNwB83F0Z9VO89MW1iJRU0gUU9y7Y9nD92feus+v4Mz0+1FpYQW&#xA;/wDvqNVY+4G5+/NTlnxSJ73PhHhiAwW8+seYvMDJAf3deCN2WJP2vp6/Tm5hWDFv+C66V5cmzO7G&#xA;ygsrWO2gXjHGKDxJ7k+5zS5MhnKy7KEBEUGOeafNHo87Cxb979meYfs+Kr7+J7Zn6PSX6pcujiaj&#xA;UV6YsKzbuvT7RPKd5f8AGaetvaHcMR8bD/JB/WcwtRrYw2G8nJxaYy3OwZxY6bZWMHoW0QRP2u5Y&#xA;+LHvmnyZZTNkuxhjERQYfrPlK7GqhNPirb3FWU9FjNfiBPh4ZtcGtjweo7j7XBy6Y8Xp5FmGmWst&#xA;pYQW0snqvEoUvSladPuG2arLMSkSBVudjiYxAKKytm7FUPd2FneR+ndQrKvbkNx8j1H0ZOGSUDcT&#xA;TGUBLmGNaj5EjYl7CbhX/dUu4+hhv9+bDF2if4g4k9H/ADSirryRpcsCLCzQzIoX1B8QYgdWU+Pt&#xA;TK4doTB33DOWkiRsxrUvK2rWNWMfrwjf1Yvi291+0M2GLWQn1ouHk08o+aC03UrnTrtbmA0ZdmQ9&#xA;GXupy7LiGSNFrx5DE2HpOl6pbalaLcQHrs6Hqrdwc5/NhOOVF22PIJiwxrzf5eILanaL73Ma/wDE&#xA;x/H782Gh1X8Evh+pxNTg/iCe6BqCappKPJ8TgGK4U92Aof8AghvmFqcXhz294cnDPjixK7sL7y1f&#xA;QXiFJeRkEValaU4jl9nejVzaQyR1ETH3ODKEsUgWXWdnY3sNtqVzAkl1JDGxdhUA8eXwg1AoTmrn&#xA;OUCYA+my50YiQEiN6Y7oeq6zqmqSW7Tc7FubTowG0ZNKAgBhWtOuZ+ow48cLr1fpcXDknOVXsqvr&#xA;OlaBqctpZ2vKEkfWJAxLhv5VJrUL4eORGCeaAlI79GRyxxSoBX8zeaTDAlvYlhJcRiT1yCKI4qON&#xA;e58e3zyGk0dm5dOjLUaihUerELOyu72cQ20Zllbw7e5PbNpPJGAs7OBGBkaDNtE8n2tnxnvKXFyN&#xA;wv8AutD7A9T7nNRqNdKe0dg7HFpRHc7lkWYDlIe8v7Kzj9S6mWJe3I7n5DqfoycMcpmoi2MpiPMs&#xA;en892guY0ghZoOQEsz7HjXcqor+OZ8ezpVZO7inWC9hsygEEAg1B3BzWuY3iqlcXVtbIJLiVYkJC&#xA;hnIUVPapyUYGRoC0SkBzaivLOb+5njkr04OrfqOGWOQ5goEgeRUdXu2s9MublNnjQlCdxyOy/icl&#xA;ghxTARllwxJSDTfPUD0TUIvSb/f0dSv0r1H45m5eziN4G3Fx6wfxMmtrq2uYhLbyrLGf2kIIzXyg&#xA;YmiKcuMgdwgdS8u6VqFWlhCSn/d0fwtX37H6cuxaqcOR2a8mCMuaRxeX9a0S7+tacwu4eksP2WZe&#xA;tCDt8iPuzMlqceaPDP0lxxhnjNx3ZZGwlhVmQqJFBMbjcVHRhmsIouaNwxbzPHd2enwppSCLTlYv&#xA;K8J351qOVO22bLSGM5Hj3n5uHqAYxHD9KtqzJrXlQXaD97EBKR4Mm0g+6pyGEeFn4eh/AZZP3mK0&#xA;x0gSyeW4FjFJTb8UB8eJAyjPQzG+VtuKzjHuS6ztn8ueXp7mRAb2T7VNwGJ4oKjsK1y/JPx8oA+l&#xA;pjHwsZPVDeXvKrO4v9UBLMeaQN1JJryk/p9+WarWV6YfP9THBp/4pIXzhrdjeFbS2RZTC29z4HoV&#xA;T28cs0OnlH1Hr0YarLGWwZB5UazfRontohE32ZwOpddiST1r1zB1gkMhs25Wmrg2V9R8w6Vp9RNM&#xA;GlH+6Y/if6fD6cji0058hsyyZ4x5li2o+d7+eqWaC2j/AJ/tP952H3ZscXZ8R9W7hZNXI8tmOzTT&#xA;TSGSZ2kkbq7Ekn6TmfGIAoOKSTzXw2d5P/cwSS/6iM36hkZZIjmQEiJPII+4vfMdiI4p5riAFf3a&#xA;MzD4RttlMceKe4ALZKeSOxJD0HS7k3WnW1w27SRqz/61N/xzR5ocMyPN2mOVxBSHz9JSwto/5pS3&#xA;/AqR/wAbZm9mj1E+Tjaw+kMHzcOuVo3u5B9XjaRw/wDupSxrTf7I+WRIiNzTIEnZbJbXEX95E6f6&#xA;ykfrxEgeRQYkLrW8urWT1baVon8VNK/PxxnCMhRFpjIx3DJ9M89SrSPUYuY6etHs30r0P0UzXZez&#xA;hzgXMx6w/wATKbHU7C+TnazLJTdlGzD5qdxmtyYpQPqDmQyRlyK6/gmnspoYJPSlkUqslK0r8sGO&#xA;QjIEiwmYJBAYjpv6b0K8SzuYDNY3LiOg+JCX2qp7H2PXNpl8PNHiBqQcHHx4zRGxZVYaVaWKzJbg&#xA;iKd+ZiJqoJFCFHhmtyZpTq+YcyGMRuuqLVVVQqgBQKADYADKmxvFUv1zT7q/svq1vP8AVyzD1G/m&#xA;Tuu2+X6fLGErItqzQMhQNICy8p6LYJ6tzSd16yTUCD/Y9Pvrl2TW5J7Db3NcNNCO53dqfmbQIreS&#xA;2EhmDKU4246AimzbL9xxxaTKTdV71yaiAFfcg7DyVpU9vHcG5llSVQ6leKbHffZsuya+YJFAU1w0&#xA;kSLtM4fKWgxf8e3M+Lsx/CtMxpa3KercNNAdEfDpmnQ/3NrFGfFUUH76ZTLLM8yWwY4jkETlbNK9&#xA;d0KHVoYkeT0niYssgHI0IoR1HtmRp9QcRJ5205sImEXptl9SsYbXn6giHEORSu9emV5cnHIy72eO&#xA;HCKQPmDQf0ukK+v6HoljXhzryp/lL4ZdptT4V7XbXmw8db0k3/Kvv+X/AP5I/wDN+Zf8p/0ft/Y0&#xA;fkvP7EVpflGPTL6O+kvA6w1+FkCCrKVHxFj45Vm1pyRMRHmzx6bglxWyNZoWpxkVq9KEGuYBiXKs&#xA;LJLO0k/vII3/ANZVP6xhE5DkUGIPRCyaBosn2rKEf6qhf+I0y0anIP4iwOGB6BZb+XNHtrlLm3g9&#xA;OaMkqQ7kbinQkjDLVZJCidkRwQBsBCebrS/ntIJLEOZoZK0irzAIIqKb5bopxEiJciGGpjIgcKn5&#xA;ZuvMLzPDqcbiFU5JJIhVuQIFOW1dvHJauGIC4c0aeWS6kyLMBynYq7FWnDFSFPFiDRqVofGmEKWH&#xA;Xvk/W7p+c1+k7dvUL7H2FDTNpj12OPKNOBPSzPM2g38jayvR4G+TN/FRlw7Qx+bX+Tn5Jrb6sfLu&#xA;n29lqETPKebJ6ZBAXlXckjxzFlh8eRlE7N8cnhRAk1/j6z/5ZJP+CXD/ACbLvCPzo7lh8/w12smp&#xA;2+Mf804f5NP85fzo7nf8rAh/5Ym/5GD/AJpx/k0/zkfnR3InTvOlveXkVsbZozKwVW5BhU+OwyvL&#xA;oDGJN8mcNWJGqZJmA5bsVdiqVeaYmk0C8UdQqt9COGP6sydGayhp1AuBeaZ0DqFyu6/ZYrXrQ0wE&#xA;JtWhuNQZ1SGWUv0VUZifoAyMox6gMhKXRPtP0XzdP8RuJrVD1aSV1P8AwIJP35hZNRgHQH4OTDFl&#xA;PUhk8Gm38GlS2v155rpqmO5fqpoKDcsaVGa6WWJmJcNR7nLjjkI1e6WaJFrtterLq90FjlrFHBJI&#xA;CWckU4qNu2ZGoOKUaxjl5NWETBuRZNmvct2KuxV2KpNrep61Yyq9pZi5teNXcVLBqmuw7fRmXp8W&#xA;OY9UqLj5sk48hYSiLz/vSay+ZWT+BX+OZJ7N7pNI1veEfFHpHmi3NxJFJG8J9MNyoRUBtqVHfuMp&#xA;Jyac0CN2wCOYWgbryCNza3fyWVf+Nl/pl0O0v5wa5aLuKUXXlDXIKkQiZR+1EwP4GjfhmVDW45da&#xA;aJaaY6JVPbXEDcZ4nib+V1Kn8cyYzEuRtoMSObdnObe7guAK+jIslP8AVIOM48USO9MTRBepWF9b&#xA;31qlzbkmKTpUUII2IPyzm8mMwlR5u5hMSFhB+YtTuNN043MCK781Wj1oAa77EZbpcIyTotefIYRs&#xA;MLufNmuz1H1j0lP7Mahfx+1+ObeOixjpbr5amZ6pZNc3M7cp5Xlbxdix/HMiMBHkKajInmmOkeWt&#xA;Q1OP1YSiQAlTI7dx1HEVOUZ9XHGaPNtxYJT3HJktj5G02KjXUj3Ld1+wn3D4vxzX5O0Jn6dnLhpI&#xA;jnun1rZWlqnC2hSJe/AAV+Z75hTySlzNuTGAjyCA1LzNpNhVXl9WYf7qioxr7noMuxaSc+lBryai&#xA;MVPRNT1bUpTcSQJb6fQ+mDUu58QdtvoyWoxQxigbkxxZJTN1UUZqej2Oo+kblTyhbkjqeLe4r4Gm&#xA;VYs8sd11bMmIT5qlnLftJMl1AIwjH0ZEYMrITt/lAjvtkZiNDhKYmW9hFZWzWSSxxRtJK4SNd2di&#xA;AAPcnCASaCCa5u9QNF6kdJAV5JxIo21RQ9N8a3oreyR2HnCxmma3vIzYzqSpEhqtR2LUWh+YzMya&#xA;GQFx9QceGqBNHYo6/wBD0nUV5zQqzMKiZPhb58h1+nKceonj5FsnhjPmGNafrdpoF7d6fwea2Eu0&#xA;oI5ggAEEbA9M2GXTyzxE+RpxIZRiJj0ZTYaxpt+P9FnV27xnZx/sTvmtyYJw+oOZDLGXIo3Kmxa6&#xA;I6lXUMp6qwqPxwgkckEWlt15Y0O53a1VG/miqn4LQZkQ1eSPVqlp4HoitN0+DT7RbWAsY1JILkE/&#xA;Ea9gMqy5TOXEWeOAiKCG8yWjXWi3MSDk4UOgHWqENt9AyzSz4cgLDPHigQwqw8q6zeUYQ+hGf25v&#xA;h/4X7X4Zt8msxx637nXw005dKZFYeRtPio13I1y38o+BPw+L8cwMnaEj9Ipy4aOI57p/Bb2dlAUh&#xA;RIIV3NAFHzJzClKUzvuXJEREbbJNqXnPTLWqW9bqUfybIPm39My8WgnLnsHHyaqI5bsXvvMWs6nJ&#xA;6Icqjmi28IIrXtt8TZscelx4xf2lw555z2T3QfJqRcbnUgHk6pbdVH+v4/LpmHqdde0Pm5OHS1vJ&#xA;PNW1iy0u3DzGrnaKBftMfbwHvmFhwSyHZyMmUQG6Lt5JJbeOSSP0pHUM0ZNSpIqRX2yuQAJA3bIm&#xA;w6C4guI/UgkWWOpHJTUVGx3GMomJoqJA8lTIpQ8y2d7HPZuyyADhPGCKryFRXw8Rk4mUCJMTUrDF&#xA;rHUbny7qB02+JewY1hl/lUn7Q9v5hmyyYhnjxx+pwoTOKXDL6U117y9batCLi3Krdcaxyj7LjqA1&#xA;PwOY2m1RxGj9LdmwCYsc2MaNe67YammnR1DNIEe2k+JR4n223qM2OfHinDjPzcTFOcZcKO17ydcr&#xA;JJdWLGdXJd4m3kBJqaH9r9fzynTa4Vwy2bM2lPOO7FvjjfujqfkQRmx5uHyTrTvN+r2lFkf6zEP2&#xA;Zd2+h+v31zEy6LHLlsW+GplHzZPp3nHSbuiysbWU9pPs19nG330zXZdDOPLcOZDVRlz2TxXV1DIQ&#xA;yncMDUEZiEU5Nt4FdirsVdirFPN+t6XJZvYI3rz1B5IfhQqe57/LNlotPMS4uQcLU5YkcPMsY0vR&#xA;73U5vTtk+Ef3krbKo9zmxzZ44xZcPHiMzsz7RvL9jpaVjHqXBFHnYbn2A/ZGaTPqZZDvy7nZ4sIh&#xA;71DX/M1tpimGKk14RtH+yvu/9Ms02kOTc7RY5tQIbDmkXlmyuNW1R9TvWMiQEGrdGk6qB7L1zM1e&#xA;QYocEerjaeBnLiKd+btX+o6eYY2pcXNUWnVU/ab+GYmiwcc7PIORqcvDGupRnl62+raLaR0oTGHb&#xA;5v8AEf15TqZ8WQlswRqAR6OjiqMGAJBINdwaEZSRTaCxnUbz9F+a4p2NLe9jVJz2qDxB/wBjQZsM&#xA;UPEwEdYlw5y4Mt9Cmuv6NHqlkY9luI6tA57N4H2OY2mznHK+nVuzYuMebFfL3mGfSpzYXwP1YMVI&#xA;P2omrv8AR4jNlqdMMg4o8/vcPBnMDwy5Jtf+atJg1iIpEs4RTHLdruVDEGin9oDvmNj0czjO9eTd&#xA;PURE+/zZHBPDcQrNC4kicVV13BGYEomJo83LBBFhLdY8uWGpgu49K57ToN/9kP2svwaqWPzHc1Zc&#xA;EZ+9g2raFf6ZJSdKxE/BMu6H+h9jm5w6iOQbc3W5MMoc0uy9qTrypPf/AKXt7eCZ0iZuUqA/CVUV&#xA;NQdt+mYmsjHgJI3cjTGXEAC9GzQu1diqGv7+3sLV7m4JEaUrQVJJ2AGWY8ZnKgwnMRFlgus+bL6/&#xA;5RQ1t7U7cFPxMP8AKb+Azc4NFGG53LrsuplLYbBIszHGZd5HsNRSV7yvp2TjiVYf3hHQr/qnvms7&#xA;QyQI4f4vuc7SQld9Eb5q8yT2DfU7VCk7ryM7DYKf5PE++U6PSifqly7mzUZzHYc2F28Fxe3aQx1e&#xA;eZqAk1JJ6kn9ebaUhCNnkHXxBka6vTbG0ttL05YVIWKBS0kh2rTdmOc9kmck76l3EIiEa7nn9/eS&#xA;61rancLNIsUK/wAqFqD9dTm7xwGLH7t3Vzl4k3pYCqoA2UCgHgBnPu3Y35IujNa3intOZB/z0H/N&#xA;ubDtCFSHucTSSsH3qfn225WVtcgbxSFD8nFf+NMl2bP1EI1kdgUd5S1T69pao5rPbUjfxK/st922&#xA;U63DwTsci2abJxR8wpa/5VTUrqK4hcQyE8bhiK8lHQgfzDpktNrDjiQd+5jm0/GbDE9f0KbSrkLU&#xA;vbSbwynv4g+4zZabUDIPNws2EwPk7Q9fu9Km+H95bMf3sB6H3XwOOo00cg81w5jA+T0LT9RtNQt1&#xA;ntn5IftD9pT4MPHNHlxSgaLtITEhYV5Io5Y2jkUPGwoyMKgj3ByAJBsMiLYnrXkkHlPphoeptmP/&#xA;ABBj+o5s9Pr+k/m4WXSdYojyZostrHLeXMZjnk/dxowoQoO9QfEj8Mhr84kREcmWlxGO55snzXOY&#xA;7FVG8tIbu1ltphWOVeLePsR8jk8czGQI6MZREhReY6pplzpt21vOOm6P2ZexGdDhzDJGw6jJjMDR&#xA;Try15Va7K3l8pW12McR2Mnuf8n9eYmr1nD6Y8/ucjBp+Lc8mcqqqoVQFVRQAbAAZpiXYsY863+mf&#xA;VhaOomvesdDvHXuT7+GbHQY53xDaP3uHq5xquqUeT73SbO7kkvHKTsOMLsPgUHrv2JzK12Oco1Hk&#xA;0aWcYnfmmvnbWBHbpp8LVaYB5iP5Ow/2WY2gwWeI9G7V5aHCEk8n23r67CSKrCrSt9AoP+GYZma6&#xA;dYz5uPpY3Nn19J6VjcSdOETtX5KTmkxi5Aebs5mgWJeQJKXF5H/MiN/wJI/42zZ9pDaJcHRHcsj1&#xA;+we/0qe2jAMpoYwTT4lIOYGmycEwTycvNDiiQwW6t9Y0CfgJfSe4j3aI1HGvSpHUU7ZuYSx5xyui&#xA;66UZ4j72U+UNbN7am0nctdQDZial07H5joc1uu0/BLiHIuZpc3EKPMJzqFhbX9q9tcLVH6Hup7MP&#xA;cZi4shhKw3zgJCi8z1TTLjTrx7acbjdHHRl7MM6DDlGSNh1OTGYGi7TNUu9OuBPbPQ/tofssPBhj&#xA;lwxyCiuPIYGw9D0XXLTVIOUR4TKP3sJ6r7jxHvmiz6eWM78naYswmNkyyhtdirsVdirsVQ95p9le&#xA;qi3UKyiNgycuxH+fTJwyyh9JpjKAlzVwABQdMgySHzJ5mi09GtrYh75hv3EYPc+/gMzdLpDPc/T9&#xA;7jZ9Rw7DmwCSR5HaSRi7uSWYmpJPc5uwABQdYTab+VtI/SGogyCttb0eWvQ/yr9OYusz8ENuZb9P&#xA;i4peQZxqWiabqIBuoQzgUWVfhcD5j+OafFqJ4/pLscmKMubBXvjo2r3K6VITEp9PlIFetPtb0H7X&#xA;hm5GPxYDj5utM/DkeFmXly/uNT0xp7sKxd2TiB8PEAClDX3zVarGMc6i5+CZnGygPNpGnaZF+j1F&#xA;o0kwDtABGSArbHjTLtF+8meL1bdd2vU+iPp23Q/kO7eQ3sUjFmJSQFjUnqDufoyztGAHCQw0crsI&#xA;zztYevpYuVFZLVuR/wBRtm/GhynQZOGdd7Zq4XG+5hNhezWV3FdQmjxmtOxHcH2IzcZMYnExLroT&#xA;MTYeoWF7De2kV1CapIK07g9wfcHOcyYzCRiXcwmJCwhdc0aHVLMxNRZkqYJf5W8Pke+WafOccr6M&#xA;M2ITFPNrm2ntp3gnUpLGaMpzoITEhY5OplEg0V1lNdQ3Ub2jMtxyAj49STtT3rgyRiYkS5LAkHbm&#xA;9UtvX+rx/WOPr8R6vH7PKm9M5udWa5O6jdb81XIpdirsVdirsVUbtLh7aVLdxHOykRyEVAbsaZKB&#xA;AIvkxkDW3N5bf213bXUkV2rCcEly25Nf2q96+OdJjnGUQY8nTTiQaPNQVWZgqirE0AHUk5MsXpvl&#xA;/Sl03TY4SP3z/HOf8s9vo6Zz2pzeJO+nR3GHHwRpfrmoCw0ye5BpIBxi/wBdtl/rkdPi45gJzT4Y&#xA;kvLySTU7k9TnRumej+UY+GgW3i3Nj9LnNBrTeUu20w9AS7z8x+o2q9jKT9y/25f2aPUfc1azkEn8&#xA;kz+nrYj/AN/RulPcfH/xrmXr43jvuLRpDU2ezwxzwSQyCscqlGHswoc0sZEGw7IixTym7tpLa6lt&#xA;5PtxOUP0Glc6WExIAjq6WUaNJ75O1r6pd/U5mpbXB+EnosnQH/ZdMwtdp+KPEOYcnS5eE0eRZ7ml&#xA;dkkXmfy8NSh9aAAXsQ+HoOa/yk/qzM0mq8M0fpcbUYOMWOah5b8qiwYXd5R7v/daDdUr792yeq1n&#xA;H6Y/Sxwafh3PNkmYDluxV2KuxV2KuxV2KoHVNHsdSh9O5T4h9iVdnX5H+GXYc8sZsNeTEJjdI9H8&#xA;nvZat9YndZbeH4oCNiX7ch245mZ9cJwobE83HxaXhlZ5MqzWuYwnz3qPO5isEPwwj1JR/lsPhH0L&#xA;+vNv2dioGXe6/WTs8LFc2ThPUdBj9PRbJfGFG/4Icv45zmpN5Je93GEVAe5IvP5PoWa9izk/QB/X&#xA;M3s3nJx9byDGdEn9DV7OXoBKoY+zHifwObDUR4sZHk4eI1IF6lnOO5YJ55sPR1CO7UfBcrRv9dNv&#xA;1Uzc9n5Ljw9zrdXCpX3sbFa7dc2DiPTfL899NpcTX0bRzqONX2LAdGI67++c7qYxEzwnZ3GEyMd+&#xA;aZZQ2uxV2KuxV2KuxV2KuxV2KuxV2KuxVgmseVddkvJrlVW59Vy1UYAgE7CjU6ZucGsxCIHKnW5d&#xA;NMknmlTaBrQNDZS/QpP6syfzOP8AnBp8Gfc9KtIzFaQxHYpGqkfIAZz8zciXbRFABiv5gk0sB2/e&#xA;7f8AAZsuzP4vh+lw9b0+LGLOwv7l1+qwPI1dmVTQH3PQZsZ5Ix+ouHGEjyD1WMuUUuOLkDkvge4z&#xA;mzzdyEFrGkQapai3mYoFYOrrSoI27+xy3BmOOVhhlxCYoqem+XdK08h4YuUo/wB3SfE30dh9AyWX&#xA;VTnzOzHHgjHkmeY7c7FXYq7FXYq7FX//2Q==</xapGImg:image>
    </rdf:li>
   </rdf:Alt>
  </xap:Thumbnails>
 </rdf:Description>

 <rdf:Description rdf:about=''
  xmlns:dc='http://purl.org/dc/elements/1.1/'>
  <dc:format>image/svg+xml</dc:format>
 </rdf:Description>

</rdf:RDF>
</x:xmpmeta>
                                                                                                                                                                                                                                                                                                                                                                                                                                                                                                                                                                                                                                                                                                                                                                                                                                                                                                                                                                                                                                                                                                                                                                                                                                                                                                                                                                                                                                                                                                                                                                                                                                                                                                                                                                                                                                                                                                                                                                                                                                                                                                                                <?xpacket end='w'?>
			</metadata>
		<g id="Layer_1">
			<path fill="#8CB5F7" d="M0,47.03c0,25.98,21.06,47.04,47.04,47.04c0.75,0,1.51-0.02,2.26-0.05
				c2.81,23.28,22.65,41.33,46.69,41.33c24.07,0,43.91-18.08,46.7-41.39c1.06,0.07,2.14,0.11,3.22,0.11c0.76,0,1.51-0.02,2.26-0.05
				c2.811,23.28,22.65,41.33,46.689,41.33c24.07,0,43.91-18.08,46.701-41.39c1.069,0.07,2.14,0.11,3.219,0.11
				c25.98,0,47.041-21.06,47.041-47.04C291.82,21.06,270.76,0,244.779,0C220.71,0,200.87,18.07,198.08,41.38
				c-1.061-0.07-2.141-0.11-3.221-0.11c-0.75,0-1.51,0.02-2.26,0.06C189.79,18.04,169.95,0,145.91,0C121.84,0,102,18.07,99.21,41.38
				c-1.06-0.07-2.14-0.11-3.22-0.11c-0.76,0-1.51,0.02-2.26,0.06C90.92,18.04,71.08,0,47.04,0C21.06,0,0,21.06,0,47.03z
				 M60.67,92.06c17.53-5.3,30.74-20.56,33.04-39.19c0.76-0.05,1.52-0.08,2.28-0.08c1.1,0,2.18,0.05,3.25,0.15
				c2.29,18.27,15.06,33.29,32.1,38.83c-1.74,17.99-16.9,32.06-35.35,32.06C77.64,123.83,62.55,109.91,60.67,92.06z M11.52,47.03
				c0-19.61,15.9-35.51,35.52-35.51c18.34,0,33.44,13.91,35.32,31.76c-17.53,5.3-30.74,20.56-33.04,39.2
				c-0.76,0.05-1.52,0.07-2.28,0.07C27.42,82.55,11.52,66.65,11.52,47.03z M81.44,55.9c-2.7,10.53-10.11,19.16-19.85,23.54
				C64.3,68.92,71.7,60.28,81.44,55.9z M159.54,92.06c17.54-5.3,30.739-20.56,33.04-39.19c0.76-0.05,1.52-0.08,2.279-0.08
				c1.101,0,2.181,0.05,3.25,0.15c2.291,18.27,15.061,33.29,32.101,38.83c-1.739,17.99-16.899,32.06-35.351,32.06
				C176.52,123.83,161.42,109.91,159.54,92.06z M110.56,43.57c1.74-17.99,16.9-32.05,35.35-32.05c18.35,0,33.439,13.91,35.32,31.76
				c-17.53,5.3-30.74,20.56-33.041,39.2c-0.76,0.05-1.52,0.07-2.279,0.07c-1.1,0-2.18-0.05-3.25-0.15
				C140.37,64.13,127.6,49.12,110.56,43.57z M180.311,55.9c-2.701,10.53-10.11,19.16-19.84,23.54
				C163.17,68.92,170.58,60.28,180.311,55.9z M130.26,78.92c-9.04-4.44-15.91-12.61-18.62-22.5
				C120.68,60.86,127.55,69.03,130.26,78.92z M209.43,43.57c1.74-17.99,16.9-32.05,35.35-32.05c19.621,0,35.521,15.9,35.521,35.51
				c0,19.62-15.899,35.52-35.521,35.52c-1.09,0-2.18-0.05-3.239-0.15C239.25,64.13,226.471,49.12,209.43,43.57z M229.13,78.92
				c-9.04-4.44-15.909-12.61-18.61-22.5C219.55,60.86,226.42,69.03,229.13,78.92z"/>
			<path fill="#94BDF7" d="M218.859,314.85c0.48-2.16,0-8.64,0-8.64s59.041-2.159,61.44,0l1.921,13.44l4.799,3.84v7.68
				L218.859,314.85z"/>
			<path fill="#94BDF7" d="M286.061,289.891c0,0,0.239-11.761-2.881-18.23H270.7c0,0-1.44-5.52-4.8-10.561l-55.68,23.99l2.879,4.801
				l61.44-9.601c0,0,3.601,5.521,3.84,9.601H286.061z"/>
			<path fill="#94BDF7" d="M263.02,253.42l9.601-6.72c0,0-3.12-8.399-7.681-12.479l-10.56,6.719
				C254.38,240.939,258.939,246.221,263.02,253.42z"/>
			<path fill="#94BDF7" d="M250.54,239.02c0,0-7.44-10.56-12.479-15.359l10.56-9.6c0,0-10.8-13.68-15.36-16.32l-11.52,11.52
				c0,0,7.199,6.72,11.52,11.52l-45.119,46.079c0,0,5.039,4.561,6.719,6.711l-16.31,14.4c0,0,1.681,3.119,1.921,3.84
				c0.239,0.72,23.029-9.601,23.029-9.601s-2.641-5.521-4.8-8.64L250.54,239.02z"/>
			<path fill="#94BDF7" d="M174.391,259.5l40.629-53.12c0,0-4.799-5.76-9.6-8.64l4.801-11.52c0,0-7.201-6.72-24-10.56l-3.841,14.4
				c0,0,8.64,2.4,14.399,5.76l-28.469,62.24C168.311,258.061,171.83,257.9,174.391,259.5z"/>
			<path fill="#94BDF7" d="M154.55,256.301l17.28-66.241c0,0-9.359-3.36-15.359-3.84l0.959-16.32c0,0-13.439-1.2-20.16,0.96
				l0.96,17.28c0,0,7.44-1.2,12.48-0.96l-4.16,71.52C146.55,258.7,150.71,256.78,154.55,256.301z"/>
			<path fill="#94BDF7" d="M110.39,174.7c0,0-10.8,3.6-17.28,6.72l8.64,19.2c0,0,2.88-0.96,4.8-1.92l23.04,65.28l3.84-1.92
				l7.2,21.59c2.4,2.16,2.4-1.68,3.6-1.68l-1.2-21.83c0,0-2.88,0.239-4.8,0.959l-11.52-71.04c0,0-9.12,2.4-10.56,2.88L110.39,174.7z
				"/>
			<path fill="#94BDF7" d="M67.19,196.78l14.4,19.2c0,0,6.96-4.8,8.64-5.76l28.8,58.56c0,0-3.6,3.35-3.84,3.829L74.87,223.66
				c0,0-5.04,4.561-6.72,6.72L48,213.1C48,213.1,58.32,202.06,67.19,196.78z"/>
			<path fill="#94BDF7" d="M31.68,233.26c0,0-9.36,12.961-12.48,21.12l22.08,9.601c0,0,2.88-5.521,3.84-6.721l54.71,23.99
				c0,0,0.48-0.72,0.96-1.92l-38.4-41.27c0,0-7.19,5.52-9.59,9.6L31.68,233.26z"/>
			<path fill="#94BDF7" d="M9.6,281.25c0,0-2.16,13.92-1.92,23.04H38.4l0.96-8.64l56.63,5.76v-2.88l-54.71-24.96
				c0,0-1.92,9.119-1.92,11.52L9.6,281.25z"/>
			<path fill="#94BDF7" d="M9.6,332.13c0,0-0.24,11.761,3.84,21.12L48,340.77c0,0-1.68-3.119-1.92-3.84l57.59-19.199
				c0,0,3.12-3.601-2.88-3.84c-6-0.24-61.43-2.881-61.43-2.881s-1.2,7.68,1.92,14.4L9.6,332.13z"/>
			<path fill="#94BDF7" d="M24,380.13l30.72-19.2c0,0-1.92-2.64-2.88-5.76l53.75-24c3.6-0.48,4.32-0.48,1.92,2.881
				c-1.9,2.659-45.12,33.6-45.12,33.6s2.16,3.84,4.8,6.72l-27.83,25.91C39.36,400.28,27.6,390.93,24,380.13z"/>
			<path fill="#94BDF7" d="M53.76,416.6l29.75-28.789c0,0-6.24-4.801-8.64-8.641l38.4-31.68c0,0,2.4-0.48,1.92,1.92l-24.96,41.279
				c0,0,6.24,3.591,9.6,4.791L77.75,434.84C77.75,434.84,62.87,427.4,53.76,416.6z"/>
			<path fill="#94BDF7" d="M103.67,396.439l24.96-44.149c0,0,2.64-0.96,2.88,0.96l-10.56,47.03c0,0,6.72,2.399,11.52,0.96
				l-4.8,49.92c0,0-17.76,0.48-27.84-4.801l18.24-44.159C118.07,402.2,106.79,400.76,103.67,396.439z"/>
			<path fill="#94BDF7" d="M140.15,397.4l2.88-28.791c0,0,1.2-3.119,2.88,0c1.68,3.121,3.84,27.83,3.84,27.83
				S145.43,399.561,140.15,397.4z"/>
			<path fill="#94BDF7" d="M148.79,453.08l1.92-53.76c0,0,6.479-0.48,10.56-2.881l9.601,52.801
				C170.87,449.24,160.55,454.76,148.79,453.08z"/>
			<path fill="#94BDF7" d="M194.859,445.4l-20.149-54.711c0,0-4.08,1.44-6.72,1.92l-8.641-39.359c0,0-0.24-2.4,2.881,0l17.279,33.6
				c0,0,4.311-1.199,5.75-2.879L217.9,434.84C217.9,434.84,205.18,443.48,194.859,445.4z"/>
			<path fill="#94BDF7" d="M239.98,421.4l-40.32-47.99c0,0-4.32,2.4-5.76,3.84l-26.871-36.48c0,0,0.48-3.84,3.841-1.92l28.79,28.801
				c0,0,5.76-4.801,6.72-7.68l50.88,43.189C257.26,403.16,249.58,418.28,239.98,421.4z"/>
			<path fill="#94BDF7" d="M271.66,381.09L213.1,343.65c0,0,2.4-4.561,2.881-11.521l-25.92-10.56c0,0-2.4-3.6,0.959-3.84
				c3.36-0.24,26.881,2.879,26.881,2.879s0.479,6,0,11.521l63.359,25.921C281.26,358.051,279.82,369.33,271.66,381.09z"/>
			<path fill="#94BDF7" d="M206.38,357.09c0,0,3.841-5.039,5.761-10.56l-24.961-13.44c0,0-5.99-0.48-2.88,3.84L206.38,357.09z"/>
			<path fill="#94BDF7" d="M216.939,307.17c0,0-0.239-9.6-4.799-15.359l-26.881,8.64c0,0-3.84,2.64,0,4.8L216.939,307.17z"/>
			<path fill="#94BDF7" d="M168.95,283.17l17.271-15.35c0,0-2.4-5.52-9.591-6.721l-10.56,19.19
				C166.07,280.29,165.35,284.13,168.95,283.17z"/>
			<path fill="#94BDF7" d="M158.391,278.37l9.6-18.229c0,0-7.2-2.641-10.561-1.92l-2.88,19.189
				C155.27,280.77,158.391,278.37,158.391,278.37z"/>
			<path fill="#94BDF7" d="M125.75,269.74c0,0-4.8,3.35-6.72,7.67l13.44,11.52l1.2-2.16L125.75,269.74z"/>
			<path fill="#94BDF7" d="M115.19,282.21c0,0-3.84,3.12-4.8,7.681l14.4,7.68c0,0,0.96-3.36,1.92-4.801L115.19,282.21z"/>
			<path fill="#94BDF7" d="M107.51,297.57l14.4,5.76c0,0-0.48,3.84,0,5.76h-12.48C109.43,309.09,106.79,305.25,107.51,297.57z"/>
			<path fill="#94BDF7" d="M110.39,314.85l11.52-0.959c0,0,0.24,5.279,0.96,5.76l-7.68,2.88
				C115.19,322.53,111.59,320.13,110.39,314.85z"/>
			<path fill="#94BDF7" d="M119.99,326.37l3.84-2.88c0,0,2.4,3.84,3.84,4.8l-2.88,2.88C124.79,331.17,121.67,329.49,119.99,326.37z"
				/>
			<path fill="#94BDF7" d="M128.63,334.051l1.92-2.881c0,0,3.84,4.32,4.8,4.801C136.31,336.45,131.99,336.93,128.63,334.051z"/>
		</g>
	</svg>
