<?xml version="1.0" encoding="UTF-8" standalone="no"?>
<!-- Created with Inkscape (http://www.inkscape.org/) -->

<svg
   xmlns:dc="http://purl.org/dc/elements/1.1/"
   xmlns:cc="http://creativecommons.org/ns#"
   xmlns:rdf="http://www.w3.org/1999/02/22-rdf-syntax-ns#"
   xmlns:svg="http://www.w3.org/2000/svg"
   xmlns="http://www.w3.org/2000/svg"
   xmlns:sodipodi="http://sodipodi.sourceforge.net/DTD/sodipodi-0.dtd"
   xmlns:inkscape="http://www.inkscape.org/namespaces/inkscape"
   id="svg2816"
   version="1.1"
   inkscape:version="0.47 r22583"
   width="191"
   height="184.14999"
   sodipodi:docname="Montreal 1976 Summer Olympics logo.svg">
  <metadata
     id="metadata2822">
    <rdf:RDF>
      <cc:Work
         rdf:about="">
        <dc:format>image/svg+xml</dc:format>
        <dc:type
           rdf:resource="http://purl.org/dc/dcmitype/StillImage" />
        <dc:title />
      </cc:Work>
    </rdf:RDF>
  </metadata>
  <defs
     id="defs2820">
    <inkscape:perspective
       sodipodi:type="inkscape:persp3d"
       inkscape:vp_x="0 : 0.5 : 1"
       inkscape:vp_y="0 : 1000 : 0"
       inkscape:vp_z="1 : 0.5 : 1"
       inkscape:persp3d-origin="0.5 : 0.33333333 : 1"
       id="perspective2824" />
    <inkscape:perspective
       id="perspective2844"
       inkscape:persp3d-origin="0.5 : 0.33333333 : 1"
       inkscape:vp_z="1 : 0.5 : 1"
       inkscape:vp_y="0 : 1000 : 0"
       inkscape:vp_x="0 : 0.5 : 1"
       sodipodi:type="inkscape:persp3d" />
    <inkscape:perspective
       id="perspective2844-4"
       inkscape:persp3d-origin="0.5 : 0.33333333 : 1"
       inkscape:vp_z="1 : 0.5 : 1"
       inkscape:vp_y="0 : 1000 : 0"
       inkscape:vp_x="0 : 0.5 : 1"
       sodipodi:type="inkscape:persp3d" />
    <inkscape:perspective
       id="perspective2844-48"
       inkscape:persp3d-origin="0.5 : 0.33333333 : 1"
       inkscape:vp_z="1 : 0.5 : 1"
       inkscape:vp_y="0 : 1000 : 0"
       inkscape:vp_x="0 : 0.5 : 1"
       sodipodi:type="inkscape:persp3d" />
    <inkscape:perspective
       id="perspective2844-45"
       inkscape:persp3d-origin="0.5 : 0.33333333 : 1"
       inkscape:vp_z="1 : 0.5 : 1"
       inkscape:vp_y="0 : 1000 : 0"
       inkscape:vp_x="0 : 0.5 : 1"
       sodipodi:type="inkscape:persp3d" />
    <inkscape:perspective
       id="perspective2844-7"
       inkscape:persp3d-origin="0.5 : 0.33333333 : 1"
       inkscape:vp_z="1 : 0.5 : 1"
       inkscape:vp_y="0 : 1000 : 0"
       inkscape:vp_x="0 : 0.5 : 1"
       sodipodi:type="inkscape:persp3d" />
    <inkscape:perspective
       id="perspective2844-2"
       inkscape:persp3d-origin="0.5 : 0.33333333 : 1"
       inkscape:vp_z="1 : 0.5 : 1"
       inkscape:vp_y="0 : 1000 : 0"
       inkscape:vp_x="0 : 0.5 : 1"
       sodipodi:type="inkscape:persp3d" />
    <inkscape:perspective
       id="perspective2924"
       inkscape:persp3d-origin="0.5 : 0.33333333 : 1"
       inkscape:vp_z="1 : 0.5 : 1"
       inkscape:vp_y="0 : 1000 : 0"
       inkscape:vp_x="0 : 0.5 : 1"
       sodipodi:type="inkscape:persp3d" />
    <inkscape:perspective
       id="perspective2924-2"
       inkscape:persp3d-origin="0.5 : 0.33333333 : 1"
       inkscape:vp_z="1 : 0.5 : 1"
       inkscape:vp_y="0 : 1000 : 0"
       inkscape:vp_x="0 : 0.5 : 1"
       sodipodi:type="inkscape:persp3d" />
    <inkscape:perspective
       id="perspective3620"
       inkscape:persp3d-origin="0.5 : 0.33333333 : 1"
       inkscape:vp_z="1 : 0.5 : 1"
       inkscape:vp_y="0 : 1000 : 0"
       inkscape:vp_x="0 : 0.5 : 1"
       sodipodi:type="inkscape:persp3d" />
    <inkscape:perspective
       id="perspective3642"
       inkscape:persp3d-origin="0.5 : 0.33333333 : 1"
       inkscape:vp_z="1 : 0.5 : 1"
       inkscape:vp_y="0 : 1000 : 0"
       inkscape:vp_x="0 : 0.5 : 1"
       sodipodi:type="inkscape:persp3d" />
    <inkscape:perspective
       id="perspective3664"
       inkscape:persp3d-origin="0.5 : 0.33333333 : 1"
       inkscape:vp_z="1 : 0.5 : 1"
       inkscape:vp_y="0 : 1000 : 0"
       inkscape:vp_x="0 : 0.5 : 1"
       sodipodi:type="inkscape:persp3d" />
    <inkscape:perspective
       id="perspective3664-0"
       inkscape:persp3d-origin="0.5 : 0.33333333 : 1"
       inkscape:vp_z="1 : 0.5 : 1"
       inkscape:vp_y="0 : 1000 : 0"
       inkscape:vp_x="0 : 0.5 : 1"
       sodipodi:type="inkscape:persp3d" />
    <inkscape:perspective
       id="perspective3695"
       inkscape:persp3d-origin="0.5 : 0.33333333 : 1"
       inkscape:vp_z="1 : 0.5 : 1"
       inkscape:vp_y="0 : 1000 : 0"
       inkscape:vp_x="0 : 0.5 : 1"
       sodipodi:type="inkscape:persp3d" />
    <inkscape:perspective
       id="perspective3717"
       inkscape:persp3d-origin="0.5 : 0.33333333 : 1"
       inkscape:vp_z="1 : 0.5 : 1"
       inkscape:vp_y="0 : 1000 : 0"
       inkscape:vp_x="0 : 0.5 : 1"
       sodipodi:type="inkscape:persp3d" />
    <inkscape:perspective
       id="perspective3739"
       inkscape:persp3d-origin="0.5 : 0.33333333 : 1"
       inkscape:vp_z="1 : 0.5 : 1"
       inkscape:vp_y="0 : 1000 : 0"
       inkscape:vp_x="0 : 0.5 : 1"
       sodipodi:type="inkscape:persp3d" />
    <inkscape:perspective
       id="perspective3763"
       inkscape:persp3d-origin="0.5 : 0.33333333 : 1"
       inkscape:vp_z="1 : 0.5 : 1"
       inkscape:vp_y="0 : 1000 : 0"
       inkscape:vp_x="0 : 0.5 : 1"
       sodipodi:type="inkscape:persp3d" />
    <inkscape:perspective
       id="perspective3785"
       inkscape:persp3d-origin="0.5 : 0.33333333 : 1"
       inkscape:vp_z="1 : 0.5 : 1"
       inkscape:vp_y="0 : 1000 : 0"
       inkscape:vp_x="0 : 0.5 : 1"
       sodipodi:type="inkscape:persp3d" />
    <inkscape:perspective
       id="perspective3809"
       inkscape:persp3d-origin="0.5 : 0.33333333 : 1"
       inkscape:vp_z="1 : 0.5 : 1"
       inkscape:vp_y="0 : 1000 : 0"
       inkscape:vp_x="0 : 0.5 : 1"
       sodipodi:type="inkscape:persp3d" />
    <inkscape:perspective
       id="perspective3831"
       inkscape:persp3d-origin="0.5 : 0.33333333 : 1"
       inkscape:vp_z="1 : 0.5 : 1"
       inkscape:vp_y="0 : 1000 : 0"
       inkscape:vp_x="0 : 0.5 : 1"
       sodipodi:type="inkscape:persp3d" />
    <inkscape:perspective
       id="perspective3853"
       inkscape:persp3d-origin="0.5 : 0.33333333 : 1"
       inkscape:vp_z="1 : 0.5 : 1"
       inkscape:vp_y="0 : 1000 : 0"
       inkscape:vp_x="0 : 0.5 : 1"
       sodipodi:type="inkscape:persp3d" />
    <inkscape:perspective
       id="perspective3881"
       inkscape:persp3d-origin="0.5 : 0.33333333 : 1"
       inkscape:vp_z="1 : 0.5 : 1"
       inkscape:vp_y="0 : 1000 : 0"
       inkscape:vp_x="0 : 0.5 : 1"
       sodipodi:type="inkscape:persp3d" />
    <inkscape:perspective
       id="perspective3704"
       inkscape:persp3d-origin="0.5 : 0.33333333 : 1"
       inkscape:vp_z="1 : 0.5 : 1"
       inkscape:vp_y="0 : 1000 : 0"
       inkscape:vp_x="0 : 0.5 : 1"
       sodipodi:type="inkscape:persp3d" />
  </defs>
  <sodipodi:namedview
     pagecolor="#ffffff"
     bordercolor="#666666"
     borderopacity="1"
     objecttolerance="10"
     gridtolerance="10"
     guidetolerance="10"
     inkscape:pageopacity="0"
     inkscape:pageshadow="2"
     inkscape:window-width="1440"
     inkscape:window-height="850"
     id="namedview2818"
     showgrid="false"
     borderlayer="true"
     showborder="true"
     inkscape:showpageshadow="true"
     inkscape:zoom="3.2907957"
     inkscape:cx="95.5"
     inkscape:cy="92.074997"
     inkscape:window-x="-8"
     inkscape:window-y="-8"
     inkscape:window-maximized="1"
     inkscape:current-layer="svg2816" />
  <g
     id="g2859"
     transform="translate(3,-2.4976687)">
    <path
       id="path2957"
       d="m 0,166.38771 6.7575988,0 2.6077982,10.80392 2.59646,-10.80392 6.734922,0 0,17.75621 -4.195154,0 0,-13.54123 -3.254078,13.54123 -3.7983148,0 -3.2427404,-13.54123 0,13.54123 -4.2064918,0 z"
       style="font-size:24px;font-style:normal;font-variant:normal;font-weight:900;font-stretch:normal;text-align:start;line-height:100%;writing-mode:lr-tb;text-anchor:start;fill:#000000;fill-opacity:1;stroke:none;font-family:Arial Black;-inkscape-font-specification:Arial Black Heavy" />
    <path
       id="path2954"
       d="m 22.284443,177.45809 c -1e-6,-1.96214 0.619823,-3.57909 1.859474,-4.85086 1.239645,-1.27175 2.913925,-1.90763 5.022845,-1.90764 2.411259,1e-5 4.232937,0.74691 5.465039,2.24072 0.990193,1.20314 1.485296,2.68484 1.485311,4.44511 -1.5e-5,1.97829 -0.61417,3.59929 -1.842467,4.86297 -1.228322,1.26369 -2.927169,1.89553 -5.096544,1.89553 -1.935068,0 -3.499745,-0.52485 -4.694037,-1.57456 -1.466415,-1.30002 -2.199622,-3.00377 -2.199621,-5.11127 z m 4.626007,-0.0121 c -6e-6,1.14661 0.217311,1.99445 0.65195,2.54352 0.434626,0.54908 0.980752,0.82363 1.638377,0.82362 0.66517,1e-5 1.211294,-0.2705 1.638378,-0.8115 0.427064,-0.54101 0.640601,-1.40903 0.640611,-2.60408 -1e-5,-1.11431 -0.215436,-1.94398 -0.646281,-2.48903 -0.430862,-0.54503 -0.963759,-0.81755 -1.598693,-0.81756 -0.672743,1e-5 -1.228317,0.27656 -1.666724,0.82967 -0.438417,0.55313 -0.657624,1.39491 -0.657618,2.52536 z"
       style="font-size:24px;font-style:normal;font-variant:normal;font-weight:900;font-stretch:normal;text-align:start;line-height:100%;writing-mode:lr-tb;text-anchor:start;fill:#000000;fill-opacity:1;stroke:none;font-family:Arial Black;-inkscape-font-specification:Arial Black Heavy" />
    <path
       id="path2951"
       d="m 39.249547,171.28097 4.297199,0 0,2.09537 c 0.642495,-0.8559 1.292553,-1.46756 1.950179,-1.83497 0.657611,-0.36739 1.458846,-0.55108 2.40371,-0.55109 1.277431,10e-6 2.277087,0.40576 2.998968,1.21725 0.721855,0.81152 1.082789,2.06511 1.082803,3.76078 l 0,8.17561 -4.637346,0 0,-7.07341 c -9e-6,-0.80746 -0.139848,-1.37875 -0.419515,-1.71385 -0.279685,-0.33509 -0.672745,-0.50264 -1.179179,-0.50265 -0.55936,1e-5 -1.01289,0.2261 -1.36059,0.67827 -0.347712,0.45219 -0.521566,1.26369 -0.521559,2.43452 l 0,6.17712 -4.61467,0 z"
       style="font-size:24px;font-style:normal;font-variant:normal;font-weight:900;font-stretch:normal;text-align:start;line-height:100%;writing-mode:lr-tb;text-anchor:start;fill:#000000;fill-opacity:1;stroke:none;font-family:Arial Black;-inkscape-font-specification:Arial Black Heavy" />
    <path
       id="path2948"
       d="m 61.586242,166.10296 0,4.89326 2.539768,0 0,3.59727 -2.539768,0 0,4.56623 c -7e-6,0.54908 0.04912,0.91244 0.147397,1.09007 0.151169,0.27455 0.415729,0.41182 0.793678,0.41182 0.340139,0 0.816345,-0.10497 1.42862,-0.31492 l 0.340147,3.40348 c -1.141392,0.26647 -2.207187,0.3997 -3.197387,0.3997 -1.148949,0 -1.995537,-0.15746 -2.539769,-0.47237 -0.54424,-0.31492 -0.946747,-0.79334 -1.207524,-1.43527 -0.260782,-0.64194 -0.391171,-1.68155 -0.391169,-3.11885 l 0,-4.52989 -1.700738,0 0,-3.59727 1.700738,0 0,-2.36185 z"
       style="font-size:24px;font-style:normal;font-variant:normal;font-weight:900;font-stretch:normal;text-align:start;line-height:100%;writing-mode:lr-tb;text-anchor:start;fill:#000000;fill-opacity:1;stroke:none;font-family:Arial Black;-inkscape-font-specification:Arial Black Heavy" />
    <path
       id="path2945"
       d="m 67.581479,171.28097 4.319875,0 0,2.10748 c 0.41573,-0.91242 0.844693,-1.54023 1.286892,-1.88342 0.442184,-0.34316 0.988309,-0.51474 1.638378,-0.51475 0.680285,10e-6 1.424829,0.2261 2.233635,0.67827 l -1.42862,3.51248 c -0.544244,-0.24223 -0.975098,-0.36335 -1.292561,-0.36336 -0.604714,1e-5 -1.073361,0.26647 -1.405943,0.79939 -0.476213,0.75096 -0.714316,2.15595 -0.71431,4.21498 l 0,4.31188 -4.637346,0 z"
       style="font-size:24px;font-style:normal;font-variant:normal;font-weight:900;font-stretch:normal;text-align:start;line-height:100%;writing-mode:lr-tb;text-anchor:start;fill:#000000;fill-opacity:1;stroke:none;font-family:Arial Black;-inkscape-font-specification:Arial Black Heavy" />
    <path
       id="path2942"
       d="m 100.19485,175.16275 -4.410581,-0.49659 c 0.166293,-0.8236 0.406286,-1.4716 0.719979,-1.94398 0.313688,-0.47236 0.765331,-0.88214 1.354925,-1.22937 0.423285,-0.2503 1.005313,-0.4441 1.746084,-0.58137 0.740763,-0.13726 1.542003,-0.2059 2.403713,-0.20591 1.38326,1e-5 2.4944,0.0828 3.33345,0.24829 0.83902,0.16555 1.53821,0.51075 2.09757,1.03559 0.39305,0.36337 0.70296,0.87813 0.92974,1.54428 0.22675,0.66617 0.34014,1.30205 0.34015,1.90764 l 0,5.68053 c -1e-5,0.6056 0.0359,1.08 0.10771,1.42317 0.0718,0.34317 0.22864,0.78122 0.47054,1.31415 l -4.33122,0 c -0.17385,-0.33106 -0.28724,-0.58339 -0.34014,-0.757 -0.0529,-0.17361 -0.10583,-0.44613 -0.15874,-0.81757 -0.60471,0.62176 -1.20564,1.06586 -1.80278,1.33233 -0.81636,0.35529 -1.765,0.53293 -2.845902,0.53293 -1.436184,0 -2.526542,-0.35529 -3.271085,-1.06586 -0.744547,-0.71057 -1.116819,-1.58667 -1.116818,-2.62831 -1e-6,-0.97703 0.268337,-1.78046 0.805016,-2.41029 0.536674,-0.62982 1.526884,-1.09815 2.970624,-1.40499 1.730965,-0.37143 2.853455,-0.63183 3.367465,-0.78122 0.51399,-0.14938 1.05822,-0.34519 1.63271,-0.58744 -1e-5,-0.60559 -0.11718,-1.02951 -0.35149,-1.27176 -0.23434,-0.24224 -0.64629,-0.36335 -1.23587,-0.36336 -0.7559,1e-5 -1.3228,0.12921 -1.70074,0.38759 -0.2948,0.20187 -0.53291,0.58138 -0.71431,1.13852 z m 4.00241,2.59197 c -0.63496,0.24225 -1.29635,0.45623 -1.9842,0.64195 -0.9373,0.26646 -1.53067,0.52889 -1.78011,0.78727 -0.257,0.26647 -0.3855,0.56927 -0.3855,0.9084 0,0.38759 0.12661,0.70452 0.37983,0.95079 0.25322,0.24629 0.62549,0.36943 1.11682,0.36942 0.51399,1e-5 0.99209,-0.13323 1.43429,-0.39969 0.44218,-0.26646 0.75587,-0.59147 0.94108,-0.97502 0.18517,-0.38354 0.27778,-0.88215 0.27779,-1.49584 z"
       style="font-size:24px;font-style:normal;font-variant:normal;font-weight:900;font-stretch:normal;text-align:start;line-height:100%;writing-mode:lr-tb;text-anchor:start;fill:#000000;fill-opacity:1;stroke:none;font-family:Arial Black;-inkscape-font-specification:Arial Black Heavy" />
    <path
       id="path2939"
       d="m 92.702959,178.65101 -9.252014,0 c 0.08314,0.79133 0.28345,1.38078 0.600926,1.76836 0.445965,0.55715 1.027995,0.83573 1.746092,0.83573 0.453521,0 0.884374,-0.12112 1.29256,-0.36336 0.249433,-0.15342 0.517772,-0.42392 0.805017,-0.81151 l 4.546639,0.44815 c -0.695427,1.29195 -1.534457,2.21851 -2.517092,2.7797 -0.98266,0.5612 -2.392381,0.84179 -4.229169,0.84179 -1.59492,0 -2.849685,-0.24022 -3.7643,-0.72066 -0.914622,-0.48045 -1.672394,-1.24351 -2.273319,-2.28918 -0.600929,-1.04566 -0.901392,-2.27503 -0.901391,-3.68811 -10e-7,-2.01058 0.602815,-3.63763 1.808451,-4.88114 1.205631,-1.24349 2.870462,-1.86524 4.9945,-1.86525 1.723405,1e-5 3.083995,0.27859 4.081771,0.83573 0.997754,0.55717 1.757416,1.36464 2.278989,2.4224 0.521545,1.0578 0.782325,2.43453 0.78234,4.1302 z m -4.694037,-2.36184 c -0.09072,-0.9528 -0.330709,-1.63511 -0.719979,-2.04694 -0.389289,-0.41179 -0.9014,-0.61769 -1.536333,-0.6177 -0.733214,1e-5 -1.319023,0.31088 -1.757429,0.93262 -0.279683,0.38759 -0.457315,0.96493 -0.532899,1.73202 z m -2.415048,-10.489 3.968389,0 -3.662256,3.62149 -2.21096,0 z"
       style="font-size:24px;font-style:normal;font-variant:normal;font-weight:900;font-stretch:normal;text-align:start;line-height:100%;writing-mode:lr-tb;text-anchor:start;fill:#000000;fill-opacity:1;stroke:none;font-family:Arial Black;-inkscape-font-specification:Arial Black Heavy" />
    <path
       id="path2923"
       d="m 112.52263,166.38771 4.626,0 0,17.75621 -4.626,0 z"
       style="font-size:24px;font-style:normal;font-variant:normal;font-weight:900;font-stretch:normal;text-align:start;line-height:100%;writing-mode:lr-tb;text-anchor:start;fill:#000000;fill-opacity:1;stroke:none;font-family:Arial Black;-inkscape-font-specification:Arial Black Heavy" />
    <path
       d="m 135.21373,165.7883 0,18.05902 -4.67136,0 0,-11.83344 c -0.75589,0.61369 -1.4872,1.11028 -2.19396,1.48977 -0.70675,0.37953 -1.59302,0.74288 -2.65881,1.09009 l 0,-4.04541 c 1.57223,-0.54099 2.79298,-1.191 3.66225,-1.95004 0.86926,-0.759 1.54956,-1.69567 2.04089,-2.80999 z"
       style="font-size:24px;font-style:normal;font-variant:normal;font-weight:900;font-stretch:normal;text-align:start;line-height:100%;writing-mode:lr-tb;text-anchor:start;fill:#000000;fill-opacity:1;stroke:none;font-family:Arial Black;-inkscape-font-specification:Arial Black Heavy"
       id="path2926" />
    <path
       d="m 140.46334,179.86247 4.59199,-0.61772 c 0.12094,0.68636 0.32502,1.17084 0.61227,1.45344 0.28723,0.28262 0.63871,0.42393 1.05446,0.42393 0.74076,0 1.319,-0.3997 1.73475,-1.1991 0.30235,-0.58944 0.52911,-1.83698 0.68029,-3.7426 -0.5518,0.6056 -1.11871,1.04971 -1.70073,1.33231 -0.58204,0.28262 -1.25477,0.42393 -2.01821,0.42393 -1.48909,0 -2.74575,-0.56522 -3.76997,-1.69569 -1.02423,-1.13044 -1.53633,-2.55966 -1.53633,-4.28765 0,-1.17889 0.26078,-2.25282 0.78233,-3.22179 0.52156,-0.96895 1.23965,-1.70173 2.15427,-2.19834 0.91462,-0.49657 2.06356,-0.74487 3.44683,-0.74489 1.66293,2e-5 2.99707,0.30484 4.0024,0.91447 1.00532,0.60965 1.80844,1.57861 2.40939,2.90688 0.60091,1.3283 0.90137,3.08252 0.90139,5.26266 -2e-5,3.20566 -0.63118,5.55337 -1.89349,7.04315 -1.26234,1.48977 -3.0122,2.23466 -5.24961,2.23466 -1.32281,0 -2.36592,-0.16351 -3.12936,-0.49053 -0.76345,-0.32703 -1.39839,-0.80545 -1.90483,-1.43528 -0.50644,-0.62982 -0.89572,-1.41711 -1.16784,-2.36184 z m 8.50369,-7.92126 c -1e-5,-0.96088 -0.22677,-1.71383 -0.68029,-2.25889 -0.45354,-0.54503 -1.00533,-0.81755 -1.65539,-0.81757 -0.61227,2e-5 -1.1206,0.2463 -1.52499,0.73884 -0.40441,0.49257 -0.6066,1.2314 -0.6066,2.2165 0,0.9932 0.20976,1.75221 0.62927,2.27705 0.41951,0.52487 0.94296,0.7873 1.57035,0.78729 0.65005,1e-5 1.19051,-0.25434 1.62137,-0.76306 0.43085,-0.5087 0.64627,-1.23541 0.64628,-2.18016 z"
       style="font-size:24px;font-style:normal;font-variant:normal;font-weight:900;font-stretch:normal;text-align:start;line-height:100%;writing-mode:lr-tb;text-anchor:start;fill:#000000;fill-opacity:1;stroke:none;font-family:Arial Black;-inkscape-font-specification:Arial Black Heavy"
       id="path2928" />
    <path
       d="m 155.84935,166.09111 13.48119,0 0,3.3308 c -1.17164,1.13047 -2.1505,2.35378 -2.93661,3.66994 -0.95243,1.59879 -1.70453,3.37926 -2.25632,5.3414 -0.43842,1.52611 -0.73321,3.3308 -0.88438,5.41407 l -4.60333,0 c 0.36282,-2.89881 0.93351,-5.32928 1.71208,-7.29143 0.77855,-1.96214 2.01064,-4.06156 3.69627,-6.29825 l -8.2089,0 z"
       style="font-size:24px;font-style:normal;font-variant:normal;font-weight:900;font-stretch:normal;text-align:start;line-height:100%;writing-mode:lr-tb;text-anchor:start;fill:#000000;fill-opacity:1;stroke:none;font-family:Arial Black;-inkscape-font-specification:Arial Black Heavy"
       id="path2930" />
    <path
       d="m 184.64852,170.08807 -4.592,0.6056 c -0.12095,-0.68633 -0.32315,-1.17081 -0.6066,-1.45345 -0.28346,-0.28259 -0.63306,-0.4239 -1.04878,-0.42391 -0.74834,1e-5 -1.33037,0.40375 -1.74609,1.2112 -0.30237,0.58139 -0.52535,1.82489 -0.66896,3.7305 0.55179,-0.59752 1.1187,-1.0396 1.70074,-1.32626 0.58202,-0.28665 1.25475,-0.42997 2.0182,-0.42998 1.48152,1e-5 2.7344,0.56524 3.75864,1.69568 1.02421,1.13046 1.53631,2.56372 1.53633,4.29977 -2e-5,1.17083 -0.2589,2.24072 -0.77668,3.20968 -0.51779,0.96896 -1.23587,1.70173 -2.15426,2.19833 -0.91841,0.49659 -2.06924,0.74489 -3.4525,0.74489 -1.66294,0 -2.99708,-0.3028 -4.0024,-0.9084 -1.00533,-0.6056 -1.80845,-1.57254 -2.40938,-2.90083 -0.60093,-1.32828 -0.90139,-3.08653 -0.90139,-5.27478 0,-3.20564 0.63116,-5.55335 1.89349,-7.04314 1.26232,-1.48976 3.01219,-2.23465 5.24961,-2.23467 1.32279,2e-5 2.3678,0.16353 3.13503,0.49054 0.7672,0.32704 1.40403,0.80546 1.9105,1.43527 0.50642,0.62984 0.89192,1.42117 1.1565,2.37396 z m -8.50369,7.90915 c -1e-5,0.96088 0.22675,1.71385 0.68029,2.25889 0.45352,0.54504 1.00909,0.81757 1.66673,0.81756 0.60469,1e-5 1.11113,-0.24627 1.51932,-0.73883 0.40816,-0.49256 0.61225,-1.22735 0.61226,-2.20439 -1e-5,-1.00126 -0.21165,-1.76431 -0.63494,-2.28918 -0.4233,-0.52484 -0.94864,-0.78727 -1.57601,-0.78728 -0.64252,1e-5 -1.18109,0.25437 -1.61571,0.76307 -0.43463,0.50871 -0.65195,1.23542 -0.65194,2.18016 z"
       style="font-size:24px;font-style:normal;font-variant:normal;font-weight:900;font-stretch:normal;text-align:start;line-height:100%;writing-mode:lr-tb;text-anchor:start;fill:#000000;fill-opacity:1;stroke:none;font-family:Arial Black;-inkscape-font-specification:Arial Black Heavy"
       id="path2932" />
    <path
       transform="matrix(0.5919262,0,0,0.5919262,57.74805,17.12287)"
       d="m 97.655415,125.20059 c 0,19.93754 -16.162568,36.10011 -36.100106,36.10011 -19.937537,0 -36.100105,-16.16257 -36.100105,-36.10011 0,-19.93754 16.162568,-36.100103 36.100105,-36.100103 19.937538,0 36.100106,16.162563 36.100106,36.100103 z"
       sodipodi:ry="36.100105"
       sodipodi:rx="36.100105"
       sodipodi:cy="125.20059"
       sodipodi:cx="61.555309"
       id="path2838-1"
       style="color:#000000;fill:none;stroke:#d2232a;stroke-width:10.13639832;stroke-linecap:round;stroke-linejoin:round;stroke-miterlimit:4;stroke-opacity:1;stroke-dasharray:none;stroke-dashoffset:0;marker:none;visibility:visible;display:inline;overflow:visible;enable-background:accumulate"
       sodipodi:type="arc" />
    <path
       transform="matrix(0.5919262,0,0,0.5919262,36.458245,38.759791)"
       d="m 97.655415,125.20059 c 0,19.93754 -16.162568,36.10011 -36.100106,36.10011 -19.937537,0 -36.100105,-16.16257 -36.100105,-36.10011 0,-19.93754 16.162568,-36.100103 36.100105,-36.100103 19.937538,0 36.100106,16.162563 36.100106,36.100103 z"
       sodipodi:ry="36.100105"
       sodipodi:rx="36.100105"
       sodipodi:cy="125.20059"
       sodipodi:cx="61.555309"
       id="path2838-4"
       style="color:#000000;fill:none;stroke:#d2232a;stroke-width:10.13639832;stroke-linecap:round;stroke-linejoin:round;stroke-miterlimit:4;stroke-opacity:1;stroke-dasharray:none;stroke-dashoffset:0;marker:none;visibility:visible;display:inline;overflow:visible;enable-background:accumulate"
       sodipodi:type="arc" />
    <path
       transform="matrix(0.5919262,0,0,0.5919262,79.037855,38.759791)"
       d="m 97.655415,125.20059 c 0,19.93754 -16.162568,36.10011 -36.100106,36.10011 -19.937537,0 -36.100105,-16.16257 -36.100105,-36.10011 0,-19.93754 16.162568,-36.100103 36.100105,-36.100103 19.937538,0 36.100106,16.162563 36.100106,36.100103 z"
       sodipodi:ry="36.100105"
       sodipodi:rx="36.100105"
       sodipodi:cy="125.20059"
       sodipodi:cx="61.555309"
       id="path2838-9"
       style="color:#000000;fill:none;stroke:#d2232a;stroke-width:10.13639832;stroke-linecap:round;stroke-linejoin:round;stroke-miterlimit:4;stroke-opacity:1;stroke-dasharray:none;stroke-dashoffset:0;marker:none;visibility:visible;display:inline;overflow:visible;enable-background:accumulate"
       sodipodi:type="arc" />
    <path
       sodipodi:open="true"
       sodipodi:end="3.1415927"
       sodipodi:start="0"
       transform="matrix(0.5919262,0,0,-0.5919262,57.74805,103.47332)"
       d="m 97.655415,125.20059 c 0,19.93754 -16.162568,36.10011 -36.100106,36.10011 -19.937537,0 -36.100105,-16.16257 -36.100105,-36.10011 0,0 0,0 0,0"
       sodipodi:ry="36.100105"
       sodipodi:rx="36.100105"
       sodipodi:cy="125.20059"
       sodipodi:cx="61.555309"
       id="path2838-48-8"
       style="color:#000000;fill:none;stroke:#d2232a;stroke-width:10.13639832;stroke-linecap:butt;stroke-linejoin:round;stroke-miterlimit:4;stroke-opacity:1;stroke-dasharray:none;stroke-dashoffset:0;marker:none;visibility:visible;display:inline;overflow:visible;enable-background:accumulate"
       sodipodi:type="arc" />
    <path
       sodipodi:open="true"
       sodipodi:end="3.1677229"
       sodipodi:start="0"
       transform="matrix(0.5919262,0,0,-0.5919262,15.052735,126.94333)"
       d="m 97.655415,125.20059 c 0,19.93754 -16.162568,36.10011 -36.100106,36.10011 -19.937537,0 -36.100105,-16.16257 -36.100105,-36.10011 0,-0.31444 0.0041,-0.62886 0.01232,-0.9432"
       sodipodi:ry="36.100105"
       sodipodi:rx="36.100105"
       sodipodi:cy="125.20059"
       sodipodi:cx="61.555309"
       id="path2838-48"
       style="color:#000000;fill:none;stroke:#d2232a;stroke-width:10.13639832;stroke-linecap:butt;stroke-linejoin:round;stroke-miterlimit:4;stroke-opacity:1;stroke-dasharray:none;stroke-dashoffset:0;marker:none;visibility:visible;display:inline;overflow:visible;enable-background:accumulate"
       sodipodi:type="arc" />
    <path
       sodipodi:open="true"
       sodipodi:end="3.1415927"
       sodipodi:start="0"
       transform="matrix(0.5919262,0,0,-0.5919262,100.55908,126.94333)"
       d="m 97.655415,125.20059 c 0,19.93754 -16.162568,36.10011 -36.100106,36.10011 -19.937537,0 -36.100105,-16.16257 -36.100105,-36.10011 0,0 0,0 0,0"
       sodipodi:ry="36.100105"
       sodipodi:rx="36.100105"
       sodipodi:cy="125.20059"
       sodipodi:cx="61.555309"
       id="path2838-1-7-2"
       style="color:#000000;fill:none;stroke:#d2232a;stroke-width:10.13639832;stroke-linecap:butt;stroke-linejoin:round;stroke-miterlimit:4;stroke-opacity:1;stroke-dasharray:none;stroke-dashoffset:0;marker:none;visibility:visible;display:inline;overflow:visible;enable-background:accumulate"
       sodipodi:type="arc" />
    <path
       transform="matrix(0.5919262,0,0,0.5919262,15.052735,17.12287)"
       d="m 97.655415,125.20059 c 0,19.93754 -16.162568,36.10011 -36.100106,36.10011 -19.937537,0 -36.100105,-16.16257 -36.100105,-36.10011 0,-19.93754 16.162568,-36.100103 36.100105,-36.100103 19.937538,0 36.100106,16.162563 36.100106,36.100103 z"
       sodipodi:ry="36.100105"
       sodipodi:rx="36.100105"
       sodipodi:cy="125.20059"
       sodipodi:cx="61.555309"
       id="path2838"
       style="color:#000000;fill:none;stroke:#d2232a;stroke-width:10.13639832;stroke-linecap:round;stroke-linejoin:round;stroke-miterlimit:4;stroke-opacity:1;stroke-dasharray:none;stroke-dashoffset:0;marker:none;visibility:visible;display:inline;overflow:visible;enable-background:accumulate"
       sodipodi:type="arc" />
    <path
       transform="matrix(0.5919262,0,0,0.5919262,100.55908,17.12287)"
       d="m 97.655415,125.20059 c 0,19.93754 -16.162568,36.10011 -36.100106,36.10011 -19.937537,0 -36.100105,-16.16257 -36.100105,-36.10011 0,-19.93754 16.162568,-36.100103 36.100105,-36.100103 19.937538,0 36.100106,16.162563 36.100106,36.100103 z"
       sodipodi:ry="36.100105"
       sodipodi:rx="36.100105"
       sodipodi:cy="125.20059"
       sodipodi:cx="61.555309"
       id="path2838-1-7"
       style="color:#000000;fill:none;stroke:#d2232a;stroke-width:10.13639832;stroke-linecap:round;stroke-linejoin:round;stroke-miterlimit:4;stroke-opacity:1;stroke-dasharray:none;stroke-dashoffset:0;marker:none;visibility:visible;display:inline;overflow:visible;enable-background:accumulate"
       sodipodi:type="arc" />
    <path
       id="path3799"
       d="m 30.120338,52.008225 0,38.414216"
       style="fill:none;stroke:#d2232a;stroke-width:6;stroke-linecap:butt;stroke-linejoin:miter;stroke-miterlimit:4;stroke-opacity:1;stroke-dasharray:none" />
    <path
       id="path3799-5"
       d="m 72.857535,27.106448 0,61.431373"
       style="fill:none;stroke:#d2232a;stroke-width:6;stroke-linecap:butt;stroke-linejoin:miter;stroke-miterlimit:4;stroke-opacity:1;stroke-dasharray:none" />
    <path
       id="path3799-5-1"
       d="m 115.55285,27.513504 0,61.431367"
       style="fill:none;stroke:#d2232a;stroke-width:6;stroke-linecap:butt;stroke-linejoin:miter;stroke-miterlimit:4;stroke-opacity:1;stroke-dasharray:none" />
    <path
       id="path3799-7"
       d="m 158.36,52.183847 0,37.679409"
       style="fill:none;stroke:#d2232a;stroke-width:6;stroke-linecap:butt;stroke-linejoin:miter;stroke-miterlimit:4;stroke-opacity:1;stroke-dasharray:none" />
    <path
       transform="matrix(0.92996845,0,0,0.9098615,-128.52406,-94.534364)"
       d="m 306.33392,248.33669 c 0,1.98317 -1.57299,3.59086 -3.51336,3.59086 -1.94038,0 -3.51336,-1.60769 -3.51336,-3.59086 0,-1.98318 1.57298,-3.59086 3.51336,-3.59086 1.94037,0 3.51336,1.60768 3.51336,3.59086 z"
       sodipodi:ry="3.5908599"
       sodipodi:rx="3.5133593"
       sodipodi:cy="248.33669"
       sodipodi:cx="302.82056"
       id="path3867"
       style="color:#000000;fill:none;stroke:#d2232a;stroke-width:1.08712196;stroke-linecap:round;stroke-linejoin:round;stroke-miterlimit:4;stroke-opacity:1;stroke-dasharray:none;stroke-dashoffset:0;marker:none;visibility:visible;display:inline;overflow:visible;enable-background:accumulate"
       sodipodi:type="arc" />
    <path
       sodipodi:open="true"
       sodipodi:end="5.8565974"
       sodipodi:start="0.50116249"
       transform="matrix(0.5039081,0,0,0.49301303,0.495774,8.9844046)"
       d="m 305.90186,250.0619 c -0.93224,1.73929 -3.06752,2.37687 -4.76928,1.42406 -1.70176,-0.95281 -2.32557,-3.13519 -1.39333,-4.87449 0.93225,-1.73929 3.06753,-2.37687 4.76928,-1.42406 0.66623,0.37302 1.19622,0.95668 1.51053,1.6635"
       sodipodi:ry="3.5908599"
       sodipodi:rx="3.5133593"
       sodipodi:cy="248.33669"
       sodipodi:cx="302.82056"
       id="path3867-1"
       style="color:#000000;fill:none;stroke:#d2232a;stroke-width:2.00629663;stroke-linecap:butt;stroke-linejoin:round;stroke-miterlimit:4;stroke-opacity:1;stroke-dasharray:none;stroke-dashoffset:0;marker:none;visibility:visible;display:inline;overflow:visible;enable-background:accumulate"
       sodipodi:type="arc" />
  </g>
</svg>
