<?xml version="1.0" encoding="UTF-8" standalone="no"?>
<!-- Created with Inkscape (http://www.inkscape.org/) -->

<svg
   xmlns:svg="http://www.w3.org/2000/svg"
   xmlns="http://www.w3.org/2000/svg"
   version="1.1"
   width="266"
   height="376.6062"
   id="svg4078">
  <defs
     id="defs4080" />
  <g
     transform="translate(-242,-340.75599)"
     id="layer1">
    <g
       transform="translate(0,6.9935919)"
       id="g5646">
      <g
         transform="matrix(1.1930992,0,0,1.1930992,-591.37564,-68.21013)"
         id="g5049">
        <path
           d="m 725.67801,368.30335 c 0,-0.80022 0,-1.60044 0,-2.42067 l -23.9066,0 c 0,0.80023 0.08,1.60045 0.08,2.42067 l 23.8666,0"
           id="path3206"
           style="fill:#005b9a;fill-opacity:1;fill-rule:nonzero;stroke:none" />
        <path
           d="m 725.75801,376.38559 c 0,-1.01028 0,-2.03056 0,-3.08085 l -23.797,0 c 0,1.03028 0.08,2.04056 0.08,3.08085 l 23.7665,0"
           id="path3208"
           style="fill:#005b9a;fill-opacity:1;fill-rule:nonzero;stroke:none" />
        <path
           d="m 701.48091,352.569 24.1571,0 c 0,-0.65058 0,-1.30036 0,-1.96054 l -24.2067,0 c 0,0.62017 0,1.28035 0.08,1.96054"
           id="path3210"
           style="fill:#005b9a;fill-opacity:1;fill-rule:nonzero;stroke:none" />
        <path
           d="m 725.89811,384.30778 c 0,-1.36037 -0.08,-2.80077 -0.088,-4.26118 l -23.7361,0 c 0,1.41039 0.08,2.84079 0.112,4.26118 l 23.717,0"
           id="path3212"
           style="fill:#005b9a;fill-opacity:1;fill-rule:nonzero;stroke:none" />
        <path
           d="m 725.63801,360.8813 c 0,-0.65058 0,-1.29036 0,-1.95054 l -24.0267,0 c 0,0.63057 0,1.29036 0,1.95054 l 23.9971,0"
           id="path3214"
           style="fill:#005b9a;fill-opacity:1;fill-rule:nonzero;stroke:none" />
        <path
           d="m 845.08061,342.77629 c -51.2942,0 -59.7061,43.7221 -59.7061,51.71431 0,7.97221 4.2108,39.09082 32.7891,39.09082 18.5051,0 16.3941,-14.71407 16.3941,-14.71407 0,0 -0.8298,-9.67268 -8.8224,-6.73187 0,0 -16.8247,-0.84023 -16.8247,-15.5443 0,-14.72407 14.304,-30.69849 36.17,-30.69849 21.8565,0 49.6042,22.27616 49.6042,53.39477 0,38.10055 -24.5868,74.02049 -76.1715,74.02049 -54.2246,0 -86.524,-46.69293 -90.7251,-75.28084 0,0 -0.08,-0.26967 -0.1281,-0.85023 l -24.3867,0 c 0.08,0.60977 0.08,1.06029 0.128,1.27035 1.911,9.42261 8.4024,51.13415 50.0243,78.61175 15.1842,10.03278 37.0902,20.69573 62.6373,20.18559 83.243,-1.68047 102.578,-68.10885 102.578,-96.68676 0,-28.59791 -22.2758,-77.78152 -73.5604,-77.78152"
           id="path3216"
           style="fill:#005b9a;fill-opacity:1;fill-rule:nonzero;stroke:none" />
        <path
           d="m 725.67801,344.2567 c 0,-0.23046 0,-0.44012 0,-0.66018 l -24.3772,0.016 c 0,0 0,0.23047 0,0.64018 l 24.3668,0"
           id="path3218"
           style="fill:#005b9a;fill-opacity:1;fill-rule:nonzero;stroke:none" />
        <path
           d="m 727.51851,416.09658 c -0.136,-1.25035 -0.3441,-3.17088 -0.5361,-6.00166 l -24.0571,0 c 0.088,2.50069 0.1921,4.53125 0.2721,6.00166 l 24.3267,0"
           id="path3220"
           style="fill:#005b9a;fill-opacity:1;fill-rule:nonzero;stroke:none" />
        <path
           d="m 726.09811,392.05993 c 0,-1.31036 -0.08,-2.67074 -0.12,-4.08113 l -23.7066,0 c 0,1.37038 0.08,2.73075 0.104,4.08113 l 23.7266,0"
           id="path3222"
           style="fill:#005b9a;fill-opacity:1;fill-rule:nonzero;stroke:none" />
        <path
           d="m 726.41821,400.31221 c -0.08,-1.66046 -0.16,-3.47096 -0.2321,-5.4415 l -23.7361,0 c 0.08,1.88052 0.104,3.69102 0.16,5.4415 l 23.8066,0"
           id="path3224"
           style="fill:#005b9a;fill-opacity:1;fill-rule:nonzero;stroke:none" />
        <path
           d="m 726.84791,408.35444 c -0.112,-1.65046 -0.208,-3.55099 -0.3281,-5.72159 l -23.8466,0 c 0.08,2.06057 0.1281,3.9711 0.1921,5.72159 l 23.9866,0"
           id="path3226"
           style="fill:#005b9a;fill-opacity:1;fill-rule:nonzero;stroke:none" />
        <path
           d="m 780.60281,376.60565 c 0,-0.69059 0,-1.42039 0,-2.1806 l -23.1064,0 c 0,0.7306 0,1.4504 0,2.1806 l 23.1064,0"
           id="path3228"
           style="fill:#fcb22f;fill-opacity:1;fill-rule:nonzero;stroke:none" />
        <path
           d="m 833.72791,407.94432 c 0,0 6.3017,3.35093 6.3017,12.19338 0,8.81244 -8.4023,16.80465 -20.1759,16.80465 -4.7414,0 -10.5126,-0.98027 -16.0645,-3.41095 l -33.899,0 c 3.7507,5.98166 8.3623,11.32314 13.8038,14.76409 15.9741,10.09279 24.3868,12.19337 33.2188,12.19337 8.8225,0 41.1914,-5.04139 45.3926,-35.72988 4.2116,-30.6985 -29.008,-34.05943 -28.5775,-16.81466"
           id="path3230"
           style="fill:#fcb22f;fill-opacity:1;fill-rule:nonzero;stroke:none" />
        <path
           d="m 780.72281,384.52784 c 0.08,-1.76048 0.1601,-2.66073 0,-2.66073 l 0,-0.016 -23.216,0 c 0,0.89025 0,1.7905 0,2.68074 l 23.176,0"
           id="path3232"
           style="fill:#fcb22f;fill-opacity:1;fill-rule:nonzero;stroke:none" />
        <path
           d="m 780.75321,389.08911 -23.1368,0 c 0,1.21033 0,2.40066 0.08,3.53097 l 23.2968,0 c -0.12,-1.29035 -0.2001,-2.47068 -0.2401,-3.53097"
           id="path3234"
           style="fill:#fcb22f;fill-opacity:1;fill-rule:nonzero;stroke:none" />
        <path
           d="m 792.13641,425.26912 -26.7378,0 c 1.1403,2.43067 2.4207,4.84134 3.8314,7.17198 l 32.2986,0 c -3.381,-1.76049 -6.5914,-4.11114 -9.3922,-7.17198"
           id="path3236"
           style="fill:#fcb22f;fill-opacity:1;fill-rule:nonzero;stroke:none" />
        <path
           d="m 757.50681,368.68346 23.176,0 c 0,-0.39051 0,-0.78022 0,-1.17032 l -23.196,0 c 0,0.3801 0,0.76981 0,1.17032"
           id="path3238"
           style="fill:#fcb22f;fill-opacity:1;fill-rule:nonzero;stroke:none" />
        <path
           d="m 791.18571,424.18882 c -1.5004,-1.8005 -2.8704,-3.80105 -4.0307,-6.08168 l -24.7772,0 c 0.7442,2.00055 1.5804,4.05112 2.5206,6.08168 l 26.2873,0"
           id="path3240"
           style="fill:#fcb22f;fill-opacity:1;fill-rule:nonzero;stroke:none" />
        <path
           d="m 780.82291,360.76127 c 0,-1.21034 0.08,-1.96055 0.08,-1.96055 l -23.3065,-0.048 c 0,0 0,0.7306 0,2.01056 l 23.2769,0"
           id="path3242"
           style="fill:#fcb22f;fill-opacity:1;fill-rule:nonzero;stroke:none" />
        <path
           d="m 786.37481,416.35665 c -0.6962,-1.59044 -1.3404,-3.2509 -1.8309,-5.0614 -0.08,-0.21046 -0.112,-0.3801 -0.1601,-0.59056 l -24.4067,0 c 0.4881,1.8105 1.0803,3.70102 1.7709,5.65156 l 24.6268,0"
           id="path3244"
           style="fill:#fcb22f;fill-opacity:1;fill-rule:nonzero;stroke:none" />
        <path
           d="m 783.74371,408.24441 c -0.3921,-1.50042 -0.7122,-2.95082 -1.0099,-4.3112 l -24.2867,0 c 0.224,1.32037 0.5121,2.77077 0.8802,4.3112 l 24.4164,0"
           id="path3246"
           style="fill:#fcb22f;fill-opacity:1;fill-rule:nonzero;stroke:none" />
        <path
           d="m 782.04321,400.37223 c -0.2641,-1.48041 -0.4801,-2.8908 -0.6482,-4.20116 l -23.5865,0 c 0.08,1.57043 0.128,3.00083 0.216,4.20116 l 24.0163,0"
           id="path3248"
           style="fill:#fcb22f;fill-opacity:1;fill-rule:nonzero;stroke:none" />
        <path
           d="m 753.57531,402.63285 -23.7161,0 c 0,1.67047 0,2.95082 0,3.62101 0,0.50013 0.08,1.21033 0.12,2.10058 l 24.6564,0 c -0.4001,-1.85052 -0.7682,-3.76104 -1.0803,-5.72159"
           id="path3250"
           style="fill:#ee334e;fill-opacity:1;fill-rule:nonzero;stroke:none" />
        <path
           d="m 752.58541,384.30778 c 0,-1.38038 0,-2.82078 0,-4.26118 l -23.0663,0 c 0,1.4204 0.08,2.85079 0.08,4.26118 l 22.9967,0"
           id="path3252"
           style="fill:#ee334e;fill-opacity:1;fill-rule:nonzero;stroke:none" />
        <path
           d="m 752.61501,392.05993 c 0,-0.59057 0,-1.18033 0,-1.7905 0,-0.7306 0,-1.51042 0,-2.29063 l -22.9367,0 c 0,1.39038 0.08,2.76076 0.08,4.08113 l 22.9064,0"
           id="path3254"
           style="fill:#ee334e;fill-opacity:1;fill-rule:nonzero;stroke:none" />
        <path
           d="m 752.56541,368.30335 c 0,-0.82022 0,-1.63045 0,-2.42067 l -23.2768,0 c 0,0.78982 0,1.59044 0.08,2.42067 l 23.2368,0"
           id="path3256"
           style="fill:#ee334e;fill-opacity:1;fill-rule:nonzero;stroke:none" />
        <path
           d="m 729.20861,360.8813 23.3464,0 c 0,-0.68019 0,-1.33037 0,-1.95054 l -23.3864,0 c 0,0.62017 0,1.27035 0,1.95054"
           id="path3258"
           style="fill:#ee334e;fill-opacity:1;fill-rule:nonzero;stroke:none" />
        <path
           d="m 752.57501,376.38559 c 0,-1.03028 0,-2.05057 0,-3.08085 l -23.156,0 c 0,1.03028 0,2.04056 0.08,3.08085 l 23.1159,0"
           id="path3260"
           style="fill:#ee334e;fill-opacity:1;fill-rule:nonzero;stroke:none" />
        <path
           d="m 752.54541,352.569 c 0,-0.95026 0,-1.50042 0,-1.50042 l -23.4865,0.12004 c 0,0 0,0.50014 0,1.38038 l 23.4769,0"
           id="path3262"
           style="fill:#ee334e;fill-opacity:1;fill-rule:nonzero;stroke:none" />
        <path
           d="m 842.97051,370.10385 c 0,0 -30.2684,2.94082 -30.2684,25.21698 0,14.30396 15.974,10.93303 15.974,10.93303 0,0 4.2012,-13.02361 15.5547,-13.02361 0,0 22.2862,2.5107 22.2862,25.21698 0,22.69628 -14.7145,47.08303 -49.6042,47.08303 -34.8992,0 -54.2446,-31.53873 -57.1758,-39.93105 0,-0.11043 -0.08,-0.23046 -0.112,-0.33049 l -25.9272,0 c 4.4412,13.69379 13.6934,31.86882 32.3386,45.72265 28.6783,21.3159 48.7639,17.66489 52.1248,17.66489 8.712,0 72.32,-5.47152 72.32,-68.94908 0,-43.7121 -43.312,-49.60373 -47.5131,-49.60373"
           id="path3264"
           style="fill:#ee334e;fill-opacity:1;fill-rule:nonzero;stroke:none" />
        <path
           d="m 753.25521,400.31221 c -0.232,-1.77049 -0.4001,-3.58099 -0.5201,-5.4415 l -22.976,0 c 0,2.00055 0.08,3.84106 0.08,5.4415 l 23.4265,0"
           id="path3266"
           style="fill:#ee334e;fill-opacity:1;fill-rule:nonzero;stroke:none" />
        <path
           d="m 756.61621,416.01656 c -0.5522,-1.89053 -1.0803,-3.85107 -1.5701,-5.92164 l -24.8573,0 c 0.2081,1.62045 0.5362,3.621 1.0203,5.92164 l 25.4071,0"
           id="path3268"
           style="fill:#ee334e;fill-opacity:1;fill-rule:nonzero;stroke:none" />
        <path
           d="m 757.14671,417.76704 -25.5271,0 c 0.4482,1.98055 1.0299,4.13114 1.7501,6.42178 l 25.8776,0 c -0.6802,-1.94054 -1.3908,-4.09113 -2.1006,-6.42178"
           id="path3270"
           style="fill:#ee334e;fill-opacity:1;fill-rule:nonzero;stroke:none" />
      </g>
      <g
         transform="matrix(1.1930992,0,0,1.1930992,-592.05595,-68.21013)"
         id="g5084">
        <path
           d="m 801.84871,594.45593 c -1.5901,14.14392 -13.5734,25.12696 -28.1478,25.12696 -15.6339,0 -28.3175,-12.67351 -28.3175,-28.32784 0,-11.98332 7.4421,-22.22615 17.9546,-26.35729 0.2801,-1.57044 0.4321,-3.17088 0.4321,-4.81134 0,-0.44972 0,-0.90024 0,-1.35037 -13.9238,4.26118 -24.037,17.21476 -24.037,32.519 0,18.77519 15.2346,34.00941 33.9998,34.00941 17.3848,0 31.7088,-13.03361 33.7589,-29.86826 -1.9205,-0.16005 -3.7906,-0.48014 -5.6111,-0.94027"
           id="path3272"
           style="fill:#f8b133;fill-opacity:1;fill-rule:nonzero;stroke:none" />
        <path
           d="m 772.20051,562.97722 c 0.4961,-0.032 1.0002,-0.04 1.5004,-0.04 13.6342,0 25.0173,9.62267 27.7277,22.44621 1.9005,0.68019 3.9114,1.18033 5.992,1.4204 -2.191,-16.67462 -16.4349,-29.54818 -33.7197,-29.54818 -0.4962,0 -1.0003,0.024 -1.5004,0.04 0.08,0.91025 0.12,1.85051 0.12,2.79077 0,0.97027 0,1.93054 -0.12,2.8908"
           id="path3274"
           style="fill:#f8b133;fill-opacity:1;fill-rule:nonzero;stroke:none" />
        <path
           d="m 738.25111,591.25505 c 0,-0.97027 0.08,-1.93054 0.12,-2.8808 -0.4881,0.016 -1.0003,0.04 -1.51,0.04 -15.6347,0 -28.3278,-12.68351 -28.3278,-28.32784 0,-15.64432 12.6931,-28.32783 28.3278,-28.32783 15.6443,0 28.3278,12.68351 28.3278,28.32783 0,11.98332 -7.4324,22.22615 -17.9449,26.3573 -0.2801,1.56043 -0.4402,3.16087 -0.4402,4.81133 0,0.44972 0,0.90025 0,1.34037 13.9039,-4.25118 24.0267,-17.20476 24.0267,-32.509 0,-18.78519 -15.2242,-34.00941 -34.0094,-34.00941 -18.7756,0 -33.9998,15.22422 -33.9998,34.00941 0,18.7752 15.2242,34.00942 33.9998,34.00942 0.5121,0 1.0099,-0.016 1.51,-0.04 -0.08,-0.93025 -0.12,-1.85051 -0.12,-2.80077"
           id="path3276"
           style="fill:#0690d1;fill-opacity:1;fill-rule:nonzero;stroke:none" />
        <path
           d="m 782.42331,556.87554 c 1.5908,-14.13392 13.5838,-25.11695 28.1382,-25.11695 15.6443,0 28.3278,12.68351 28.3278,28.32783 0,11.97332 -7.4324,22.21615 -17.9353,26.34729 -0.2881,1.57044 -0.4482,3.17088 -0.4482,4.82134 0,0.44972 0,0.90025 0,1.34037 13.9135,-4.25118 24.0267,-17.20476 24.0267,-32.509 0,-18.78519 -15.2242,-34.00941 -33.9998,-34.00941 -17.3744,0 -31.6984,13.03361 -33.7494,29.86827 1.9206,0.14964 3.7915,0.48013 5.612,0.93026"
           id="path3278"
           style="fill:#000000;fill-opacity:1;fill-rule:nonzero;stroke:none" />
        <path
           d="m 811.95151,591.25505 c 0,-0.97027 0,-1.93054 0.12,-2.8808 -0.5121,0.016 -1.0099,0.04 -1.51,0.04 -13.6342,0 -25.0069,-9.62266 -27.7181,-22.44621 -1.9005,-0.70019 -3.9011,-1.17032 -5.9912,-1.41039 2.1902,16.66461 16.4445,29.53818 33.7093,29.53818 0.4961,0 1.0003,-0.016 1.51,-0.04 -0.08,-0.93025 -0.12,-1.85051 -0.12,-2.80077"
           id="path3280"
           style="fill:#000000;fill-opacity:1;fill-rule:nonzero;stroke:none" />
        <path
           d="m 875.54911,594.45593 c -1.5901,14.14392 -13.5838,25.12696 -28.1478,25.12696 -15.6444,0 -28.3279,-12.67351 -28.3279,-28.32784 0,-11.98332 7.4421,-22.22615 17.9554,-26.35729 0.2801,-1.57044 0.4401,-3.16088 0.4401,-4.81134 0,-0.44972 0,-0.90024 0,-1.35037 -13.9142,4.26118 -24.037,17.21476 -24.037,32.519 0,18.77519 15.2346,34.00941 34.0094,34.00941 17.3752,0 31.7088,-13.03361 33.7493,-29.86826 -1.9205,-0.16005 -3.7906,-0.48014 -5.6015,-0.94027"
           id="path3282"
           style="fill:#14a665;fill-opacity:1;fill-rule:nonzero;stroke:none" />
        <path
           d="m 846.02091,560.08642 c 0,0.97027 0,1.93054 -0.12,2.8908 0.4961,-0.032 1.0002,-0.04 1.5004,-0.04 13.6342,0 25.0173,9.62267 27.718,22.44621 1.9102,0.68019 3.9107,1.18033 5.9913,1.4204 -2.1806,-16.67462 -16.4341,-29.54818 -33.7093,-29.54818 -0.4962,0 -1.0003,0.024 -1.5004,0.04 0.08,0.91025 0.12,1.85051 0.12,2.79077"
           id="path3284"
           style="fill:#14a665;fill-opacity:1;fill-rule:nonzero;stroke:none" />
        <path
           d="m 884.25151,526.07701 c -17.3648,0 -31.6888,13.03361 -33.739,29.85827 1.9102,0.16004 3.7811,0.50013 5.6016,0.95026 1.6004,-14.14392 13.5837,-25.12695 28.1374,-25.12695 15.6547,0 28.3278,12.68351 28.3278,28.32783 0,15.64433 -12.6731,28.32784 -28.3278,28.32784 -13.6238,0 -25.0165,-9.63266 -27.7077,-22.46621 -1.9101,-0.69059 -3.9211,-1.16032 -5.9912,-1.40039 2.1806,16.66461 16.4341,29.54818 33.6989,29.54818 18.7852,0 34.0094,-15.23422 34.0094,-34.00942 0,-18.78519 -15.2242,-34.00941 -34.0094,-34.00941"
           id="path3286"
           style="fill:#e24860;fill-opacity:1;fill-rule:nonzero;stroke:none" />
      </g>
      <g
         transform="matrix(0.9972987,0,0,1,5.3124109,-133.21429)"
         id="g5611"
         style="fill:#000000">
        <path
           d="m 495.65959,832.84363 0,0.18208 c -0.0147,0.81991 -0.26453,1.60568 -0.74949,2.3573 -0.48496,0.75163 -1.11688,1.15373 -1.89575,1.20629 l -0.0588,0 c -0.56579,-0.0184 -1.08504,-0.20917 -1.55775,-0.57225 -0.47271,-0.36308 -0.79602,-0.78793 -0.96992,-1.27457 -0.16124,-0.47145 -0.26493,-0.87463 -0.31106,-1.20954 -0.0461,-0.3349 -0.0666,-0.66004 -0.0613,-0.97544 l 0,-3.04335 c 0,-0.90606 0.3135,-1.66906 0.94053,-2.28901 -0.62703,-0.62427 -0.94053,-1.48265 -0.94053,-2.57515 l 0,-2.34105 c -0.003,-0.39016 0.0424,-0.72831 0.13716,-1.01444 0.098,-0.33814 0.3331,-0.83236 0.70539,-1.48266 0.36903,-0.64594 1.04177,-0.96676 2.01822,-0.96243 0.35597,2e-5 0.70213,0.10404 1.0385,0.31214 0.29718,0.18644 0.66294,0.56793 1.09729,1.1445 0.40821,0.54193 0.61068,1.30493 0.60742,2.28902 l 0,2.237 c -10e-6,0.50616 -0.0784,0.95702 -0.23513,1.3526 -0.15676,0.3956 -0.39189,0.74243 -0.7054,1.04047 0.62702,0.60261 0.94052,1.4263 0.94053,2.47109 z m -2.7824,-11.52312 c -0.28004,0.009 -0.50864,0.13387 -0.6858,0.37391 -0.17717,0.24008 -0.26861,0.5403 -0.27432,0.90065 l 0,2.237 c 8.7e-4,0.41349 0.082,0.75705 0.24248,1.03071 0.16042,0.27367 0.3931,0.41565 0.69805,0.42594 0.32208,-0.007 0.55965,-0.14251 0.71274,-0.40644 0.15307,-0.26389 0.22901,-0.61397 0.22778,-1.05021 l 0,-2.237 c -0.005,-0.33759 -0.0927,-0.63131 -0.26207,-0.88114 -0.16941,-0.24981 -0.38903,-0.38095 -0.65886,-0.39342 z m 0,6.86705 c -0.28861,0.008 -0.51967,0.13494 -0.69315,0.38043 -0.17349,0.24549 -0.26248,0.56087 -0.26697,0.94616 l 0,3.04335 c -0.003,0.46225 0.0759,0.83184 0.23513,1.10875 0.1592,0.27691 0.41393,0.4189 0.76418,0.42594 0.33677,-0.0119 0.56946,-0.16365 0.69805,-0.45521 0.12858,-0.29154 0.18981,-0.65136 0.18369,-1.07948 l 0,-3.04335 c -0.003,-0.38529 -0.0853,-0.70068 -0.24737,-0.94616 -0.16207,-0.24549 -0.38658,-0.37229 -0.67356,-0.38043 z"
           id="path5454-1"
           style="font-size:22.57638741px;font-style:normal;font-variant:normal;font-weight:normal;font-stretch:normal;fill:#000000;fill-opacity:1;stroke:none;font-family:Roadgeek 2005 Engschrift;-inkscape-font-specification:Roadgeek 2005 Engschrift" />
        <path
           d="m 483.08848,832.21064 1.57446,-0.35788 c 0.0771,1.27643 0.39436,1.91464 0.9518,1.91463 0.76499,10e-6 1.20085,-1.60446 1.3076,-4.8134 -0.40918,0.95434 -0.92215,1.43151 -1.53888,1.43151 -0.75313,0 -1.35208,-0.56963 -1.79684,-1.70886 -0.44476,-1.13923 -0.66715,-2.44247 -0.66715,-3.90976 0,-1.49113 0.22534,-2.83016 0.67604,-4.01713 0.45069,-1.18692 1.13562,-1.78041 2.05481,-1.78042 1.97475,10e-6 2.96211,2.88089 2.96213,8.64263 -2e-5,5.90493 -1.04076,8.85737 -3.12224,8.85737 -1.36987,0 -2.17045,-1.41956 -2.40173,-4.25869 z m 3.69153,-7.17535 c 0,-0.84697 -0.10086,-1.61638 -0.30243,-2.30829 -0.20163,-0.69187 -0.50111,-1.03782 -0.89842,-1.03783 -0.69977,10e-6 -1.04965,1.02591 -1.04965,3.07771 0,2.13532 0.37953,3.20297 1.1386,3.20296 0.74127,10e-6 1.1119,-0.97818 1.1119,-2.93455 z"
           id="path5517"
           style="font-size:25.1553936px;font-style:normal;font-variant:normal;font-weight:bold;font-stretch:normal;fill:#000000;fill-opacity:1;stroke:none;font-family:Browallia New;-inkscape-font-specification:Browallia New Bold" />
        <path
           d="m 244.33657,834.61241 c -0.30862,0.62861 -0.69561,1.11416 -1.16097,1.45664 -0.46537,0.34249 -0.97973,0.5159 -1.54305,0.52023 -0.50947,-0.0104 -0.98952,-0.16528 -1.44019,-0.46496 -0.45067,-0.29967 -0.81317,-0.68226 -1.08749,-1.14776 -0.24044,-0.46116 -0.40617,-0.93045 -0.49721,-1.40787 -0.091,-0.47742 -0.1343,-1.00524 -0.1298,-1.58346 l 0,-8.71387 c 4.1e-4,-0.22001 0.009,-0.43677 0.0269,-0.65029 0.0175,-0.2135 0.0412,-0.43027 0.071,-0.6503 0.0486,-0.21999 0.13266,-0.48227 0.25227,-0.78684 0.11961,-0.30454 0.27718,-0.65787 0.47272,-1.05998 0.20492,-0.42863 0.50536,-0.74836 0.90134,-0.95917 0.39596,-0.21079 0.89235,-0.31591 1.48917,-0.31539 0.52945,0.0115 1.0185,0.17722 1.46713,0.49747 0.44862,0.32028 0.79561,0.72671 1.04095,1.21929 0.23879,0.46226 0.398,0.90988 0.47761,1.34285 0.0796,0.433 0.11634,0.88712 0.11022,1.36236 l 0,0.72832 -1.86147,0 0,-0.72832 c -4.1e-4,-0.14197 -0.004,-0.2677 -0.0122,-0.37718 -0.008,-0.10945 -0.0168,-0.20915 -0.0269,-0.29913 -0.01,-0.09 -0.0392,-0.19615 -0.0882,-0.31864 -0.049,-0.12245 -0.11758,-0.26768 -0.20574,-0.43569 -0.17963,-0.34248 -0.48661,-0.51588 -0.92094,-0.52023 -0.50619,1e-5 -0.84583,0.1821 -1.01891,0.54624 -0.15022,0.34955 -0.24167,0.61941 -0.27432,0.80961 -0.0326,0.19022 -0.0457,0.38856 -0.0391,0.59502 l 0,8.71387 c -4.2e-4,0.168 4e-4,0.31323 0.003,0.4357 0.002,0.12247 0.008,0.22869 0.0171,0.31864 0.0196,0.15173 0.11756,0.42052 0.29392,0.80636 0.17634,0.36416 0.50945,0.54625 0.99931,0.54624 0.51272,10e-6 0.83929,-0.18208 0.97972,-0.54624 0.1494,-0.36741 0.23758,-0.64704 0.26453,-0.83887 0.0269,-0.19184 0.0367,-0.43245 0.0294,-0.72183 l 0,-3.04335 -1.50877,0 0,-2.18497 3.37023,0 0,5.22832 c 0.002,0.70124 -0.0314,1.23013 -0.10042,1.58671 -0.069,0.35658 -0.18574,0.7034 -0.35025,1.04047 z"
           id="path5390"
           style="font-size:22.57638741px;font-style:normal;font-variant:normal;font-weight:normal;font-stretch:normal;fill:#000000;fill-opacity:1;stroke:none;font-family:Roadgeek 2005 Engschrift;-inkscape-font-specification:Roadgeek 2005 Engschrift" />
        <path
           d="m 245.65255,836.43321 2.93916,-17.42775 1.62633,0 2.93915,17.42775 -2.01822,0 -0.52904,-3.74566 -2.4297,0 -0.54865,3.74566 z m 2.86078,-6.0607 1.76349,0 -0.88174,-6.34681 z"
           id="path5392"
           style="font-size:22.57638741px;font-style:normal;font-variant:normal;font-weight:normal;font-stretch:normal;fill:#000000;fill-opacity:1;stroke:none;font-family:Roadgeek 2005 Engschrift;-inkscape-font-specification:Roadgeek 2005 Engschrift" />
        <path
           d="m 260.67877,836.43321 0,-10.61272 -1.88106,7.43931 -0.94053,0 -1.86146,-7.43931 0,10.61272 -1.88106,0 0,-17.42775 1.76349,0 2.48849,9.28614 2.44929,-9.28614 1.72431,0 0,17.42775 z"
           id="path5394"
           style="font-size:22.57638741px;font-style:normal;font-variant:normal;font-weight:normal;font-stretch:normal;fill:#000000;fill-opacity:1;stroke:none;font-family:Roadgeek 2005 Engschrift;-inkscape-font-specification:Roadgeek 2005 Engschrift" />
        <path
           d="m 270.18615,833.9361 0,2.49711 -5.62358,0 0,-17.42775 5.62358,0 0,2.28902 -3.76212,0 0,5.15029 3.29185,0 0,2.36705 -3.29185,0 0,5.12428 z"
           id="path5396"
           style="font-size:22.57638741px;font-style:normal;font-variant:normal;font-weight:normal;font-stretch:normal;fill:#000000;fill-opacity:1;stroke:none;font-family:Roadgeek 2005 Engschrift;-inkscape-font-specification:Roadgeek 2005 Engschrift" />
        <path
           d="m 273.30174,832.08929 c -4.1e-4,0.16798 4.1e-4,0.31321 0.003,0.43568 0.002,0.12247 0.008,0.22869 0.0172,0.31864 0.0196,0.16041 0.11756,0.41186 0.29391,0.75434 0.17961,0.34249 0.50619,0.5159 0.97973,0.52023 0.26859,-0.002 0.51026,-0.0753 0.72498,-0.21784 0.21472,-0.14252 0.37801,-0.33869 0.48986,-0.58852 0.0759,-0.19508 0.12491,-0.37716 0.14696,-0.54624 0.022,-0.16907 0.0318,-0.32514 0.0294,-0.46821 l 0,-1.45665 0,-0.2341 c 0.009,-0.36415 -0.0437,-0.66329 -0.1592,-0.8974 -0.11553,-0.2341 -0.34986,-0.48121 -0.70295,-0.74133 -0.12656,-0.0904 -0.29964,-0.19562 -0.51926,-0.31539 -0.21962,-0.11975 -0.49067,-0.25739 -0.81316,-0.41294 -0.6511,-0.30508 -1.18587,-0.80038 -1.60429,-1.48591 -0.41842,-0.6855 -0.63478,-1.60349 -0.64906,-2.75397 l 0,-0.78034 c -0.003,-1.19219 0.29718,-2.21531 0.90134,-3.06937 0.60742,-0.8627 1.35201,-1.29623 2.23376,-1.30058 0.45964,-5.2e-4 0.87765,0.10461 1.25404,0.31539 0.37636,0.21081 0.716,0.53054 1.0189,0.95917 0.61069,0.86274 0.91766,1.89453 0.92093,3.09539 l 0,0.78034 -1.88105,0 0,-0.78034 c -0.003,-0.2341 -0.0163,-0.4422 -0.0391,-0.62429 -0.0106,-0.09 -0.0433,-0.19615 -0.098,-0.31864 -0.0547,-0.12245 -0.12656,-0.26768 -0.21555,-0.43569 -0.17961,-0.34248 -0.4866,-0.51588 -0.92093,-0.52023 -0.38822,0.0124 -0.69928,0.19565 -0.93319,0.54949 -0.2339,0.35388 -0.35392,0.80366 -0.36004,1.34936 l 0,1.01444 c -0.009,0.33816 0.0338,0.61128 0.12982,0.81937 0.0959,0.2081 0.30085,0.4292 0.61477,0.66329 0.2188,0.1344 0.64334,0.35984 1.27363,0.6763 0.32249,0.14308 0.62293,0.33817 0.90134,0.58526 0.2784,0.24712 0.53965,0.54626 0.78377,0.89741 0.49312,0.70232 0.74132,1.63873 0.74459,2.80925 l 0,1.40463 c 4.1e-4,0.32406 -0.0102,0.61235 -0.0319,0.86487 -0.0216,0.25254 -0.0568,0.47581 -0.10532,0.6698 -0.0817,0.38585 -0.34943,0.99278 -0.80337,1.82081 -0.45068,0.75867 -1.21485,1.14018 -2.29253,1.14451 -1.13648,-0.005 -1.95944,-0.48988 -2.46889,-1.45664 -0.50946,-0.98844 -0.76419,-2.0029 -0.76419,-3.04335 l 0,-0.62429 1.90066,0 z"
           id="path5398"
           style="font-size:22.57638741px;font-style:normal;font-variant:normal;font-weight:normal;font-stretch:normal;fill:#000000;fill-opacity:1;stroke:none;font-family:Roadgeek 2005 Engschrift;-inkscape-font-specification:Roadgeek 2005 Engschrift" />
        <path
           d="m 283.44013,820.64418 c 0.31106,-0.5641 0.69315,-1.00304 1.14627,-1.31683 0.45312,-0.31375 0.93317,-0.47307 1.44019,-0.47796 0.48577,0.003 0.9397,0.13278 1.3618,0.38692 0.42209,0.25417 0.77806,0.61074 1.0679,1.06972 0.27961,0.45089 0.47474,0.91476 0.58538,1.39162 0.11062,0.4769 0.16369,0.99279 0.1592,1.54769 l 0,8.86995 c 0.006,0.50777 -0.0306,0.96839 -0.11022,1.38187 -0.0796,0.41347 -0.23881,0.85459 -0.47761,1.32334 -0.24249,0.49476 -0.58539,0.90986 -1.0287,1.2453 -0.44333,0.33544 -0.94299,0.50993 -1.49897,0.52348 -0.63111,-0.0195 -1.20098,-0.2276 -1.70961,-0.62428 -0.50864,-0.39667 -0.87277,-0.86488 -1.09239,-1.40463 -0.18859,-0.5148 -0.30616,-0.94833 -0.35269,-1.30057 -0.0465,-0.35224 -0.0661,-0.73374 -0.0588,-1.14451 l 0,-8.86995 c -0.002,-0.51317 0.0412,-0.97596 0.12981,-1.38837 0.0886,-0.41237 0.23472,-0.81664 0.43843,-1.21279 z m 3.64455,1.37862 c -0.25147,-0.48986 -0.5911,-0.73264 -1.0189,-0.72832 -0.23269,0.008 -0.45313,0.09 -0.66132,0.24711 -0.20819,0.15717 -0.36004,0.34358 -0.45556,0.55924 -0.0767,0.21191 -0.129,0.41892 -0.15676,0.62103 -0.0278,0.20215 -0.0408,0.37664 -0.0392,0.52348 l 0,8.86995 c -0.003,0.17775 0.003,0.3685 0.0196,0.57226 0.0106,0.091 0.0432,0.2081 0.098,0.35115 0.0547,0.14306 0.12654,0.31215 0.21553,0.50723 0.1992,0.36416 0.52578,0.54625 0.97972,0.54624 0.23921,-0.006 0.45148,-0.0786 0.63681,-0.21785 0.18533,-0.13926 0.31923,-0.30942 0.40169,-0.51048 0.0861,-0.19996 0.14409,-0.39179 0.1739,-0.5755 0.0298,-0.1837 0.0437,-0.40805 0.0417,-0.67305 l 0,-8.86995 c 0.005,-0.33379 -0.005,-0.57657 -0.0294,-0.72832 -0.0245,-0.15172 -0.0931,-0.31646 -0.20574,-0.49422 z"
           id="path5400"
           style="font-size:22.57638741px;font-style:normal;font-variant:normal;font-weight:normal;font-stretch:normal;fill:#000000;fill-opacity:1;stroke:none;font-family:Roadgeek 2005 Engschrift;-inkscape-font-specification:Roadgeek 2005 Engschrift" />
        <path
           d="m 291.08418,836.43321 0,-17.42775 5.60398,0 0,2.34104 -3.74252,0 0,5.22832 3.27226,0 0,2.34105 -3.27226,0 0,7.51734 z"
           id="path5402"
           style="font-size:22.57638741px;font-style:normal;font-variant:normal;font-weight:normal;font-stretch:normal;fill:#000000;fill-opacity:1;stroke:none;font-family:Roadgeek 2005 Engschrift;-inkscape-font-specification:Roadgeek 2005 Engschrift" />
        <path
           d="m 303.30875,836.43321 0,-15.11272 -2.21417,0 0,-2.31503 6.32898,0 0,2.31503 -2.25335,0 0,15.11272 z"
           id="path5404"
           style="font-size:22.57638741px;font-style:normal;font-variant:normal;font-weight:normal;font-stretch:normal;fill:#000000;fill-opacity:1;stroke:none;font-family:Roadgeek 2005 Engschrift;-inkscape-font-specification:Roadgeek 2005 Engschrift" />
        <path
           d="m 308.72698,836.43321 0,-17.42775 1.86146,0 0,7.43931 2.39052,0 0,-7.43931 1.86146,0 0,17.42775 -1.86146,0 0,-7.77746 -2.39052,0 0,7.77746 z"
           id="path5406"
           style="font-size:22.57638741px;font-style:normal;font-variant:normal;font-weight:normal;font-stretch:normal;fill:#000000;fill-opacity:1;stroke:none;font-family:Roadgeek 2005 Engschrift;-inkscape-font-specification:Roadgeek 2005 Engschrift" />
        <path
           d="m 322.50222,833.9361 0,2.49711 -5.62358,0 0,-17.42775 5.62358,0 0,2.28902 -3.76211,0 0,5.15029 3.29185,0 0,2.36705 -3.29185,0 0,5.12428 z"
           id="path5408"
           style="font-size:22.57638741px;font-style:normal;font-variant:normal;font-weight:normal;font-stretch:normal;fill:#000000;fill-opacity:1;stroke:none;font-family:Roadgeek 2005 Engschrift;-inkscape-font-specification:Roadgeek 2005 Engschrift" />
        <path
           d="m 332.13759,836.43321 -1.62634,-5.90462 -1.66552,5.90462 -1.97903,0 2.70403,-9.20809 -2.44931,-8.21966 1.97904,0 1.41079,5.12428 1.4108,-5.12428 1.97902,0 -2.46888,8.21966 2.70402,9.20809 z"
           id="path5410"
           style="font-size:22.57638741px;font-style:normal;font-variant:normal;font-weight:normal;font-stretch:normal;fill:#000000;fill-opacity:1;stroke:none;font-family:Roadgeek 2005 Engschrift;-inkscape-font-specification:Roadgeek 2005 Engschrift" />
        <path
           d="m 339.71519,836.43321 -1.62634,-5.90462 -1.66552,5.90462 -1.97902,0 2.70402,-9.20809 -2.4493,-8.21966 1.97903,0 1.41079,5.12428 1.4108,-5.12428 1.97903,0 -2.46889,8.21966 2.70402,9.20809 z"
           id="path5412"
           style="font-size:22.57638741px;font-style:normal;font-variant:normal;font-weight:normal;font-stretch:normal;fill:#000000;fill-opacity:1;stroke:none;font-family:Roadgeek 2005 Engschrift;-inkscape-font-specification:Roadgeek 2005 Engschrift" />
        <path
           d="m 342.86446,836.43321 0,-17.42775 1.86147,0 0,17.42775 z"
           id="path5414"
           style="font-size:22.57638741px;font-style:normal;font-variant:normal;font-weight:normal;font-stretch:normal;fill:#000000;fill-opacity:1;stroke:none;font-family:Roadgeek 2005 Engschrift;-inkscape-font-specification:Roadgeek 2005 Engschrift" />
        <path
           d="m 348.55117,836.43321 -2.68442,-17.42775 1.95942,0 1.52837,12.09538 1.54795,-12.09538 1.99862,0 -2.7432,17.42775 z"
           id="path5416"
           style="font-size:22.57638741px;font-style:normal;font-variant:normal;font-weight:normal;font-stretch:normal;fill:#000000;fill-opacity:1;stroke:none;font-family:Roadgeek 2005 Engschrift;-inkscape-font-specification:Roadgeek 2005 Engschrift" />
        <path
           d="m 355.54828,836.43321 0,-15.11272 -2.21416,0 0,-2.31503 6.32898,0 0,2.31503 -2.25335,0 0,15.11272 z"
           id="path5418"
           style="font-size:22.57638741px;font-style:normal;font-variant:normal;font-weight:normal;font-stretch:normal;fill:#000000;fill-opacity:1;stroke:none;font-family:Roadgeek 2005 Engschrift;-inkscape-font-specification:Roadgeek 2005 Engschrift" />
        <path
           d="m 360.96652,836.43321 0,-17.42775 1.86147,0 0,7.43931 2.39051,0 0,-7.43931 1.86146,0 0,17.42775 -1.86146,0 0,-7.77746 -2.39051,0 0,7.77746 z"
           id="path5420"
           style="font-size:22.57638741px;font-style:normal;font-variant:normal;font-weight:normal;font-stretch:normal;fill:#000000;fill-opacity:1;stroke:none;font-family:Roadgeek 2005 Engschrift;-inkscape-font-specification:Roadgeek 2005 Engschrift" />
        <path
           d="m 373.0319,820.64418 c 0.31105,-0.5641 0.69314,-1.00304 1.14626,-1.31683 0.45312,-0.31375 0.93318,-0.47307 1.44019,-0.47796 0.48577,0.003 0.93971,0.13278 1.36181,0.38692 0.42208,0.25417 0.77805,0.61074 1.06789,1.06972 0.27962,0.45089 0.47475,0.91476 0.58538,1.39162 0.11062,0.4769 0.16368,0.99279 0.1592,1.54769 l 0,8.86995 c 0.006,0.50777 -0.0306,0.96839 -0.11021,1.38187 -0.0796,0.41347 -0.23882,0.85459 -0.47761,1.32334 -0.24249,0.49476 -0.58539,0.90986 -1.02871,1.2453 -0.44333,0.33544 -0.94298,0.50993 -1.49897,0.52348 -0.6311,-0.0195 -1.20097,-0.2276 -1.70961,-0.62428 -0.50864,-0.39667 -0.87276,-0.86488 -1.09238,-1.40463 -0.1886,-0.5148 -0.30617,-0.94833 -0.3527,-1.30057 -0.0465,-0.35224 -0.0661,-0.73374 -0.0588,-1.14451 l 0,-8.86995 c -0.002,-0.51317 0.0412,-0.97596 0.12982,-1.38837 0.0886,-0.41237 0.23472,-0.81664 0.43842,-1.21279 z m 3.64454,1.37862 c -0.25146,-0.48986 -0.5911,-0.73264 -1.01891,-0.72832 -0.23268,0.008 -0.45311,0.09 -0.6613,0.24711 -0.2082,0.15717 -0.36005,0.34358 -0.45557,0.55924 -0.0767,0.21191 -0.129,0.41892 -0.15675,0.62103 -0.0278,0.20215 -0.0408,0.37664 -0.0392,0.52348 l 0,8.86995 c -0.003,0.17775 0.003,0.3685 0.0196,0.57226 0.0106,0.091 0.0432,0.2081 0.098,0.35115 0.0547,0.14306 0.12655,0.31215 0.21554,0.50723 0.19921,0.36416 0.52578,0.54625 0.97972,0.54624 0.2392,-0.006 0.45148,-0.0786 0.63682,-0.21785 0.18532,-0.13926 0.31921,-0.30942 0.40168,-0.51048 0.0861,-0.19996 0.1441,-0.39179 0.1739,-0.5755 0.0298,-0.1837 0.0437,-0.40805 0.0417,-0.67305 l 0,-8.86995 c 0.005,-0.33379 -0.005,-0.57657 -0.0294,-0.72832 -0.0245,-0.15172 -0.0931,-0.31646 -0.20574,-0.49422 z"
           id="path5422"
           style="font-size:22.57638741px;font-style:normal;font-variant:normal;font-weight:normal;font-stretch:normal;fill:#000000;fill-opacity:1;stroke:none;font-family:Roadgeek 2005 Engschrift;-inkscape-font-specification:Roadgeek 2005 Engschrift" />
        <path
           d="m 386.29952,836.43321 -5.60399,0 0,-17.42775 1.88106,0 0,14.93064 3.72293,0 z"
           id="path5424"
           style="font-size:22.57638741px;font-style:normal;font-variant:normal;font-weight:normal;font-stretch:normal;fill:#000000;fill-opacity:1;stroke:none;font-family:Roadgeek 2005 Engschrift;-inkscape-font-specification:Roadgeek 2005 Engschrift" />
        <path
           d="m 389.16773,836.43321 0,-7.49133 -2.54726,-9.93642 1.95943,0 1.52836,6.81503 1.54796,-6.81503 1.97903,0 -2.60605,9.93642 0,7.49133 z"
           id="path5426"
           style="font-size:22.57638741px;font-style:normal;font-variant:normal;font-weight:normal;font-stretch:normal;fill:#000000;fill-opacity:1;stroke:none;font-family:Roadgeek 2005 Engschrift;-inkscape-font-specification:Roadgeek 2005 Engschrift" />
        <path
           d="m 401.13233,836.43321 0,-10.61272 -1.88105,7.43931 -0.94054,0 -1.86146,-7.43931 0,10.61272 -1.88106,0 0,-17.42775 1.76349,0 2.48848,9.28614 2.4493,-9.28614 1.7243,0 0,17.42775 z"
           id="path5428"
           style="font-size:22.57638741px;font-style:normal;font-variant:normal;font-weight:normal;font-stretch:normal;fill:#000000;fill-opacity:1;stroke:none;font-family:Roadgeek 2005 Engschrift;-inkscape-font-specification:Roadgeek 2005 Engschrift" />
        <path
           d="m 405.01612,836.43321 0,-17.42775 3.1155,0 c 0.80623,0.0395 1.49121,0.42866 2.05496,1.16727 0.56375,0.73863 0.87154,1.58943 0.92339,2.55238 l 0,2.78324 c -0.0233,1.17054 -0.32454,2.13296 -0.90379,2.88729 -0.57926,0.75434 -1.2969,1.14451 -2.15293,1.17051 l -1.15607,0 0,6.86706 z m 3.97766,-9.72833 c 0.11429,-0.15172 0.1894,-0.31646 0.22534,-0.49421 0.0359,-0.17774 0.0523,-0.39451 0.049,-0.6503 l 0,-2.57514 c -0.003,-0.4915 -0.1139,-0.89359 -0.33066,-1.20629 -0.21677,-0.31267 -0.51803,-0.47416 -0.90379,-0.48446 l -1.13647,0 0,5.90462 0.97971,0 c 0.2584,0.006 0.47149,-0.0249 0.63927,-0.091 0.16777,-0.0661 0.32698,-0.20049 0.47761,-0.40318 z"
           id="path5430"
           style="font-size:22.57638741px;font-style:normal;font-variant:normal;font-weight:normal;font-stretch:normal;fill:#000000;fill-opacity:1;stroke:none;font-family:Roadgeek 2005 Engschrift;-inkscape-font-specification:Roadgeek 2005 Engschrift" />
        <path
           d="m 412.44065,836.43321 0,-17.42775 1.86146,0 0,17.42775 z"
           id="path5432"
           style="font-size:22.57638741px;font-style:normal;font-variant:normal;font-weight:normal;font-stretch:normal;fill:#000000;fill-opacity:1;stroke:none;font-family:Roadgeek 2005 Engschrift;-inkscape-font-specification:Roadgeek 2005 Engschrift" />
        <path
           d="m 415.34495,836.43321 2.93915,-17.42775 1.62633,0 2.93915,17.42775 -2.01822,0 -0.52904,-3.74566 -2.4297,0 -0.54865,3.74566 z m 2.86077,-6.0607 1.76349,0 -0.88174,-6.34681 z"
           id="path5434"
           style="font-size:22.57638741px;font-style:normal;font-variant:normal;font-weight:normal;font-stretch:normal;fill:#000000;fill-opacity:1;stroke:none;font-family:Roadgeek 2005 Engschrift;-inkscape-font-specification:Roadgeek 2005 Engschrift" />
        <path
           d="m 426.7854,819.00546 c 0.84254,-0.005 1.56754,0.39453 2.17497,1.19653 0.61068,0.7847 0.91766,1.73846 0.92093,2.86127 l 0,9.05203 c -1e-5,1.27457 -0.29392,2.31504 -0.88174,3.12139 -0.59111,0.80202 -1.34875,1.20087 -2.27295,1.19653 l -2.91956,0 0,-17.42775 z m 1.23444,13.10983 0,-9.05203 c -0.009,-0.49257 -0.14247,-0.899 -0.39924,-1.2193 -0.25677,-0.32024 -0.58089,-0.48606 -0.97237,-0.49746 l -0.97971,0 0,12.77168 0.92093,0 c 0.95686,-0.005 1.43365,-0.67196 1.43039,-2.00289 z"
           id="path5436"
           style="font-size:22.57638741px;font-style:normal;font-variant:normal;font-weight:normal;font-stretch:normal;fill:#000000;fill-opacity:1;stroke:none;font-family:Roadgeek 2005 Engschrift;-inkscape-font-specification:Roadgeek 2005 Engschrift" />
        <path
           d="m 436.64119,832.08929 c -4.1e-4,0.16798 4.1e-4,0.31321 0.003,0.43568 0.002,0.12247 0.008,0.22869 0.0171,0.31864 0.0196,0.16041 0.11756,0.41186 0.29392,0.75434 0.1796,0.34249 0.50618,0.5159 0.97972,0.52023 0.26859,-0.002 0.51026,-0.0753 0.72498,-0.21784 0.21472,-0.14252 0.37801,-0.33869 0.48986,-0.58852 0.0759,-0.19508 0.12491,-0.37716 0.14696,-0.54624 0.022,-0.16907 0.0318,-0.32514 0.0294,-0.46821 l 0,-1.45665 0,-0.2341 c 0.009,-0.36415 -0.0437,-0.66329 -0.1592,-0.8974 -0.11553,-0.2341 -0.34985,-0.48121 -0.70295,-0.74133 -0.12655,-0.0904 -0.29964,-0.19562 -0.51926,-0.31539 -0.21962,-0.11975 -0.49067,-0.25739 -0.81316,-0.41294 -0.6511,-0.30508 -1.18587,-0.80038 -1.60428,-1.48591 -0.41843,-0.6855 -0.63478,-1.60349 -0.64907,-2.75397 l 0,-0.78034 c -0.003,-1.19219 0.29718,-2.21531 0.90134,-3.06937 0.60742,-0.8627 1.35201,-1.29623 2.23376,-1.30058 0.45964,-5.2e-4 0.87766,0.10461 1.25404,0.31539 0.37636,0.21081 0.716,0.53054 1.01891,0.95917 0.61068,0.86274 0.91765,1.89453 0.92092,3.09539 l 0,0.78034 -1.88105,0 0,-0.78034 c -0.003,-0.2341 -0.0163,-0.4422 -0.0392,-0.62429 -0.0106,-0.09 -0.0433,-0.19615 -0.098,-0.31864 -0.0547,-0.12245 -0.12655,-0.26768 -0.21554,-0.43569 -0.17962,-0.34248 -0.4866,-0.51588 -0.92094,-0.52023 -0.38821,0.0124 -0.69928,0.19565 -0.93317,0.54949 -0.23392,0.35388 -0.35394,0.80366 -0.36005,1.34936 l 0,1.01444 c -0.009,0.33816 0.0338,0.61128 0.12981,0.81937 0.0959,0.2081 0.30085,0.4292 0.61477,0.66329 0.2188,0.1344 0.64335,0.35984 1.27364,0.6763 0.32248,0.14308 0.62292,0.33817 0.90134,0.58526 0.27839,0.24712 0.53965,0.54626 0.78377,0.89741 0.49312,0.70232 0.74131,1.63873 0.74458,2.80925 l 0,1.40463 c 4.1e-4,0.32406 -0.0102,0.61235 -0.0318,0.86487 -0.0216,0.25254 -0.0568,0.47581 -0.10532,0.6698 -0.0817,0.38585 -0.34944,0.99278 -0.80337,1.82081 -0.45068,0.75867 -1.21486,1.14018 -2.29254,1.14451 -1.13648,-0.005 -1.95944,-0.48988 -2.46889,-1.45664 -0.50946,-0.98844 -0.76418,-2.0029 -0.76418,-3.04335 l 0,-0.62429 1.90065,0 z"
           id="path5438"
           style="font-size:22.57638741px;font-style:normal;font-variant:normal;font-weight:normal;font-stretch:normal;fill:#000000;fill-opacity:1;stroke:none;font-family:Roadgeek 2005 Engschrift;-inkscape-font-specification:Roadgeek 2005 Engschrift" />
        <path
           d="m 448.48945,833.9361 0,2.49711 -5.62358,0 0,-17.42775 5.62358,0 0,2.28902 -3.76212,0 0,5.15029 3.29185,0 0,2.36705 -3.29185,0 0,5.12428 z"
           id="path5440"
           style="font-size:22.57638741px;font-style:normal;font-variant:normal;font-weight:normal;font-stretch:normal;fill:#000000;fill-opacity:1;stroke:none;font-family:Roadgeek 2005 Engschrift;-inkscape-font-specification:Roadgeek 2005 Engschrift" />
        <path
           d="m 450.64492,820.64418 c 0.31106,-0.5641 0.69315,-1.00304 1.14627,-1.31683 0.45312,-0.31375 0.93318,-0.47307 1.44019,-0.47796 0.48576,0.003 0.93971,0.13278 1.3618,0.38692 0.42209,0.25417 0.77806,0.61074 1.0679,1.06972 0.27962,0.45089 0.47475,0.91476 0.58538,1.39162 0.11062,0.4769 0.16368,0.99279 0.1592,1.54769 l 0,8.86995 c 0.006,0.50777 -0.0306,0.96839 -0.11021,1.38187 -0.0796,0.41347 -0.23882,0.85459 -0.47761,1.32334 -0.24249,0.49476 -0.58539,0.90986 -1.02871,1.2453 -0.44333,0.33544 -0.94299,0.50993 -1.49897,0.52348 -0.6311,-0.0195 -1.20097,-0.2276 -1.70961,-0.62428 -0.50864,-0.39667 -0.87276,-0.86488 -1.09238,-1.40463 -0.1886,-0.5148 -0.30616,-0.94833 -0.3527,-1.30057 -0.0465,-0.35224 -0.0661,-0.73374 -0.0588,-1.14451 l 0,-8.86995 c -0.002,-0.51317 0.0412,-0.97596 0.12982,-1.38837 0.0886,-0.41237 0.23472,-0.81664 0.43842,-1.21279 z m 3.64455,1.37862 c -0.25146,-0.48986 -0.5911,-0.73264 -1.01891,-0.72832 -0.23268,0.008 -0.45311,0.09 -0.6613,0.24711 -0.2082,0.15717 -0.36005,0.34358 -0.45557,0.55924 -0.0767,0.21191 -0.129,0.41892 -0.15676,0.62103 -0.0278,0.20215 -0.0408,0.37664 -0.0392,0.52348 l 0,8.86995 c -0.003,0.17775 0.003,0.3685 0.0196,0.57226 0.0106,0.091 0.0432,0.2081 0.098,0.35115 0.0547,0.14306 0.12654,0.31215 0.21554,0.50723 0.19921,0.36416 0.52578,0.54625 0.97972,0.54624 0.2392,-0.006 0.45148,-0.0786 0.63682,-0.21785 0.18532,-0.13926 0.31921,-0.30942 0.40168,-0.51048 0.0861,-0.19996 0.1441,-0.39179 0.1739,-0.5755 0.0298,-0.1837 0.0437,-0.40805 0.0417,-0.67305 l 0,-8.86995 c 0.005,-0.33379 -0.005,-0.57657 -0.0294,-0.72832 -0.0245,-0.15172 -0.0931,-0.31646 -0.20574,-0.49422 z"
           id="path5442"
           style="font-size:22.57638741px;font-style:normal;font-variant:normal;font-weight:normal;font-stretch:normal;fill:#000000;fill-opacity:1;stroke:none;font-family:Roadgeek 2005 Engschrift;-inkscape-font-specification:Roadgeek 2005 Engschrift" />
        <path
           d="m 463.97133,834.53437 c -0.28861,0.59447 -0.65683,1.07026 -1.10463,1.42738 -0.44782,0.35711 -0.94829,0.54027 -1.50142,0.54949 -0.55681,-0.0157 -1.07932,-0.19887 -1.56755,-0.54949 -0.48822,-0.35062 -0.8344,-0.77439 -1.0385,-1.27132 -0.19104,-0.47092 -0.3184,-0.89469 -0.38209,-1.27131 -0.0637,-0.37662 -0.0931,-0.76789 -0.0882,-1.17378 l 0,-13.31792 1.88106,0 0,13.31792 c 4e-4,0.11598 0.004,0.22219 0.0122,0.31865 0.008,0.0964 0.0168,0.18967 0.0269,0.27962 0.0196,0.15174 0.11756,0.39452 0.29392,0.72832 0.17634,0.31215 0.47025,0.46821 0.88175,0.46821 0.38167,-0.0179 0.66661,-0.20321 0.8548,-0.55599 0.18818,-0.35279 0.28207,-0.76571 0.28167,-1.23881 l 0,-13.31792 1.88105,0 0,13.31792 c 0.002,0.41565 -0.0311,0.81342 -0.098,1.19329 -0.0669,0.37988 -0.17799,0.74512 -0.3331,1.09574 z"
           id="path5444"
           style="font-size:22.57638741px;font-style:normal;font-variant:normal;font-weight:normal;font-stretch:normal;fill:#000000;fill-opacity:1;stroke:none;font-family:Roadgeek 2005 Engschrift;-inkscape-font-specification:Roadgeek 2005 Engschrift" />
        <path
           d="m 472.02594,836.43321 -5.60398,0 0,-17.42775 1.88105,0 0,14.93064 3.72293,0 z"
           id="path5446"
           style="font-size:22.57638741px;font-style:normal;font-variant:normal;font-weight:normal;font-stretch:normal;fill:#000000;fill-opacity:1;stroke:none;font-family:Roadgeek 2005 Engschrift;-inkscape-font-specification:Roadgeek 2005 Engschrift" />
        <path
           d="m 478.92545,836.43321 0,-14.82659 -1.88106,1.87283 0,-2.65318 1.88106,-1.82081 1.86147,0 0,17.42775 z"
           id="path5448"
           style="font-size:22.57638741px;font-style:normal;font-variant:normal;font-weight:normal;font-stretch:normal;fill:#000000;fill-opacity:1;stroke:none;font-family:Roadgeek 2005 Engschrift;-inkscape-font-specification:Roadgeek 2005 Engschrift" />
        <path
           d="m 502.90032,832.84363 0,0.18208 c -0.0147,0.81991 -0.26453,1.60568 -0.74949,2.3573 -0.48496,0.75163 -1.11688,1.15373 -1.89575,1.20629 l -0.0588,0 c -0.56579,-0.0184 -1.08504,-0.20917 -1.55775,-0.57225 -0.47271,-0.36308 -0.79602,-0.78793 -0.96992,-1.27457 -0.16124,-0.47145 -0.26493,-0.87463 -0.31106,-1.20954 -0.0461,-0.3349 -0.0666,-0.66004 -0.0613,-0.97544 l 0,-3.04335 c 0,-0.90606 0.3135,-1.66906 0.94053,-2.28901 -0.62703,-0.62427 -0.94053,-1.48265 -0.94053,-2.57515 l 0,-2.34105 c -0.003,-0.39016 0.0424,-0.72831 0.13716,-1.01444 0.098,-0.33814 0.3331,-0.83236 0.70539,-1.48266 0.36903,-0.64594 1.04177,-0.96676 2.01822,-0.96243 0.35597,2e-5 0.70213,0.10404 1.0385,0.31214 0.29718,0.18644 0.66294,0.56793 1.09729,1.1445 0.40821,0.54193 0.61068,1.30493 0.60742,2.28902 l 0,2.237 c -1e-5,0.50616 -0.0784,0.95702 -0.23513,1.3526 -0.15676,0.3956 -0.39189,0.74243 -0.7054,1.04047 0.62702,0.60261 0.94052,1.4263 0.94053,2.47109 z m -2.7824,-11.52312 c -0.28004,0.009 -0.50864,0.13387 -0.6858,0.37391 -0.17717,0.24008 -0.26861,0.5403 -0.27432,0.90065 l 0,2.237 c 8.7e-4,0.41349 0.082,0.75705 0.24248,1.03071 0.16042,0.27367 0.3931,0.41565 0.69805,0.42594 0.32208,-0.007 0.55965,-0.14251 0.71274,-0.40644 0.15307,-0.26389 0.22901,-0.61397 0.22778,-1.05021 l 0,-2.237 c -0.005,-0.33759 -0.0927,-0.63131 -0.26207,-0.88114 -0.16941,-0.24981 -0.38903,-0.38095 -0.65886,-0.39342 z m 0,6.86705 c -0.28861,0.008 -0.51967,0.13494 -0.69315,0.38043 -0.17349,0.24549 -0.26248,0.56087 -0.26697,0.94616 l 0,3.04335 c -0.003,0.46225 0.0759,0.83184 0.23513,1.10875 0.1592,0.27691 0.41393,0.4189 0.76418,0.42594 0.33677,-0.0119 0.56946,-0.16365 0.69805,-0.45521 0.12858,-0.29154 0.18981,-0.65136 0.18369,-1.07948 l 0,-3.04335 c -0.003,-0.38529 -0.0853,-0.70068 -0.24737,-0.94616 -0.16207,-0.24549 -0.38658,-0.37229 -0.67356,-0.38043 z"
           id="path5454"
           style="font-size:22.57638741px;font-style:normal;font-variant:normal;font-weight:normal;font-stretch:normal;fill:#000000;fill-opacity:1;stroke:none;font-family:Roadgeek 2005 Engschrift;-inkscape-font-specification:Roadgeek 2005 Engschrift" />
      </g>
    </g>
  </g>
</svg>
