<?xml version="1.0" encoding="utf-8"?>
<!-- Generator: Adobe Illustrator 12.0.0, SVG Export Plug-In . SVG Version: 6.00 Build 51448)  -->
<!DOCTYPE svg PUBLIC "-//W3C//DTD SVG 1.0//EN" "http://www.w3.org/TR/2001/REC-SVG-20010904/DTD/svg10.dtd" [
	<!ENTITY ns_svg "http://www.w3.org/2000/svg">
	<!ENTITY ns_xlink "http://www.w3.org/1999/xlink">
]>
<svg  version="1.0" id="Layer_1" xmlns="&ns_svg;" xmlns:xlink="&ns_xlink;" width="571.478" height="555.979"
	 viewBox="0 0 571.478 555.979" overflow="visible" enable-background="new 0 0 571.478 555.979" xml:space="preserve">
<g id="rings" transform="matrix(0.477969,0,0,0.477969,218.7392,688.3023)">
	<path id="path1714" fill="#1A86B8" stroke="#FFFFFF" stroke-width="3" stroke-linejoin="round" d="M-122.458-614.007
		c-62.453,1.888-112.603,52.987-112.603,115.442c0,63.399,52.043,114.494,115.441,114.494c2.839,0,5.678,0,8.517,0
		c0-3.784,0-7.572,0-10.408c0-4.732,0-8.52,0-13.248c-2.839,0.944-5.678,0.944-8.517,0.944c-51.096,0-91.785-41.631-91.785-91.782
		c0-51.099,40.689-91.786,90.839-92.735c0,0,0,0,0.946,0c50.151,0,91.785,41.635,91.785,92.735
		c0,38.795-24.602,71.911-58.666,85.159c-0.946,5.68-1.893,12.304-1.893,18.928c0,1.892,0,3.784,0,5.676
		c48.259-13.248,83.27-57.723,83.27-109.762c0-63.403-51.097-115.442-114.496-115.442
		C-120.566-614.007-121.512-614.007-122.458-614.007L-122.458-614.007z"/>
	<path id="path1716" fill="#E9932D" stroke="#FFFFFF" stroke-width="3" stroke-linejoin="round" d="M0.555-509.92
		c-1.893,0-3.786,0.948-5.679,0.948c0,2.836,0,6.624,0,10.408c0,3.78,0,8.516-0.947,12.3l0,0c2.84,0,5.678,0,8.517,0
		c0.947,0,0.947,0,0.947,0c44.474,0,81.378,31.228,89.894,72.859l0,0c7.569,2.844,16.086,4.732,24.602,5.68
		C111.264-464.505,62.06-509.92,3.393-509.92c-0.947,0-1.893,0-1.893,0C0.555-509.92,0.555-509.92,0.555-509.92L0.555-509.92z
		 M-27.835-505.188c-48.257,14.192-83.269,57.719-83.269,110.71c0,63.399,51.096,114.494,114.496,114.494
		c59.614,0,108.817-45.419,114.495-104.086c-7.569-0.948-15.14-1.892-22.709-4.732c-2.84,48.259-43.529,86.111-91.786,86.111
		c-51.098,0-91.786-41.635-91.786-91.786c0-38.799,24.604-72.863,58.667-86.111l0,0c0.947-5.676,1.892-12.3,1.892-17.976
		C-27.835-501.409-27.835-503.296-27.835-505.188L-27.835-505.188z"/>
	<path id="path1718" fill="#131516" stroke="#FFFFFF" stroke-width="3" stroke-linejoin="round" d="M123.566-614.007
		c-58.668,1.888-105.98,47.311-111.657,105.034c8.517,0,16.086,1.888,22.71,3.784c3.785-47.311,43.528-85.163,91.785-86.111l0,0
		c51.099,0,91.786,41.635,91.786,92.735c0,38.795-23.656,71.911-57.721,85.159c-1.892,5.68-1.892,12.304-1.892,18.928
		c0,1.892,0,3.784,0,5.676c48.259-13.248,83.271-57.723,83.271-109.762c0-63.403-52.043-115.442-115.444-115.442
		c0,0-0.944,0-1.892,0C124.512-614.007,124.512-614.007,123.566-614.007L123.566-614.007z M12.855-486.265
		c5.678,57.719,54.883,102.194,113.549,102.194c3.786,0,6.624,0,9.462,0c-0.944-3.784-0.944-7.572-0.944-10.408
		c0-4.732,0.944-8.52,0.944-13.248c-2.838,0.944-5.676,0.944-9.462,0.944c-44.473,0-81.377-32.171-89.894-73.807l0,0
		C28.941-483.429,21.37-485.317,12.855-486.265z"/>
	<path id="path1720" fill="#128E43" stroke="#FFFFFF" stroke-width="3" stroke-linejoin="round" d="M363.914-405.834
		c-5.678-58.671-53.937-104.086-113.55-104.086c-0.948,0-1.894,0-2.84,0l0,0c-0.946,0-0.946,0-0.946,0
		c-1.892,0-3.786,0.948-5.678,0.948c0.948,2.836,0.948,6.624,0.948,10.408c0,3.78-0.948,8.516-0.948,12.3c2.84,0,5.678,0,8.516,0
		c0,0,0,0,0.948,0c44.471,0,81.377,31.228,89.892,73.807l0,0c7.57,2.836,16.086,4.732,23.658,5.676 M218.19-505.188
		c-48.259,14.192-83.269,57.719-83.269,110.71c0,63.399,52.043,114.494,115.442,114.494c59.613,0,107.872-45.419,113.55-103.142
		c-7.572-0.944-15.14-1.892-22.712-3.78c-3.786,47.311-42.581,84.215-90.838,84.215c-51.099,0-91.786-41.635-91.786-91.786
		c0-38.799,23.656-72.863,58.667-86.111l0,0c0.946-5.676,0.946-12.3,0.946-17.976C218.19-501.409,218.19-503.296,218.19-505.188
		L218.19-505.188z"/>
	<path id="path1722" fill="#DA261C" stroke="#FFFFFF" stroke-width="2" stroke-linejoin="round" d="M257.932-486.265
		L257.932-486.265c5.68,59.611,54.883,103.138,115.444,103.138c64.345,0,116.388-52.039,116.388-115.438
		c0-64.347-52.043-116.39-116.388-116.39c-0.946,0-1.894,0-1.894,0c-0.944,0-0.944,0-0.944,0
		c-59.615,0.948-107.872,47.311-112.606,105.982l0,0c7.572,0,15.14,1.888,22.712,3.784c3.786-48.259,43.527-86.111,91.786-87.059
		c0.946,0,0.946,0,0.946,0c51.097,0,92.73,41.635,92.73,93.683c0,51.095-41.633,92.73-92.73,92.73
		c-45.421,0-82.323-32.171-90.841-74.755C274.965-483.429,266.449-485.317,257.932-486.265z"/>
</g>
<g>
	<path d="M133.163,351.836c3.796,0.879,6.461,1.942,7.996,3.191c2.203,1.776,3.304,4.08,3.304,6.91c0,2.987-1.202,5.457-3.604,7.409
		c-2.95,2.362-7.237,3.543-12.863,3.543h-20.188v-1.094c1.833,0,3.077-0.171,3.73-0.511c0.653-0.342,1.111-0.785,1.375-1.33
		c0.263-0.546,0.395-1.891,0.395-4.034V340.14c0-2.144-0.132-3.493-0.395-4.048c-0.264-0.556-0.727-0.999-1.39-1.33
		s-1.902-0.497-3.715-0.497v-1.094h19.047c4.552,0,7.775,0.405,9.67,1.216c1.895,0.811,3.389,2.022,4.483,3.634
		c1.094,1.611,1.641,3.325,1.641,5.142c0,1.914-0.7,3.619-2.099,5.113S136.689,350.957,133.163,351.836z M122.541,353.327
		l-0.012,12.736l-0.001,1.458c0,1.051,0.263,1.844,0.79,2.379s1.307,0.802,2.341,0.802c1.532,0,2.944-0.347,4.236-1.038
		c1.292-0.693,2.283-1.697,2.972-3.015s1.034-2.785,1.034-4.405c0-1.853-0.388-3.516-1.164-4.988
		c-0.776-1.473-1.919-2.501-3.429-3.084C127.797,353.59,125.542,353.308,122.541,353.327z M122.543,351.046
		c2.785,0,4.839-0.313,6.163-0.94c1.324-0.627,2.338-1.508,3.043-2.644c0.705-1.136,1.057-2.585,1.057-4.349
		c0-1.762-0.348-3.206-1.042-4.332c-0.695-1.126-1.688-1.982-2.98-2.57c-1.292-0.588-3.367-0.872-6.225-0.853L122.543,351.046z"/>
	<path d="M163.701,368.827c-3.339,2.958-6.335,4.438-8.991,4.438c-1.562,0-2.86-0.513-3.895-1.538
		c-1.035-1.024-1.552-2.309-1.552-3.851c0-2.089,0.898-3.968,2.694-5.638c1.796-1.67,5.71-3.891,11.743-6.663v-2.759
		c0-2.072-0.112-3.379-0.336-3.916c-0.224-0.539-0.648-1.008-1.271-1.409c-0.624-0.401-1.326-0.602-2.105-0.602
		c-1.267,0-2.311,0.284-3.131,0.851c-0.508,0.352-0.762,0.763-0.762,1.231c0,0.411,0.273,0.919,0.82,1.524
		c0.742,0.841,1.113,1.652,1.113,2.434c0,0.958-0.356,1.774-1.069,2.449c-0.713,0.674-1.646,1.011-2.798,1.011
		c-1.23,0-2.261-0.371-3.091-1.113s-1.245-1.611-1.245-2.607c0-1.406,0.557-2.749,1.67-4.028s2.667-2.261,4.659-2.944
		s4.063-1.025,6.211-1.025c2.598,0,4.654,0.552,6.167,1.655s2.496,2.3,2.945,3.589c0.273,0.82,0.41,2.705,0.41,5.654v10.635
		c0,1.25,0.048,2.036,0.146,2.358s0.244,0.562,0.439,0.718s0.417,0.234,0.665,0.234c0.51,0,1.029-0.366,1.559-1.099l0.879,0.713
		c-0.978,1.447-1.989,2.498-3.035,3.153s-2.233,0.982-3.563,0.982c-1.564,0-2.786-0.368-3.666-1.103
		S163.896,370.316,163.701,368.827z M163.701,366.702v-9.171c-2.36,1.385-4.115,2.867-5.266,4.447
		c-0.761,1.053-1.141,2.116-1.141,3.188c0,0.897,0.322,1.688,0.965,2.37c0.487,0.527,1.17,0.79,2.048,0.79
		C161.282,368.327,162.414,367.785,163.701,366.702z"/>
	<path d="M190.013,345.483l0.008,6.225c1.818-2.834,3.412-4.716,4.781-5.644c1.369-0.93,2.689-1.394,3.96-1.394
		c1.081,0,1.945,0.337,2.592,1.011c0.646,0.674,0.97,1.627,0.97,2.857c0,1.309-0.317,2.325-0.952,3.048
		c-0.635,0.723-1.401,1.084-2.298,1.084c-1.029,0-1.922-0.331-2.679-0.994s-1.204-1.034-1.339-1.112
		c-0.194-0.116-0.417-0.175-0.669-0.175c-0.565,0-1.101,0.215-1.607,0.645c-0.799,0.664-1.403,1.611-1.813,2.842
		c-0.624,1.895-0.935,3.984-0.935,6.27l0.009,6.299l0.002,1.633c0,1.122,0.068,1.841,0.205,2.156
		c0.233,0.532,0.579,0.921,1.036,1.167s1.231,0.398,2.322,0.458v1.031h-14.844v-1.031c1.197-0.098,2.007-0.426,2.429-0.984
		c0.422-0.558,0.633-2.032,0.633-4.422v-15.156c0-1.563-0.079-2.56-0.235-2.989c-0.197-0.547-0.481-0.947-0.854-1.201
		s-1.03-0.431-1.973-0.528v-1.094H190.013z"/>
	<path d="M226.496,365.796l0.908,0.702c-1.289,2.432-2.896,4.24-4.82,5.426s-3.97,1.778-6.138,1.778
		c-3.653,0-6.573-1.376-8.761-4.13s-3.281-6.064-3.281-9.932c0-3.73,0.997-7.012,2.99-9.844c2.403-3.417,5.715-5.126,9.936-5.126
		c2.833,0,5.084,0.712,6.755,2.136s2.506,3.014,2.506,4.77c0,1.111-0.337,2-1.012,2.662c-0.675,0.664-1.559,0.995-2.654,0.995
		c-1.154,0-2.107-0.381-2.859-1.144c-0.753-0.762-1.217-2.12-1.393-4.074c-0.117-1.232-0.401-2.092-0.85-2.58
		c-0.45-0.488-0.978-0.733-1.583-0.733c-0.938,0-1.74,0.498-2.405,1.493c-1.017,1.504-1.525,3.807-1.525,6.91
		c0,2.578,0.41,5.042,1.231,7.395c0.82,2.352,1.944,4.104,3.371,5.256c1.074,0.84,2.344,1.259,3.81,1.259
		c0.957,0,1.866-0.224,2.726-0.673S225.323,367.045,226.496,365.796z"/>
	<path d="M253.972,358.202h-15.031c0.176,3.628,1.143,6.496,2.901,8.603c1.348,1.619,2.969,2.429,4.864,2.429
		c1.172,0,2.237-0.326,3.194-0.979c0.957-0.652,1.983-1.826,3.077-3.521l0.996,0.656c-1.484,3.024-3.125,5.166-4.921,6.425
		c-1.797,1.258-3.876,1.888-6.239,1.888c-4.062,0-7.138-1.562-9.227-4.687c-1.68-2.52-2.519-5.645-2.519-9.375
		c0-4.57,1.235-8.207,3.705-10.912s5.365-4.058,8.686-4.058c2.772,0,5.179,1.138,7.22,3.412
		C252.717,350.357,253.816,353.73,253.972,358.202z M246.753,356.233c0-3.141-0.17-5.296-0.511-6.467
		c-0.341-1.171-0.871-2.058-1.59-2.663c-0.409-0.351-0.954-0.526-1.634-0.526c-1.012,0-1.839,0.497-2.48,1.492
		c-1.148,1.736-1.722,4.116-1.722,7.14v1.024H246.753z"/>
	<path d="M268.134,333.171v34.031c0,1.945,0.227,3.188,0.681,3.728c0.454,0.541,1.341,0.851,2.663,0.929v1.031h-14.844v-1.031
		c1.211-0.039,2.109-0.394,2.695-1.062c0.391-0.451,0.586-1.649,0.586-3.595v-28.344c0-1.911-0.225-3.136-0.674-3.672
		s-1.318-0.844-2.607-0.922v-1.094H268.134z"/>
	<path d="M287.013,344.671c2.381,0,4.598,0.615,6.648,1.846c2.05,1.23,3.607,2.978,4.672,5.243s1.596,4.746,1.596,7.441
		c0,3.887-0.986,7.139-2.958,9.756c-2.382,3.164-5.673,4.745-9.87,4.745c-4.121,0-7.294-1.444-9.52-4.335
		c-2.227-2.891-3.34-6.24-3.34-10.049c0-3.926,1.138-7.348,3.412-10.268C279.929,346.131,283.048,344.671,287.013,344.671z
		 M287.144,346.765c-0.996,0-1.852,0.376-2.564,1.127s-1.182,2.233-1.406,4.448s-0.338,5.293-0.338,9.234
		c0,2.088,0.137,4.039,0.41,5.854c0.215,1.385,0.675,2.439,1.379,3.16c0.703,0.723,1.504,1.083,2.402,1.083
		c0.879,0,1.612-0.243,2.199-0.731c0.762-0.663,1.27-1.59,1.523-2.781c0.391-1.854,0.586-5.6,0.586-11.238
		c0-3.316-0.186-5.594-0.557-6.834c-0.371-1.238-0.918-2.141-1.641-2.707C288.629,346.97,287.964,346.765,287.144,346.765z"/>
	<path d="M315.272,345.483v3.531c1.408-1.516,2.759-2.618,4.051-3.309c1.291-0.69,2.681-1.035,4.168-1.035
		c1.78,0,3.258,0.494,4.432,1.482s1.957,2.216,2.349,3.685c0.313,1.115,0.47,3.258,0.47,6.429v10.686
		c0,2.103,0.191,3.412,0.573,3.928c0.382,0.517,1.181,0.843,2.396,0.979v1.031h-13.906v-1.031c1.044-0.136,1.793-0.564,2.246-1.285
		c0.314-0.486,0.473-1.693,0.473-3.621v-12.208c0-2.25-0.088-3.668-0.264-4.256c-0.177-0.586-0.475-1.041-0.896-1.364
		c-0.42-0.323-0.885-0.484-1.394-0.484c-1.683,0-3.249,1.188-4.696,3.563v14.75c0,2.044,0.191,3.339,0.576,3.884
		c0.384,0.545,1.098,0.887,2.143,1.022v1.031h-13.906v-1.031c1.156-0.116,1.979-0.487,2.469-1.11c0.334-0.428,0.5-1.693,0.5-3.796
		v-15.531c0-2.062-0.191-3.346-0.573-3.852s-1.181-0.837-2.396-0.992v-1.094H315.272z"/>
	<path d="M352.548,368.827c-3.339,2.958-6.336,4.438-8.99,4.438c-1.563,0-2.861-0.513-3.896-1.538
		c-1.034-1.024-1.552-2.309-1.552-3.851c0-2.089,0.898-3.968,2.694-5.638s5.71-3.891,11.743-6.663v-2.759
		c0-2.072-0.112-3.379-0.336-3.916c-0.225-0.539-0.648-1.008-1.271-1.409c-0.625-0.401-1.326-0.602-2.105-0.602
		c-1.268,0-2.311,0.284-3.131,0.851c-0.508,0.352-0.762,0.763-0.762,1.231c0,0.411,0.273,0.919,0.82,1.524
		c0.742,0.841,1.113,1.652,1.113,2.434c0,0.958-0.356,1.774-1.069,2.449c-0.713,0.674-1.646,1.011-2.798,1.011
		c-1.23,0-2.261-0.371-3.091-1.113s-1.245-1.611-1.245-2.607c0-1.406,0.557-2.749,1.67-4.028s2.666-2.261,4.658-2.944
		s4.063-1.025,6.212-1.025c2.598,0,4.653,0.552,6.167,1.655s2.496,2.3,2.945,3.589c0.273,0.82,0.41,2.705,0.41,5.654v10.635
		c0,1.25,0.049,2.036,0.146,2.358s0.243,0.562,0.438,0.718s0.417,0.234,0.665,0.234c0.51,0,1.029-0.366,1.559-1.099l0.879,0.713
		c-0.978,1.447-1.988,2.498-3.035,3.153c-1.045,0.655-2.232,0.982-3.563,0.982c-1.563,0-2.785-0.368-3.665-1.103
		S352.743,370.316,352.548,368.827z M352.548,366.702v-9.171c-2.359,1.385-4.115,2.867-5.266,4.447
		c-0.761,1.053-1.141,2.116-1.141,3.188c0,0.897,0.322,1.688,0.965,2.37c0.488,0.527,1.17,0.79,2.049,0.79
		C350.13,368.327,351.261,367.785,352.548,366.702z"/>
	<path d="M385.923,351.765v-1.281c2.274-0.976,3.926-2.24,4.955-3.792s1.545-3.148,1.545-4.788c0-0.313-0.068-0.557-0.205-0.732
		c-0.139-0.156-0.275-0.234-0.412-0.234c-0.118,0-0.295,0.068-0.529,0.205c-0.57,0.332-1.275,0.498-2.119,0.498
		c-1.158,0-2.164-0.449-3.018-1.348s-1.279-1.953-1.279-3.164c0-1.289,0.489-2.422,1.468-3.398s2.162-1.465,3.552-1.465
		c1.683,0,3.121,0.649,4.314,1.947s1.791,3.079,1.791,5.343c0,2.792-0.846,5.271-2.537,7.438
		C391.756,349.159,389.247,350.75,385.923,351.765z"/>
	<path d="M402.247,373.702v-0.813c3.253-0.743,6.012-1.837,8.275-3.284c2.264-1.446,4.057-3.235,5.379-5.366s2.249-4.584,2.778-7.36
		c-1.215,0.624-2.248,1.059-3.101,1.302c-0.852,0.243-1.748,0.365-2.688,0.365c-3.017,0-5.53-1.083-7.538-3.247
		c-2.008-2.166-3.012-5.131-3.012-8.896c0-2.614,0.542-5.009,1.627-7.183c1.084-2.176,2.633-3.863,4.645-5.063
		c2.013-1.199,4.104-1.8,6.272-1.8c2.325,0,4.522,0.664,6.594,1.991s3.722,3.25,4.953,5.768c1.231,2.52,1.847,5.389,1.847,8.609
		c0,4.178-1.002,8.179-3.005,12.004c-2.003,3.826-4.988,6.896-8.956,9.209C412.351,372.253,407.66,373.507,402.247,373.702z
		 M419.122,354.422c0.188-2.184,0.281-4.104,0.281-5.762c0-3.549-0.412-6.854-1.236-9.914c-0.473-1.697-1.169-2.944-2.092-3.744
		c-0.49-0.429-1.129-0.644-1.914-0.644c-0.981,0-1.747,0.419-2.297,1.258c-0.766,1.15-1.148,3.345-1.148,6.581
		c0,5.4,0.648,9.125,1.947,11.172c0.845,1.326,1.985,1.989,3.421,1.989C416.851,355.358,417.863,355.047,419.122,354.422z"/>
	<path d="M455.241,372.89h-23.369v-0.646c7.188-8.533,11.541-14.274,13.063-17.223c1.521-2.949,2.281-5.829,2.281-8.641
		c0-2.051-0.635-3.754-1.903-5.111s-2.821-2.036-4.655-2.036c-3.007,0-5.34,1.503-6.998,4.507l-1.084-0.38
		c1.054-3.745,2.654-6.515,4.803-8.31c2.146-1.795,4.627-2.692,7.438-2.692c2.012,0,3.846,0.469,5.506,1.405
		c1.659,0.937,2.957,2.22,3.895,3.85c0.938,1.629,1.406,3.156,1.406,4.58c0,2.596-0.723,5.23-2.168,7.904
		c-1.973,3.61-6.277,8.646-12.916,15.104h8.581c2.108,0,3.479-0.088,4.114-0.264s1.158-0.474,1.568-0.895s0.946-1.306,1.61-2.654
		h1.054L455.241,372.89z"/>
</g>
<g id="barcelona_logo">
	<path fill-rule="evenodd" clip-rule="evenodd" fill="#1E629F" d="M291.917,0c3.088,0,6.179,0,9.268,0
		c10.43,7.607,28.801,4.496,41.701,6.178c2.908,3.786,5.239,8.147,6.179,13.901c1.309,13.863,6.288,34.399,0,46.335
		c-4.671,3.044-14.027,4.362-20.079,1.545c-7.437-1.315-11.098-6.407-18.533-7.722c-5.084-3.153-11.897-4.578-18.535-6.177
		c-0.175-1.886-0.462-3.659-3.09-3.09c-4.38-5.732-5.244-13.571-6.178-23.168C281.316,14.083,283.334,6.355,291.917,0z"/>
	<path fill-rule="evenodd" clip-rule="evenodd" fill="#F2B92C" d="M123.563,72.593c-4.764-8.621-10.484-16.288-12.356-27.802
		c-3.381-3.311-4.88-8.504-4.634-15.444c-2.527-4.378-4.893-12.026,0-15.446c9.258-1.021,13.179,3.296,15.445,9.267
		c3.866,4.372,10.361,6.114,12.356,12.356c6.011,1.712,11.174,4.272,15.445,7.722c5.556,0.623,5.489,6.869,10.812,7.724
		c3.849,2.329,7.578,4.777,12.356,6.178c5.78,7.091,16.646,9.096,21.624,16.99c9.181,0.6,13.734,5.829,20.078,9.267
		c8.231,2.066,13.467,7.127,20.079,10.812c14.205,1.241,25.633,5.259,37.068,9.267c11.006-0.708,19.728,0.867,27.802,3.089
		c15.615,0.391,25.713-0.882,38.613,0c16.195-4.913,31.909-10.308,47.88-15.446c4.506-1.671,5.813-6.542,12.357-6.177
		c7.372-7.558,14.313-15.548,24.712-20.079c-0.435-4.04,0.563-6.645,4.634-6.179c3.5-12.46,5.353-26.568,16.989-30.89
		c5.993,0.186,7.806,4.551,10.812,7.722c2.907,6.874,3.471,16.094,3.09,26.257c-3.481,12.479-11.823,20.097-18.534,29.345
		c-3.122,7.692-9.362,12.263-12.356,20.08c-6.1,4.197-9.967,10.626-15.445,15.446c-6.479,4.331-13.024,8.599-16.991,15.444
		c-10.458,2.413-17.483,8.26-24.71,13.901c-31.66,10.448-77.167,15.961-114.296,7.723c-16.879-6.804-34.074-13.292-49.425-21.624
		c-8.603-3.239-14.337-9.345-23.168-12.356c-5.626-6.731-13.053-11.659-21.624-15.444c-5.81-7.576-13.44-13.333-20.079-20.08
		C135.558,87.371,128.839,80.702,123.563,72.593z"/>
	<path fill-rule="evenodd" clip-rule="evenodd" fill="#A2A4A4" d="M349.064,20.079c6.456-0.792,4.238,7.088,7.724,9.269
		c1.979,8.831,0.309,21.314,3.088,29.345c0.935,9.172-1.065,15.41-3.088,21.623c-23.558,7.443-33.059-10.733-54.06-10.812
		c-2.911-5.842-10.102-7.402-10.812-15.444c6.638,1.599,13.451,3.024,18.535,6.177c7.436,1.315,11.097,6.407,18.533,7.722
		c6.052,2.816,15.408,1.499,20.079-1.545C355.353,54.478,350.373,33.942,349.064,20.079z"/>
	<path fill-rule="evenodd" clip-rule="evenodd" fill="#A2A4A4" d="M123.563,72.593c5.277,8.108,11.996,14.778,18.534,21.624
		c6.639,6.748,14.269,12.504,20.079,20.08c8.571,3.785,15.998,8.713,21.624,15.444c8.831,3.011,14.565,9.117,23.168,12.356
		c15.352,8.332,32.546,14.819,49.425,21.624c37.129,8.239,82.636,2.726,114.296-7.723c7.227-5.641,14.252-11.488,24.71-13.901
		c3.967-6.846,10.512-11.114,16.991-15.444c5.479-4.82,9.346-11.249,15.445-15.446c2.994-7.817,9.234-12.388,12.356-20.08
		c6.711-9.249,15.053-16.867,18.534-29.345c0.381-10.163-0.183-19.383-3.09-26.257c9.614,2.743,8.968,15.746,12.357,24.713
		c0,2.059,0,4.118,0,6.177c-1.998,5.727-4.877,10.571-6.179,16.991c-8.745,8.244-14.992,18.988-20.079,30.892
		c-6.18,4.115-10.148,10.445-13.9,16.988c-7.238,5.633-15.152,10.589-20.079,18.536c-6.777-0.086-8.275,5.109-13.9,6.177
		c-1.063,5.63-9.441,3.947-10.812,9.267c-6.71,1.014-11.93,3.517-16.991,6.179c-11.424,3.505-23.993,5.868-37.068,7.722
		c-23.596,3.085-42.71-0.443-61.781,0c-1.226-3.408-7.26-2.006-7.723-6.177c-18.809-2.301-30.85-11.368-46.336-16.991
		c-15.256-5.851-24.105-18.111-40.158-23.167c-14.856-15.521-32.574-28.178-44.792-46.336
		C128.97,80.495,119.856,76.402,123.563,72.593z"/>
	<path fill-rule="evenodd" clip-rule="evenodd" fill="#EA4B38" d="M0,206.968c1.581-6.143,10.857-4.587,18.534-4.635
		c9.416-6.029,25.451-5.439,37.069-9.266c34.704,0.555,56.832-5.155,88.038-3.09c4.865,0.747,3.498-4.74,9.268-3.088
		c29.255,4.303,59.908-1.001,86.493,6.178c4.331-1.848,10.658-1.699,16.991-1.545c41.997,4.854,83.398,10.303,128.195,12.356
		c6.914,3.898,17.773,3.851,24.714,7.722c7.276-3.056,13.571,3.801,24.713,1.545c7.519,3.293,16.807,4.816,27.801,4.634
		c25.478,4.384,44.397,15.326,69.504,20.078c6.373,5.468,15.454,8.229,21.624,13.9c0.897,5.282,5.167,7.191,4.634,13.902
		c3.793,7.019-0.928,22.55,4.634,27.802c-3.643,12.317,2.355,34.276-10.812,37.069c-6.56-0.244-7.776,2.992-9.268-3.09
		c-4.326-0.822-8.029-2.266-12.356-3.09c-6.507-0.699-7.111-7.305-12.356-9.266c-13.169-1.76-23.559-6.303-33.979-10.813
		c-13.005-1.41-22.568-6.264-32.436-10.811c-7.559-1.707-17.063-1.472-23.168-4.635c-5.737-3.528-15.125-3.409-23.169-4.634
		c-4.689-3.032-10.297-5.147-15.443-7.721c-23.146-0.54-38.726-8.643-60.238-10.813c-10.52-1.426-17.753-6.859-27.801-4.635
		c-8.385-3.456-20.496-3.187-32.437-3.088c-5.561,0.413-7.443-2.854-12.355-3.09c-14.545-0.678-23.568,2.652-32.436-3.09
		c-7.787,2.61-12.905,0.136-23.168,1.546c-9.477-1.849-18.329-4.325-26.257-7.722c-19.54,1.004-34.413-2.657-54.059-1.545
		c-9.108-4.278-19.033-7.738-27.802-12.356c-14.362,2.005-21.16-3.552-33.98-3.089c-6.495,0.317-6.486-5.87-12.356-6.178
		c-12.494-0.893-21.28-5.492-35.524-4.634C4.089,219.353,3.71,214.584,0,213.146C0,211.086,0,209.027,0,206.968z"/>
	<path fill-rule="evenodd" clip-rule="evenodd" fill="#A2A4A4" d="M571.478,310.453c0,3.602,0,7.207,0,10.811
		c-3.142,7.67-0.062,21.563-6.179,26.258c-6.896-0.125-9.984,5.242-13.899,0c-3.022-3.158-7.75-4.607-13.901-4.633
		c-3.674-2.506-6.22-6.137-9.268-9.271c-18.196-2.193-28.79-12.543-49.424-13.896c-8.737-7.738-22.985-9.965-37.07-12.357
		c-0.515,0-1.029,0-1.544,0c-0.985-3.135-7.22-1.02-7.723-4.635c-14.489-0.955-25.565-5.324-35.523-10.811
		c-17.012-1.009-32.301-3.74-44.793-9.267c-14.189-0.227-23.793-5.038-35.523-7.724c-14.564,0.841-18.134-3.157-29.346-3.09
		c-4.366-1.276-4.003,2.179-7.723,1.545c-6.099-2.14-10.604-5.872-20.08-4.632c-10.447-0.704-16.235,3.1-21.623-3.09
		c-18.874,4.458-38.775-1.873-55.604-7.723c-20.123,1.622-32.794-3.735-47.88,0c-10.317-5.129-21.309-9.582-32.436-13.901
		c-11.71,0.615-23.556-5.92-32.435-3.09c-7.005-8.953-23.838-8.082-35.525-12.355c-8.746,0.816-9.247,0.277-18.534,0
		c-1.439-3.709-6.207-4.09-4.634-10.812c14.244-0.858,23.03,3.741,35.524,4.634c5.87,0.308,5.861,6.495,12.356,6.178
		c12.82-0.463,19.618,5.094,33.98,3.089c8.769,4.618,18.694,8.079,27.802,12.356c19.646-1.112,34.52,2.549,54.059,1.545
		c7.928,3.396,16.78,5.873,26.257,7.722c10.263-1.41,15.381,1.064,23.168-1.546c8.867,5.742,17.89,2.412,32.436,3.09
		c4.912,0.235,6.794,3.503,12.355,3.09c11.94-0.099,24.052-0.368,32.437,3.088c10.048-2.225,17.281,3.209,27.801,4.635
		c21.513,2.17,37.093,10.272,60.238,10.813c5.146,2.573,10.754,4.688,15.443,7.721c8.044,1.225,17.432,1.105,23.169,4.634
		c6.105,3.163,15.609,2.928,23.168,4.635c9.867,4.547,19.431,9.401,32.436,10.811c10.421,4.51,20.811,9.053,33.979,10.813
		c5.245,1.961,5.85,8.566,12.356,9.266c4.327,0.824,8.03,2.268,12.356,3.09c1.491,6.082,2.708,2.846,9.268,3.09
		c13.167-2.793,7.169-24.752,10.812-37.069c-5.562-5.252-0.841-20.783-4.634-27.802
		C570.204,272.596,568.632,293.735,571.478,310.453z"/>
</g>
</svg>
