<?xml version="1.0" encoding="iso-8859-1"?>
<!-- Generator: Adobe Illustrator 14.0.0, SVG Export Plug-In . SVG Version: 6.00 Build 43363)  -->
<!DOCTYPE svg PUBLIC "-//W3C//DTD SVG 1.1//EN" "http://www.w3.org/Graphics/SVG/1.1/DTD/svg11.dtd">
<svg version="1.1" id="Layer_1" xmlns="http://www.w3.org/2000/svg" xmlns:xlink="http://www.w3.org/1999/xlink" x="0px" y="0px"
	 width="142.135px" height="250px" viewBox="0 0 142.135 250" style="enable-background:new 0 0 142.135 250;" xml:space="preserve"
	>
<g>
	<g>
		<rect x="3.024" y="3.024" style="fill:#005B55;" width="136.086" height="243.952"/>
		<path style="fill:#B37E2C;" d="M136.087,6.048v237.904H6.048V6.048H136.087 M142.135,0h-6.048H6.048H0v6.048v237.904V250h6.048
			h130.039h6.048v-6.048V6.048V0L142.135,0z"/>
	</g>
	<path style="fill:#004C41;" d="M19.825,217.375l6.143,22.409h1.219v1.058h-7.442v-1.058h1.819l-1.616-6.467h-4.155l-1.078,4.654
		c-0.074,0.419-0.133,0.679-0.127,1.051c0.009,0.603,0.435,0.839,0.907,0.839h0.856v0.98h-4.826v-0.945h0.435
		c0.897-0.1,1.308-0.572,1.592-1.688l5.201-20.833H19.825 M19.654,232.307l-1.772-7.218h-0.044l-1.746,7.218H19.654z"/>
	<g>
		<path style="fill:#B37E2C;" d="M19.825,217.375l6.143,22.409h1.219v1.058h-7.442v-1.058h1.819l-1.616-6.467h-4.155l-1.078,4.654
			c-0.074,0.419-0.133,0.679-0.127,1.051c0.009,0.603,0.435,0.839,0.907,0.839h0.856v0.98h-4.826v-0.945h0.435
			c0.897-0.1,1.308-0.572,1.592-1.688l5.201-20.833H19.825z M19.654,232.307l-1.772-7.218h-0.044l-1.746,7.218H19.654z"/>
	</g>
	<path style="fill:#004C41;" d="M31.644,219.159v6.598h2.135v0.998h-2.135v10.833c0,1.057,0.154,1.789,0.697,1.789
		c0.587,0,0.966-0.98,1.214-1.494l0.605,0.443c-0.732,1.754-1.533,2.829-3.405,2.829c-0.998,0-2.741-1.005-2.741-3.91v-10.49h-1.299
		v-0.992c2.764,0,3.984-3.691,4.078-6.609L31.644,219.159"/>
	<path style="fill:#B37E2C;" d="M31.644,219.159v6.598h2.135v0.998h-2.135v10.833c0,1.057,0.154,1.789,0.697,1.789
		c0.587,0,0.966-0.98,1.214-1.494l0.605,0.443c-0.732,1.754-1.533,2.829-3.405,2.829c-0.998,0-2.741-1.005-2.741-3.91v-10.49h-1.299
		v-0.992c2.764,0,3.984-3.691,4.078-6.609L31.644,219.159z"/>
	<polyline style="fill:#004C41;" points="39.917,217.375 39.914,239.714 41.532,239.714 41.532,240.842 34.654,240.848 
		34.654,239.714 36.284,239.714 36.284,218.392 34.654,218.392 34.654,217.375 39.917,217.375 	"/>
	<polygon style="fill:#B37E2C;" points="39.917,217.375 39.914,239.714 41.532,239.714 41.532,240.842 34.654,240.848 
		34.654,239.714 36.284,239.714 36.284,218.392 34.654,218.392 34.654,217.375 	"/>
	<path style="fill:#004C41;" d="M49.423,239.412c-0.13,0.207-1.093,1.719-3.142,1.719"/>
	<path style="fill:#B37E2C;" d="M49.423,239.412c-0.13,0.207-1.093,1.719-3.142,1.719"/>
	<path style="fill:#004C41;" d="M60.241,225.852v1.801h0.047c0.776-1.264,1.961-2.238,3.653-2.238c2.268,0,3.36,1.66,3.36,5.34
		v9.061h1.645v1.051h-6.574v-1.051h1.285v-10.525c0-1.666-0.484-2.239-1.069-2.239c-1.27,0.006-2.315,2.398-2.315,3.875v8.896h1.299
		v1.045H55.01v-1.051h1.645v-12.959H55.01v-1.004H60.241"/>
	<path style="fill:#B37E2C;" d="M60.241,225.852v1.801h0.047c0.776-1.264,1.961-2.238,3.653-2.238c2.268,0,3.36,1.66,3.36,5.34
		v9.061h1.645v1.051h-6.574v-1.051h1.285v-10.525c0-1.666-0.484-2.239-1.069-2.239c-1.27,0.006-2.315,2.398-2.315,3.875v8.896h1.299
		v1.045H55.01v-1.051h1.645v-12.959H55.01v-1.004H60.241z"/>
	<path style="fill:#004C41;" d="M74.162,219.177v6.598h2.136v0.998h-2.136v10.833c0,1.057,0.157,1.789,0.697,1.789
		c0.591,0,0.969-0.98,1.214-1.494l0.605,0.443c-0.729,1.754-1.533,2.829-3.405,2.829c-0.998,0-2.738-1.004-2.738-3.91v-10.49h-1.299
		v-0.992c2.758,0,3.981-3.686,4.078-6.604H74.162"/>
	<path style="fill:#B37E2C;" d="M74.162,219.177v6.598h2.136v0.998h-2.136v10.833c0,1.057,0.157,1.789,0.697,1.789
		c0.591,0,0.969-0.98,1.214-1.494l0.605,0.443c-0.729,1.754-1.533,2.829-3.405,2.829c-0.998,0-2.738-1.004-2.738-3.91v-10.49h-1.299
		v-0.992c2.758,0,3.981-3.686,4.078-6.604H74.162z"/>
	<path style="fill:#004C41;" d="M46.26,241.125c-1.837,0-3.815-1.192-3.815-4.205c0-3.509,2.153-4.472,4.643-4.743l2.07-0.271
		v-2.652c0-2.025-0.254-2.947-1.766-2.947c-0.916,0-1.917,0.331-1.914,0.75c0,0.432,1.161,0.503,1.161,2.032
		c0,1.406-0.585,2.28-1.633,2.28c-1.137,0-1.698-1.063-1.698-2.451c0-1.985,1.849-3.633,4.25-3.633c2.436,0,5.103,1.033,5.103,4.885
		v7.483c0.009,1.052-0.039,1.63,0.387,1.63c0.381,0,0.546-1.01,0.546-1.89h0.8c0.186,2.386-1.069,3.697-2.604,3.697
		c-1.355,0-2-0.721-2.386-1.684 M49.157,232.957l-1.625,0.236c-1.536,0.271-1.412,1.659-1.412,2.982c0,1.76,0.104,3.544,1.412,3.544
		c1.04,0,1.633-1.713,1.625-3.143V232.957z"/>
	<path style="fill:#B37E2C;" d="M46.26,241.125c-1.837,0-3.815-1.192-3.815-4.205c0-3.509,2.153-4.472,4.643-4.743l2.07-0.271
		v-2.652c0-2.025-0.254-2.947-1.766-2.947c-0.916,0-1.917,0.331-1.914,0.75c0,0.432,1.161,0.503,1.161,2.032
		c0,1.406-0.585,2.28-1.633,2.28c-1.137,0-1.698-1.063-1.698-2.451c0-1.985,1.849-3.633,4.25-3.633c2.436,0,5.103,1.033,5.103,4.885
		v7.483c0.009,1.052-0.039,1.63,0.387,1.63c0.381,0,0.546-1.01,0.546-1.89h0.8c0.186,2.386-1.069,3.697-2.604,3.697
		c-1.355,0-2-0.721-2.386-1.684 M49.157,232.957l-1.625,0.236c-1.536,0.271-1.412,1.659-1.412,2.982c0,1.76,0.104,3.544,1.412,3.544
		c1.04,0,1.633-1.713,1.625-3.143V232.957z"/>
	<path style="fill:#004C41;" d="M81.304,241.179c-1.837,0-3.816-1.193-3.816-4.206c0-3.514,2.153-4.477,4.64-4.748l2.073-0.267
		v-2.651c0-2.026-0.254-2.947-1.766-2.947c-0.916,0-1.917,0.324-1.914,0.756c0,0.419,1.161,0.496,1.161,2.025
		c0,1.406-0.588,2.28-1.634,2.28c-1.14,0-1.697-1.063-1.697-2.451c0-1.984,1.849-3.633,4.249-3.633c2.437,0,5.104,1.034,5.104,4.879
		v7.489c0.009,1.052-0.038,1.631,0.387,1.631c0.381,0,0.547-1.01,0.547-1.891h0.8c0.187,2.387-1.069,3.692-2.604,3.692
		c-1.358,0-1.999-0.721-2.387-1.678 M84.2,233.004l-1.624,0.242c-1.535,0.271-1.411,1.66-1.411,2.982
		c0,1.755,0.103,3.544,1.411,3.544c1.037,0,1.633-1.707,1.624-3.142V233.004z"/>
	<path style="fill:#B37E2C;" d="M81.304,241.179c-1.837,0-3.816-1.193-3.816-4.206c0-3.514,2.153-4.477,4.64-4.748l2.073-0.267
		v-2.651c0-2.026-0.254-2.947-1.766-2.947c-0.916,0-1.917,0.324-1.914,0.756c0,0.419,1.161,0.496,1.161,2.025
		c0,1.406-0.588,2.28-1.634,2.28c-1.14,0-1.697-1.063-1.697-2.451c0-1.984,1.849-3.633,4.249-3.633c2.437,0,5.104,1.034,5.104,4.879
		v7.489c0.009,1.052-0.038,1.631,0.387,1.631c0.381,0,0.547-1.01,0.547-1.891h0.8c0.187,2.387-1.069,3.692-2.604,3.692
		c-1.358,0-1.999-0.721-2.387-1.678 M84.2,233.004l-1.624,0.242c-1.535,0.271-1.411,1.66-1.411,2.982
		c0,1.755,0.103,3.544,1.411,3.544c1.037,0,1.633-1.707,1.624-3.142V233.004z"/>
	<path style="fill:#004C41;" d="M84.445,239.46c-0.13,0.206-1.096,1.719-3.142,1.719"/>
	<path style="fill:#B37E2C;" d="M84.445,239.46c-0.13,0.206-1.096,1.719-3.142,1.719"/>
	<path style="fill:#004C41;" d="M92.384,225.089l-0.366-1.004c1.772-1.701,3.795-3.893,4.584-5.481h1.604v21.211h1.786v1.051h-6.647
		v-1.051h1.799v-15.8c0-0.633-0.109-0.969-0.538-0.815C94.263,223.312,92.691,224.806,92.384,225.089"/>
	<path style="fill:#B37E2C;" d="M92.384,225.089l-0.366-1.004c1.772-1.701,3.795-3.893,4.584-5.481h1.604v21.211h1.786v1.051h-6.647
		v-1.051h1.799v-15.8c0-0.633-0.109-0.969-0.538-0.815C94.263,223.312,92.691,224.806,92.384,225.089z"/>
	<path style="fill:#004C41;" d="M100.99,239.838c1.792,0,4.243-1.66,4.733-5.605c0.21-1.66,0.124-1.3,0.16-2.398h-0.036
		c-0.422,0.597-0.998,1.011-1.919,1.011c-2.015,0-3.896-1.985-3.896-7.029c0-4.73,1.901-7.596,4.684-7.596
		c3.08,0,4.85,4.052,4.85,8.512c0,7.212-3.353,14.14-8.576,14.14V239.838 M104.679,231.238c0.848,0,1.414-1.654,1.414-5.074
		c0-3.774-0.188-6.763-1.376-6.763c-1.019,0-1.436,1.116-1.436,5.6C103.281,229.779,103.793,231.238,104.679,231.238z"/>
	<path style="fill:#B37E2C;" d="M100.99,239.838c1.792,0,4.243-1.66,4.733-5.605c0.21-1.66,0.124-1.3,0.16-2.398h-0.036
		c-0.422,0.597-0.998,1.011-1.919,1.011c-2.015,0-3.896-1.985-3.896-7.029c0-4.73,1.901-7.596,4.684-7.596
		c3.08,0,4.85,4.052,4.85,8.512c0,7.212-3.353,14.14-8.576,14.14V239.838z M104.679,231.238c0.848,0,1.414-1.654,1.414-5.074
		c0-3.774-0.188-6.763-1.376-6.763c-1.019,0-1.436,1.116-1.436,5.6C103.281,229.779,103.793,231.238,104.679,231.238z"/>
	<path style="fill:#004C41;" d="M111.637,239.832c1.789,0,4.24-1.654,4.73-5.6c0.207-1.666,0.124-1.3,0.163-2.398h-0.039
		c-0.422,0.597-0.998,1.005-1.922,1.005c-2.012,0-3.893-1.985-3.893-7.023c0-4.73,1.901-7.602,4.684-7.602
		c3.083,0,4.853,4.058,4.853,8.512c0,7.218-3.355,14.14-8.576,14.14V239.832 M115.322,231.238c0.851,0,1.414-1.66,1.414-5.074
		c0-3.78-0.186-6.769-1.376-6.769c-1.019,0-1.433,1.116-1.433,5.6C113.928,229.779,114.437,231.238,115.322,231.238z"/>
	<path style="fill:#B37E2C;" d="M111.637,239.832c1.789,0,4.24-1.654,4.73-5.6c0.207-1.666,0.124-1.3,0.163-2.398h-0.039
		c-0.422,0.597-0.998,1.005-1.922,1.005c-2.012,0-3.893-1.985-3.893-7.023c0-4.73,1.901-7.602,4.684-7.602
		c3.083,0,4.853,4.058,4.853,8.512c0,7.218-3.355,14.14-8.576,14.14V239.832z M115.322,231.238c0.851,0,1.414-1.66,1.414-5.074
		c0-3.78-0.186-6.769-1.376-6.769c-1.019,0-1.433,1.116-1.433,5.6C113.928,229.779,114.437,231.238,115.322,231.238z"/>
	<path style="fill:#004C41;" d="M129.654,219.307c-1.793,0-4.247,1.654-4.737,5.6c-0.203,1.659-0.124,1.299-0.159,2.397h0.035
		c0.429-0.596,1.001-1.01,1.926-1.01c2.011,0,3.89,1.984,3.89,7.029c0,4.73-1.902,7.596-4.681,7.596
		c-3.084,0-4.853-4.058-4.853-8.506c0-7.218,3.352-14.146,8.579-14.146V219.307 M125.963,227.9c-0.845,0-1.412,1.654-1.412,5.074
		c0,3.774,0.189,6.763,1.377,6.763c1.019,0,1.432-1.116,1.432-5.6C127.359,229.359,126.854,227.9,125.963,227.9z"/>
	<g>
		<path style="fill:#B37E2C;" d="M129.654,219.307c-1.793,0-4.247,1.654-4.737,5.6c-0.203,1.659-0.124,1.299-0.159,2.397h0.035
			c0.429-0.596,1.001-1.01,1.926-1.01c2.011,0,3.89,1.984,3.89,7.029c0,4.73-1.902,7.596-4.681,7.596
			c-3.084,0-4.853-4.058-4.853-8.506c0-7.218,3.352-14.146,8.579-14.146V219.307z M125.963,227.9c-0.845,0-1.412,1.654-1.412,5.074
			c0,3.774,0.189,6.763,1.377,6.763c1.019,0,1.432-1.116,1.432-5.6C127.359,229.359,126.854,227.9,125.963,227.9z"/>
	</g>
	<path style="fill:#004C41;" d="M57.993,176.101v31.181h-2.138V178.25h-1.518c0.015,0,0-2.149,0-2.149
		S57.999,176.071,57.993,176.101"/>
	<path style="fill:#B37E2C;" d="M57.993,176.101v31.181h-2.138V178.25h-1.518c0.015,0,0-2.149,0-2.149
		S57.999,176.071,57.993,176.101z"/>
	<path style="fill:#004C41;" d="M41.186,147.454c1.557-1.625,3.754-2.641,6.181-2.641c4.731,0,8.565,3.833,8.565,8.564
		s-3.833,8.564-8.565,8.564c-4.731,0-8.562-3.833-8.562-8.564C38.806,151.08,39.712,148.989,41.186,147.454l-1.763-1.294
		c-1.734,1.908-2.788,4.436-2.788,7.218c0,5.93,4.805,10.738,10.732,10.738c5.93,0,10.735-4.809,10.735-10.738
		s-4.805-10.738-10.735-10.738c-3.148,0-5.977,1.358-7.944,3.521L41.186,147.454"/>
	<path style="fill:#B37E2C;" d="M41.186,147.454c1.557-1.625,3.754-2.641,6.181-2.641c4.731,0,8.565,3.833,8.565,8.564
		s-3.833,8.564-8.565,8.564c-4.731,0-8.562-3.833-8.562-8.564C38.806,151.08,39.712,148.989,41.186,147.454l-1.763-1.294
		c-1.734,1.908-2.788,4.436-2.788,7.218c0,5.93,4.805,10.738,10.732,10.738c5.93,0,10.735-4.809,10.735-10.738
		s-4.805-10.738-10.735-10.738c-3.148,0-5.977,1.358-7.944,3.521L41.186,147.454z"/>
	<path style="fill:#004C41;" d="M64.895,147.454c1.557-1.625,3.753-2.641,6.181-2.641c4.729,0,8.564,3.833,8.564,8.564
		s-3.836,8.564-8.564,8.564c-4.728,0-8.562-3.833-8.562-8.564C62.515,151.08,63.418,148.989,64.895,147.454l-1.763-1.294
		c-1.733,1.908-2.788,4.436-2.788,7.218c0,5.93,4.805,10.738,10.732,10.738c5.931,0,10.735-4.809,10.735-10.738
		s-4.805-10.738-10.735-10.738c-3.148,0-5.98,1.358-7.944,3.521L64.895,147.454"/>
	<path style="fill:#B37E2C;" d="M64.895,147.454c1.557-1.625,3.753-2.641,6.181-2.641c4.729,0,8.564,3.833,8.564,8.564
		s-3.836,8.564-8.564,8.564c-4.728,0-8.562-3.833-8.562-8.564C62.515,151.08,63.418,148.989,64.895,147.454l-1.763-1.294
		c-1.733,1.908-2.788,4.436-2.788,7.218c0,5.93,4.805,10.738,10.732,10.738c5.931,0,10.735-4.809,10.735-10.738
		s-4.805-10.738-10.735-10.738c-3.148,0-5.98,1.358-7.944,3.521L64.895,147.454z"/>
	<path style="fill:#004C41;" d="M88.689,147.454c1.56-1.625,3.751-2.641,6.182-2.641c4.728,0,8.564,3.833,8.564,8.564
		s-3.837,8.564-8.564,8.564c-4.731,0-8.562-3.833-8.562-8.564C86.31,151.08,87.213,148.989,88.689,147.454l-1.763-1.294
		c-1.734,1.908-2.788,4.436-2.788,7.218c0,5.93,4.805,10.738,10.732,10.738c5.93,0,10.734-4.809,10.734-10.738
		s-4.805-10.738-10.734-10.738c-3.148,0-5.98,1.358-7.944,3.521L88.689,147.454"/>
	<path style="fill:#B37E2C;" d="M88.689,147.454c1.56-1.625,3.751-2.641,6.182-2.641c4.728,0,8.564,3.833,8.564,8.564
		s-3.837,8.564-8.564,8.564c-4.731,0-8.562-3.833-8.562-8.564C86.31,151.08,87.213,148.989,88.689,147.454l-1.763-1.294
		c-1.734,1.908-2.788,4.436-2.788,7.218c0,5.93,4.805,10.738,10.732,10.738c5.93,0,10.734-4.809,10.734-10.738
		s-4.805-10.738-10.734-10.738c-3.148,0-5.98,1.358-7.944,3.521L88.689,147.454z"/>
	<path style="fill:#004C41;" d="M52.955,156.236c1.559-1.624,3.75-2.64,6.181-2.64c4.731,0,8.564,3.839,8.564,8.564
		c0,4.731-3.833,8.564-8.564,8.564c-4.728,0-8.562-3.833-8.562-8.564C50.575,159.863,51.481,157.772,52.955,156.236l-1.763-1.293
		c-1.73,1.907-2.791,4.441-2.791,7.218c0,5.93,4.808,10.732,10.735,10.732s10.735-4.803,10.735-10.732
		c0-5.931-4.808-10.732-10.735-10.732c-3.148,0-5.98,1.353-7.944,3.515L52.955,156.236"/>
	<path style="fill:#B37E2C;" d="M52.955,156.236c1.559-1.624,3.75-2.64,6.181-2.64c4.731,0,8.564,3.839,8.564,8.564
		c0,4.731-3.833,8.564-8.564,8.564c-4.728,0-8.562-3.833-8.562-8.564C50.575,159.863,51.481,157.772,52.955,156.236l-1.763-1.293
		c-1.73,1.907-2.791,4.441-2.791,7.218c0,5.93,4.808,10.732,10.735,10.732s10.735-4.803,10.735-10.732
		c0-5.931-4.808-10.732-10.735-10.732c-3.148,0-5.98,1.353-7.944,3.515L52.955,156.236z"/>
	<path style="fill:#004C41;" d="M76.749,156.236c1.557-1.624,3.754-2.64,6.182-2.64c4.731,0,8.564,3.839,8.564,8.564
		c0,4.731-3.833,8.564-8.564,8.564s-8.562-3.833-8.562-8.564C74.369,159.863,75.272,157.772,76.749,156.236l-1.763-1.293
		c-1.733,1.907-2.788,4.441-2.788,7.218c0,5.93,4.806,10.732,10.732,10.732s10.735-4.803,10.735-10.732
		c0-5.931-4.809-10.732-10.735-10.732c-3.148,0-5.98,1.353-7.944,3.515L76.749,156.236"/>
	<path style="fill:#B37E2C;" d="M76.749,156.236c1.557-1.624,3.754-2.64,6.182-2.64c4.731,0,8.564,3.839,8.564,8.564
		c0,4.731-3.833,8.564-8.564,8.564s-8.562-3.833-8.562-8.564C74.369,159.863,75.272,157.772,76.749,156.236l-1.763-1.293
		c-1.733,1.907-2.788,4.441-2.788,7.218c0,5.93,4.806,10.732,10.732,10.732s10.735-4.803,10.735-10.732
		c0-5.931-4.809-10.732-10.735-10.732c-3.148,0-5.98,1.353-7.944,3.515L76.749,156.236z"/>
	<polyline style="fill:#004C41;" points="31.036,142.787 28.897,142.787 28.897,136.036 113.556,136.036 113.556,142.806 
		111.418,142.806 111.418,138.175 31.036,138.175 31.036,142.787 	"/>
	<polygon style="fill:#B37E2C;" points="31.036,142.787 28.897,142.787 28.897,136.036 113.556,136.036 113.556,142.806 
		111.418,142.806 111.418,138.175 31.036,138.175 	"/>
	<path style="fill:#004C41;" d="M70.137,178.9v25.445c-0.021,0.584-0.532,1.051-1.116,1.051c-0.585,0-1.108-0.467-1.108-1.051V178.9
		c0-0.585,0.523-1.058,1.108-1.058C69.605,177.843,70.116,178.315,70.137,178.9h2.129c0-1.755-1.495-3.172-3.246-3.172
		c-1.751,0-3.246,1.417-3.246,3.172v25.445c0,1.754,1.495,3.172,3.246,3.172c1.751,0,3.246-1.418,3.246-3.172V178.9H70.137"/>
	<path style="fill:#B37E2C;" d="M70.137,178.9v25.445c-0.021,0.584-0.532,1.051-1.116,1.051c-0.585,0-1.108-0.467-1.108-1.051V178.9
		c0-0.585,0.523-1.058,1.108-1.058C69.605,177.843,70.116,178.315,70.137,178.9h2.129c0-1.755-1.495-3.172-3.246-3.172
		c-1.751,0-3.246,1.417-3.246,3.172v25.445c0,1.754,1.495,3.172,3.246,3.172c1.751,0,3.246-1.418,3.246-3.172V178.9H70.137z"/>
	<path style="fill:#004C41;" d="M84.442,178.889v25.439c-0.021,0.584-0.534,1.057-1.119,1.057s-1.107-0.473-1.107-1.057v-25.439
		c0-0.585,0.522-1.058,1.107-1.058S84.422,178.304,84.442,178.889h2.13c0-1.755-1.494-3.172-3.249-3.172
		c-1.751,0-3.248,1.417-3.248,3.172v25.439c0,1.754,1.497,3.178,3.248,3.178c1.755,0,3.249-1.424,3.249-3.178v-25.439H84.442"/>
	<path style="fill:#B37E2C;" d="M84.442,178.889v25.439c-0.021,0.584-0.534,1.057-1.119,1.057s-1.107-0.473-1.107-1.057v-25.439
		c0-0.585,0.522-1.058,1.107-1.058S84.422,178.304,84.442,178.889h2.13c0-1.755-1.494-3.172-3.249-3.172
		c-1.751,0-3.248,1.417-3.248,3.172v25.439c0,1.754,1.497,3.178,3.248,3.178c1.755,0,3.249-1.424,3.249-3.178v-25.439H84.442z"/>
	<path style="fill:#F1623F;" d="M50.551,77.249c5.717,8.786,15.25,12.649,24.119,16.081c7.295,2.688,15.168,4.501,20.667,11.092
		c3.777,4.454,4.543,11.11,2.69,16.677c-1.151,3.688-3.989,7.059-7.359,9.253c-2.814,1.816-6.229,2.72-9.509,2.968l-0.411,0.006
		c3.347-2.108,5.484-5.788,5.038-9.902c-0.363-2.389-1.364-4.648-3.438-6.184c-3.922-3.284-8.871-4.096-13.136-6.568
		c-5.31-2.711-10.682-7.253-13.009-12.885c-0.254,0.49-0.446,1.069-0.597,1.621c-1.742,6.716-0.924,14.619,1.728,20.711
		c2.07,5.098,5.821,10.301,10.856,13.16c-0.983,0.147-2.005,0.023-3.009,0.023c-8.913-0.579-16.612-5.635-22.073-12.927
		c-2.537-3.328-4.427-6.925-5.8-10.752c-1.766-4.912-2.581-10.195-2.732-15.783l0.044-1.169c3.157,3.881,7.377,7.206,12.303,7.761
		c-2.365-2.581-3.411-5.803-4.241-9.087c-0.874-3.922-0.963-8.763,0.062-12.667c0.768-3.092,1.857-6.058,3.349-8.854
		c0.342-0.573,0.641-1.169,1.045-1.704C47.609,71.425,48.72,74.476,50.551,77.249"/>
	<path style="fill:none;stroke:#F1623F;stroke-width:0.4808;" d="M50.551,77.249c5.717,8.786,15.25,12.649,24.119,16.081
		c7.295,2.688,15.168,4.501,20.667,11.092c3.777,4.454,4.543,11.11,2.69,16.677c-1.151,3.688-3.989,7.059-7.359,9.253
		c-2.814,1.816-6.229,2.72-9.509,2.968l-0.411,0.006c3.347-2.108,5.484-5.788,5.038-9.902c-0.363-2.389-1.364-4.648-3.438-6.184
		c-3.922-3.284-8.871-4.096-13.136-6.568c-5.31-2.711-10.682-7.253-13.009-12.885c-0.254,0.49-0.446,1.069-0.597,1.621
		c-1.742,6.716-0.924,14.619,1.728,20.711c2.07,5.098,5.821,10.301,10.856,13.16c-0.983,0.147-2.005,0.023-3.009,0.023
		c-8.913-0.579-16.612-5.635-22.073-12.927c-2.537-3.328-4.427-6.925-5.8-10.752c-1.766-4.912-2.581-10.195-2.732-15.783
		l0.044-1.169c3.157,3.881,7.377,7.206,12.303,7.761c-2.365-2.581-3.411-5.803-4.241-9.087c-0.874-3.922-0.963-8.763,0.062-12.667
		c0.768-3.092,1.857-6.058,3.349-8.854c0.342-0.573,0.641-1.169,1.045-1.704C47.609,71.425,48.72,74.476,50.551,77.249z"/>
	<path style="fill:#B37E2C;" d="M71.082,13.86c0.027,0,1.793,5.759,1.793,5.759h5.868l-4.767,3.582l1.763,5.676l-4.684-3.497
		l-4.631,3.47l1.736-5.676l-4.737-3.556h5.868L71.082,13.86"/>
	<path style="fill:none;stroke:#AF7D3C;stroke-width:0.4808;" d="M71.082,13.86c0.027,0,1.793,5.759,1.793,5.759h5.868l-4.767,3.582
		l1.763,5.676l-4.684-3.497l-4.631,3.47l1.736-5.676l-4.737-3.556h5.868L71.082,13.86z"/>
	<path style="fill:#986BAD;" d="M92.845,25.094c2.283,1.539,4.563,3.202,6.589,5.228c-2.067-0.021-4.196,0.041-6.182,0.298
		l-0.003,0.085c-0.041,2.732-0.041,5.481-0.404,8.083c-1.405-2.431-2.965-4.799-4.565-7.147l-0.118-0.153
		c-2.599,0.514-5.127,1.394-7.602,2.268c1.237-2.41,2.752-4.713,4.243-7.041c-1.471-1.852-2.985-3.647-4.733-5.352
		c2.643,0.298,5.206,0.931,7.746,1.527l0.059-0.077c1.176-1.515,2.476-3.009,3.881-4.35C92.334,20.575,92.522,22.858,92.845,25.094"
		/>
	<path style="fill:none;stroke:#986BAD;stroke-width:0.4808;" d="M92.845,25.094c2.283,1.539,4.563,3.202,6.589,5.228
		c-2.067-0.021-4.196,0.041-6.182,0.298l-0.003,0.085c-0.041,2.732-0.041,5.481-0.404,8.083c-1.405-2.431-2.965-4.799-4.565-7.147
		l-0.118-0.153c-2.599,0.514-5.127,1.394-7.602,2.268c1.237-2.41,2.752-4.713,4.243-7.041c-1.471-1.852-2.985-3.647-4.733-5.352
		c2.643,0.298,5.206,0.931,7.746,1.527l0.059-0.077c1.176-1.515,2.476-3.009,3.881-4.35C92.334,20.575,92.522,22.858,92.845,25.094z
		"/>
	<path style="fill:#00A2E0;" d="M88.196,37.444c2.238,1.282,4.326,2.9,6.373,4.628l0.109,0.101c1.964-0.683,3.907-1.654,5.673-2.765
		c1.025-0.646,2.106-1.353,2.963-2.28l-0.018,0.23c-0.494,3.987-1.687,7.702-3.157,11.281c2.516,4.076,4.477,8.426,4.583,13.458
		c-2.365-2.602-5.101-4.832-8.063-6.411l-0.095-0.05c-2.602,3.836-5.428,7.87-9.223,10.856c-0.682,0.532-1.367,1.09-2.094,1.515
		c0.36-0.854,0.721-1.787,1.004-2.646c1.271-3.819,1.834-7.953,1.793-12.283c-1.875-0.685-3.925-0.854-6.058-0.96
		c-1.577-0.041-3.201,0.021-4.713,0.298c0.404-0.576,1.042-1.193,1.601-1.683c0.298-0.298,0.661-0.559,1.001-0.877
		c2.368-1.964,4.988-3.541,7.634-4.926c-0.384-3.092-1.316-6.09-2.533-8.86l0.082,0.029C86.149,36.399,87.172,36.931,88.196,37.444"
		/>
	<path style="fill:none;stroke:#00A2E0;stroke-width:0.4808;" d="M88.196,37.444c2.238,1.282,4.326,2.9,6.373,4.628l0.109,0.101
		c1.964-0.683,3.907-1.654,5.673-2.765c1.025-0.646,2.106-1.353,2.963-2.28l-0.018,0.23c-0.494,3.987-1.687,7.702-3.157,11.281
		c2.516,4.076,4.477,8.426,4.583,13.458c-2.365-2.602-5.101-4.832-8.063-6.411l-0.095-0.05c-2.602,3.836-5.428,7.87-9.223,10.856
		c-0.682,0.532-1.367,1.09-2.094,1.515c0.36-0.854,0.721-1.787,1.004-2.646c1.271-3.819,1.834-7.953,1.793-12.283
		c-1.875-0.685-3.925-0.854-6.058-0.96c-1.577-0.041-3.201,0.021-4.713,0.298c0.404-0.576,1.042-1.193,1.601-1.683
		c0.298-0.298,0.661-0.559,1.001-0.877c2.368-1.964,4.988-3.541,7.634-4.926c-0.384-3.092-1.316-6.09-2.533-8.86l0.082,0.029
		C86.149,36.399,87.172,36.931,88.196,37.444z"/>
	<path style="fill:#EE2E6B;" d="M78.646,68.303c0.083,0.032,0.343,0.077,0.464,0.118c5.183,1.175,11.604,1.677,16.954,0.522
		c0.875-0.168,1.707-0.466,2.537-0.723c-1.172,3.647-3.942,6.825-7.014,9.382c-1.984,1.642-4.265,2.561-6.527,3.541l-0.056,0.029
		c2.52,4.929,6.604,9.356,11.039,13.045c0.98,0.809,2.015,1.527,3.036,2.232l-0.369,0.009c-7.87-0.62-15.23-2.433-21.945-5.779
		c-4.12-2.026-8.104-4.799-11.433-8.192c-6.355-6.787-9.185-12.297-9.639-21.243c-0.168-3.302,0.277-6.523,1.406-9.382
		c0.685,4.521,3.136,8.532,6.849,11.58l0.239,0.177c1.196-6.272,3.813-12.079,8.525-16.81c1.427-1.409,2.921-2.69,4.604-3.564
		c-1.771,3.99-2.38,8.68-1.92,13.396c0.399,4.061,1.409,7.912,3.116,11.429C78.533,68.114,78.625,68.271,78.646,68.303"/>
	<path style="fill:none;stroke:#EE2E6B;stroke-width:0.4808;" d="M78.646,68.303c0.083,0.032,0.343,0.077,0.464,0.118
		c5.183,1.175,11.604,1.677,16.954,0.522c0.875-0.168,1.707-0.466,2.537-0.723c-1.172,3.647-3.942,6.825-7.014,9.382
		c-1.984,1.642-4.265,2.561-6.527,3.541l-0.056,0.029c2.52,4.929,6.604,9.356,11.039,13.045c0.98,0.809,2.015,1.527,3.036,2.232
		l-0.369,0.009c-7.87-0.62-15.23-2.433-21.945-5.779c-4.12-2.026-8.104-4.799-11.433-8.192c-6.355-6.787-9.185-12.297-9.639-21.243
		c-0.168-3.302,0.277-6.523,1.406-9.382c0.685,4.521,3.136,8.532,6.849,11.58l0.239,0.177c1.196-6.272,3.813-12.079,8.525-16.81
		c1.427-1.409,2.921-2.69,4.604-3.564c-1.771,3.99-2.38,8.68-1.92,13.396c0.399,4.061,1.409,7.912,3.116,11.429
		C78.533,68.114,78.625,68.271,78.646,68.303z"/>
</g>
</svg>
