<?xml version="1.0" encoding="utf-8"?>
<!-- Generator: Adobe Illustrator 12.0.0, SVG Export Plug-In . SVG Version: 6.00 Build 51448)  -->
<!DOCTYPE svg PUBLIC "-//W3C//DTD SVG 1.1//EN" "http://www.w3.org/Graphics/SVG/1.1/DTD/svg11.dtd" [
	<!ENTITY ns_svg "http://www.w3.org/2000/svg">
	<!ENTITY ns_xlink "http://www.w3.org/1999/xlink">
]>
<svg  version="1.1" id="Layer_1" xmlns="&ns_svg;" xmlns:xlink="&ns_xlink;" width="452.617" height="561.265"
	 viewBox="0 0 452.617 561.265" overflow="visible" enable-background="new 0 0 452.617 561.265" xml:space="preserve">
<g>
	<path fill-rule="evenodd" clip-rule="evenodd" d="M407.382,383.521c-0.316,2.303-2.042,3.861-3.7,5.268
		c-2.543,2.139-6.264,3.668-9.442,4.84c-0.56-8.912,6.993-14.396,8.807-22.336C408.616,373.12,406.843,379.249,407.382,383.521
		L407.382,383.521z M357.138,388.407c2.757-6.188,6.773-12.451,7.825-19.6c0.038-0.234,0.038-0.428,0.038-0.639
		c-0.021-0.094-0.059-0.176-0.117-0.258c-0.056-0.088-0.144-0.188-0.199-0.264c-0.185-0.287-0.366-0.498-0.551-0.768
		c-0.076-0.082-0.155-0.176-0.231-0.264c-0.097-0.047-0.173-0.105-0.252-0.164c-0.287-0.141-0.598-0.17-0.867-0.346
		c-0.123-0.076-0.249-0.17-0.413-0.223c-0.164-0.006-0.357-0.018-0.53,0.029c-0.076,0.023-0.193,0-0.249,0.041
		c-6.785,3.199-12.182,8.227-15.398,14.73c-3.27,5.063-0.706,10.922,2.388,15.797c1.099,1.945,7.708,1.986,10.948,0.598
		c0.519-0.234,4.529-2.602,5.985-3.838c4.4-3.721,9.721-6.744,13.567-11.643c2.871-4.893,0.22-10.189-1.898-14.836
		c6.088,0.305,11.921,0.211,17.2,3.17c0.51,1.072,0.75,0.686,0.809,1.805c-2.977,7.553-11.361,11.52-11.728,20.965
		c0.097,10.09,4.046,9.832,5.628,9.404c9.8-4.295,22.011-9.885,26.2-19.576c0.879-7.846-5.81-13.166-11.593-16.441v-0.152
		c6.053-1.875,33.103-2.607,26.657,5.449c-4.406,4.166-9.618,7.729-11.353,14.203c-0.598,4.031,0.308,8.191,2.476,11.584
		c0.202,0.328,0.686,0.58,0.955,0.645c0.27,0.059,0.521,0.1,0.8,0.188c0.287,0.076,0.548,0.059,0.838,0.018
		c0.059,0,0.135-0.064,0.202-0.094c0.038,0,0.097,0,0.126-0.012c0.076-0.076,0.19-0.164,0.27-0.129
		c1.482,0.697,2.795-0.797,4.286-0.574c8.376-3.363,15.835-7.189,21.691-14.115c2.276-4.148,2.238-9.709-0.595-14.104
		c-3.278-3.58-8.309-0.809-12.337,0.029c-0.308-1.682-1.474-3.305-2.947-3.961c-10.928-3.639-23.968-2.947-35.713-2.455
		c-0.038,0-0.038-0.059-0.038-0.059c-0.041-0.123-0.076-0.199-0.144-0.275c-0.021-0.041-0.059-0.088-0.079-0.129
		c-0.067-0.123-0.202-0.258-0.346-0.281c-0.434-0.035-0.858,0.041-1.292,0.023c-0.018,0-0.047-0.059-0.047-0.059
		c-0.155,0-0.223-0.152-0.319-0.252c-0.047-0.041-0.144-0.041-0.182,0c-0.173,0.158-0.311,0.328-0.463,0.504
		c-0.926,1.037-1.948,1.945-2.525,3.234l-18.926-2.215l-2.235-1.945c-1.658-0.867-3.721,0.768-5.165,1.078
		c-1.465,0.135-1.696,1.857-1.781,3.023c-0.513,3.217,3.208,0.973,4.075,3.387c0.636,1.975,0.791,3.938,0.867,6.076
		c0.656,7.693-6.823,11.549-12.182,14.607c-0.164,0.1-0.404,0-0.568-0.123c-0.029-0.018-0.085-0.018-0.126-0.029
		c-0.097-0.035-0.19-0.059-0.278-0.117c-0.038-0.035-0.126-0.018-0.146-0.076c-0.018-0.053,0.021-0.123-0.038-0.182
		c-0.018-0.029-0.038-0.029-0.038-0.041C357.012,388.636,357.1,388.513,357.138,388.407L357.138,388.407z M442.401,382.636
		c-3.372,3.65-8.124,6.832-13.008,8.432c-0.715-6.352,4.017-12.416,7.283-17.596c2.736-0.668,4.664,0.633,6.217,1.348
		C444.944,375.839,444.156,380.333,442.401,382.636L442.401,382.636z"/>
	<path fill-rule="evenodd" clip-rule="evenodd" d="M281.347,419.919l0.041,0.035c0.952,1.863,2.165,3.586,3.595,5.139
		c2.716,2.842,6.542,0.029,10.078,0.51c0,0,48.144-6.791,54.715-7.131c4.26-0.463,11.449-2.197,16.652-4.213
		c2.736-0.51,5.974,0,8.71-0.527c0.85-0.205,1.04-0.023,1.881-0.234c1.146-0.404,2.572-1.617,1.937-2.408
		c-0.85-1.002-2.361-1.752-3.738-2.256c-0.105-0.094-0.85-0.48-1.052-0.48c-0.316-0.205-0.647-0.305-0.952-0.504
		c-0.425-0.094-0.85-0.082-1.274-0.287c-2.323-0.574-2.024-0.557-4.354-1.137c-17.385-2.602-41.265-1.107-59.892,1.061
		c4.857-5.396,10.802-11.836,16.816-17.074c8.171-8.426,20.795-17.771,17.133-32.285c-1.107-3.141-9.135-15.838-40.588-1.928
		c-3.768,2.027-8.095,3.357-10.802,7.037c-0.589,0.791-0.879,2.109-0.108,2.959c0.146,0.223,0.223,0.744,0.29,1.148
		c0.223,1.318,1.33,1.002,1.966,1.922c0.155,0.223,0.349,0.387,0.56,0.539c1.638,1.4,3.97,3.85,6.34,2.209
		c8.52-14.232,29.613-19.09,33.776-12.287c0.926,1.793,0,3.598-1.069,5.438c-13.567,17.385-32.013,31.963-45.542,47.432
		c-2.361,0.498-3.372,1.887-4.444,3.381c-0.047,0.064-0.144,0.123-0.182,0.182c-0.059,0.117-0.126,0.234-0.202,0.328
		c-0.308,0.445-0.606,0.779-0.914,1.213c-0.079,0.1-0.079,0.252-0.155,0.387c-0.097,0.176-0.076,0.416,0,0.615
		c0.021,0.059,0.076,0.129,0.135,0.182C280.934,419.239,281.145,419.567,281.347,419.919L281.347,419.919z"/>
	<path fill-rule="evenodd" clip-rule="evenodd" d="M78.739,394.325c-0.507-0.486-0.404-1.201-0.467-1.805
		c2.476-7.564,6.712-14.561,9.564-21.826c0.021-0.059,0.069-0.117,0.076-0.152c0.073-0.193,0.044-0.387,0.01-0.58
		c0-0.041-0.018-0.076-0.018-0.117c-0.031-0.17-0.117-0.299-0.126-0.463c-0.035-0.246-0.035-0.48,0-0.721c0,0,0-0.029,0.009-0.041
		c0.019-0.064-0.009-0.105,0-0.164c0.04-0.111,0.117-0.193,0.155-0.287c0.023-0.059,0.042-0.152,0-0.234
		c-0.031-0.053-0.098-0.105-0.136-0.17c0-0.018,0-0.059-0.019-0.076c-0.072-0.1-0.13-0.193-0.226-0.264
		c-0.16-0.105-0.29-0.217-0.406-0.346c-0.259-0.223-0.434-0.551-0.751-0.703c-0.139-0.064-0.308-0.094-0.404-0.211
		c-0.179-0.012-0.366,0.047-0.511-0.041c-0.448-0.27-0.684-0.68-1.194-0.059c-0.021,0.023-0.103,0-0.149,0
		c0.009-0.018-0.021-0.059-0.031-0.059c-0.1-0.07-0.207-0.07-0.316-0.129c-0.067-0.029-0.078-0.117-0.198-0.029
		c-0.135,0.105-0.246,0.217-0.372,0.328l-2.982,2.127c-9.612,11.35-16.607,36.867,1.085,29.273
		c6.403-3.199,11.336-7.688,16.699-12.094c-1.6,5.637-2.953,10.266-4.75,15.967c-3.025,11.068-6.847,23.016-4.54,33.791
		c1.027,1.459,0.987,4.74,3.171,4.553c1.252-1.271,3.984-0.299,3.85-3.053c-1.749-3.645,2.621-4.676,2.621-8.115
		c2.747-16.518,8.086-34.359,11.563-50.303l2.145-3.07c-0.029-1.863-2.172-2.432-2.93-4.154c-2.665,0.656-5.763-1.154-7.907,1.928
		c0.103,0.768,0.602,1.658,0.227,2.303c-5.493,7.506-12.917,13.811-20.997,19.031c-0.097,0.059-0.207,0.059-0.303,0.117
		c-0.073,0.059-0.179,0.076-0.252,0.094c-0.116,0.059-0.255,0.023-0.371-0.047c-0.101-0.07-0.299-0.07-0.394-0.105
		c-0.122-0.059-0.248-0.041-0.366-0.059C78.777,394.36,78.748,394.343,78.739,394.325L78.739,394.325z"/>
	<path fill-rule="evenodd" clip-rule="evenodd" d="M65.672,387.347c-0.877,3.234-1.195,5.895-3.07,8.525
		c-5.376,8.133-15.018,15.082-22.371,21.252c-5.761,4.857-14.304,13.893-19.566,19.23c-0.501,0.715-1.223,0.346-1.046-0.926
		c0-0.018,0.029-0.018,0.04-0.018c-0.01-0.088,0.029-0.182,0.044-0.27c0.028-0.199,0.028-0.387,0-0.58
		c0-0.035-0.083-0.076-0.092-0.123c-0.048-0.146-0.107-0.281-0.208-0.387c-0.047-0.064-0.038-0.164,0-0.24
		c7.853-14.191,20.14-26.578,28.896-40.846c2.366-3.557,4.22-6.645,3.025-10.014c-2.524-8.848-24.028-1.213-28.132,0.152
		c-0.086,0.029-0.174-0.018-0.286,0.041c-0.038,0.053-0.148,0.053-0.188,0c-0.067-0.047-0.135-0.1-0.208-0.135
		c-0.573-0.311-1.43,1.195-2.427,1.096c-0.019,0-0.038-0.035-0.038-0.035c0-0.059-0.029-0.088-0.048-0.135
		c-0.009-0.053-0.048-0.088-0.059-0.158c-0.034-0.035-0.101-0.035-0.167-0.035c-0.218,0-0.435,0-0.652,0.018
		c-0.328,0.041-0.65,0.088-0.949,0.041c-0.771-0.135,0.019,0.539-0.543,0.709l-0.019,0.023c-0.584,0-1.113-0.17-1.698-0.059
		c-0.434,0.076-0.867-0.041-1.299,0.076c-0.545,0.141-1.09,0.211-1.63,0.252c-0.938,0.076-1.912,0.111-2.852,0
		c-0.731-0.076-1.383-0.217-2.099-0.328c-0.516-0.111-0.949-0.293-1.412-0.463c-0.299-0.158-0.516-0.293-0.762-0.51
		c-0.149-0.07-0.333-0.029-0.472-0.105c-2.279-1.277-4.818-4.148-5.319-7.26c-0.898-11.063,7.91-18.703,13.923-25.682
		c9.56-9.357,20.917-16.939,32.238-24.223c0.256-0.176,0.501-0.299,0.776-0.445c0.25-0.135,0.516-0.211,0.79-0.258
		c0.246-0.059,0.463-0.105,0.703-0.164c0.136-0.059,0.217-0.158,0.353-0.223c0.139-0.029,0.27-0.076,0.404-0.105
		c0.328-0.059,0.602-0.211,0.901-0.299c0.727-0.146,1.44,0.164,2.14-0.059c1.036-0.328,2.09-0.24,3.145-0.346
		c0.218-0.029,0.435-0.223,0.684-0.281c0.246-0.018,0.463-0.041,0.709-0.105c0.516-0.076,0.92-0.34,1.431-0.434
		c0.141-0.029,0.274-0.047,0.415,0c0.129,0.059,0.265,0.135,0.423,0.17c0.309,0.023,0.602-0.035,0.901,0.082v0.047
		c0.029,0.029,0.078,0,0.078,0.018c0-0.018-0.048,0.012-0.078-0.064c0.078,0.182,0.164,0.346,0.193,0.48
		c0.158,1.33,0.101,2.643,0.24,3.967c0,0.111,0.029,0.234,0.059,0.369c0.158,0.504,0.404,0.926,0.573,1.447
		c0,0.076,0.048,0.17,0.126,0.252c0.034,0.035,0.034,0.152,0.063,0.211h0.048v0.059c0.028,0.018,0.057,0.053,0.105,0.053
		c2.341,0.135,0.741,3.094,1.185,4.664c1.225,3.105-0.284,4.377-6.441,9.891c-13.352,6.217-27.729,11.871-39.718,24.146
		c-0.684,0.703-2.134,2.104-2.736,3.498c7.163,1.09,15.712-1.617,22.824-2.004c8.49-1.881,20.626-1.975,26.533,6.193
		c1.711,2.508,3.114,5.479,2.568,8.754c-0.009,0.076,0.132,0.094,0.189,0.164c0.038,0.035-0.01,0.123,0.029,0.182
		c0.057,0.094,0.076,0.176,0.057,0.27c0,0.047-0.019,0.088-0.038,0.135c-0.01,0.135-0.01,0.24-0.059,0.346
		C65.74,386.978,65.71,387.2,65.672,387.347L65.672,387.347z"/>
	<path fill-rule="evenodd" clip-rule="evenodd" d="M215.445,386.228c5.632-4.424,12.623-7.688,15.148-15.727
		c0.349-1.799,1.562-9.24-3.97-8.52c-12.233,1.195-21.504,9.85-21.354,25.037c0,0-2.221,1.898-3.589,2.004
		c-2.145,0.135-3.397-1.717-3.899-2.602c-2.764-6.176-4.403-15.557-10.768-18.234c-4.408,0.047-9.491,2.602-12.637,5.889
		c-0.877-3.334-3.653-7.764-7.286-8.432c-0.756-0.135-1.122,0.117-1.932,0.938c-0.12,0.111-0.365,0.24-0.582,0.316
		c-0.294,0-0.747,0.404-0.661,0.75c2.25,8.713-4.727,18.504-3.127,27.563c2.035,2.156,1.223,6.053,4.576,5.455
		c1.422,0.076,2.854-0.68,3.822-1.354c4.616-5.314,5.95-12.533,6.114-19.852c2.174-2.607,6.486-6.311,8.528-5.01
		c3.127,8.385,2.477,20.871,11.883,23.883c4.604,1.213,7.617-1.652,10.537-4.078c1.036,2.537,2.25,4.037,4.746,4.324
		c4.639,1.119,10.923-3.311,16.525-7.939c3.458-2.906,7.487-6.533,10.997-9.311c-1.406,6.17-0.425,11.912,2.399,17.232
		c0.606,1.541,4.462,1.236,6.428-0.75c2.581-3.738,6.264-6.287,8.95-9.135c1.939-2.027,3.771-4.553,5.889-5.918
		c-0.48,7.324-8.613,30.621-8.818,38.227c-0.22,7.564,0.349,15.92,5.042,21.557c1.289,0,2.669-0.182,3.855-1.389l-0.021-0.029
		c-0.021-0.105-0.021-0.199-0.097-0.316c-0.021-0.018,0-0.088,0-0.117c-0.021-0.047-0.021-0.088-0.038-0.135
		c-0.135-0.258-0.328-0.463-0.463-0.721c0-0.012,0-0.041,0-0.059c-0.059-0.047-0.079-0.123-0.088-0.182
		c-0.047-0.164-0.047-0.346,0-0.51c0.029-0.117,0.029-0.246,0.067-0.34c0.059-0.076,0.097-0.146,0.135-0.193
		c0.038-0.018,0.059-0.076,0.097-0.094c0.021-0.018,0-0.059,0-0.1c-0.114-6.029,3.442-12.293,3.144-18.762
		c1.271-10.529,9.964-37.107,6.706-46.775c0-0.035,0.047-0.141,0.097-0.223c0.114-0.123,0.126-0.275,0.249-0.422
		c0.021-0.018,0.038-0.076,0.038-0.094c0.059-0.445-0.076-0.861-0.278-1.254c-0.059-0.117-0.223-0.211-0.328-0.328
		c-0.076-0.088-0.114-0.193-0.22-0.252c-0.146-0.059-0.243-0.135-0.366-0.229c-0.155-0.1-0.252-0.252-0.366-0.404
		c-0.117-0.193-0.176-0.369-0.281-0.551c-0.067-0.105-0.202-0.182-0.316-0.146c-0.173,0.059-0.328,0.023-0.501,0.041
		c-2.353,0.123-4.975-2.104-7.269,0.328c-0.935,9.135-7.843,13.605-13.992,18.193c-1.251,0.984-0.864-2.543-0.935-3.645
		c-0.056-1.096,0.223-5.971,0.589-7.277c0.346-1.219,1.389-5.578,1.09-7.107c-0.059-0.328-0.088-0.609-0.223-0.879
		c-0.076-0.117-0.22-0.152-0.328-0.176c-0.047-0.035-0.114-0.064-0.135-0.164c-0.059-0.064-0.144-0.064-0.223-0.064
		c-0.334-0.059-0.683-0.076-1.011,0.035c-0.144,0.029-0.308,0.129-0.442,0.129c-0.501,0.064-0.964,0.088-1.456,0.205
		c-0.223,0.053-0.442,0.188-0.665,0.287c-0.732,0.299-1.503,0.287-2.253,0.258c-2.988-0.105-0.8,3.094-1.948,4.494
		c-6.744,6.445-18.39,15.773-21.667,16.178C215.445,389.831,215.445,386.228,215.445,386.228L215.445,386.228z M222.547,367.976
		c0,0,5.521,6.17-8.87,15.574C213.677,383.55,214.637,370.384,222.547,367.976L222.547,367.976z"/>
	<path fill-rule="evenodd" clip-rule="evenodd" d="M153.84,374.497c0.69,3.926,0.896,7.875,2.102,11.613
		c-1.245,1.236-2.594,1.33-3.957,1.289c-1.036-1.383-3.382-2.789-5.074-3.814c-7.392,8.25-22.39,18.791-26.366,18.791
		c-2.682,0.879-6.253-3.85-6.885-6.123c-3.444-20.988,24.905-27.639,30.018-27.369c-0.385-10.459,2.467-26.561,8.553-35.232
		c0.838-1.389,2.25-1.33,3.426-1.482C161.192,336.892,155.185,369.651,153.84,374.497L153.84,374.497z M143.369,381.657
		c-6.195-2.256-12.401,1.793-16.786,6.17c-1.932,2.432-4.25,5.01-4.269,8.555C130.49,394.542,137.935,387.979,143.369,381.657
		L143.369,381.657z"/>
	<path fill-rule="evenodd" clip-rule="evenodd" fill="#FEC233" d="M212.998,526.823c-1.777,15.803-15.177,28.09-31.447,28.09
		c-17.486,0-31.657-14.174-31.657-31.658c0-13.395,8.316-24.844,20.058-29.467c0.318-1.746,0.486-3.545,0.486-5.379
		c0-0.498-0.009-1.002-0.038-1.5c-15.543,4.77-26.852,19.23-26.852,36.346c0,20.988,17.013,38.01,38.002,38.01
		c19.415,0,35.432-14.584,37.711-33.393C217.123,527.69,215.031,527.345,212.998,526.823L212.998,526.823z"/>
	<path fill-rule="evenodd" clip-rule="evenodd" fill="#FEC233" d="M179.872,491.644c0.551-0.029,1.113-0.053,1.679-0.053
		c15.233,0,27.945,10.764,30.97,25.102c2.136,0.773,4.375,1.301,6.694,1.582c-2.439-18.645-18.363-33.023-37.664-33.023
		c-0.565,0-1.128,0.018-1.688,0.041c0.086,1.025,0.135,2.057,0.135,3.117C179.998,489.499,179.949,490.571,179.872,491.644
		L179.872,491.644z"/>
	<path fill-rule="evenodd" clip-rule="evenodd" fill="#034EA2" d="M141.92,523.255c0-1.096,0.047-2.156,0.139-3.229
		c-0.554,0.029-1.118,0.053-1.69,0.053c-17.471,0-31.657-14.186-31.657-31.67c0-17.479,14.186-31.652,31.657-31.652
		c17.489,0,31.668,14.174,31.668,31.652c0,13.395-8.32,24.826-20.063,29.461c-0.318,1.746-0.491,3.533-0.491,5.385
		c0,0.492,0.019,1.002,0.038,1.506c15.548-4.77,26.856-19.236,26.856-36.352c0-20.988-17.017-38.004-38.01-38.004
		c-20.99,0-37.997,17.016-37.997,38.004s17.007,38.01,37.997,38.01c0.573,0,1.126-0.018,1.69-0.041
		C141.978,525.347,141.92,524.298,141.92,523.255L141.92,523.255z"/>
	<path fill-rule="evenodd" clip-rule="evenodd" d="M191.277,484.829c1.789-15.797,15.188-28.072,31.449-28.072
		c17.486,0,31.668,14.174,31.668,31.652c0,13.395-8.326,24.826-20.051,29.461c-0.319,1.746-0.51,3.533-0.51,5.385
		c0,0.492,0.018,1.002,0.035,1.506c15.554-4.77,26.865-19.236,26.865-36.352c0-20.988-17.016-38.004-38.008-38.004
		c-19.418,0-35.414,14.572-37.702,33.369C187.152,483.962,189.254,484.325,191.277,484.829L191.277,484.829z"/>
	<path fill-rule="evenodd" clip-rule="evenodd" d="M224.277,523.255c0-1.096,0.048-2.156,0.135-3.229
		c-0.56,0.029-1.112,0.053-1.686,0.053c-15.226,0-27.946-10.764-30.967-25.096c-2.13-0.773-4.37-1.301-6.697-1.582
		c2.448,18.639,18.372,33.018,37.664,33.018c0.574,0,1.126-0.018,1.686-0.041C224.335,525.347,224.277,524.298,224.277,523.255
		L224.277,523.255z"/>
	<path fill-rule="evenodd" clip-rule="evenodd" fill="#00AE5B" d="M295.348,526.823c-1.772,15.803-15.167,28.09-31.453,28.09
		c-17.479,0-31.644-14.174-31.644-31.658c0-13.395,8.314-24.844,20.063-29.467c0.308-1.746,0.48-3.545,0.48-5.379
		c0-0.498-0.018-1.002-0.038-1.5c-15.542,4.77-26.851,19.23-26.851,36.346c0,20.988,17.004,38.01,37.989,38.01
		c19.43,0,35.435-14.572,37.72-33.381C299.473,527.69,297.384,527.345,295.348,526.823L295.348,526.823z"/>
	<path fill-rule="evenodd" clip-rule="evenodd" fill="#00AE5B" d="M262.354,488.409c0,1.09-0.038,2.162-0.135,3.234
		c0.56-0.029,1.119-0.053,1.676-0.053c15.246,0,27.967,10.764,30.981,25.102c2.13,0.773,4.365,1.301,6.697,1.582
		c-2.446-18.645-18.366-33.023-37.679-33.023c-0.557,0-1.116,0.018-1.676,0.041C262.307,486.317,262.354,487.349,262.354,488.409
		L262.354,488.409z"/>
	<path fill-rule="evenodd" clip-rule="evenodd" fill="#F15A29" d="M305.092,450.405c-19.418,0-35.432,14.572-37.717,33.369
		c2.147,0.188,4.23,0.551,6.255,1.055c1.79-15.797,15.185-28.072,31.462-28.072c17.47,0,31.655,14.174,31.655,31.652
		c0,17.484-14.186,31.67-31.655,31.67c-15.246,0-27.964-10.775-30.981-25.113c-2.121-0.773-4.365-1.301-6.697-1.564
		c2.449,18.621,18.378,33.018,37.679,33.018c20.977,0,37.998-17.021,37.998-38.01S326.069,450.405,305.092,450.405L305.092,450.405z
		"/>
	<path fill-rule="evenodd" clip-rule="evenodd" fill="#FEC233" d="M278.256,106.3c-4.453-2.924-11.912-0.968-16.594-0.762
		c-0.155,0.01-0.311,0.01-0.463-0.028c-0.639-0.139-1.236,0-1.872-0.063c-0.152-0.154-0.229-0.193-0.366-0.371
		c-0.038-0.042-0.056-0.12-0.094-0.12c-0.24-0.038-0.387-0.217-0.618-0.179c-0.27,0.04-0.557,0.04-0.82,0.141
		c-0.076,0.018-0.161,0.038-0.24,0.057c-0.076,0.038-0.425,0.139-0.51,0.17c-1.389,0.524-2.804,1.579-3.056,2.937
		c-4.037,9.743,2.121,21.091,7.805,29.281c5.156,5.169,12.144,8.958,19.351,7.223c2.883-1.711,3.308-5.802,3.768-8.143
		C284.344,127.27,286.348,112.94,278.256,106.3L278.256,106.3z M274.767,134.578c0,0.17-1.204,0.17-1.204-0.158
		c-0.521-1.17-1.38-1.998-2.244-2.673c-0.176-0.333-0.521-0.501-0.521-0.993c-0.176-0.337-0.867-0.674-1.031-1.006
		c-0.686-1.336-1.562-2.665-2.42-3.832c-1.541-1.666-3.103-3.179-3.797-5.001c-0.519-1.501-0.519-3.334,0.346-4.677
		c1.216-1.668,2.593-2.487,4.491-3.146c1.031-0.168,2.487-0.444,3.721-0.101c0.067,0.019,0.117,0.063,0.152,0.101
		c0,0.019,0.012,0.048,0.012,0.059c0.059,0.066,0.144,0.095,0.182,0.177c0.041,0.097,0.059,0.207,0,0.294
		c-0.038,0.139,0,0.318-0.038,0.453c-0.059,0.13-0.097,0.318,0.021,0.404c0.059,0.04,0.135,0.082,0.155,0.141
		c0.568,1.301,0.19,2.145,0.8,3.623c0.173,0.829,0.683,1.499,0.855,2.338C274.246,125.247,276.153,129.915,274.767,134.578
		L274.767,134.578z"/>
	<path fill-rule="evenodd" clip-rule="evenodd" fill="#FEC233" d="M232.714,102.017c-0.445,0.275-1.022,0.612-1.515,0.791
		c-0.105,0.038-0.278,0.293-0.404,0.322c-0.8,0.478-1.185,1.214-1.532,2.016c-0.076,0.1-0.26,0.177-0.346,0.272
		c-0.299,0.584-0.483,1.187-0.568,1.866c0.027,0.179,0.287,0.299,0.316,0.413c0.56,1.296,1.62,2.043,2.947,2.086
		c0.349,0.021,0.656-0.042,1.005-0.018c0.914,0.076,1.772,0.434,2.716,0.39c0.542-0.057,1.002-0.019,1.506,0.092
		c1.462,0.186,4.392,0.987,4.479,1.006c1.052,0.245,2.013,1.349,3.044,1.008c0.812-0.199,1.397-1.187,1.784-2.035
		c0.182-0.892,0.691-1.522,1.031-2.191c0.847-1.311,2.063-2.536,1.629-4.115l-0.079-0.103c-0.27-0.066-0.539-0.154-0.8-0.105
		c-0.038,0.01-0.105,0.067-0.144,0.067c-0.135,0.019-0.252-0.048-0.384-0.048c-0.079,0-0.176-0.009-0.234-0.047
		c-0.047-0.04-0.173-0.086-0.19-0.149c-0.117-0.396-0.29-0.435-0.445-0.652c-3.536-1.449-6.475-3.286-10.406-3.416
		c-0.088,0-0.144,0.025-0.214,0.025c-0.22,0.01-0.384-0.12-0.606-0.092c-0.056,0-0.047,0.111-0.085,0.16
		c-0.097,0.105-0.193,0.207-0.252,0.347c-0.094,0.236-0.094,0.472-0.182,0.718c-0.021,0.038-0.05,0.067-0.105,0.111
		c-0.483,0.284-0.946,0.568-1.397,0.916c-0.205,0.028-0.378,0.196-0.53,0.337l0.009-0.01L232.714,102.017L232.714,102.017z"/>
	<path fill-rule="evenodd" clip-rule="evenodd" fill="#FEC233" d="M225.655,162.591c0.505,0.318,0.958,0.694,1.45,0.911
		c0.384,0.188,0.713,0.472,1.128,0.564c0.297,0.067,0.586,0.154,0.875,0.255c0.154,0.059,0.328,0.13,0.48,0.217
		c0.359,0.126,0.541,0.126,0.89,0.246c0.038,0.101,0.182,0.188,0.258,0.207c0.955,0.28,2.168,0.111,2.689,1.119
		c0.097,0.173,0.407,0.236,0.598,0.36c1.705-0.048,2.871,1.62,4.058,0.469l0.018-0.035c0.088,0,0.105-0.067,0.164-0.105
		c0.097-0.101,0.155-0.246,0.231-0.376c0,0,0.021-0.038,0.05-0.038c0.026-0.226,0.047-0.478,0-0.699
		c-0.021-0.091-0.012-0.202-0.021-0.308c-1.204-12.702-10.657-25.797-20.544-34.755c-36.57-33.125-85.147,27.42-85.147,27.42
		c-2.558,3.098-1.147,6.514,3.214,4.8c0.646,0.125,1.362-0.396,1.879-0.517c1.036-0.375,2.071-0.876,3.108-1.383
		c0.779-0.371,1.815-0.371,2.591-0.746c0.385-0.246,0.771-0.753,1.295-1.008c2.073-0.998,4.4-1.373,6.346-2.871
		c0.776-0.631,2.073-0.501,3.234-0.751c2.332-0.501,4.143-2.004,6.344-2.751c4.02-1.383,8.033-2.26,11.911-3.889
		c0.387-0.12,0.907-0.492,1.292-0.751c0.781-0.246,1.562,0,2.341-0.246c1.547-0.501,3.108-1.122,4.655-1.874
		c0.655-0.376,1.412-0.583,2.071-0.631c1.484-0.111,2.854,0,4.274-0.497c0.524-0.125,1.036,0.318,1.421,0.062
		c1.562-0.75,3.237,0.218,4.925-0.167c0.356-0.067,0.713-0.189,1.063-0.149c0.161,0.009,0.368,0.072,0.497-0.029
		c0.029-0.019,0-0.12,0.01-0.129c0.059-0.069,0.067-0.183,0.179-0.214c0.105-0.034,0.135,0.097,0.207,0.145
		c0.086,0.048,0.183-0.029,0.275,0c0.491,0.198,5.386,3.576,7.184,4.302c0.573,0.229,0.511,0.435,0.688,0.94
		c0.347,0.659,1.037,0.829,1.73,1.16c0.333,0.17,0.858-0.168,1.143-0.186c1.608,0.186,3.17,0.855,4.37,1.859
		c1.214,0.669,1.562,2,2.597,2.997c0.857,0.669,1.894,1.008,3.108,1.507c0.346,0.168,0.514,0.998,1.036,1.336
		c1.73,0.828,0.236,1.065,1.964,1.569c1.726,0.501,3.277,1.5,4.834,2.496C224.965,162.591,225.313,162.591,225.655,162.591
		L225.655,162.591z"/>
	<path fill-rule="evenodd" clip-rule="evenodd" fill="#FEC233" d="M320.558,129.042l-0.021,0.031
		c-0.105,0.167-0.463,0.318-0.586,0.495c-0.396,0.737-0.568,1.6-1.09,2.279c-0.961,1.141-1.822,2.29-2.968,3.315
		c-0.231,0.179-0.615,0-0.674,0.284c-0.185,0.469-0.521,0.857-0.753,1.263c-0.056,0.168,0,0.337,0.021,0.516
		c0.029,0.265,0.114,0.563-0.076,0.718c-0.117,0.12-0.231,0.192-0.231,0.27c-0.067,0.145-0.193,0.227-0.27,0.265
		c-0.272,0.111-0.53,0.294-0.715,0.535c-1.099,1.311-2.177,2.593-3.094,4.163c-0.858,1.507-2.244,3.012-3.36,4.096
		c-1.33,1.271-4.049,2.843-5.265,4.003c-0.173,0.149-0.287,0.347-0.404,0.497c-0.375,0.461-0.943,0.688-1.359,1.103
		c-0.606,0.69-1.377,1.185-1.983,1.865c-0.261,0.27-0.53,0.497-0.732,0.839c-0.185,0.346-0.375,0.611-0.606,0.958
		c-0.425,0.573-0.943,0.987-1.292,1.629c-0.193,0.303-0.442,0.524-0.703,0.697c-1.802,1.206-2.766,3.171-4.412,4.424
		c-1.805,0.916-4.04,0.583-5.695,0c-1.342-0.472-2.15-1.09-3.527-1.412c-1.216-0.505-2.083-1.507-3.296-2.172
		c-0.337-0.164-0.85-0.333-1.195-0.333c-0.076,0-0.193-0.751-0.463-0.939c-0.193-0.189-0.319-0.444-0.577-0.56
		c-0.349-0.168-0.838-0.231-1.216-0.337c-0.346-0.111-0.472-0.545-0.791-0.732c-0.519-0.313-0.905-0.69-1.233-1.065
		c-0.064-0.067-0.27,0.019-0.384-0.038c-0.346-0.17-0.387-0.583-0.551-0.753c-0.519-0.188-1.069-0.274-1.512-0.592
		c-0.144-0.059-0.384-0.038-0.53,0c-0.51,0.168-0.858-0.154-1.377-0.322c-1.389-0.671-1.852-2.317-3.451-2.675
		c-0.29-0.059-0.038-0.423-0.155-0.564c-0.325-0.376-0.847-0.255-1.289-0.564c-0.135-0.125-0.454-0.226-0.636-0.207
		c-1.726,0.16-3.103-1.006-4.491-1.668c-1.377-0.669-1.523-0.735-2.892-1.242c-0.694-0.333-1.386-0.333-2.08-0.669
		c-0.407-0.198-0.753-0.516-1.321-0.472c-0.606,0.038-3.961,0.125-2.804,4.625c3.217,9.17,10.368,23.446,21.026,35.13
		c22.781,24.962,62.118-35.206,66.548-66.899c0,0,0.694-5.754-3.091-2.975c-0.627,0.454-1.14,0.959-1.822,1.292
		c-0.53,0.17-0.404,0.623-0.606,1.006c-0.146,0.271-0.261,0.545-0.366,0.829c-0.164,0.082-0.261,0.261-0.404,0.375
		c-0.059,0.04-0.146,0.022-0.223,0.078c-0.079,0.044-0.126,0.101-0.202,0.151c-0.126,0.082-0.24,0.12-0.366,0.207
		c-0.126,0.067-0.223,0.198-0.319,0.308c-0.029,0.029-0.056,0.069-0.067,0.107c-0.114,0.13-0.22,0.217-0.316,0.366
		c-0.24,0.415-0.589,0.751-0.938,1.074c-1.377,2.005-2.936,3.683-4.749,5.43c-0.079,0.078-0.018,0.237-0.018,0.343
		c-0.021,0.034-0.041,0.034-0.062,0.062c-0.047,0.107-0.064,0.256-0.173,0.343c-0.152,0.092-0.316,0.063-0.472,0.111
		c-0.22,0.097-0.396,0.236-0.586,0.375c-0.05,0.038-0.059,0.126-0.117,0.164C320.945,128.619,320.74,128.816,320.558,129.042
		L320.558,129.042z"/>
	<path fill-rule="evenodd" clip-rule="evenodd" fill="#FEC233" d="M237.417,128.046c0.636-0.078,1.31-0.227,1.954-0.284
		c0.146-0.01,0.281,0.057,0.396-0.019c0.155-0.082,0.366-0.021,0.521-0.082c0.038-0.021,0.059-0.01,0.076,0.01
		c0.126,0.11,0.521-0.088,0.606,0.062c0.021,0.038,0.146,0.038,0.202,0.067c1.061,0.376,3.24,1.084,4.761,1.036
		c1.321,0.732,0.656-2.77,0.753-4.538c0.021-0.135-0.425-1.046-0.404-1.187c0-1.025,0.413-2.543-0.059-2.817
		c-0.387-0.092-1.157,0.255-1.503,0.144c-0.779-0.265-1.078-1.036-2.024-1.301c-1.02-0.274-2.071-0.425-3.141-0.434
		c-0.926,0.019-1.755-0.168-2.64-0.425c-0.888-0.255-1.755-0.442-2.719-0.158c-0.363,0.299-0.144,0.482-0.53,0.705
		c-0.624,0.403-0.645,0.924-0.943,1.564c-0.105,0.198-0.914,0.375-0.993,0.555c-1.292,2.711-1.389,3.869-1.339,6.138
		c0.012,0.208,0,0.394,0.126,0.558c0,0.044,0,0.122,0,0.151c0.038,0.13,0.105,0.327,0.249,0.346
		c0.501,0.067,0.946,0.088,1.389,0.303c0.712,0.328,1.494,0.25,2.265,0.27c0.463-0.019,0.847-0.042,1.31-0.091
		c0.164-0.057,0.337-0.188,0.492-0.236c0.425-0.179,0.48-0.139,0.923-0.308C237.282,128.008,237.349,128.055,237.417,128.046
		L237.417,128.046z"/>
	<path fill-rule="evenodd" clip-rule="evenodd" fill="#034EA2" d="M317.746,89.625c0.287,0.362,0.577,0.719,0.905,1.085
		c0.366,0.312,0.732,0.678,1.002,1.074c0.261,0.328,0.724,0.463,0.8,0.886c0.029,0.208,0.105,0.271,0.287,0.271
		c0.117-0.01,0.205-0.044,0.299,0.057v0.038c0.715,0.526,1.389,1.204,2.024,1.865l0.021,0.019c0.067,0.029,0.088,0.103,0.135,0.16
		c0.047,0.038,0.085,0.105,0.135,0.139c0.038,0.078,0.097,0.145,0.173,0.198c0.173,0.105,0.346,0.217,0.492,0.366
		c0.278,0.275,0.463,0.637,0.8,0.907c0.19,0.177,0.404,0.337,0.656,0.423c0.199,0.057,0.384,0.126,0.577,0.188
		c0.193,0.029,0.328,0.17,0.521,0.208c0.173,0.038,0.354,0.067,0.519,0.028c0.261-0.028,0.501-0.095,0.753-0.167
		c0.038-0.01,0.076-0.059,0.097-0.088c0.038-0.073,0.018-0.139,0.056-0.207c0.021-0.038,0.088-0.073,0.108-0.111
		c0.029-0.057,0.029-0.13,0.038-0.196c0-0.078-0.076-0.088-0.088-0.155c-0.22-0.703-1.55-6.563-4.028-8.707l-7.901-10.282
		c-0.984-2.515-1.271-3.088-1.33-3.176l-2.206-2.539c-3.41-3.888-7.72-6.977-9.501-11.713c-1.233-1.585-2.71-3.117-4.154-4.597
		c-1.532-1.589-3.12-3.218-4.441-4.963l-0.105-0.188c-0.135-0.236-0.677-0.848-0.812-1.166c-1.444-2.572-8.268-8.918-10.793-10.46
		c-0.519-0.322-0.864-0.848-1.368-1.273c-0.48-0.434-0.923-0.8-1.482-1.055c-2.563-1.165-4.954-2.553-6.949-4.667
		c-0.27-0.353-0.665-0.541-0.993-0.85c-0.539-0.539-0.771-1.271-1.289-1.745c-10.081-9.129-15.765-12.877-26.098-19.816
		l-5.376-3.628c-0.905-0.434-1.84-0.91-2.824-1.402c-6.167-3.107-13.143-6.645-19.545-2.505c-0.429,0.857-1.258,1.339-2.067,1.815
		c-0.795,0.454-1.488,0.778-1.894,1.559c-0.038,0.081-0.076,0.207,0.019,0.226c0.101,0.029,0.198,0.067,0.28,0.139
		c0.038,0.048,0.01,0.105-0.01,0.149h-0.019c-0.034,0.067,0,0.154-0.044,0.227c-0.038,0.048-0.105,0.076-0.133,0.135
		c-0.019,0.023-0.063,0.023-0.048,0.009c-0.044,0.29-0.044,0.555-0.328,0.772c-0.179,0.139-0.415,0.188-0.593,0.356
		c-0.086,0.076-0.148,0.188-0.188,0.275c-0.265,0.781-0.838,1.324-1.412,1.897c-0.097,0.105-0.188,0.212-0.226,0.324
		c-0.059,0.168-0.069,0.376-0.048,0.545c0.086,0.491,0.404,0.876,0.76,1.214c0.183,0.217,0.434,0.394,0.541,0.63
		c0.179,0.381,0.217,0.747,0.308,1.132c0.145,0.526,0.117,1.036,0.208,1.581c0.047,0.116,0.246,0.097,0.293,0.236l0.029,0.029
		c2.26,1.835,3.466,3.772,4.736,5.801c0.406,0.65,0.82,1.315,1.277,1.995l0.029,0.038l0.019,0.053l3.672,9.483l1.825,4.692
		l0.009,0.035v0.028c0.749,3.069,0.806,6.293,0.869,9.435c0.028,1.499,0.059,3.059,0.168,4.557c0,0.067-0.01,0.149,0.028,0.208
		c0.069,0.114,0.031,0.274-0.047,0.394c-0.223,0.021-0.429-0.139-0.646-0.091c-0.057,0.009-0.126,0.009-0.183,0.034l-0.139-0.073
		c-3.773-1.98-7.459-4.321-11.035-6.582c-6.085-3.86-12.391-7.853-19.238-10.124c-6.39-1.686-12.832-3.989-19.066-6.224
		c-14.459-5.175-29.416-10.534-45.315-8.644c-2.433,0.352-5.118,0.212-7.714,0.067c-5.479-0.299-10.648-0.583-13.529,3.729
		l-0.029,0.029l-0.028,0.038c-0.444,0.434-0.368,0.819-0.18,1.44c0.04,0.149-0.038,0.3,0.01,0.458
		c0.105,0.343,0.059,0.916-0.13,1.252c-0.313,0.492-0.8,0.983-0.718,1.677c0.848,2.221,1.411,2.418,1.225,3.835
		c0,0.063,0.105,0.072,0.144,0.168c0.231,0.684,0.271,1.364,0.646,1.884c2.477,1.591,4.737,3.33,6.924,4.997
		c2.115,1.619,4.282,3.296,6.645,4.813l0.018,0.01l0.021,0.019c3.382,2.766,7.56,8.461,11.235,13.472
		c1.73,2.355,3.368,4.586,4.679,6.186l0.743,0.895l-1.176-0.144c-14.681-1.86-40.063,0.708-54.3,5.492
		c-0.217,0.083-0.454,0.122-0.661,0.217c-0.038,0.044-0.101,0.083-0.139,0.113c-0.059,0.018-0.097,0.028-0.16,0.047
		c-0.057,0.04-0.105,0.111-0.177,0.13c-0.936,0.198-4.693,1.797-4.891,1.846c-0.168,0.028-0.435,0-0.573,0.086
		c-0.199,0.111-0.376,0.246-0.536,0.396c-0.076,0.086-0.152,0.158-0.245,0.226c-0.338,0.299-0.728,0.488-1.027,0.791
		c-0.189,0.177-0.347,0.328-0.501,0.482c-0.168,0.149-0.366,0.236-0.545,0.356c-0.078,0.072-0.158,0.13-0.236,0.179
		c-0.415,0.284-0.867,0.293-1.373,0.347c-0.059,0.019-0.107,0.076-0.16,0.095c-1.667,0.642-3.286,1.138-4.963,3.521
		c-1.311,1.865-3.888,2.468-6.384,3.051c-1.856,0.434-3.778,0.876-5.112,1.835l-0.038,0.029l-0.038,0.019
		c-1.816,0.819-3.344,1.865-4.828,2.873c-0.983,0.669-2.01,1.373-3.075,1.975c-5.449,2.732-9.665,4.915-15.138,7.983
		c-3.297,1.629-6.396,3.721-10.085,6.809c-0.101,0.076-0.226,0.168-0.208,0.322c0.01,0.072-0.048,0.101-0.07,0.139
		c-0.06,0.04-0.116,0.069-0.136,0.111c-0.082,0.048-0.141,0.126-0.217,0.174c-0.463,0.394-0.939,0.712-1.469,1.006
		c-0.299,0.179-0.583,0.318-0.771,0.593c-0.207,0.318-0.415,0.602-0.497,0.987c-0.125,0.526,0.034,1.084-0.105,1.61
		c-0.048,0.207-0.396,0.207-0.444,0.394c-0.048,0.324-0.092,0.65-0.217,0.926c-0.044,0.082,0.019,0.198-0.029,0.297
		c-0.12,0.294-0.259,0.574-0.404,0.858c-0.009,0.048-0.023,0.122,0.009,0.168c0.088,0.145,0.275,0.217,0.425,0.265
		c0.341,0.12,0.766,0.067,1.094-0.019c0.196-0.072,0.394-0.198,0.592-0.255c0.107-0.038,0.149-0.231,0.275-0.271
		c0.246-0.057,0.505-0.078,0.751-0.163c0.631-0.223,1.233-0.458,1.865-0.637c0.303-0.086,0.602-0.202,0.838-0.413
		c0.255-0.185,0.396-0.454,0.68-0.598c0.25-0.141,0.497-0.212,0.751-0.27c0.038-0.01,0.078-0.04,0.111-0.059
		c0.038-0.019,0.114-0.009,0.154-0.04c0.053-0.018,0.12-0.07,0.168-0.091c0.028-0.028,0.076-0.028,0.11-0.038
		c2.218-0.987,4.487-1.932,6.838-2.418c0.81-0.097,1.57-0.168,2.317-0.236c2.559-0.246,4.972-0.482,6.929-1.572
		c1.806-1.291,3.58-2.711,5.301-4.071c2.345-1.875,4.774-3.81,7.356-5.487c0.101-0.067,0.24,0.009,0.318-0.067
		c0.057-0.073,0.13-0.048,0.198-0.048c0,0.057,0,0.105-0.01,0.154c0.12-0.01,0.237,0.13,0.313,0.057
		c2.511-1.903,5.165-2.583,7.935-3.324c2.675-0.719,3.984-1.027,6.328-2.298c0.105-0.059,0.196-0.198,0.302-0.188
		c0.16-0.01,0.217-0.088,0.356-0.155c0.059-0.053,0.067-0.149,0.13-0.177c0.179-0.111,0.294-0.236,0.473-0.319
		c0.019,0,0.038-0.076,0.059-0.119c0.158-0.116,0.404-0.029,0.582-0.116c0.751,0.057,0.68,0.038,1.137,0.009
		c0.305-0.019,0.728-0.019,1.047-0.097c0.114-0.034,0.303-0.139,0.423-0.168c2.862-0.762,4.323-1.422,7.733-3.079
		c0.092-0.048,0.188-0.101,0.289-0.139c0.029-0.01,0.059-0.048,0.097-0.088c0.092-0.139,0.141-0.308,0.309-0.375
		c0.067-0.019,0.125-0.053,0.196-0.063c0.217-0.057,0.425-0.057,0.642-0.105c0.057-0.019,0.116-0.059,0.177-0.086
		c0.04-0.01,0.069,0.048,0.088,0.057c0.168,0.059,0.347,0.04,0.516,0.048c0.048,0,0.076-0.038,0.114-0.067
		c0.122-0.091,0.199-0.207,0.318-0.297c0.208-0.136,0.454-0.166,0.69-0.237c0.217-0.048,0.444-0.097,0.631-0.019
		c0.082,0.038,0.059,0.217,0.139,0.274c0.059,0.053,0.136,0.044,0.217,0.01c0.067-0.019,0.141-0.048,0.217-0.04
		c0.267-0.047,0.536-0.086,0.801-0.105c0.116,0,0.246-0.038,0.365-0.082c0.126-0.047,0.189-0.188,0.305-0.255
		c0.217-0.117,0.524,0.029,0.781,0.078c0.114,0.148,2.418,0.495,3.401,0.636l0.217,0.086c0.12,0,0.231-0.01,0.318,0.038
		c0,0,5.912,1.147,11.288,0.93c0.406-0.009,0.888-0.593,1.452-0.457c0.009-0.107,0.067-0.107,0.12-0.174l4.192-2.607
		c0.12-0.047,0.168-0.196,0.274-0.226c0.347-0.059,0.722,0.158,1.069,0.126c0.343-0.048,0.737-0.218,0.993-0.097
		c0.447,0.217,0.731,0.65,1.128,0.987c0.148,0.158,0.413,0.048,0.601,0.141c0.454,0.255,0.979,0.322,1.384,0.65
		c0.215,0.154,0.432,0.36,0.577,0.602c0.103,0.236,0.198,0.501,0.387,0.549c0.987,0.168,1.975,0.259,2.971,0.12
		c0.04,0.009,0.116-0.029,0.146-0.029c0.582-0.042,1.184,0.144,1.758,0.019c0.425-0.13,0.858-0.255,1.311-0.264
		c0.12-0.044,0.13-0.193,0.25-0.13l0.265-0.029c4.499,0.64,8.985,0.303,12.401-0.063c5.31-1.122,10.441-0.208,15.394,0.675
		c2.703,0.48,5.498,0.983,8.287,1.141c3.359-0.583,5.007-3.551,6.167-6.384c1.027-4.866,0.208-9.69-2.24-13.25
		c-3.675-4.521-8.041-8.692-12.262-12.729c-5.319-5.093-10.827-10.351-15.018-16.402l-0.661-0.945l4.332,0.935
		c2.694,1.667,5.782,2.016,9.059,2.391c2.741,0.303,5.574,0.623,8.109,1.802c7.126,4.104,13.567,6.996,20.949,10.137
		c0.661,0.284,1.34,0.256,2.033,0.368c0.067,0.085,0.217,0.085,0.207,0.245c0.237-0.072,0.376,0.097,0.604,0.189
		c0.226,0.009,0.461-0.063,0.688,0.028c0.516,0.256,1.036,0.444,1.562,0.623c0.839,0.198,1.676,0.019,2.427,0.284
		c1.124,0.444,2.15,1.252,3.262,1.695c0.149,0.092,0.141,0.242,0.29,0.328c0.303,0.088,0.52,0.179,0.751,0.347
		c0.943,0.809,1.821,1.387,2.856,2.063c0.366,0.322,0.574,0.64,0.94,0.954c0.661,0.497,1.431,0.385,2.099,0.732
		c0.218,0.086,0.526,0.097,0.662,0.337l0.177,0.107c3.151,0.732,6.289,1.922,9.299,3.107c1.5,0.583,3.037,1.195,4.569,1.72
		c0.095,0.038,0.144,0.154,0.255,0.164c0.284,0.021,0.511,0.029,0.8,0.103c0.501,0.139,1.084,0,1.589,0.196
		c0.391,0.135,0.85,0.217,1.172,0.463c0.722,0.564,1.383,0.94,2.115,1.204c1.065,0.404,2.139,0.573,3.145,1.147
		c0.107,0.059,0.227-0.053,0.338,0.019c0.274,0.246,0.606,0.371,0.886,0.56l0.135,0.111c1.608,0.857,3.267,1.752,4.947,2.457
		c2.029,0.105,3.445,0.766,4.834,1.421c1.685,0.791,3.275,1.538,5.877,1.036c0.542-0.101,1.099-0.019,1.638,0.059
		c0.563,0.078,1.102,0.158,1.544,0.019c0.539-0.207,0.943-0.669,1.389-1.151c0.48-0.535,0.973-1.107,1.772-1.427l0.548,0.034
		c1.069-0.669,1.512-1.657,1.667-2.21c1.225-4.245,0.079-8.004-1.137-11.988c-0.829-2.675-1.676-5.44-1.714-8.35
		c-0.117-6.451-2.121-12.098-4.069-17.553l-0.914-2.606c-0.182-0.536,0.047-0.303,0.126-0.771c0.038-0.275,0.366-0.088,0.404-0.098
		c0,0,5.839,2.3,8.73,3.119c2.215,0.621,4.491,1.271,6.551,2.128c1.436,0.179,2.344,1.036,3.22,1.89
		c0.829,0.775,1.6,1.518,2.766,1.638c3.595-0.192,5.851,2.298,7.4,4.559c2.458,0.79,3.401,2.673,4.327,4.51l0.29,0.64
		c0.018,0.116,0.038,0.217,0.076,0.313c0.038,0.059,0.105,0.111,0.155,0.111c0.308,0.028,0.577,0.086,0.838,0.274
		c0,0,0.009,0.04,0.009,0.057c0.117,0.149,0.311,0.179,0.454,0.27c0.059,0.029,0.126,0.01,0.182,0.04
		c0.097,0.076,0.164,0.168,0.202,0.265c0.021,0.12-0.009,0.226,0,0.347c-0.009,0.009,0.029,0.028,0.029,0.038
		c1.099,2.654,2.815,4.34,7.479,7.025c1.857,1.046,3.352,2.568,4.819,4.027c1.23,1.254,4.181,3.769,4.181,3.769
		c0.598,1.816,1.887,2.259,3.372,2.774c1.137,0.381,2.303,0.795,3.278,1.816c2.282,1.301,4.392,3.618,6.261,5.672
		c0.87,0.959,1.679,1.865,2.47,2.625c0.442,0.406,0.788,0.886,1.31,1.263c0.732,0.53,1.617,0.838,2.244,1.479
		c1.436,1.412,2.314,3.107,3.712,4.557c0.691,0.694,1.348,1.298,2.033,1.947c0.337,0.313,0.586,0.602,0.826,0.959
		c0.387,0.558,1.157,0.795,1.603,1.191c0.296,0.316,0.527,0.703,0.665,1.232c0.067,0.458,0.519,0.621,0.732,1.085L317.746,89.625
		L317.746,89.625z"/>
	<path fill-rule="evenodd" clip-rule="evenodd" fill="#F15A29" d="M112.761,210.413c-0.021,0-0.04-0.029-0.059-0.059
		c-0.029-0.042-0.092-0.053-0.13-0.053c-0.343-0.029-0.68-0.116-0.945-0.135c-1.431-0.139-1.976-0.16-3.031-0.188
		c-1.118-0.029-2.269-0.158-3.363-0.319c-1.995-0.293-3.782,0.439-5.761-0.154c-3.23-1.469-9.208,0-12.437-1.767
		c-0.245-0.294-0.501-0.879-0.998-0.879c0,0,0-0.081-0.028-0.119c-0.029,0-0.117,0-0.16,0c-0.275-0.179-0.52-0.435-0.766-0.584
		c-0.101-0.078-0.221-0.105-0.347-0.144c0-0.04-0.028-0.073-0.067-0.101c-0.025-0.01-0.025-0.01-0.042-0.019
		c-0.237-0.17-0.473-0.333-0.728-0.502c-0.593-0.851-0.535-1.146-0.01-2.076c0.406-0.324,0.82-1.417,2.159-2.385
		c1.985-1.441,47.03-31.507,145.257-20.584c20.815,2.307,35.326,12.788,42.68,41.692c9.454,37.178,10.342,84.583,6.979,117.565
		c-0.029,0.328-0.067,0.867-0.34,1.143c-0.018,0.023-0.076,0.111-0.105,0.211c-0.026,0.152,0.029,0.346-0.026,0.48
		c-0.117,0.363-0.311,0.674-0.407,1.061c-0.173,0.557-0.19,1.178-0.308,1.793c-0.085,0.492-0.144,0.973-0.422,1.406
		c-0.07,0.117,0,0.445-0.146,0.539c-0.144,0.059-0.308,1.236-0.413,1.213c-0.29,0-1.409,0.264-1.688,0.229
		c-0.454-0.094-0.366-0.961-1.242-0.855c-0.463,0.041-1.002,0.029-1.099-0.123c-0.231-0.369-0.349-0.885-0.492-1.295
		c-0.126-0.422-0.858-0.961-0.973-1.383c-0.097-0.346-0.079-0.791-0.164-1.119c-0.029-0.135,0.067-0.252-0.029-0.387
		c-0.059-0.088-0.135-0.17-0.19-0.199c-0.29-0.223-0.639-0.246-0.87-0.551c-0.22-0.369-0.22-0.791-0.404-1.195
		c-0.164-0.404-0.278-0.832-0.501-1.195c-0.126-0.176-0.076-0.404-0.146-0.58c-0.056-0.182-0.182-0.246-0.24-0.422
		c0-0.041-0.056-0.1-0.056-0.129c-0.05-0.141-0.079-0.305-0.164-0.363c-0.29-0.182-0.627,0.088-0.917-0.123
		c-0.114-0.059-0.202-0.217-0.308-0.299c-0.076-0.07-0.231-0.041-0.27-0.164c-0.05-0.211-0.185-0.346-0.249-0.539
		c-0.387-0.973-1.061-2.25-1.061-2.25c-4.222-9.51-4.849-9.896-9.059-17.555c-0.753-1.166-0.501-2.648-0.753-3.826
		c-0.249-0.299-0.732-1.178-0.732-1.465c0-2.66-2.572-5.303-2.813-6.498c-1.04-4.875-1.755-7.254-2.007-12.563
		c0-1.178-2.687-6.088-3.179-7.266c-1.734-4.119-2.159-7.367-3.141-12.075c-0.252-1.478-1.33-4.124-1.831-5.594
		c-0.981-3.246-4.644-7.756-5.147-11.288c-0.501-2.063-1.6-4.857-2.101-6.918c-0.99-4.418-1.251-7.945-2.736-12.07
		c-0.501-1.764-1.869-4.014-3.073-5.31c-0.018-0.019-0.029-0.057-0.059-0.048c-0.009-0.144,0.059-0.346-0.085-0.453
		c0-0.168,0.105-0.327,0.076-0.491c0.038,0,0.021-0.082,0.059-0.101c0.094-0.057,0.059-0.097,0.152-0.179
		c0.021-0.028,0.041-0.086,0.041-0.145c0.018-0.019,0.056-0.051,0.056-0.072c0.041-0.057,0.041-0.13,0.079-0.198
		c0.018,0,0.056-0.009,0.056-0.028c0-0.078,0.038-0.17-0.009-0.217c-4.809-4.125-6.268-1.336-7.501-1.63
		c-3.233,0-5.049-2.345-8.276-2.938c-3.977-0.891-0.473-0.688-4.617-0.688c-0.781,0-3.142-2.332-3.888-2.626
		c-3.721-1.469-7.137-2.597-10.923-2.191c-5.459,0.592-8.933-1.726-13.403-2.607c-8.448-1.179-14.634,0.81-23.071-0.362
		c-1.242,0-2.484-1.252-3.483-1.55c-0.177-0.059-0.394-0.088-0.52-0.098c-1.6-0.186-3.161-0.24-4.755-0.119
		c-0.526,0.057-1.137,0.048-1.648,0.101c-1.244,0.116-2.53,0.105-3.839,0c-1.572-0.13-2.26-0.656-3.552-0.743
		c-2.231-0.299-3.951,0.313-6.239-0.111c-0.284-0.057-0.612-0.255-0.916-0.255c-0.01,0-0.01-0.019-0.029-0.038
		c-0.072-0.01-0.11-0.088-0.168-0.111c-0.188-0.048-0.274-0.236-0.434-0.274c-1.027-0.246-2.052-0.368-3.089-0.483
		c-1.825-0.186-3.541-0.129-5.376-0.366c-0.979-0.066-1.89-0.245-2.862-0.432c-0.979-0.122-1.947-0.059-2.925-0.246
		c-0.631-0.12-1.198-0.177-1.821-0.429c-0.63-0.173-1.267-0.246-1.898-0.482c-1.027-0.434-2.063-0.914-3.204-0.987
		c0.059,0,0.116,0,0,0C112.977,210.48,112.87,210.442,112.761,210.413L112.761,210.413z M263.28,277.226
		c0.076,0.048,0.173,0.021,0.24,0.048c0.029,0.021,0.029,0.048,0.059,0.059c0.105,0.023,0.346,0.072,0.316-0.048
		c-0.035-0.097-0.035-0.227,0.029-0.343c0.059-0.337,0.724-2.21,0.53-4.313l-0.451-2.972c0.126-1.282,0.126-1.576,0.126-1.629
		l-0.387-1.526c-0.252-1.008,0.117-5.055-0.366-9.979c-0.021-0.501,0.059-1.017,0.038-1.538c-0.384-6.639-2.118-14.912-4.23-21.483
		c-0.182-0.926-2.092-6.255-2.282-7.271c-1.822-6.847-3.19-9.366-3.19-9.366c-2.168-5.969-5.889-11.612-8.684-15.302
		c-0.038-0.04-0.009-0.097-0.038-0.13c-0.27-0.362-0.636-0.612-0.905-0.955c-0.155-0.179-0.328-0.327-0.501-0.448
		c-0.164-0.105-0.308-0.192-0.454-0.302c-0.088-0.103-0.144-0.198-0.24-0.294l-0.059-0.063c-1.676-1.808-3.545-3.86-6.609-3.639
		c-0.328,0.174-0.712,0.185-1.099,0.193c-0.357,0.025-0.674,0-0.964,0.168c-0.021,0.023-0.059,0.053-0.021,0.072
		c0.021,0.021,0.059,0.048,0.059,0.078c0.021,0.021,0,0.029-0.018,0.04h-0.021c-0.021,0.009-0.021,0.038-0.05,0.048
		c-0.026,0.023-0.056,0.013-0.076,0.023c-0.009,0.01-0.021,0-0.021,0c-0.056,0.076-0.123,0.144-0.258,0.168
		c-0.088,0.01-0.173-0.015-0.27,0.01c-0.059,0.009-0.097,0.038-0.117,0.048c-0.24,0.186-0.548,0.255-0.867,0.333
		c-0.047,0.023-0.105,0.032-0.135,0.062c-0.059,0.038-0.097,0.097-0.114,0.145c-0.059,0.149-0.021,0.308,0.056,0.457
		c0.021,0.088,0.079,0.179,0.079,0.265c-0.009,0.135-0.067,0.246-0.097,0.366c-0.038,0.164-0.155,0.313-0.211,0.482
		c0,0.04,0.056,0.067,0.056,0.107v0.023c0.483,0.858,0.58,1.585,0.665,2.355c0.021,0.246,0.059,0.492,0.105,0.751v0.021v0.019
		l-0.404,3.248l-0.202,1.619v0.01c-0.29,0.981-0.855,1.912-1.397,2.817c-0.27,0.431-0.548,0.883-0.79,1.326
		c0,0.019-0.019,0.04-0.019,0.057c0,0.05-0.038,0.078-0.077,0.111c-0.096-0.034-0.145-0.101-0.23-0.129
		c-0.021,0-0.039-0.01-0.078-0.021l-0.037-0.038c-0.994-1.128-1.899-2.351-2.795-3.521c-1.485-2.016-3.262-3.917-5.373-5.638
		c-2.042-1.469-3.993-2.467-5.877-4.022c-4.384-3.624-8.914-7.68-15.129-9.425c-0.979-0.261-1.934-0.674-2.862-1.088
		c-1.976-0.858-3.832-1.667-5.695-0.916l-0.019,0.009h-0.019c-0.248,0.059-0.286,0.179-0.333,0.368
		c-0.015,0.047-0.073,0.076-0.082,0.125c-0.029,0.11-0.151,0.259-0.274,0.318c-0.208,0.086-0.488,0.16-0.584,0.356
		c-0.101,0.718,0.067,0.85-0.265,1.206c-0.009,0.019,0.029,0.038,0.029,0.067c-0.038,0.217-0.16,0.404-0.122,0.602
		c0.623,0.781,1.138,1.566,1.63,2.328c0.486,0.741,0.977,1.503,1.56,2.24l0.01,0.01l0.01,0.009c0.727,1.225,1.213,3.359,1.638,5.232
		c0.198,0.877,0.385,1.715,0.583,2.328l0.095,0.357l-0.404-0.208c-5.083-2.597-14.889-5.912-21.037-6.643
		c-0.091-0.01-0.188-0.031-0.289-0.031c-0.019,0-0.048,0-0.067,0.01c-0.028-0.01-0.038-0.01-0.067-0.01s-0.063,0.01-0.091,0
		c-0.385-0.067-2.073-0.177-2.149-0.188c-0.073-0.019-0.158-0.067-0.227-0.057c-0.092,0-0.188,0.009-0.27,0.028
		c-0.048,0.01-0.097,0.019-0.135,0.029c-0.177,0.019-0.356,0.019-0.526,0.063c-0.105,0.019-0.188,0.04-0.275,0.057
		c-0.091,0.021-0.177,0.01-0.264,0.021c-0.044,0.007-0.082,0.007-0.132,0.007c-0.196,0.021-0.374-0.038-0.563-0.094
		c-0.028,0-0.057,0.009-0.078,0c-0.741-0.064-1.431-0.161-2.486,0.245c-0.838,0.313-1.903,0.105-2.934-0.091
		c-0.757-0.136-1.556-0.294-2.227-0.227h-0.042c-0.819-0.029-1.576,0.029-2.309,0.091c-0.491,0.048-1.006,0.088-1.507,0.097
		c-2.525-0.038-4.482-0.048-7.078,0c-1.518-0.028-3.107,0.492-5.039,0.8c-0.048,0.01-0.122,0.021-0.141,0.059
		c-0.009,0.019-0.038,0.019-0.048,0.028c-0.029,0-0.057,0-0.067,0.01c-0.044,0-0.082,0.01-0.12,0.019
		c-0.246,0.044-0.482,0.063-0.728,0.063c-0.139,0.009-0.28,0-0.394,0.048c-0.141,0.048-0.27,0.11-0.366,0.198
		c-0.141,0.12-0.189,0.299-0.338,0.415c-0.057,0.048-0.188,0-0.236,0.048c-0.076,0.081-0.158,0.158-0.255,0.217
		c-0.029,0.023-0.029,0.062-0.072,0.082c-0.086,0.057-0.193,0.114-0.305,0.164c-0.019,0.013-0.028,0.042-0.028,0.051
		c0.009,0.048,0.057,0.097,0.105,0.13c0.111,0.086,0.27,0.135,0.413,0.154c0.083,0.01,0.179,0,0.261,0.01
		c0.048,0.01,0.097-0.038,0.155-0.029c0.101,0.019,0.198,0.048,0.308,0.059c0.275,0.028,0.545,0.053,0.81,0.101
		c0.125,0.019,0.255,0.029,0.385,0.01c0.126-0.021,0.227-0.069,0.36-0.069c0.122,0,0.223,0.01,0.328,0.029c0.01,0,0.04,0,0.048,0
		c0.019,0,0.053,0.019,0.072,0.01c0.021,0,0.048,0,0.078,0c0.01,0,0.029,0.009,0.048,0.009c0.998,0.048,2.014,0.116,2.972,0.324
		c0.313,0.081,0.612,0.168,0.896,0.259c0.998,0.294,1.938,0.579,2.852,0.56c0.916-0.086,1.837-0.217,2.722-0.343
		c1.216-0.168,2.468-0.346,3.731-0.434c0.062,0,0.091,0.038,0.139,0.029c0.029-0.009,0.057,0.009,0.078,0.019
		c-0.01,0.01-0.021,0.019-0.029,0.04c0.038,0.009,0.063,0.057,0.11,0.057c1.273-0.16,2.377,0.042,3.542,0.227
		c1.128,0.188,1.667,0.297,2.776,0.289c0.038,0,0.095-0.029,0.144-0.009c0.063,0.018,0.092,0.009,0.16,0.009
		c0.029-0.009,0.048-0.029,0.078-0.029c0.091-0.009,0.148-0.029,0.24-0.019c0,0,0.019-0.021,0.038-0.029
		c0.078-0.015,0.16,0.048,0.237,0.059c0.264,0.116,0.245,0.097,0.413,0.154c0.116,0.042,0.275,0.101,0.406,0.129
		c0.047,0,0.149,0,0.188,0.01c1.206,0.208,1.865,0.227,3.435,0.265c0.038,0,0.088,0.009,0.126,0.009
		c0.019,0,0.038-0.009,0.048-0.009c0.072-0.029,0.12-0.067,0.188-0.057c0.029,0,0.063,0,0.092,0.009
		c0.086,0.019,0.163,0.04,0.255,0.057c0.019,0.01,0.047,0,0.078,0.01c0.018,0,0.018,0.025,0.018,0.035
		c0.064,0.038,0.13,0.047,0.189,0.076c0.009,0.01,0.029,0,0.063,0c0.057-0.01,0.105-0.029,0.163-0.029
		c0.101-0.009,0.198,0.01,0.3,0.029c0.086,0.019,0.186,0.029,0.234,0.082c0.021,0.029-0.018,0.067,0,0.097
		c0.01,0.019,0.048,0.029,0.078,0.029c0.034,0.009,0.063,0.009,0.091,0.019c0.107,0.028,0.208,0.057,0.313,0.091
		c0.054,0.019,0.101,0.019,0.149,0.029c0.059,0.01,0.111-0.019,0.16-0.019c0.105-0.01,0.188,0.078,0.274,0.125
		c0.021,0.063,0.801,0.478,1.147,0.65l0.057,0.063c0.04,0.01,0.092,0.028,0.111,0.048c0,0,1.972,1.156,3.996,1.865
		c0.158,0.048,0.442-0.04,0.62,0.078c0.029-0.029,0.05-0.021,0.078-0.029l2.033-0.107c0.053,0.01,0.101-0.028,0.149-0.019
		c0.141,0.029,0.236,0.135,0.366,0.188c0.139,0.029,0.313,0.04,0.385,0.107c0.126,0.13,0.145,0.284,0.236,0.423
		c0.019,0.072,0.151,0.082,0.198,0.13c0.116,0.126,0.294,0.227,0.387,0.376c0.047,0.066,0.095,0.154,0.105,0.236
		c-0.01,0.078-0.021,0.168,0.038,0.207c0.327,0.189,0.684,0.356,1.078,0.453c0.012,0.01,0.04,0.01,0.059,0.021
		c0.217,0.067,0.406,0.198,0.642,0.255c0.179,0.025,0.366,0.053,0.535,0.11c0.048,0.01,0.076-0.028,0.116,0l0.101,0.031
		c1.545,0.809,3.267,1.362,4.597,1.743c2.172,0.458,3.898,1.436,5.565,2.38c0.911,0.501,1.846,1.036,2.852,1.479
		c1.345,0.318,2.505-0.246,3.464-0.848c1.282-1.16,1.875-2.574,1.639-3.889c-0.526-1.745-1.355-3.492-2.164-5.178
		c-1.027-2.13-2.073-4.333-2.498-6.563l-0.067-0.343l1.422,0.867c0.688,0.829,1.764,1.368,2.9,1.932
		c0.954,0.473,1.942,0.959,2.665,1.639c1.865,2.12,3.709,3.82,5.849,5.713c0.188,0.17,0.458,0.256,0.684,0.387
		c0.01,0.038,0.067,0.057,0.04,0.095c0.097,0.021,0.114,0.082,0.188,0.141c0.076,0.028,0.179-0.198,0.246-0.141
		c0.139,0.141,0.293,0.256,0.461,0.376c0.265,0.168,0.612,1.528,0.839,1.715c0.337,0.299,0.564,0.684,0.891,0.968
		c0.038,0.048,0.01,0.086,0.048,0.139c0.086,0.067,0.16,0.126,0.207,0.208c0.198,0.366,0.425,0.661,0.68,1.006
		c0.067,0.145,0.092,0.265,0.168,0.415c0.149,0.237,0.454,0.313,0.64,0.511c0.059,0.062,0.17,0.111,0.18,0.198l0.047,0.057
		c1.027,0.675,1.967,1.475,2.854,2.26c0.442,0.385,0.895,0.573,1.364,0.968c0.038,0.019,0.028,0.067,0.066,0.086
		c0.097,0.044,0.189,0.092,0.274,0.149c0.161,0.12,0.406,0.168,0.557,0.309c0.119,0.097,0.272,0.188,0.346,0.313
		c0.164,0.27,0.333,0.486,0.558,0.674c0.318,0.284,0.883,0.019,1.138,0.333c0.029,0.038,0.095,0.019,0.12,0.063
		c0.057,0.105,0.154,0.192,0.226,0.293l0.029,0.048c0.415,0.486,0.858,0.987,1.339,1.44c0.713,0.338,1.109,0.743,1.483,1.128
		c0.474,0.482,0.907,0.935,1.938,1.181c0.222,0.053,0.404,0.158,0.586,0.261c0.185,0.107,0.369,0.207,0.551,0.236
		c0.24,0.019,0.463-0.048,0.712-0.12c0.272-0.078,0.56-0.17,0.896-0.141l0.205,0.092c0.51-0.029,0.847-0.246,0.999-0.376
		c1.216-1.025,1.485-2.269,1.775-3.58c0.193-0.891,0.384-1.806,0.905-2.635c1.137-1.854,1.436-3.757,1.726-5.603l0.144-0.882
		c0.029-0.188,0.079-0.086,0.173-0.208c0.076-0.066,0.164,0.029,0.176,0.038l0.067,0.063c0,0,0.404,1.98,1.482,2.95
		c0.82,0.741,1.658,1.507,2.361,2.317c0.577,0.375,0.771,0.949,0.973,1.493c0.185,0.511,0.337,0.992,0.829,1.292
		c1.6,0.688,2.016,2.231,2.186,3.53c0.891,0.86,0.891,1.866,0.867,2.815l-0.018,0.322c-0.038,0.092,0.018,0.189,0.211,0.385
		c0.164,0.168,0.404,1.037,0.252,1.345c-0.097,1.479,0.249,2.429,1.676,4.548c0.568,0.829,0.387,1.951,0.694,2.881
		c0.261,0.791,0.984,2.477,0.984,2.477c-0.155,0.886,0.308,1.343,0.829,1.882c0.401,0.396,0.826,0.82,1.02,1.452
		c0.703,1.036,4.685,11.597,6.891,28.452c0.076,0.596,0.316,1.141,0.483,1.627c0.973,0.945,0.498,3.738,0.768,5.522
		c0.138,0.891-0.144,1.749,0.126,2.597c0.193,0.375,0.097,0.929,0.231,1.354c0.252,0.809,0.53,1.387,1.271,1.6
		C263.195,277.12,263.23,277.188,263.28,277.226L263.28,277.226z"/>
	<path fill-rule="evenodd" clip-rule="evenodd" d="M436.89,416.456c0-4.383,3.469-7.852,7.86-7.852c4.395,0,7.866,3.469,7.866,7.852
		c0,4.377-3.472,7.852-7.866,7.852C440.359,424.308,436.89,420.833,436.89,416.456L436.89,416.456z M438.162,416.456
		c0,3.691,2.997,6.574,6.589,6.574c3.606,0,6.592-2.883,6.592-6.574c0-3.721-2.985-6.574-6.592-6.574
		C441.159,409.882,438.162,412.735,438.162,416.456L438.162,416.456z M447.528,414.827c-0.252-1.096-1.178-1.688-2.496-1.688
		c-2.159,0-3.056,1.641-3.056,3.211c0,1.869,1.099,3.275,3.103,3.275c1.313,0,2.159-0.615,2.449-1.77h1.213
		c-0.231,1.893-1.849,3.053-3.662,3.053c-2.669,0-4.395-2.016-4.395-4.512c0-2.607,1.641-4.535,4.377-4.535
		c1.849,0,3.334,1.119,3.68,2.965H447.528L447.528,414.827z"/>
	<polygon fill-rule="evenodd" clip-rule="evenodd" points="414.724,412.132 421.451,412.132 421.451,413.403 418.811,413.403 
		418.811,420.458 417.358,420.458 417.358,413.403 414.724,413.403 414.724,412.132 	"/>
	<polygon fill-rule="evenodd" clip-rule="evenodd" points="422.394,412.132 424.439,412.132 426.742,418.642 426.762,418.642 
		428.986,412.132 431.022,412.132 431.022,420.458 429.633,420.458 429.633,414.036 429.604,414.036 427.301,420.458 
		426.106,420.458 423.8,414.036 423.783,414.036 423.783,420.458 422.394,420.458 422.394,412.132 	"/>
</g>
</svg>
