<?xml version="1.0" encoding="UTF-8" standalone="no"?>
<!-- Created with Inkscape (http://www.inkscape.org/) -->
<svg
   xmlns:svg="http://www.w3.org/2000/svg"
   xmlns="http://www.w3.org/2000/svg"
   version="1.1"
   width="220"
   height="300"
   viewBox="0 0 220 300"
   id="Layer_1"
   xml:space="preserve"><defs
   id="defs3375" />
<path
   d="M 153.535,23.612 C 153.468,21.669 150.775,21.726 150.589,19.975 C 149.214,18.78 148.583,17.782 146.945,16.587 C 145.625,17.591 146.325,15.197 144.94,15.453 C 142.68,13.704 139.545,14.133 137.287,12.759 L 137.467,12.57 C 136.722,11.885 136.532,11.445 135.654,10.94 C 134.524,11.25 133.519,10.502 132.759,10.502 C 132.528,10.122 132.011,10.371 131.637,10.316 C 130.074,8.366 127.365,9.3 125.735,7.792 C 125.181,8.242 124.863,8.171 124.357,7.551 C 121.538,6.36 118.142,5.414 114.885,4.854 C 114.194,5.358 113.447,4.79 112.88,4.41 C 110.736,3.534 109.173,5.289 107.224,3.974 C 106.665,4.093 106.92,4.659 106.291,4.659 C 106.154,4.409 105.726,4.279 105.856,3.974 L 104.025,3.72 C 102.268,5.288 100.58,2.661 98.879,4.163 C 98.32,4.853 96.818,4.163 96.127,4.409 C 95.808,4.278 95.677,4.728 95.486,4.853 C 92.676,5.288 89.847,5.668 87.588,7.362 C 86.336,7.86 85.949,10.065 84.195,9.618 C 83.576,10.368 83.26,11.308 82.382,11.883 C 83.452,13.638 80.874,13.51 81.448,15.015 L 81.26,15.264 C 80.819,15.45 80.558,15.96 80.12,15.45 C 79.435,15.575 79.049,16.086 79.18,16.84 C 78.551,17.147 77.991,17.706 77.171,17.524 C 76.109,18.093 75.978,19.598 75.17,20.222 C 75.228,21.417 74.036,22.046 74.474,23.369 C 73.036,24.738 73.595,27 72.211,28.381 L 72.406,28.57 C 73.221,29.254 71.968,29.82 71.776,30.145 C 71.211,32.522 70.587,34.907 70.144,37.418 C 70.463,38.233 69.648,39.486 69.958,40.307 C 68.456,42.555 70.095,45.328 68.586,47.576 C 68.4,48.141 69.203,48.46 68.586,48.895 L 68.829,49.145 L 68.4,49.591 C 68.829,51.595 67.822,53.489 68.145,55.679 C 67.947,55.998 67.448,56.372 67.889,56.616 C 66.944,58.127 67.947,59.572 67.016,61.135 C 67.384,66.286 65.373,71.617 66.134,76.698 C 64.502,78.2 65.311,81.028 65.441,83.038 C 65.566,83.916 66.506,84.664 67.448,84.354 C 69.957,84.235 71.715,82.092 73.788,80.958 C 74.659,80.399 75.738,79.328 76.921,80.089 C 77.295,79.77 77.672,79.395 77.861,78.954 C 78.62,78.884 79.18,77.951 79.871,78.269 C 80.744,78.704 81.504,77.826 82.383,77.576 C 84.262,77.135 86.649,77.576 88.723,76.941 C 89.282,77.826 90.989,77.509 90.733,78.954 C 91.98,78.704 91.861,80.399 93.235,79.832 C 97.066,83.606 98.256,89.436 97.252,94.772 C 97.122,95.891 97.684,97.904 96.818,99.032 L 97.067,103.366 C 97.192,104.114 97.685,104.99 97.496,105.619 C 97.442,106.057 97.566,106.436 97.947,106.753 C 98.507,108.696 99.392,110.08 100.644,111.704 C 102.083,111.33 103.402,112.595 104.528,111.455 C 104.908,111.585 105.601,112.023 105.407,112.595 C 106.155,111.586 107.545,110.64 108.11,109.445 C 109.923,107.447 109.363,103.74 109.487,101.107 C 110.564,97.779 108.295,93.893 109.673,90.685 C 109.305,89.496 108.609,88.177 108.546,87.112 L 105.858,83.916 C 105.663,81.907 103.523,80.717 103.844,78.516 C 103.333,77.266 102.959,75.703 103.154,74.432 C 102.339,73.493 102.768,71.674 102.899,70.801 C 103.719,69.803 102.339,69.101 102.464,68.103 C 103.029,65.844 102.27,63.335 103.154,60.887 C 102.959,59.385 103.464,57.374 102.019,56.615 C 99.51,56.171 97.628,56.426 94.994,56.371 C 93.426,58.126 91.543,55.867 89.849,56.615 C 86.96,55.243 83.384,56.247 80.31,56.615 L 80.122,56.371 C 79.252,54.802 77.108,54.547 75.609,53.668 C 75.849,51.028 74.168,49.27 74.475,46.637 C 73.155,45.953 74.168,44.256 73.536,43.256 L 74.037,42.811 C 76.044,42.501 76.293,40.178 77.863,38.989 C 80.247,37.855 81.451,35.471 84.198,35.157 C 84.894,35.412 85.951,35.032 86.457,36.03 L 84.832,38.04 L 85.082,38.295 C 84.963,38.422 84.832,38.614 84.638,38.545 C 84.964,39.245 83.953,39.737 84.638,40.308 C 84.014,40.869 84.762,41.431 84.832,41.933 C 86.907,43.256 88.974,43.067 91.169,43.256 C 93.237,44.569 96.254,43.566 98.632,44.195 C 99.393,44.001 99.696,42.811 100.645,43.256 C 102.339,44.439 104.529,42.875 106.101,43.691 C 106.786,43.879 107.297,43.435 107.926,43.256 C 111.131,43.76 114.126,42.316 117.591,42.811 C 121.041,42.626 124.043,41.367 127.556,41.242 C 131.27,40.242 135.341,39.862 138.412,37.165 C 138.798,36.852 139.549,36.852 139.987,37.165 C 141.867,37.046 142.054,34.282 144.064,34.467 C 146.328,34.842 146.886,31.894 148.772,31.764 C 149.906,30.076 152.223,29.641 153.287,27.884 C 154.039,26.753 153.79,24.929 153.535,23.612 M 123.48,31.075 C 123.851,32.27 122.034,33.273 121.218,34.033 C 117.706,35.097 113.253,34.283 110.362,31.764 C 110.177,28.948 106.782,27.129 108.363,23.861 C 107.411,22.915 110.425,21.851 108.108,21.346 C 108.607,20.604 108.607,19.6 108.108,18.849 L 107.922,18.654 C 108.363,17.781 110.562,18.529 109.671,17.085 C 110.112,16.774 110.177,16.401 110.177,15.962 L 109.921,15.707 C 111.691,14.956 113.82,15.33 115.577,14.582 C 117.588,14.892 119.773,15.452 120.97,17.085 C 122.413,17.525 122.289,19.217 123.481,19.788 C 124.981,21.668 124.234,24.553 125.051,26.752 C 124.736,28.322 124.98,30.077 123.48,31.075"
   id="path3308"
   style="fill:#d71921" />
<path
   d="M 163.45,44.637 C 163.953,47.017 165.205,49.092 165.275,51.595 C 166.089,52.16 165.96,53.49 165.96,54.11 C 165.649,54.803 166.459,55.557 166.646,56.372 C 166.395,58.251 167.524,60.319 166.152,61.764 C 163.954,63.895 167.6,65.845 165.713,68.104 C 165.526,69.543 167.525,69.418 166.834,71.045 C 167.22,71.674 167.911,71.617 167.958,72.441 C 167.958,73.18 168.035,74.629 167.784,75.567 C 168.408,75.946 167.474,76.256 167.524,76.698 C 168.9,78.139 167.524,79.833 168.658,81.463 C 168.839,82.722 168.29,84.285 169.105,85.288 L 168.9,85.486 C 168.463,89.436 170.545,92.635 169.79,96.336 C 170.482,99.033 170.282,101.482 170.669,104.051 L 170.234,110.586 C 170.917,113.031 170.982,115.728 170.917,118.489 C 170.545,118.8 170.419,119.174 170.482,119.614 C 171.168,120.81 170.234,122.436 170.234,123.881 C 171.422,125.265 169.846,126.895 170.669,128.397 C 170.606,128.901 169.847,129.348 170.482,129.78 C 169.919,131.598 170.669,133.983 169.79,135.67 C 170.282,137.93 168.839,140.198 169.348,142.458 C 169.158,142.713 168.659,143.081 169.106,143.331 C 168.901,144.9 168.594,146.469 167.959,147.853 C 167.959,148.726 167.785,149.987 167.525,150.984 C 167.22,152.375 167.156,152.933 166.647,154.186 C 166.396,154.123 166.271,154.317 166.153,154.372 L 166.396,154.622 C 165.333,154.94 165.651,156.896 164.144,156.642 C 163.52,157.262 162.319,156.316 161.883,157.576 C 160.999,157.576 160.442,156.007 159.364,156.897 C 159.429,156.13 158.431,156.51 158.492,155.756 C 157.612,155.756 156.799,156.316 156.489,157.137 C 156.294,158.585 156.054,160.278 154.854,161.156 C 155.292,161.343 155.038,161.778 155.105,162.098 C 154.913,162.477 154.29,162.283 154.419,162.786 L 154.675,162.966 C 154.35,163.602 153.219,163.915 152.596,163.41 L 152.407,163.222 C 151.151,164.42 149.518,165.794 148.081,166.804 C 146.885,166.804 145.571,168.182 144.502,168.623 C 142.31,168.553 139.797,168.803 137.911,168.431 C 136.723,167.737 134.896,168.056 134.335,166.37 C 133.837,164.605 131.571,163.031 132.76,161.155 L 133.896,159.834 C 133.202,158.329 135.026,157.326 135.202,156.006 C 137.539,155.632 136.153,152.555 138.411,152.12 L 138.167,151.925 C 139.667,149.173 143.374,147.914 143.815,144.715 C 147.141,143.146 147.896,139.13 150.838,136.991 C 150.776,136.681 151.219,136.493 151.027,136.118 C 150.838,134.798 152.596,133.734 152.596,132.289 L 152.407,132.034 C 154.676,130.541 153.536,127.518 155.105,125.7 C 153.536,123.259 157.36,121.054 154.419,119.175 C 155.928,117.292 152.596,116.858 153.725,114.845 C 152.465,113.905 152.525,112.026 151.967,110.587 C 151.218,108.884 149.699,107.129 149.214,105.186 C 149.013,104.496 148.204,104.936 147.895,104.496 L 148.081,104.241 C 146.76,102.174 145.134,99.856 142.935,97.907 C 140.991,95.645 138.096,93.704 135.654,91.636 L 135.469,91.822 C 132.454,88.75 127,89.119 125.3,85.29 C 125.421,83.04 126.619,81.583 127.994,80.091 C 129.191,80.216 128.942,78.396 130.263,78.707 C 132.075,78.142 131.073,75.891 132.528,74.881 C 132.391,73.631 132.136,72.443 133.201,71.493 L 133.201,54.359 C 132.89,53.605 133.895,52.79 134.335,52.1 C 136.152,51.41 138.285,51.41 139.735,49.852 C 141.803,49.402 143.497,48.219 145.626,48.027 C 147.26,46.769 149.139,46.324 150.838,45.074 L 151.027,45.329 C 151.899,43.629 154.04,44.001 155.36,42.811 C 157.173,42.501 158.991,41.431 160.999,42.121 L 163.45,44.637 z"
   id="path3310"
   style="fill:#d71921" />
<path
   d="M 122.358,59.504 C 122.799,64.4 122.595,68.727 121.652,73.304 C 120.208,73.179 120.659,75.567 118.964,75.31 L 118.526,76.007 C 117.769,75.447 116.898,75.31 116.267,74.431 C 115.139,70.925 115.577,66.978 115.577,63.395 C 115.834,63.079 115.834,62.705 116.267,62.461 C 115.577,61.133 115.577,59.758 116.267,58.368 C 116.952,58.125 118.085,58.125 118.526,57.489 C 119.965,57.747 121.966,57.747 122.358,59.504"
   id="path3312"
   style="fill:#d71921" />
<path
   d="M 84.386,93.39 C 83.757,93.953 84.581,94.518 84.636,95.023 L 84.83,95.023 C 84.83,97.461 83.952,99.91 84.196,102.239 C 83.453,103.546 83.827,105.246 83.079,106.499 C 83.383,107.065 83.632,107.634 84.196,108.068 C 83.012,109.513 84.581,111.152 83.952,112.596 C 84.637,114.728 86.269,115.972 87.589,117.604 C 87.714,119.74 90.341,120.177 90.471,122.318 C 90.989,123.446 92.165,123.066 92.987,123.446 C 94.94,125.264 98.257,124.452 100.015,126.399 C 102.834,125.514 105.975,127.263 108.545,125.699 C 108.989,126.079 109.305,126.654 109.922,126.399 L 111.936,124.83 C 113.379,125.451 114.124,123.258 115.834,123.69 C 116.51,120.689 120.143,119.934 121.467,117.35 C 121.414,116.547 122.413,115.531 122.359,114.397 C 122.977,113.719 122.596,112.903 123.481,112.149 C 123.168,110.456 122.977,109.017 123.728,107.448 C 124.108,105.502 121.842,103.367 123.922,101.983 C 125.051,101.347 126.307,102.114 127.31,102.427 C 127.118,102.92 127.553,103.3 127.995,103.111 L 128.687,103.111 C 128.635,103.367 128.811,103.491 128.879,103.546 L 129.128,103.546 L 128.879,103.802 C 130.886,104.425 131.072,106.687 132.759,107.633 L 132.528,107.883 C 132.831,108.318 133.643,107.883 133.895,108.573 L 133.643,108.761 C 134.964,109.512 133.769,111.899 135.91,111.954 C 136.972,113.031 136.473,115.223 138.166,116.226 C 138.285,118.233 140.052,119.739 139.037,121.87 C 140.11,122.621 139.037,123.944 139.037,125.009 C 139.487,127.025 137.841,128.141 137.288,129.53 C 137.538,129.66 137.468,130.029 137.468,130.22 C 136.908,130.412 136.285,130.725 136.153,131.349 C 136.218,133.166 133.644,133.665 133.644,135.669 L 133.202,136.116 C 133.713,136.311 133.141,136.679 133.202,136.989 C 130.383,137.929 129.628,141.131 127.311,142.646 C 127.435,143.019 127.055,143.08 126.876,143.33 C 126.181,143.08 125.672,143.759 125.486,144.203 C 125.61,145.903 123.543,145.465 123.226,147.168 C 120.208,149.676 118.461,151.924 116.02,154.883 C 116.455,156.072 115.323,156.696 114.885,157.574 L 115.14,157.764 C 114.568,158.138 114.444,158.9 113.753,159.397 C 114.064,160.778 113.13,163.16 114.193,164.354 C 114.379,165.164 114.823,166.167 114.693,166.802 L 114.884,167.052 C 114.627,167.175 114.693,167.486 114.693,167.735 C 113.878,167.612 113.57,168.684 113.07,168.871 C 108.109,168.055 103.152,168.622 98.63,167.486 C 96.687,167.425 94.939,166.298 92.986,167.052 C 90.608,166.482 88.217,165.988 85.949,165.227 C 84.83,164.099 83.191,163.849 81.689,162.785 L 81.448,162.53 L 80.819,163.409 C 80.5,163.16 80.12,163.16 79.87,162.785 C 79.119,163.29 78.058,161.277 77.617,162.281 L 76.725,161.403 L 76.482,161.657 L 76.29,161.403 C 74.597,162.281 73.593,160.027 72.209,159.584 C 69.956,157.516 67.061,154.497 66.319,151.239 C 65.69,150.242 67.946,148.475 65.879,147.852 C 65.808,147.168 64.994,146.468 65.623,145.839 C 66.133,145.21 66.629,143.835 66.133,142.896 C 64.436,141.947 66.505,140.323 65.191,139.258 C 65.933,136.555 64.68,133.852 65.441,131.154 C 65.76,130.029 64.437,129.347 64.994,128.396 C 64.376,127.642 65.933,126.702 64.75,125.948 C 65.808,124.248 63.561,122.76 64.994,121.182 C 63.805,119.047 64.994,116.788 66.32,115.091 C 66.575,115.091 66.879,115.167 67.016,114.842 C 67.253,115.341 67.633,114.842 67.889,114.656 C 68.586,114.394 68.145,113.646 68.586,113.272 C 67.823,111.952 67.135,111.149 66.576,109.699 C 66.631,109.194 67.385,108.759 66.762,108.316 C 65.193,106.872 67.017,104.867 66.135,103.109 C 66.391,102.984 66.321,102.674 66.321,102.425 C 67.385,101.857 67.063,100.351 67.449,99.287 C 68.637,98.968 67.824,96.893 69.019,97.459 C 70.773,94.957 72.211,92.697 75.17,92.067 C 75.608,91.882 75.925,91.508 76.292,91.134 C 77.426,91.189 78.427,90 79.686,91.134 C 80.371,91.319 81.319,89.929 82.134,90.499 C 82.626,91.379 84.45,91.884 84.386,93.39"
   id="path3314"
   style="fill:#d71921" />
<path
   d="M 73.506,278.489 C 73.19,278.495 72.87,278.508 72.554,278.508 C 60.983,278.508 51.598,269.13 51.598,257.55 C 51.598,245.978 60.982,236.595 72.554,236.595 C 84.124,236.595 93.512,245.978 93.512,257.55 C 93.512,266.909 87.375,274.833 78.907,277.523 C 78.907,277.225 78.807,274.573 79.217,273.736 C 85.57,271.122 90.049,264.857 90.049,257.55 C 90.049,247.885 82.213,240.058 72.555,240.058 C 62.897,240.058 55.066,247.885 55.066,257.55 C 55.066,267.211 62.897,275.051 72.555,275.051 C 72.859,275.051 73.172,275.038 73.476,275.026 C 73.345,276.084 73.314,277.796 73.506,278.489"
   id="path3316"
   style="fill:#0081c3" />
<path
   d="M 73.506,278.489 C 73.19,278.495 72.87,278.508 72.554,278.508 C 60.983,278.508 51.598,269.13 51.598,257.55 C 51.598,245.978 60.982,236.595 72.554,236.595 C 84.124,236.595 93.512,245.978 93.512,257.55 C 93.512,266.909 87.375,274.833 78.907,277.523 C 78.907,277.225 78.807,274.573 79.217,273.736 C 85.57,271.122 90.049,264.857 90.049,257.55 C 90.049,247.885 82.213,240.058 72.555,240.058 C 62.897,240.058 55.066,247.885 55.066,257.55 C 55.066,267.211 62.897,275.051 72.555,275.051 C 72.859,275.051 73.172,275.038 73.476,275.026 C 73.345,276.084 73.314,277.796 73.506,278.489"
   id="path3318"
   style="fill:#0085c7;fill-opacity:1" />
<path
   d="M 124.369,277.522 C 132.848,274.844 138.986,266.909 138.986,257.549 C 138.986,245.977 129.595,236.594 118.031,236.594 C 107.324,236.594 98.488,244.634 97.228,254.996 C 97.946,254.963 100.317,255.473 100.649,255.574 C 101.626,246.849 109.03,240.056 118.031,240.056 C 127.688,240.056 135.522,247.883 135.522,257.548 C 135.522,264.867 131.035,271.143 124.652,273.752 C 124.493,274.621 124.295,275.619 124.369,277.522"
   id="path3320" />
<path
   d="M 118.978,278.489 C 118.67,278.495 118.348,278.508 118.032,278.508 C 107.462,278.508 98.725,270.681 97.281,260.514 C 97.907,260.527 99.707,260.865 100.954,261.381 C 102.703,269.2 109.679,275.051 118.032,275.051 C 118.343,275.051 118.658,275.038 118.966,275.026 C 118.932,275.661 118.796,276.647 118.978,278.489"
   id="path3322" />
<path
   d="M 146.433,261.381 C 148.179,269.2 155.161,275.051 163.519,275.051 C 173.171,275.051 181.002,267.211 181.002,257.55 C 181.002,247.885 173.171,240.058 163.519,240.058 C 154.514,240.058 147.097,246.851 146.118,255.594 C 145.507,255.351 143.466,255.015 142.7,254.997 C 143.956,244.635 152.794,236.595 163.519,236.595 C 175.083,236.595 184.464,245.978 184.464,257.55 C 184.464,269.13 175.083,278.508 163.519,278.508 C 152.931,278.508 144.182,270.675 142.755,260.495 C 143.414,260.526 145.195,260.875 146.433,261.381"
   id="path3324"
   style="fill:#e90024;fill-opacity:1" />
<path
   d="M 116.043,273.854 C 114.61,263.661 105.874,255.825 95.297,255.825 C 94.987,255.825 94.682,255.831 94.375,255.843 C 94.446,256.628 94.47,258.473 94.339,259.324 C 94.667,259.306 94.968,259.288 95.297,259.288 C 103.638,259.288 110.606,265.129 112.364,272.944 C 113.222,273.338 115.371,273.854 116.043,273.854"
   id="path3326"
   style="fill:#f4c300;fill-opacity:1" />
<path
   d="M 116.095,279.327 C 114.842,289.698 105.999,297.744 95.298,297.744 C 83.721,297.744 74.337,288.359 74.337,276.782 C 74.337,267.42 80.483,259.48 88.958,256.795 C 89.016,257.66 88.934,259.152 88.678,260.578 C 82.295,263.193 77.798,269.458 77.798,276.782 C 77.798,286.446 85.628,294.283 95.298,294.283 C 104.287,294.283 111.698,287.507 112.68,278.762 C 113.559,279.049 115.322,279.31 116.095,279.327"
   id="path3328"
   style="fill:#f4c300;fill-opacity:1" />
<path
   d="M 161.574,279.327 C 160.315,289.698 151.478,297.744 140.77,297.744 C 129.191,297.744 119.81,288.359 119.81,276.782 C 119.81,267.42 125.954,259.493 134.433,256.803 C 134.546,257.768 134.364,260.001 134.166,260.577 C 127.808,263.192 123.273,269.474 123.273,276.781 C 123.273,286.445 131.107,294.282 140.769,294.282 C 149.766,294.282 157.159,287.506 158.156,278.761 C 158.628,278.93 160.424,279.286 161.574,279.327"
   id="path3330"
   style="fill:#009f3d;fill-opacity:1" />
<path
   d="M 139.848,259.307 C 140.147,259.301 140.456,259.288 140.771,259.288 C 149.12,259.288 156.101,265.135 157.85,272.951 C 158.591,273.277 160.418,273.754 161.527,273.854 C 160.095,263.661 151.35,255.825 140.771,255.825 C 140.457,255.825 140.141,255.831 139.821,255.843 C 139.939,256.703 139.939,258.421 139.821,259.307"
   id="path3332"
   style="fill:#009f3d;fill-opacity:1" />
<path
   d="M 81.449,187.138 C 81.878,188.696 79.995,188.639 80.309,190.083 C 79.561,190.14 79.12,191.02 78.308,191.02 C 77.673,190.771 76.11,191.585 75.608,190.326 C 75.806,189.773 74.979,189.387 75.608,188.952 C 75.289,188.508 76.109,187.888 75.806,187.139 C 76.797,185.875 78.682,186 80.121,185.376 C 81.063,185.75 81.123,186.314 81.449,187.138"
   id="path3334" />
<path
   d="M 88.461,186.695 C 88.534,187.008 88.273,187.442 88.723,187.637 C 88.273,187.758 88.534,188.257 88.461,188.506 C 88.461,188.82 88.398,189.703 87.78,190.082 C 86.454,190.77 85.265,192.398 83.507,191.459 C 82.567,188.887 84.961,187.137 86.454,185.374 C 87.215,185.5 88.148,185.813 88.461,186.695"
   id="path3336" />
<g
   id="g3338">
	<path
   d="M 72.21,187.376 C 72.21,188.695 71.396,189.704 70.835,190.771 C 69.522,190.831 68.144,191.646 66.76,191.02 C 66.063,190.457 65.066,190.39 65.191,189.202 C 66.76,188.316 67.888,186.185 69.957,186.696 C 70.647,185.813 71.651,186.695 72.21,187.376"
   id="path3340" />
	<path
   d="M 31.751,187.817 L 31.549,187.637 C 33.754,186.433 35.752,188.887 38.081,188.077 L 38.081,187.816 C 39.9,188.444 42.603,188.314 44.422,189.646 C 44.921,189.57 45.231,190.456 45.295,191.018 C 45.605,191.893 44.796,192.649 45.109,193.284 C 44.984,193.342 44.796,193.469 44.859,193.719 L 44.671,193.469 C 43.986,193.962 42.916,193.907 42.162,193.907 C 41.276,194.655 39.775,195.101 38.774,196.166 C 37.896,195.601 37.646,197.425 36.949,196.665 C 34.942,197.675 32.749,198.358 30.427,198.678 L 29.481,198.678 L 31.75,197.295 L 31.548,197.106 C 32.12,196.86 32.938,196.73 33.124,195.968 L 32.874,195.726 C 32.82,195.844 32.689,196.042 32.434,195.968 C 33.878,195.032 35.634,194.473 36.767,193.284 C 32.689,192.649 28.292,192.649 24.08,192.339 C 23.645,193.093 23.204,191.839 22.712,192.587 C 21.517,192.274 20.015,193.213 18.694,192.587 C 15.747,192.843 12.919,192.095 9.407,192.339 C 7.896,192.095 6.464,191.584 5.135,190.77 C 4.575,191.141 4.01,190.082 3.511,190.082 C 3.572,189.771 3.131,189.57 3.317,189.2 C 3.572,189.267 4.515,189.011 4.895,189.385 C 7.458,188.257 10.6,187.758 13.233,187.375 C 16.191,187.698 18.814,187.886 21.584,187.137 C 21.827,187.325 21.952,187.699 22.268,187.637 L 22.523,187.375 L 22.712,187.637 C 23.336,186.184 25.153,188.388 26.099,187.375 C 27.973,187.248 29.551,188.506 31.311,188.077 C 31.55,188.139 31.681,187.948 31.751,187.817"
   id="path3342" />
</g>
<path
   d="M 205.494,191.02 C 205.991,190.771 205.431,190.457 205.494,190.083 C 205.925,190.771 206.483,189.518 206.808,190.521 L 207.32,190.083 C 207.32,190.325 207.25,190.645 207.494,190.771 C 207.934,189.452 209.008,190.695 210.007,190.326 C 212.45,191.337 214.519,193.589 215.217,196.168 C 215.217,199.065 212.836,201.375 211.136,203.202 C 211.136,203.698 211.261,204.26 210.701,204.576 C 211.075,204.701 210.832,205.2 210.887,205.448 C 210.701,205.635 210.577,206.015 210.202,205.896 C 209.436,205.759 208.44,206.209 207.494,206.328 C 206.305,208.221 203.607,208.913 202.99,211.097 C 202.163,211.227 201.906,212.543 201.164,212.915 C 202.286,213.856 204.166,213.856 205.494,213.794 C 206.934,212.915 210.007,213.794 210.701,211.353 C 210.887,211.353 211.261,211.417 211.324,211.097 C 210.506,210.033 211.075,208.403 210.886,207.025 C 211.26,206.901 211.324,207.341 211.579,207.46 C 211.704,207.205 212.02,207.281 212.269,207.281 C 212.331,208.021 213.207,208.724 213.832,209.094 C 214.087,209.149 214.147,208.968 214.272,208.845 C 214.715,210.663 217.219,212.482 215.649,214.246 C 215.602,215.37 215.406,216.304 214.516,217.004 C 212.833,217.058 212.019,218.572 210.45,218.317 C 209.881,218.877 208.817,218.129 208.438,219.012 C 207.318,218.25 206.246,218.503 205.055,218.752 C 200.846,218.752 197.146,216.553 194.63,213.616 C 193.567,211.418 195.071,209.094 196.193,207.46 C 198.15,206.017 200.086,205.517 201.655,203.443 C 201.655,203.203 201.6,202.877 201.85,202.758 C 200.085,202.129 198.017,201.439 197.146,199.806 C 196.007,199.557 196.379,198.424 196.007,197.801 C 196.516,196.862 195.635,195.23 196.891,194.849 C 196.699,193.53 198.204,192.714 198.904,191.647 C 199.717,191.531 200.721,189.323 201.655,190.772 L 202.095,191.206 C 201.904,191.462 201.537,191.587 201.655,191.896 L 201.85,192.145 C 202.464,192.097 202.464,191.405 202.796,191.021 C 203.661,192.401 202.035,192.775 201.654,193.91 C 201.22,195.603 199.407,197.173 200.72,198.937 C 201.903,199.87 203.418,200.746 205.241,200.679 C 206.74,198.741 209.503,196.916 208.436,194.165 C 206.804,192.589 205.734,190.894 203.417,190.084 C 204.422,189.704 205.058,190.694 205.494,191.02"
   id="path3344" />
<polygon
   points="200.528,191.46 201.164,190.521 200.724,191.204 200.528,191.46 "
   id="polygon3346" />
<path
   d="M 152.406,192.144 L 153.094,194.848 C 153.848,194.532 153.848,193.844 154.674,194.599 C 154.592,196.417 156.736,198.175 155.104,199.805 C 155.412,200.932 153.724,202.068 153.284,202.946 C 151.525,205.759 148.012,207.459 145.375,209.722 C 146.448,210.661 147.33,208.966 148.322,209.722 C 148.958,209.907 149.392,209.539 149.903,209.283 C 150.837,209.093 152.524,209.722 153.284,209.093 C 154.979,209.348 157.046,208.588 158.74,208.844 C 158.928,208.344 159.31,208.913 159.626,208.844 C 159.429,209.093 159.054,209.148 159.18,209.54 L 159.364,209.723 C 158.492,210.033 158.492,211.476 157.612,211.54 C 157.242,212.35 156.862,213.109 156.669,214.043 C 155.797,214.245 155.038,215.369 154.225,214.934 C 153.91,215.558 153.037,215.558 152.408,215.868 C 151.658,215.433 151.22,216.503 150.591,216.304 C 147.142,217.004 142.179,218 138.604,216.304 C 137.29,216.118 135.844,214.871 134.526,214.735 C 133.521,213.796 132.262,213.047 132.262,211.542 C 137.842,211.791 142.428,209.03 146.512,205.898 C 147.076,205.015 148.082,204.006 149.015,203.444 C 150.905,201.252 152.086,199.996 153.537,197.553 C 152.907,197.243 153.47,195.971 152.408,196.169 C 152.222,197.108 151.22,197.048 150.591,197.298 C 150.083,197.298 149.395,197.484 149.015,197.109 C 148.395,197.802 147.957,196.733 147.197,197.109 C 145.821,197.359 144.625,197.428 143.375,197.553 C 142.312,197.109 141.362,197.484 140.416,197.298 C 139.039,197.109 136.784,196.862 135.472,196.668 L 134.337,196.169 C 135.472,193.345 139.169,193.53 141.118,191.648 C 143.12,191.648 145.254,190.896 147.197,191.207 C 149.082,190.521 150.837,191.403 152.406,192.144"
   id="path3348" />
<path
   d="M 188.113,194.599 C 191.935,196.101 193.569,200.119 193.761,203.886 C 193.996,204.321 193.438,205.33 193.949,205.896 C 193.126,208.843 193.32,212.985 189.875,214.042 C 189.363,215.119 187.924,214.809 186.972,215.178 C 186.668,214.113 185.845,212.789 184.727,212.48 C 184.47,212.985 184.227,213.544 184.033,214.043 C 183.592,213.988 183.093,214.245 182.908,213.794 C 182.278,214.245 181.524,214.174 180.64,213.794 C 178.702,213.426 179.898,211.285 178.577,210.406 L 178.822,210.226 L 178.577,209.969 L 178.822,209.722 L 178.577,209.539 C 178.702,208.22 178.386,206.269 178.386,205.013 C 178.193,204.135 178.636,203.007 178.823,202.068 C 178.323,201.805 178.891,201.499 178.823,201.188 C 179.071,201.25 179.148,201.059 179.263,200.932 C 179.2,199.116 180.141,197.242 181.08,195.538 C 183.093,198.615 183.469,203.131 182.908,207.279 L 183.344,207.964 L 183.592,207.707 C 183.909,208.587 184.787,209.092 185.846,208.843 C 186.601,207.203 189.296,206.327 187.86,204.321 C 189.178,203.387 188.115,201.943 188.115,200.678 C 186.856,199.065 185.343,197.482 183.344,196.861 C 183.093,196.731 183.025,196.287 182.653,196.418 C 183.025,195.603 184.228,194.912 184.471,194.165 C 185.534,193.963 186.923,194.474 188.113,194.599"
   id="path3350" />
<path
   d="M 174.304,196.666 C 175.563,200.303 176.822,204.765 175.69,208.587 C 175.868,209.347 175.308,210.279 175.004,211.096 C 174.174,212.542 172.36,212.659 170.916,213.109 C 170.544,212.859 170.785,212.23 170.233,211.975 C 169.472,211.975 168.899,212.099 168.407,212.66 L 169.104,213.359 C 168.22,214.113 167.275,214.429 166.645,215.618 L 166.833,215.867 C 166.645,216.254 166.09,215.991 165.712,216.047 L 165.525,215.867 L 165.275,216.047 C 163.581,214.81 161.568,212.73 161.437,210.662 C 159.874,209.147 160.623,207.154 160.06,205.014 C 159.993,202.004 159.993,198.99 160.998,196.418 C 161.189,196.486 161.319,196.287 161.437,196.168 L 161.633,196.418 C 161.756,196.287 161.948,196.168 161.881,195.97 C 163.26,196.044 162.69,197.552 163.449,198.238 L 163.26,198.425 C 163.828,199.87 163.828,201.625 164.581,202.947 C 164.634,203.318 164.077,203.632 164.581,203.887 C 165.884,205.635 165.4,209.783 168.656,209.093 C 169.036,208.913 168.837,208.469 168.898,208.159 L 169.103,208.402 C 170.542,206.712 169.969,204.445 169.788,202.316 C 169.292,201.25 169.036,200.054 168.22,199.116 C 167.782,198.936 167.658,198.237 167.101,198.424 C 166.645,197.857 165.525,197.857 164.83,197.552 C 164.949,196.168 167.522,196.732 167.782,195.034 C 169.221,195.727 170.161,193.721 171.351,195.034 C 172.735,194.474 173.425,195.918 174.304,196.666"
   id="path3352" />
<path
   d="M 121.652,196.417 C 122.595,197.606 123.48,198.359 122.595,199.805 C 121.466,200.303 121.841,198.859 120.969,198.936 C 118.265,198.989 116.019,197.482 113.57,197.8 C 113.203,197.676 113.07,198.043 112.88,198.237 C 112.75,198.549 113.13,198.679 113.321,198.936 L 113.57,198.936 C 113.005,200.745 111.56,202.566 111.935,204.576 C 111.864,205.76 112.429,206.513 113.57,206.833 C 115.073,207.648 117.333,207.204 118.526,206.328 C 118.335,205.014 118.016,203.698 117.389,202.502 C 117.587,202.502 117.944,202.435 118.085,202.758 C 118.578,202.502 118.016,202.193 118.085,201.806 C 120.207,201.756 121.037,204.391 122.357,205.449 C 125.733,211.418 124.861,218.129 120.968,223.528 C 119.718,223.839 119.343,225.216 118.084,225.523 C 116.7,226.096 115.262,226.287 114.003,227.166 C 113.568,227.036 112.498,227.036 111.934,227.354 C 108.488,227.479 105.973,227.908 102.706,226.916 C 102.521,226.474 102.146,226.096 101.773,225.785 L 100.888,225.785 C 101.392,225.285 101.773,224.781 102.706,224.656 C 102.146,224.151 101.393,224.151 100.888,223.527 C 104.649,222.773 107.733,223.273 111.309,221.517 C 115.137,219.45 118.655,215.052 118.524,210.662 C 117.519,210.406 116.7,211.097 116.017,210.852 C 115.761,211.416 115.201,211.352 114.691,211.352 C 113.627,211.285 112.808,211.732 111.744,211.54 C 110.176,211.732 107.921,211.476 106.973,209.97 C 106.781,208.284 107.359,207.204 106.781,205.705 L 107.221,205.2 C 106.781,203.698 108.292,202.373 108.797,200.932 L 108.542,200.678 C 111.06,196.417 116.017,194.599 120.967,195.538 C 121.219,195.787 121.966,195.787 121.652,196.417"
   id="path3354" />
<path
   d="M 78.995,199.115 C 79.18,200.423 79.436,201.68 79.685,202.945 C 79.18,203.441 79.685,204.077 79.871,204.575 C 80.625,208.087 79.685,211.225 79.685,214.489 C 79.374,215.866 78.49,217.494 77.861,219.01 C 77.672,219.449 77.928,220.32 77.171,220.389 L 77.426,220.583 C 76.235,221.143 76.982,222.522 75.805,223.086 L 76.042,223.273 C 74.853,223.716 74.722,225.345 73.534,225.522 L 73.345,225.345 C 73.102,225.522 72.965,225.905 72.655,225.784 L 72.405,225.521 C 72.335,225.655 72.21,225.844 71.967,225.784 C 70.529,225.588 68.829,226.095 67.254,226.223 L 67.017,226.032 L 66.762,226.223 L 66.321,225.784 C 66.631,225.521 67.017,225.521 67.255,225.096 L 67.018,224.905 C 71.336,221.704 72.656,216.502 75.171,212.23 L 74.922,211.975 C 75.414,206.832 77.673,201.755 76.485,196.417 C 76.859,196.485 77.239,196.362 77.173,195.969 C 78.49,196.362 78.366,198.043 78.995,199.115"
   id="path3356" />
<path
   d="M 103.401,197.8 C 104.34,199.618 104.161,201.943 104.526,204.077 L 104.024,204.575 C 104.526,207.203 104.714,209.721 104.024,212.229 C 103.65,212.479 103.461,213.108 102.896,212.914 C 102.957,212.659 102.832,212.542 102.707,212.479 C 102.147,212.479 101.832,211.539 101.333,211.095 C 101.208,211.415 100.889,211.351 100.642,211.351 C 99.194,209.282 100.138,205.958 100.204,203.441 C 99.39,202.372 100.952,201.187 99.763,200.242 C 99.07,201.249 98.255,200.118 97.494,200.931 C 96.375,201.248 95.433,200.422 94.551,200.677 C 94.937,204.764 96.624,208.842 95.676,212.913 C 95.433,213.679 94.487,213.424 94.113,213.107 C 93.234,212.478 91.479,212.158 91.166,210.66 C 90.851,207.77 91.86,204.134 91.166,200.931 C 91.665,199.868 91.86,198.422 92.985,197.799 C 93.423,197.855 93.733,198.299 94.113,198.422 C 96.062,197.045 98.698,197.295 100.641,195.968 C 101.334,196.666 102.584,196.915 103.401,197.8"
   id="path3358" />
<path
   d="M 87.781,204.077 C 87.34,206.327 87.899,209.027 86.455,210.851 C 85.397,211.159 85.451,212.293 84.83,212.914 L 84.386,212.229 L 84.196,212.479 C 82.252,208.283 83.322,202.5 84.636,198.236 L 84.83,196.86 C 87.215,198.3 87.275,201.498 87.781,204.077"
   id="path3360" />
<path
   d="M 65.952,213.603 L 65.88,213.603 L 65.88,213.615 C 65.916,213.603 65.922,213.603 65.952,213.603 M 65.952,213.603 C 66.028,213.603 66.041,213.597 65.952,213.603 M 64.316,214.244 L 64.502,214.042 C 65.244,214.489 65.934,215.178 66.761,215.368 L 65.192,213.614 L 65.442,213.358 C 65.442,213.555 65.697,213.596 65.88,213.602 C 65.739,213.476 65.567,213.345 65.624,213.108 C 64.62,212.789 64.055,211.606 62.933,211.351 C 61.613,209.721 59.351,209.091 58.226,207.023 C 59.731,206.138 61.051,206.899 62.738,206.327 C 63.562,206.779 64.995,206.512 65.624,206.583 L 65.88,206.327 C 66.134,206.209 66.506,205.759 66.32,205.199 C 65.119,202.372 62.427,199.618 59.545,198.423 C 58.596,198.175 57.407,197.676 56.592,197.551 C 55.154,196.486 53.134,196.791 51.446,196.417 C 50.576,197.046 49.442,197.046 48.497,197.296 C 47.992,197.551 48.612,198.485 47.81,198.423 C 47.867,200.373 48.558,202.068 48.931,203.886 C 48.612,204.445 48.058,204.321 47.56,204.321 C 47.368,204.636 46.934,204.826 47.119,205.2 C 48.427,206.388 49.753,205.331 50.947,206.833 C 52.195,209.147 54.952,211.417 56.156,213.359 C 56.847,213.425 57.661,214.173 58.224,213.794 C 58.789,214.549 58.789,215.489 59.979,215.369 C 60.042,216.502 61.298,215.618 61.611,216.502 C 61.866,216.502 62.301,216.692 62.481,216.303 C 63.622,217.306 65.31,216.877 66.76,217.003 C 66.63,215.866 64.751,215.557 64.316,214.244 M 53.01,201.623 C 51.76,200.678 50.948,199.115 50.322,197.8 C 50.882,197.919 51.006,197.296 51.447,197.987 C 53.639,198.11 55.279,199.419 57.097,200.499 C 58.472,201.06 59.475,202.502 59.98,203.887 C 57.781,203.511 53.639,205.074 53.01,201.623"
   id="path3362" />
<path
   d="M 70.647,197.8 C 71.596,202.068 74.035,206.9 72.405,211.096 C 71.651,211.416 70.836,211.732 70.143,212.23 C 67.634,210.226 68.829,206.9 68.829,204.321 L 68.586,204.078 L 69.958,197.987 C 70.144,197.731 70.529,197.676 70.836,197.551 L 70.647,197.8 z"
   id="path3364" />
<path
   d="M 48.248,209.969 C 47.613,208.283 46.484,207.404 45.11,206.583 C 43.726,205.136 42.163,204.575 40.339,203.63 C 39.721,203.566 39.721,202.812 39.211,203.201 C 36.644,201.942 33.941,201.058 31.116,200.498 C 30.366,200.242 29.553,200.678 28.859,199.805 C 27.478,199.868 25.534,199.065 24.082,199.375 C 23.206,199.418 23.024,198.423 22.525,197.986 C 22.899,197.356 22.65,196.485 22.714,195.726 C 21.649,196.225 22.145,194.847 21.388,194.847 L 21.138,195.033 C 20.764,194.343 20.569,195.033 20.016,194.847 C 19.201,196.166 18.626,197.855 18.875,199.374 C 18.129,201.561 19.012,203.629 17.75,205.703 C 18.572,206.326 17.75,207.77 18.696,208.157 C 18.572,208.282 18.44,208.467 18.197,208.4 C 18.626,208.586 18.37,209.145 18.44,209.538 C 16.813,210.404 15.363,208.965 14.369,208.157 L 13.924,208.842 C 14.429,209.538 14.864,210.341 15.499,210.66 C 15.932,210.715 16.49,211.415 16.871,211.095 C 17.5,211.158 17.941,211.787 18.439,212.229 C 18.369,212.542 18.625,212.984 18.196,213.108 C 18.695,213.987 18.129,215.243 18.695,216.046 C 19.2,216.501 19.634,217.187 20.264,217.436 C 20.198,217.187 20.388,217.056 20.45,217.002 C 20.824,216.691 21.517,216.551 21.827,217.002 C 23.204,216.378 23.646,218.19 25.22,217.881 C 24.834,217.056 25.908,217.187 25.908,216.501 L 25.908,213.793 C 25.975,213.544 25.725,213.108 26.099,212.914 C 26.403,212.984 26.847,212.728 27.045,213.108 C 29.922,213.169 33.069,213.855 36.076,214.244 C 36.195,214.173 36.256,213.987 36.517,214.042 C 38.205,214.304 39.518,214.361 41.033,214.489 C 42.098,214.244 43.606,214.244 44.859,214.244 L 45.109,214.042 C 46.061,214.809 46.109,212.659 47.119,213.614 C 47.119,213.358 47.049,213.044 47.368,212.914 L 47.81,213.358 C 49.312,212.914 47.743,210.972 48.248,209.969 M 37.207,210.852 C 36.078,210.852 34.189,211.035 32.875,210.662 C 32.625,210.717 32.186,210.471 31.997,210.852 L 28.36,210.852 C 27.478,210.28 25.66,211.285 25.221,209.969 C 25.221,208.78 25.286,207.28 24.781,206.139 L 24.781,202.757 C 30.616,204.077 36.644,205.136 41.464,208.843 C 41.534,209.147 41.278,209.59 41.72,209.722 C 40.649,210.661 38.711,210.59 37.207,210.852"
   id="path3366" />
<polygon
   points="196.239,221.791 201.068,221.791 201.068,222.518 199.049,222.518 199.049,227.751 198.245,227.751 198.245,222.518 196.239,222.518 196.239,221.791 "
   id="polygon3368" />
<path
   d="M 206.703,227.751 L 206.703,224.237 C 206.703,224.056 206.716,223.301 206.716,222.748 L 206.703,222.748 L 205.026,227.751 L 204.23,227.751 L 202.567,222.76 L 202.548,222.76 C 202.548,223.302 202.567,224.057 202.567,224.238 L 202.567,227.752 L 201.782,227.752 L 201.782,221.792 L 202.94,221.792 L 204.64,226.823 L 204.647,226.823 L 206.334,221.792 L 207.476,221.792 L 207.476,227.752 L 206.703,227.752 L 206.703,227.751 z"
   id="path3370" />
<path
   d="M 208.598,224.761 C 208.598,223.279 209.704,222.165 211.136,222.165 C 212.563,222.165 213.672,223.278 213.672,224.761 C 213.672,226.274 212.563,227.376 211.136,227.376 C 209.704,227.376 208.598,226.273 208.598,224.761 M 211.136,227.906 C 212.855,227.906 214.308,226.573 214.308,224.76 C 214.308,222.967 212.855,221.64 211.136,221.64 C 209.418,221.64 207.969,222.967 207.969,224.76 C 207.969,226.573 209.418,227.906 211.136,227.906 M 212.228,225.352 C 212.153,225.814 211.766,226.135 211.255,226.135 C 210.487,226.135 210.029,225.493 210.029,224.744 C 210.029,223.976 210.452,223.39 211.225,223.39 C 211.746,223.39 212.128,223.688 212.227,224.145 L 212.782,224.145 C 212.668,223.297 212.015,222.843 211.219,222.843 C 210.089,222.843 209.399,223.652 209.399,224.756 C 209.399,225.838 210.127,226.678 211.254,226.678 C 212.015,226.678 212.638,226.171 212.787,225.352 L 212.228,225.352 z"
   id="path3372" />
</svg>