<?xml version="1.0" encoding="UTF-8" standalone="no"?>
<!-- Generator: Adobe Illustrator 14.0.0, SVG Export Plug-In . SVG Version: 6.00 Build 43363)  -->

<svg
   xmlns:dc="http://purl.org/dc/elements/1.1/"
   xmlns:cc="http://creativecommons.org/ns#"
   xmlns:rdf="http://www.w3.org/1999/02/22-rdf-syntax-ns#"
   xmlns:svg="http://www.w3.org/2000/svg"
   xmlns="http://www.w3.org/2000/svg"
   xmlns:sodipodi="http://sodipodi.sourceforge.net/DTD/sodipodi-0.dtd"
   xmlns:inkscape="http://www.inkscape.org/namespaces/inkscape"
   version="1.1"
   id="Layer_1"
   x="0px"
   y="0px"
   width="300px"
   height="300px"
   viewBox="0 0 300 300"
   enable-background="new 0 0 300 300"
   xml:space="preserve"
   inkscape:version="0.48.2 r9819"
   sodipodi:docname="baseball.svg"><metadata
   id="metadata15"><rdf:RDF><cc:Work
       rdf:about=""><dc:format>image/svg+xml</dc:format><dc:type
         rdf:resource="http://purl.org/dc/dcmitype/StillImage" /></cc:Work></rdf:RDF></metadata><defs
   id="defs13" /><sodipodi:namedview
   pagecolor="#ffffff"
   bordercolor="#666666"
   borderopacity="1"
   objecttolerance="10"
   gridtolerance="10"
   guidetolerance="10"
   inkscape:pageopacity="0"
   inkscape:pageshadow="2"
   inkscape:window-width="703"
   inkscape:window-height="504"
   id="namedview11"
   showgrid="false"
   inkscape:zoom="0.78666667"
   inkscape:cx="150"
   inkscape:cy="150"
   inkscape:window-x="0"
   inkscape:window-y="0"
   inkscape:window-maximized="0"
   inkscape:current-layer="Layer_1" />
<path
   d="M180.981,89.826c7.347-3.196,7.668-14.781,1.407-19.221c-2.109-1.546-4.883-0.956-7.168-0.197  c-15.902,4.824-32.438,9.078-49.2,7.394c-23.813-1.942-48.386-9.105-66.205-25.728c37.403-13.23,74.679-26.824,112.043-40.165  c2.311-0.824,5.402-1.895,5.508-4.832c0.451-3.863-3.596-7.099-7.2-5.202c-40.59,14.479-81.112,29.181-121.698,43.659  c-2.948,1.397-6.909,1.63-8.724,4.68c-1.219,2.756,0.474,5.703,2.843,7.16c4.783-0.159,9.1-2.418,13.555-3.907  c6.042,11.408,16.48,19.621,27.599,25.748c16.824,8.93,35.316,14.902,54.313,16.727C152.536,96.838,167.674,96.22,180.981,89.826z"
   id="path3"
   style="stroke:#0c506e;stroke-opacity:1;fill:#ff6833;fill-opacity:1" />
<path
   d="M132.662,29.91c-7.576,1.041-14.763,5.693-17.865,12.83c-5.442,10.382,0.702,24.067,11.311,28.24  c7.269,3.229,16.136,2.337,22.621-2.256c5.484-3.739,8.762-10.194,9.398-16.716c0.003-5.325-2.22-10.478-5.554-14.568  C147.662,31.936,139.977,29.07,132.662,29.91z"
   id="path5"
   style="stroke:#0c506e;stroke-opacity:1;fill:#ff6833;fill-opacity:1" />
<path
   d="M227.087,249.119c-5.034-14.189-10.376-28.313-14.016-42.945c-3.994-14.078-4.811-28.754-7.295-43.113  c-1.543-8.545-5.591-16.807-12.558-22.207c-3.936-0.235-8.139-1.281-11.869,0.532c-3.871,1.539-6.299,5.502-6.823,9.522  c-1.17,7.961,0.065,16.131,2.569,23.73c4.455,15.992,10.977,31.307,17.833,46.393c7.169,14.792,14.376,29.711,23.86,43.188  c7.464,9.25,14.97,18.472,22.396,27.754c0.792,1.105,1.844,1.966,3.014,2.666c0.002-0.617,0.008-1.854,0.01-2.473  C238.064,277.996,232.89,263.43,227.087,249.119z"
   id="path7"
   style="stroke:#0c506e;stroke-opacity:1;fill:#ff6833;fill-opacity:1" />
<path
   d="M151.771,155.783c-9.96,3.934-15.811,13.723-19.829,23.125c-8.401,20.525-14.577,41.932-18.817,63.691  c-3.384,15.646-4.866,31.607-7.346,47.402c0.063,1.973-1.514,5.16,1.132,6.075c5.217-12.54,9.477-25.446,14.229-38.162  c8.391-20.357,16.489-41.233,29.86-58.953c5.655-7.772,11.817-15.546,14.643-24.883c1.348-5.707,3.222-12.739-1.068-17.665  C161.179,152.705,155.871,154.482,151.771,155.783z"
   id="path9"
   style="stroke:#0c506e;stroke-opacity:1;fill:#ff6833;fill-opacity:1" />
</svg>