<?xml version="1.0" encoding="UTF-8" standalone="no"?>
<!-- Generator: Adobe Illustrator 14.0.0, SVG Export Plug-In . SVG Version: 6.00 Build 43363)  -->

<svg
   xmlns:dc="http://purl.org/dc/elements/1.1/"
   xmlns:cc="http://creativecommons.org/ns#"
   xmlns:rdf="http://www.w3.org/1999/02/22-rdf-syntax-ns#"
   xmlns:svg="http://www.w3.org/2000/svg"
   xmlns="http://www.w3.org/2000/svg"
   xmlns:sodipodi="http://sodipodi.sourceforge.net/DTD/sodipodi-0.dtd"
   xmlns:inkscape="http://www.inkscape.org/namespaces/inkscape"
   version="1.1"
   id="Layer_1"
   x="0px"
   y="0px"
   width="300px"
   height="300px"
   viewBox="0 0 300 300"
   enable-background="new 0 0 300 300"
   xml:space="preserve"
   inkscape:version="0.48.2 r9819"
   sodipodi:docname="boxing.svg"><metadata
   id="metadata15"><rdf:RDF><cc:Work
       rdf:about=""><dc:format>image/svg+xml</dc:format><dc:type
         rdf:resource="http://purl.org/dc/dcmitype/StillImage" /></cc:Work></rdf:RDF></metadata><defs
   id="defs13" /><sodipodi:namedview
   pagecolor="#ffffff"
   bordercolor="#666666"
   borderopacity="1"
   objecttolerance="10"
   gridtolerance="10"
   guidetolerance="10"
   inkscape:pageopacity="0"
   inkscape:pageshadow="2"
   inkscape:window-width="1280"
   inkscape:window-height="968"
   id="namedview11"
   showgrid="false"
   inkscape:zoom="0.95333333"
   inkscape:cx="150"
   inkscape:cy="150"
   inkscape:window-x="-4"
   inkscape:window-y="-4"
   inkscape:window-maximized="1"
   inkscape:current-layer="Layer_1" />
<path
   d="M153.59,65.631c6.438,2.417,13.878,1.276,19.622-2.376c6.054-3.996,9.729-11.045,9.937-18.25  c-0.502-4.692-1.939-9.461-5.108-13.065c-4.548-5.763-12.209-8.737-19.454-8.043c-9.538,0.964-17.761,8.489-19.497,17.926  C137.245,51.85,143.884,62.598,153.59,65.631z"
   id="path3"
   style="fill:#ff6833;fill-opacity:1;stroke:#0c506e;stroke-opacity:1" />
<path
   d="M240.933,69.056c-2.966-5.251-9.409-8.305-15.344-6.961c-2.498-3.281-4.792-7.963-9.512-8.085  c-7.241-1.281-13.263,4.532-16.31,10.49c-2.347,6.69-1.93,14.556,2.233,20.466c-5.64,5.345-12.665,9.01-20.025,11.369  c-2.896-5.239-5.208-11.876-11.271-14.194c-4.031-1.96-8.596-0.145-12.344,1.637c-1.21,3.11-1.857,6.397-2.176,9.712  c-8.41-6.127-12.574-15.923-18.956-23.793c-3.666-3.2-7.601-7.646-12.979-6.901c-4.475,1.126-7.83,5.554-7.747,10.196  c-0.06,7.95,4.358,15.178,9.607,20.843c5.596,6.499,12.388,11.882,19.7,16.327c4.991,2.919,10.413,5.297,16.167,6.151  c2.67,0.376,5.864-0.66,7.963,1.539c11.382,9.349,28.27,14.128,41.963,7.041c10.236-5.253,14.604-16.65,18.239-26.851  c3.107-0.814,6.235-2.042,8.527-4.377C244.797,87.195,245.696,76.548,240.933,69.056z M200.32,113.098  c-3.965,1.043-7.317-1.706-10.042-4.172c7.934-4.804,14.569-11.662,19.384-19.569c1.965-0.146,3.927-0.329,5.887-0.573  c1.266,2.011,2.754,3.872,4,5.897C214.801,102.139,209.696,111.103,200.32,113.098z"
   id="path5"
   style="fill:#ff6833;fill-opacity:1;stroke:#0c506e;stroke-opacity:1" />
<path
   d="M128.845,153.972c-1.986-5.409-4.683-10.869-9.355-14.452c-2.447-1.904-5.56-2.517-8.473-3.342  c-4.969,1.957-9.201,6.299-9.421,11.871c-0.12,7.139,1.95,14.078,3.672,20.942c2.554,11.38,4.424,23.14,3.05,34.811  c-1.259,10.572-6.215,20.187-11.133,29.463c-10.613,17.944-24.302,33.813-37.551,49.795c-0.148,0.408-0.445,1.227-0.594,1.635  c5.47-3.737,10.501-8.096,16.005-11.798c10.677-7.823,20.508-16.718,30.422-25.468c4.175-4.182,8.612-8.142,12.23-12.838  c11.788-14.717,18.579-33.665,17.27-52.602C134.574,172.37,131.846,163.054,128.845,153.972z"
   id="path7"
   style="fill:#ff6833;fill-opacity:1;stroke:#0c506e;stroke-opacity:1" />
<path
   d="M179.58,168.47c-4.964-6.681-11.402-12.1-18.183-16.854c-5.733-4.285-12.113-8.393-19.417-9.066  c-3.494-0.273-6.661,1.404-9.588,3.083c-1.133,3.609-2.45,7.688-0.619,11.315c3.345,7.129,10.541,11.018,16.365,15.847  c11.863,9.116,23.192,20.213,28.174,34.672c8.489,24.777,8.11,51.293,9.663,77.119c1.337-2.312,1.582-4.99,2.113-7.549  c2.835-13.919,4.938-27.99,6.245-42.133c1.072-7.582,1.239-15.25,1.038-22.896C194.36,196.422,189.245,180.861,179.58,168.47z"
   id="path9"
   style="fill:#ff6833;fill-opacity:1;stroke:#0c506e;stroke-opacity:1" />
</svg>