<?xml version="1.0" encoding="UTF-8" standalone="no"?>
<!-- Generator: Adobe Illustrator 13.0.0, SVG Export Plug-In . SVG Version: 6.00 Build 14948)  -->

<svg
   xmlns:xapMM="http://ns.adobe.com/xap/1.0/mm/"
   xmlns:xapG="http://ns.adobe.com/xap/1.0/g/"
   xmlns:stDim="http://ns.adobe.com/xap/1.0/sType/Dimensions#"
   xmlns:xapTPg="http://ns.adobe.com/xap/1.0/t/pg/"
   xmlns:xapGImg="http://ns.adobe.com/xap/1.0/g/img/"
   xmlns:xap="http://ns.adobe.com/xap/1.0/"
   xmlns:i="http://ns.adobe.com/AdobeIllustrator/10.0/"
   xmlns:x="adobe:ns:meta/"
   xmlns:dc="http://purl.org/dc/elements/1.1/"
   xmlns:cc="http://creativecommons.org/ns#"
   xmlns:rdf="http://www.w3.org/1999/02/22-rdf-syntax-ns#"
   xmlns:svg="http://www.w3.org/2000/svg"
   xmlns="http://www.w3.org/2000/svg"
   xmlns:sodipodi="http://sodipodi.sourceforge.net/DTD/sodipodi-0.dtd"
   xmlns:inkscape="http://www.inkscape.org/namespaces/inkscape"
   version="1.1"
   i:viewOrigin="156.5 545.5"
   i:rulerOrigin="0 0"
   i:pageBounds="0 792 612 0"
   x="0px"
   y="0px"
   width="300px"
   height="300px"
   viewBox="0 0 300 300"
   enable-background="new 0 0 300 300"
   xml:space="preserve"
   id="svg2"
   inkscape:version="0.48.2 r9819"
   sodipodi:docname="cricket.svg"><defs
   id="defs32" /><sodipodi:namedview
   pagecolor="#ffffff"
   bordercolor="#666666"
   borderopacity="1"
   objecttolerance="10"
   gridtolerance="10"
   guidetolerance="10"
   inkscape:pageopacity="0"
   inkscape:pageshadow="2"
   inkscape:window-width="947"
   inkscape:window-height="716"
   id="namedview30"
   showgrid="false"
   inkscape:zoom="0.78666667"
   inkscape:cx="150"
   inkscape:cy="150"
   inkscape:window-x="0"
   inkscape:window-y="0"
   inkscape:window-maximized="0"
   inkscape:current-layer="svg2" />
<g
   id="Layer_1"
   i:layer="yes"
   i:dimmedPercent="50"
   i:rgbTrio="#4F008000FFFF"
   style="fill:#ff6833;fill-opacity:1;stroke:#0c506e;stroke-opacity:1">
	<g
   id="g7"
   style="fill:#ff6833;fill-opacity:1;stroke:#0c506e;stroke-opacity:1">
		<g
   id="surface0"
   i:knockout="Off"
   style="fill:#ff6833;fill-opacity:1;stroke:#0c506e;stroke-opacity:1">
			<path
   fill="none"
   stroke="#000000"
   stroke-width="0.1"
   stroke-miterlimit="10"
   d="M144.658,16.912     c7.312-0.844,14.992,2.021,19.906,7.516c3.338,4.104,5.582,9.271,5.557,14.614c-0.641,6.519-3.93,12.959-9.409,16.695     c-6.481,4.577-15.329,5.468-22.59,2.248c-10.624-4.166-16.777-17.874-11.318-28.261C129.909,22.597,137.09,17.95,144.658,16.912z     "
   id="path10"
   style="fill:#ff6833;fill-opacity:1;stroke:#0c506e;stroke-opacity:1" />
			<path
   d="M144.658,16.912c7.312-0.844,14.992,2.021,19.906,7.516c3.338,4.104,5.582,9.271,5.557,14.614     c-0.641,6.519-3.93,12.959-9.409,16.695c-6.481,4.577-15.329,5.468-22.59,2.248c-10.624-4.166-16.777-17.874-11.318-28.261     C129.909,22.597,137.09,17.95,144.658,16.912z"
   id="path12"
   style="fill:#ff6833;fill-opacity:1;stroke:#0c506e;stroke-opacity:1" />
			<path
   fill="none"
   stroke="#000000"
   stroke-width="0.1"
   stroke-miterlimit="10"
   d="M44.423,30.838     c-2.817-5.21,0.547-12.559,6.537-13.283c4.416-0.86,8.452,2.278,10.209,6.125c11.972,25.155,23.869,50.35,35.844,75.505     c1.495,3.016,1.9,6.747-0.006,9.686c-1.405,1.625,0.022,3.477,0.614,5.095c13.457,0.021,26.779-4.122,38.231-11.104     C152.279,93.675,166.549,80,174.674,62.86c2.092-3.658,3.09-8.144,6.299-11.033c4.471-2.88,10.094,0.565,12.4,4.681     c1.918,2.798,1.064,6.245,0.677,9.346c-1.42,9.474-7.114,17.813-14.427,23.795c-13.925,13.432-31.899,22.203-50.651,26.534     c-9.92,2.298-20.263,2.209-30.227,0.234c2.274,4.862,4.956,9.607,6.548,14.742c0.794,2.889-4.045,4.335-5.375,1.846     c-3.352-6.381-6.134-13.064-9.174-19.603c-4.343,0.292-8.341-2.257-10.091-6.196C68.542,81.768,56.473,56.305,44.423,30.838z"
   id="path14"
   style="fill:#ff6833;fill-opacity:1;stroke:#0c506e;stroke-opacity:1" />
			<path
   d="M44.423,30.838c-2.817-5.21,0.547-12.559,6.537-13.283c4.416-0.86,8.452,2.278,10.209,6.125     c11.972,25.155,23.869,50.35,35.844,75.505c1.495,3.016,1.9,6.747-0.006,9.686c-1.405,1.625,0.022,3.477,0.614,5.095     c13.457,0.021,26.779-4.122,38.231-11.104C152.279,93.675,166.549,80,174.674,62.86c2.092-3.658,3.09-8.144,6.299-11.033     c4.471-2.88,10.094,0.565,12.4,4.681c1.918,2.798,1.064,6.245,0.677,9.346c-1.42,9.474-7.114,17.813-14.427,23.795     c-13.925,13.432-31.899,22.203-50.651,26.534c-9.92,2.298-20.263,2.209-30.227,0.234c2.274,4.862,4.956,9.607,6.548,14.742     c0.794,2.889-4.045,4.335-5.375,1.846c-3.352-6.381-6.134-13.064-9.174-19.603c-4.343,0.292-8.341-2.257-10.091-6.196     C68.542,81.768,56.473,56.305,44.423,30.838z"
   id="path16"
   style="fill:#ff6833;fill-opacity:1;stroke:#0c506e;stroke-opacity:1" />
			<path
   fill="none"
   stroke="#000000"
   stroke-width="0.1"
   stroke-miterlimit="10"
   d="M188.439,128.345     c3.707-1.756,7.861-0.72,11.764-0.496c6.953,5.37,10.998,13.599,12.551,22.112c1.756,9.391,2.412,18.939,4.111,28.34     c3.319,19.909,10.459,38.875,17.217,57.807c5.802,14.305,10.967,28.868,17.118,43.029c-0.001,0.626-0.003,1.877-0.005,2.503     c-1.01-0.575-1.881-1.302-2.612-2.18c-6.281-7.747-12.46-15.577-18.8-23.274c-9.127-10.516-15.061-23.234-21.68-35.359     c-9.469-19.349-18.385-39.107-24.224-59.896c-2.379-7.38-3.478-15.307-2.355-23.015     C182.045,133.856,184.521,129.868,188.439,128.345z"
   id="path18"
   style="fill:#ff6833;fill-opacity:1;stroke:#0c506e;stroke-opacity:1" />
			<path
   d="M188.439,128.345c3.707-1.756,7.861-0.72,11.764-0.496c6.953,5.37,10.998,13.599,12.551,22.112     c1.756,9.391,2.412,18.939,4.111,28.34c3.319,19.909,10.459,38.875,17.217,57.807c5.802,14.305,10.967,28.868,17.118,43.029     c-0.001,0.626-0.003,1.877-0.005,2.503c-1.01-0.575-1.881-1.302-2.612-2.18c-6.281-7.747-12.46-15.577-18.8-23.274     c-9.127-10.516-15.061-23.234-21.68-35.359c-9.469-19.349-18.385-39.107-24.224-59.896c-2.379-7.38-3.478-15.307-2.355-23.015     C182.045,133.856,184.521,129.868,188.439,128.345z"
   id="path20"
   style="fill:#ff6833;fill-opacity:1;stroke:#0c506e;stroke-opacity:1" />
			<path
   fill="none"
   stroke="#000000"
   stroke-width="0.1"
   stroke-miterlimit="10"
   d="M159.344,142.57     c3.762-1.021,8.434-2.71,11.691,0.37c3.977,3.571,3.49,9.486,2.499,14.252c-1.12,7.202-4.968,13.544-8.845,19.571     c-5.561,7.785-11.559,15.303-16.221,23.688c-8.418,14.93-14.837,30.863-21.201,46.746c-4.352,11.992-8.473,24.075-13.347,35.871     c-2.638-0.877-1.087-4.07-1.147-6.014c2.51-16.055,4.029-32.276,7.495-48.174c4.284-21.729,10.47-43.117,18.949-63.588     C143.258,155.926,149.297,146.231,159.344,142.57z"
   id="path22"
   style="fill:#ff6833;fill-opacity:1;stroke:#0c506e;stroke-opacity:1" />
			<path
   d="M159.344,142.57c3.762-1.021,8.434-2.71,11.691,0.37c3.977,3.571,3.49,9.486,2.499,14.252     c-1.12,7.202-4.968,13.544-8.845,19.571c-5.561,7.785-11.559,15.303-16.221,23.688c-8.418,14.93-14.837,30.863-21.201,46.746     c-4.352,11.992-8.473,24.075-13.347,35.871c-2.638-0.877-1.087-4.07-1.147-6.014c2.51-16.055,4.029-32.276,7.495-48.174     c4.284-21.729,10.47-43.117,18.949-63.588C143.258,155.926,149.297,146.231,159.344,142.57z"
   id="path24"
   style="fill:#ff6833;fill-opacity:1;stroke:#0c506e;stroke-opacity:1" />
			<path
   fill="none"
   stroke="#000000"
   stroke-width="0.1"
   stroke-miterlimit="10"
   d="M52.38,181.4     c0.013-0.646,0.037-1.938,0.049-2.585c8.712,0.005,17.425,0.009,26.138-0.002c0.014,0.646,0.042,1.938,0.056,2.585     c1.331-0.012,2.663-0.02,3.996-0.025c0,33.67,0.006,67.338-0.003,101.008c-2.078-0.004-4.154-0.004-6.23,0     c-0.018-33.525,0.011-67.051-0.015-100.576c-2.581,0.018-5.162,0.018-7.741,0c-0.026,33.525,0.002,67.051-0.014,100.576     c-2.078-0.004-4.154-0.004-6.23,0c-0.018-33.525,0.011-67.051-0.015-100.576c-2.581,0.018-5.161,0.018-7.741,0     c-0.026,33.525,0.002,67.051-0.014,100.576c-2.078-0.004-4.154-0.004-6.23,0c-0.009-33.67-0.003-67.338-0.003-101.008     C49.714,181.379,51.047,181.388,52.38,181.4z"
   id="path26"
   style="fill:#ff6833;fill-opacity:1;stroke:#0c506e;stroke-opacity:1" />
			<path
   d="M52.38,181.4c0.013-0.646,0.037-1.938,0.049-2.585c8.712,0.005,17.425,0.009,26.138-0.002     c0.014,0.646,0.042,1.938,0.056,2.585c1.331-0.012,2.663-0.02,3.996-0.025c0,33.67,0.006,67.338-0.003,101.008     c-2.078-0.004-4.154-0.004-6.23,0c-0.018-33.525,0.011-67.051-0.015-100.576c-2.581,0.018-5.162,0.018-7.741,0     c-0.026,33.525,0.002,67.051-0.014,100.576c-2.078-0.004-4.154-0.004-6.23,0c-0.018-33.525,0.011-67.051-0.015-100.576     c-2.581,0.018-5.161,0.018-7.741,0c-0.026,33.525,0.002,67.051-0.014,100.576c-2.078-0.004-4.154-0.004-6.23,0     c-0.009-33.67-0.003-67.338-0.003-101.008C49.714,181.379,51.047,181.388,52.38,181.4z"
   id="path28"
   style="fill:#ff6833;fill-opacity:1;stroke:#0c506e;stroke-opacity:1" />
		</g>
	</g>
</g>
</svg>