<?xml version="1.0" encoding="UTF-8" standalone="no"?>
<!-- Generator: Adobe Illustrator 13.0.0, SVG Export Plug-In . SVG Version: 6.00 Build 14948)  -->

<svg
   xmlns:xapMM="http://ns.adobe.com/xap/1.0/mm/"
   xmlns:xapG="http://ns.adobe.com/xap/1.0/g/"
   xmlns:stDim="http://ns.adobe.com/xap/1.0/sType/Dimensions#"
   xmlns:xapTPg="http://ns.adobe.com/xap/1.0/t/pg/"
   xmlns:xapGImg="http://ns.adobe.com/xap/1.0/g/img/"
   xmlns:xap="http://ns.adobe.com/xap/1.0/"
   xmlns:i="http://ns.adobe.com/AdobeIllustrator/10.0/"
   xmlns:x="adobe:ns:meta/"
   xmlns:dc="http://purl.org/dc/elements/1.1/"
   xmlns:cc="http://creativecommons.org/ns#"
   xmlns:rdf="http://www.w3.org/1999/02/22-rdf-syntax-ns#"
   xmlns:svg="http://www.w3.org/2000/svg"
   xmlns="http://www.w3.org/2000/svg"
   xmlns:sodipodi="http://sodipodi.sourceforge.net/DTD/sodipodi-0.dtd"
   xmlns:inkscape="http://www.inkscape.org/namespaces/inkscape"
   version="1.1"
   i:viewOrigin="156.5 545.5"
   i:rulerOrigin="0 0"
   i:pageBounds="0 792 612 0"
   x="0px"
   y="0px"
   width="300px"
   height="300px"
   viewBox="0 0 300 300"
   enable-background="new 0 0 300 300"
   xml:space="preserve"
   id="svg2"
   inkscape:version="0.48.2 r9819"
   sodipodi:docname="cricket.svg"><defs
   id="defs32" /><sodipodi:namedview
   pagecolor="#ffffff"
   bordercolor="#666666"
   borderopacity="1"
   objecttolerance="10"
   gridtolerance="10"
   guidetolerance="10"
   inkscape:pageopacity="0"
   inkscape:pageshadow="2"
   inkscape:window-width="947"
   inkscape:window-height="716"
   id="namedview30"
   showgrid="false"
   inkscape:zoom="0.78666667"
   inkscape:cx="150"
   inkscape:cy="150"
   inkscape:window-x="0"
   inkscape:window-y="0"
   inkscape:window-maximized="0"
   inkscape:current-layer="svg2" />
<metadata
   id="metadata4"><?xpacket begin="ÿ" id="W5M0MpCehiHzreSzNTczkc9d"?>
<x:xmpmeta
   x:xmptk="Adobe XMP Core 4.1-c036 46.277092, Fri Feb 23 2007 14:17:08        ">
   
<metadata
   id="metadata34"><rdf:RDF>
      <rdf:Description
   rdf:about="">
         <xap:Thumbnails>
            <rdf:Alt>
               <rdf:li
   rdf:parseType="Resource">
                  <xapGImg:width>200</xapGImg:width>
                  <xapGImg:height>256</xapGImg:height>
                  <xapGImg:format>JPEG</xapGImg:format>
                  <xapGImg:image>/9j/4AAQSkZJRgABAgEASABIAAD/7QAsUGhvdG9zaG9wIDMuMAA4QklNA+0AAAAAABAASAAAAAEA
AQBIAAAAAQAB/+4ADkFkb2JlAGTAAAAAAf/bAIQABgQEBAUEBgUFBgkGBQYJCwgGBggLDAoKCwoK
DBAMDAwMDAwQDA4PEA8ODBMTFBQTExwbGxscHx8fHx8fHx8fHwEHBwcNDA0YEBAYGhURFRofHx8f
Hx8fHx8fHx8fHx8fHx8fHx8fHx8fHx8fHx8fHx8fHx8fHx8fHx8fHx8fHx8f/8AAEQgBAADIAwER
AAIRAQMRAf/EAaIAAAAHAQEBAQEAAAAAAAAAAAQFAwIGAQAHCAkKCwEAAgIDAQEBAQEAAAAAAAAA
AQACAwQFBgcICQoLEAACAQMDAgQCBgcDBAIGAnMBAgMRBAAFIRIxQVEGE2EicYEUMpGhBxWxQiPB
UtHhMxZi8CRygvElQzRTkqKyY3PCNUQnk6OzNhdUZHTD0uIIJoMJChgZhJRFRqS0VtNVKBry4/PE
1OT0ZXWFlaW1xdXl9WZ2hpamtsbW5vY3R1dnd4eXp7fH1+f3OEhYaHiImKi4yNjo+Ck5SVlpeYmZ
qbnJ2en5KjpKWmp6ipqqusra6voRAAICAQIDBQUEBQYECAMDbQEAAhEDBCESMUEFURNhIgZxgZEy
obHwFMHR4SNCFVJicvEzJDRDghaSUyWiY7LCB3PSNeJEgxdUkwgJChgZJjZFGidkdFU38qOzwygp
0+PzhJSktMTU5PRldYWVpbXF1eX1RlZmdoaWprbG1ub2R1dnd4eXp7fH1+f3OEhYaHiImKi4yNjo
+DlJWWl5iZmpucnZ6fkqOkpaanqKmqq6ytrq+v/aAAwDAQACEQMRAD8A51+d3/OQnm3zZ5kvbDRN
Sn03ytaSPBaQWkjQm5VGoZp2Qhn5laqpNFHatSVWNfl1+eP5geR9UhuLTUp77TA/K60i6leS3lU0
5UDFvTcgfbXfxqNsVff3lXzLpnmfy5p/mDS3L2GpQrPDyFGHL7SMP5kYFW9xiqa4q7FXYq7FXYq7
FXYq81/Of88vLv5aaYqyr9f8w3aE2GlIwBp09WduqRA+1WOw7kKvjLzx+eP5mecp5DqmtTQWTkld
Ns2a3tlHZeCEF6eLljirBBI4f1Ax515c67161rirPvI357fmd5NuIzpuszXVih+LTL5mubZlqCVC
OeUdfGNlPvir7L/Jj88PL35maY4gT6hr9mgbUdKduRCk09WFtucZJp0qp2PYlV6TirsVdirsVdir
sVdirsVdirsVfl/5o8vah5c8xajoOoJwvNNuHt5h4lDQMPZhRh7YqleKvq7/AJww/MXlFqPkK+m3
jrf6MGP7JNLmJa+B4yADxc4q+psVdirsVdirsVdiqX+YdcsdB0LUNav242em28t1ORSvCJC5C1p8
RpQDxxV+a3nTzbqvm7zRqPmLVJC93qEzSFakiNOkcSV/ZjQBV9hiqSYq7FXYqn/kTzlqvkzzXp3m
PS2pc2MoZoySFliO0kT0/ZdCQfv64q/SjRNXstZ0ex1exYvZ6jbxXVsxpUxzIHWtCRWjeOKo3FXY
q7FXYq7FXYq7FXYq7FXyZ/zmf+XXoXun+fbJP3d1x0/VgO0qKTbynf8AaRSh2oOK+OKvl7FU78le
a9Q8pea9L8x6fvc6bOswQkgSINpI2p+zIhKn2OKv0r0HW9P13RLHWdOk9Sx1GCO5tn2rwlUMA1Ca
MK0I7HFUdirsVdirsVdirzL/AJyWkmj/ACP80ND9sxW6nenwtdwq/wDwpOKvz4xV2KuxV2KuxV+h
H/ONc1xN+SHlZ59nEM6Cpr8Ed3Mkf/CKMVemYq7FXYq7FXYq7FXYq7FXYqkPnzyjY+b/ACfqvlu9
A9LUYGjSQivpyj4opR/xjkCt9GKvzW1nSL/RtWvNJ1GIw31hNJb3MR/ZkiYqw+8YqgsVfX//ADhp
+YwvdDvvI19KTdaYWvNLDHraysPVjX/jHK3L/Z+2KvpXFXYq7FXYq7FUk88eWIPNPk/WPLs5Crqd
pLbo5rRJGU+nJt/I9G+jFX5oappl9pWpXWm6hC1vfWUrwXMDijJJGxVlPyIxVC4q7FXYqi9J0q/1
fVLTS9Pha4vr2VILaFRUtJIwVR95xV+mHkzy1beWPKekeX7YhotMtYrbmKjmyKA77/zvVvpxVOcV
dirsVdirsVdirsVdirsVdir45/5zI/Ln9GeZLPzrYw8bLWQLfUio+FbyJfgY0FB6sQ+koxxV844q
yb8t/O175J866V5ktKn6lMPrEQNPVt3+CaP/AGSE08Dvir9J9Pv7PUbC21CylE9neRJcW0y14vFK
odGFezKQcVV8VdirsVdirsVfP/8AzkV/zjk/nKVvNXlRUTzKqhb6xYhEvVUUVlY0VZlApvsw7gjd
V8cavour6Nfy6fq1lNYX0JpLbXEbRSL/ALFgDiqCxVHaNoesa3qEWnaRZTX99MaRW1ujSOfoUdPf
FX2X/wA47f8AOOn+CSnmjzQqS+aJEItLVSHjskdaN8Q2aZgSCRsBsK9cVe94q+Fv+cgPz48xeafN
t7pehanPZ+VtOdrW3jtJXjW6aNiHnlKlS4ZvsA7BabVriqX/AJTf85Ged/JWqwR6jfXGs+W2YLd6
dcyGV0Sp+O3eSrIy1rxB4t37EKvvDTNRs9T0201KykE1lewx3NrKOjxSqHRhXxVgcVROKuxV2Kux
V2KuxV2KsV/NHyNa+ePIuq+W5uKy3cXKzmYf3dzGecL1oSBzUBqfskjvir827y0ubK7ns7qNobm2
kaGeJhRkkjYqykeIIpiqjir7Q/5w8/MQax5PuPKF49b/AMvnnaVO72U7Egf88pCV+RUYq+hMVdir
sVdirsVdiqV6/wCVfLPmK2+ra7pVpqkFCFS7hSbjy6lC4JU+674qw/8A6F5/Jfly/wAKWla16y0+
7nTFWY6D5W8teX7f6voWlWmmQkAMlpDHDy49OXADkfc4qmeKvLP+cjvzJHkf8ubs20nHWtZDWGmA
GjIZFPqzim/7pDUH+Yrir8/sVdir9GvyLsriz/J/ylDcGsjabDMKmvwTj1U6f5DjFWdYq7FXYq7F
XYq7FXYq7FXxR/zl9+Xf6B88ReaLOMLp3mNS03EUC3sQAlr/AMZF4v7nlirwLFWZ/lD59m8i/mBp
XmAMws45PR1KNd+dpN8Mop3Kj41/ygMVfo7b3EFzbxXFvIssEyLJDKhqrI4qrKR1BBxVUxV2KuxV
2KuxV2KuxV2KrJ54LeCS4uJFhghVpJppGCoiKKszMaAAAVJOKvz3/Pv805fzD89T3tu7foLT+Vro
0R2HpBvimI/mmb4vGnEdsVebYqmPl3Q77X9e0/RLBOd7qVxHawL/AJUrBQTWmwrUnFX6c6Vpttpe
l2em2oItbGCO2gBpURwoEWtKdlxVFYq7FXYq7FXYq7FXYq7FWD/nR+X8Xnv8u9U0MIGv1T61pTd1
u4ATHSpA+OpjJPQMcVfnNLFJFI8UqlJIyVdGFCGBoQQfDFVmKvuL/nEv8x28y+QDoF9Lz1Xy0Vt1
LGrPZOD9Xbc1+Chj6bBV8cVe5Yq7FXYq7FXYq7FXYq7FXyh/zlX+eyTi4/L3y1PyiB4+Yb2M9WU/
7yIfAEfvSP8AV/mGKvlrFXYq+pv+cPvylnNy/wCYmrwFIo1e38vo4pzZgUmuR7Baxr41bwGKvq7F
XYq7FXYq7FXYq7FXYq7FXYq+F/8AnK78uj5X/MR9atY+OleZed3HTol0pH1lPpZhJ/svbFXieKvQ
fyK/MM+RPzH07VZnK6Xcn6lqqgmn1aYgFyB19Ngsn0Yq/RMEEAg1B3BHSmKuxV2KuxV2KuxV2Kvm
j/nIn/nJaDTYrnyj5IuxJqjcotU1iE1W3HRooHHWX+Zx9jt8X2VXyGzMzFmJLE1JO5JOKtYq9v8A
yD/5x01Tzzcwa/r6PZeUYn5LWqy33EmqQ+EdRRn+hd6kKvuCzs7SytIbOzhS3tbdFiggiUIiIgoq
qo2AAxVVxV2KuxV2KuxV2KuxV2KuxV2KvOPz/wDy6Hnr8t9QsLeH1dYsR9e0mg+MzwgkxrQE/vU5
IB4keGKvzzIIJBFCOoxVrFX3n/zi5+Yn+Lvy2gsrub1NY8vFbC7r9poQP9FkPzjUp7lCcVew4q7F
XYq7FUDrmvaNoOmT6prN7FYafbLymuZ2CIPbfqx7KNz2xV8g/nb/AM5Van5jW40DyS0um6E4Mdzq
ZHp3dyvcJ3hjP/BMOtKlcVfO+KrkRnYIgLOxAVQKkk9ABir6Y/I3/nFO71BrfzF+YEDW1iCHtdAa
qzTU3DXNN40/yPtHvTuq+t7e3t7a3it7eJIbeFFjhhjUIiIgoqqooAABQAYqvxV2KuxV2KuxV2Ku
xV2KuxV2KuxV2Kvgb/nJr8uh5N/Mq5mtI+Gka8G1CxoKKju37+IbAfBJuAOisuKvJMVfRf8AzhK1
5/j3XlSv1I6VWbrT1RcRel7fZMmKvsnFXYqp3V1bWlvJc3UyW9vEpaWaVgiKo6lmagA+eKvC/wAy
/wDnLbyR5dSSy8rgeZNWAZfVjJSyiYVHxS0rLvvSPYj9oYq+TPPv5mec/PepfXvMeoPchSTb2ifB
bQg7UiiHwrt3+0e5OKsWxVn/AOXH5H/mD5+mR9JsDb6WTSTV7vlFaqB14tQtIfZAfemKvr/8p/8A
nHPyP+X/AKd+V/TPmJdzqt0gAib/AJdoviEX+tUt/lU2xV6tirsVdirsVdirsVdirsVdirsVdirs
VdirsVYf+aH5X+XPzF8uHRtZVo5ImMthfxU9a3mpTktftKf20OzexAIVfIf5mf8AOLXnXyRoV/5i
+v2WqaLYFTIYTLHdCN3CCRoWQpQFhypIafLFUx/5xu/PPyf+XGl63Y+YLS5d7+eGe3uLKKOR2CIy
skheSPZdivXq2KvT9V/5za8ixCmlaDqd4wrX6wYLZajpQo9waH3GKsA8y/8AOafnm9WSLQNIstHj
Y/BNKXvJlHsT6UdfnGcVeNebvzH89eb5vU8ya1daivIstu78YEJ6lIE4xJ0/ZXFUP5e8j+cfMcgj
0LRb3Uj3a2gkkQDpVnA4qPcnFXr/AJQ/5w5/MjVmSXX57Xy/akjkrsLq54nf4Y4T6f8AwUgxV755
D/5xe/K3yoY7m4szr+pJQ/WdS4yRqwruluAIh1/aDEU64q9cRFRQiAKigBVAoAB0AGKt4q7FXYq7
FXYq7FXYq7FXYq7FXYq7FXYq7FXYq7FULq2l2WraXd6XfRiWyvoZLe5iP7UcqlHH3HFX523Ntqn5
VfmvJb3MK3Emg31JIZVrHc2pNQGVgAVmgavTvir7lg/Lz8ofNOj2uqR+WdIu7LUYY7m3uVs4Edo5
AHU80VXHXcVxVR/5UN+Tv/Upaf8A8iz/AFxVONN/LH8uNMCfUPK+lW7IAFkSyg9TboS/DmT7k4qy
REVFCIAqKAFUCgAHQAYq3irsVdirsVdirsVdirsVdirsVdirsVdirsVdirsVdirsVdirsVfLv/OZ
35ctNa6f59sYqtbBbDWOI/3WzE28zUHZmMZJ8VGKsk/5w2823Wrfl5e6Fchm/QF1wtpT09C6BlVA
fFHD/QRir37FXYq7FXYq7FXYq7FXYql3mPzDpHlzQ7zXNYnFtpthGZbmY70A2AAG5ZiQFA6nbFXx
951/5zH8/wCoahIvlWG30TTEY+g0kS3FzIvYymTlGOnRV28TiqR2H/OW/wCc9tcJJPf2t7GrBngm
tIVVgDupMIiYA+xrir66/Kn81PL35j+W11bSz6N3Dxj1PTnNZLaYitD05I1CUfuPcEBVmmKuxV2K
uxV2KuxV2KuxV2KuxV2KqF/p9hqNnLZahbRXllOvCe2uEWWJ18HRwVYfMYqoaNoOh6JZ/UtF0620
yz5GT6tZwx28XNqVbhGFWpp1piqOxV2KuxV2KuxV2KoDUPMOgabKsOoanaWcrCqx3E8cTEeIDsDi
qOjkjkjWSNg8bgMjqagg7ggjqDir51/5zX125tfJOiaNE3GLU75pbgDqyWsey/6vOZWPuBir42xV
2Ks7/Jj8yrz8vvPVlrKsx02Ui21e3FSJLWQjmafzR/bT3HgTir9FoJ4biCOeBxJDMokikU1VlYVV
gfAjFV+KuxV2KuxV2KuxV2KuxV2KuxV2KuxV2KuxV2KuxVJPOXnLy95O8v3Ova/dC2sLYU8ZJJD9
mKJP23amw+k0AJxV8Wfmh/zlB5+833Mtto9xJ5d0HdY7a0cpcSL0rPOtG3H7KUX59cVeOSzSzSNL
M7SSuavI5LMT4knc4q+j/wDnDz8y9Yg80P5FvJnuNJv4ZZ9Pjck/V54V5sEr0SSMNUeIBHfFWRf8
5xox03yg4HwrNfAn3KQEfqOKvkvFXYq7FX3/AP8AOMXmmXzD+T2kGdzJc6UZNMmdjWotyDF90Dxj
FXquKuxV2KuxV2KuxV2KuxV2KuxV2KuxV2KuxV2KrJ54LeCSeeRYoIlLyyuQqIiirMzHYADck4q/
Pz8+/wA3rz8xfN0kkEjp5c05mh0e2NQCtaNcOv8APLSvstB44q8xxV2KvY/+cS7Saf8AOrTJY1ql
rbXksx8FMDRV/wCCkXFXu3/OZmhfXfywtNURCZNJ1GJ3YbhYbhGiavzkMeKvibFXYq7FX1z/AM4P
6q8mg+adJL/Ba3VtdJHU0BuY3jZgPf6utcVfTeKuxV2KuxV2KuxV2KuxV2KuxV2KuxV2KuxV2KvB
f+cu/wAxX8veRofLVhN6epeY2aOfifiSxip63TceqzKnuvLFXxLirsVdir6r/wCcJfJ8q/p/zhMh
WN1XSrJuzbrPcfcRF+OKvoX8yPKw81eQ9d8v8eUmoWcsduKgfv1HOA1bbaVVOKvzRdGRijgq6khl
IoQR1BGKrcVdir6J/wCcJ78R/mBrdiWp9Z0oyqD3MNxENvekpxV9l4q7FXYq7FXYq7FXYq7FXYq7
FXYq7FXYq7FXYq/PT/nIbzyfOH5p6teRS+rp2nv+jtOINV9G2JVmX2kkLv8ATirzbFXYqmPl7QdT
8wa5Y6JpcJn1DUZkt7aMbVZzSpPZR1YnoN8VfpH5B8m6d5M8oaZ5bsPih0+EI81OJllb4pZSPF5C
W/DFWQYq/PH/AJyD8nt5V/NnXbNI/Ts72X9I2IA4r6V3WQhR4JJzT/Y4q85xV2KvXP8AnFbU0sfz
s0VJH4Jex3VsSTQVa3d0H0ugA98VffGKuxV2KuxVjfnf8xvJnkaztrzzTqH6OtruQw28nozz8nVe
RFIElI28cVeF6V/zk7+auvrc3fln8vX1nS4bh7dby1F1IhKUYBisezcHViPfFUo1r/nMPz7oeoSa
brHkuHT9QiCmW1uZJ4pVDqGWqsoIqpBGKp7/ANDE/nh9Q/SH/Kr5/qPpfWPrXG69P0ePP1OfCnHj
vXwxVnX5Rf8AOQ3lDz3b6ZptxcJZ+cb4TtLosUVy6IIWkYUnaMRGsKB/t96dcVesYq7FXYq7FXYq
wn85/Oh8m/lprmuRyeneJAYLA1o31m4PpRFfdC3P5DFX5xEkkkmpPU4q1irsVfZP/OJ/5LtoOmDz
1rkJTWNTi46VbuKGC0kAPqmu4eYdPBP9Y4q+i8Vdir5o/wCc1PJJutB0fzjbpWTTZDYX5Fa+hOeU
LHalElBX5vir5CxV2Ksn/LHWl0P8xPLWquaRWmpWrzU6+l6qiSlf8gnFX6W4q7FXYq7FXzb/AM5u
/wDKIeXP+2hJ/wAmTiqZ/wDOFX/krNV/7blx/wBQdpirwf8A5yt/8nfrf/GKy/6hIsVfYX/lFv8A
wW/+xHFXx7/zil/5O/RP+MV7/wBQkuKvvfFXYq7FXYq7FXyv/wA5tecCF0DyfA5HLlql8gI6CsNv
Xv8A79P3Yq+U8Vdir2z/AJxl/Jj/ABx5l/TesQlvK+jSK0qMPhurkUZLffqg+1J7UX9rFX3QAAAA
KAbADpTFXYq7FUi89+VLXzb5P1fy5dUEep2zwq7dEkpyik2/kkVW+jFX5oajYXenahc6feRmG7s5
XguIm6rJGxV1PyIxVD4q2rFSGU0I3BHUHFX6a+QvMI8x+SdC13mJH1GxgnmYCn71ox6ooKAUk5Db
FU+xV2KuxV82/wDObv8AyiHlz/toSf8AJk4qmf8AzhV/5KzVf+25cf8AUHaYq8H/AOcrf/J363/x
isv+oSLFX2F/5Rb/AMFv/sRxV8e/84pf+Tv0T/jFe/8AUJLir73xV2KuxV2KuxV+df58+a/8Ufmx
5h1FHV7aG5NlaMn2TDaD0VYVr9vgX+nFXn+Kp15M8p6t5u8z6f5d0pOd5qEojVqErGnV5Xp+zGgL
N7DFX6P+SfKGkeT/ACvp/l3SYwlpYRBOdKNJId5JX/ypHJY/0xVO8VdirsVdir4j/wCcvfIB0H8w
I/MdrHx0/wAyIZX4igW8hASYf7NeL+5LYq8HxV2KvuP/AJxA80DVvyq/RUkvK50G7ltvTpuIJv38
Rr3BZ3A+WKvccVdirsVfNv8Azm7/AMoh5c/7aEn/ACZOKpn/AM4Vf+Ss1X/tuXH/AFB2mKvB/wDn
K3/yd+t/8YrL/qEixV9hf+UW/wDBb/7EcVfHv/OKX/k79E/4xXv/AFCS4q+98VdirsVdirHfzF8z
jyv5E13X+XCTT7KWW3NAf3/HjCKHbeRlG+KvzPd2di7ks7ElmJqST1JOKrcVfYf/ADh1+WKadoNx
571CL/TtV5W+lBgKx2iNSSQeBlkWn+qv+Vir6RxV2KuxV2KuxV51+fv5enzz+Wuo6dbxepq1kPr+
lACrGeAE+muxNZULIPcjFX54kEEgihHUYq1ir6B/5wz82HTvzCvvL0jEQa9aExJXY3FnWVdv+MRl
xV9p4q7FXYq+bf8AnN3/AJRDy5/20JP+TJxVM/8AnCr/AMlZqv8A23Lj/qDtMVeD/wDOVv8A5O/W
/wDjFZf9QkWKvsL/AMot/wCC3/2I4q+Pf+cUv/J36J/xivf+oSXFX3virsVdirsVeDf85keZP0b+
WEGkRuVm1u+jjdR3gtwZnr/z0WPFXxJirJvy28lXnnXztpXlu1BAvZh9ZlH+67dPjmk/2MYNPfbF
X6Tadp9lpthbafYwrb2VpEkFtAn2UjjUKqivgBiqIxV2KuxV2KuxV2KvgT/nJf8ALr/Bv5lXUlpD
6Wja5W/0+gois5/fxClAOEm4HZSuKvJsVTryX5jn8s+bdH8wQbyaZdw3JXsyxuC6GlNmWqnFX6aW
V7a31lb3tpIJbW6jSa3lFaNHIoZGFaHcHFVbFXYq+bf+c3f+UQ8uf9tCT/kycVTP/nCr/wAlZqv/
AG3Lj/qDtMVeD/8AOVv/AJO/W/8AjFZf9QkWKvsL/wAot/4Lf/Yjir49/wCcUv8Ayd+if8Yr3/qE
lxV974q7FXYq7FXxv/zmt5i+tedtF0JJOUWl2LXEiDos13Iag+/pwofpxV854q+vv+cMfy9Nlomo
eeLyIifUybLTC1R/o0TVmcbdHlUL/sMVfS2KuxV2KuxV2KuxV2KvKv8AnJH8tm87/lxciziD61ox
N/p1BV34KfWhWn+/E6DuwXFXwCQQaHrirWKvvX/nFfzoPMf5TWNpLIXvtAdtNn5NyYxpR7dqHcL6
TKg/1Tir1/FXYq+bf+c3f+UQ8uf9tCT/AJMnFUz/AOcKv/JWar/23Lj/AKg7TFXg/wDzlb/5O/W/
+MVl/wBQkWKvsL/yi3/gt/8AYjir49/5xS/8nfon/GK9/wCoSXFX3virsVdirsVfnj/zkNrra1+c
vmi4JHC2uvqEajoBZKtufvaMk4qwry7oV/r+vafomnrzvdSuI7W3HbnKwUEnsBWpxV+mHljy9p/l
zy9p2haevGz023jtodgCRGtCzU/aY/E3ucVTPFXYq7FXYq7FXYq7FXYq+Cv+cm/yyPkv8wpruzi4
aHr/ADvbHitEjlLf6RANgPgc8gB0VlxV5Bir3z/nDvzp+h/zEn8vTycbTzFblIwWoourYNLEd/FP
UX5kYq+2MVdir5t/5zd/5RDy5/20JP8AkycVTP8A5wq/8lZqv/bcuP8AqDtMVeD/APOVv/k79b/4
xWX/AFCRYq+wv/KLf+C3/wBiOKvj3/nFL/yd+if8Yr3/AKhJcVfe+KuxV2KqF9ewWNjcXtw3G3tY
nmmbwSNSzH7hir8u9RvZb7ULq+l/vbqV55P9aRix/E4q+g/+cMvIo1Lzbf8Am+5StvocX1eyJ6G6
uVKsRt+xDyr/AKwxV9kYq7FXYq7FXYq7FXYq7FXYq8//ADy/LWL8wPIF7pUaL+lrb/S9IlNARcRg
0SvhKpKH517Yq/O+eCa3nkgnRop4WMcsbijKymjKQehBxVG+XtcvdB17TtbsW43mm3MV1Ae3OFw4
BrXY0ocVfpl5c12x8waBp2t2DB7PUreO5hIINFlUNxNP2lrQ++Kpjir5t/5zd/5RDy5/20JP+TJx
VM/+cKv/ACVmq/8AbcuP+oO0xV4P/wA5W/8Ak79b/wCMVl/1CRYq+wv/ACi3/gt/9iOKvj3/AJxS
/wDJ36J/xivf+oSXFX3virsVdirCvzs1g6R+Uvmu9H2/0bPAhrSj3K/V1O/g0oOKvzgxV+in5D+R
v8Gflho+lyx+nqFxH9e1IEEN9YuQHZWB7xpxj/2OKvQMVdirsVdirsVdirsVdirsVdir46/5y5/K
JtI1r/Hmkw/7jNVkCavGg2ivD0lIH7M1Nz/P/rYq+cMVfZ3/ADhp55Gp+S77ypcy8rvQpvVtVY7m
0uSWoo/yJQ9f9YYq+hsVfNv/ADm7/wAoh5c/7aEn/Jk4qmf/ADhV/wCSs1X/ALblx/1B2mKvB/8A
nK3/AMnfrf8Axisv+oSLFX2F/wCUW/8ABb/7EcVfHv8Azil/5O/RP+MV7/1CS4q+98VdirsVeMf8
5carJY/kze26Gn6SvLS1bx4iT6xT/khir5Q/IryZ/i/80tD0qWMSWUcwvNQVqhTb23711JXf4+IT
/ZYq/RbFXYq7FXYq7FXYq7FXYq7FXYq7FUDruh6XrujXmjarAtzp1/E0FzC3Qo4pt4EdVI3B3GKv
z2/OT8ptY/LfzU+m3PKfSrnlLpGo0+GaGv2WI2EkfR1+noRiqN/5x488f4P/ADU0i7mk9PTtQb9G
6h8XFfSuSFVm67Ry8HPyxV+hWKvm3/nN3/lEPLn/AG0JP+TJxVM/+cKv/JWar/23Lj/qDtMVeD/8
5W/+Tv1v/jFZf9QkWKvsL/yi3/gt/wDYjir49/5xS/8AJ36J/wAYr3/qElxV974q7FXYq+av+c39
TePyv5Z0sNRLq+nuim25toQgP0fWT9+KqH/OFHkv0NJ1rzjOlJL2QabYsevpRUknI9mcoP8AY4q+
nMVdirsVdirsVdirsVdirsVdirsVdirFPzN/LnQ/zA8qXOg6qvFmHqWN4oBkt7hR8Ei/qZe4qMVf
nj5x8o655P8AMl5oGswmC/snoSPsup3SWNu6uNwcVff/AOSPngedPyz0XWZJPUv1iFpqRJJb61b/
ALuRmJ7yUEn+yxV5P/zm7/yiHlz/ALaEn/Jk4qmf/OFX/krNV/7blx/1B2mKvB/+crf/ACd+t/8A
GKy/6hIsVfYX/lFv/Bb/AOxHFXx7/wA4pf8Ak79E/wCMV7/1CS4q+98VdirsVfIH/Oal3dXvnryx
ocPKV47FpYIBvWS7uDFsPFvq4GKvpz8uPKUXlDyLonlyOldOtUSdh0adv3k7D/WldjirI8VdirsV
dirsVdirsVdirsVdirsVdirsVeT/APOQf5LW35i+W/rNgqx+adLRm02Y7esn2mtpD4N+wT9lvYnF
Xjf/ADh15xutG83ax5B1NXga/wCU9tbyAq0d5aAieMqejNEPi2/YxVmP/OadhfXnlLy6tpby3DJf
yFhEjOQDCevEHFUy/wCcM7O7tPyw1SO6gkt5Drc7BJVZGobS1FaMBttirw3/AJyk0fVrn86tamtr
K4miaKzpJHE7qaWkQO4BGKvrj0pf+VN+lwb1f8O8PToeXL6jSlOta4q+R/8AnFvR9Wtvzq0Wa5sr
iGJYryskkTooraSgbkAYq+68VdirsVfOt35JufM//OXc9/eQt+i/LNlZ34dgQryCJfqwU06idmb/
AGB+WKvorFXYq7FXYq7FXYq7FXYq7FXYq7FXYq7FXYq7FXhX50fktqc3mnTfzM8iQqPM+l3EVzqN
gKAXiQsD6iDasoUcXX9tenxD4lX/2Q==</xapGImg:image>
               </rdf:li>
            </rdf:Alt>
         </xap:Thumbnails>
         <xap:CreatorTool>Adobe Illustrator CS3</xap:CreatorTool>
         <xap:ModifyDate>2008-01-04T01:27:47-08:00</xap:ModifyDate>
         <xap:MetadataDate>2008-01-04T01:27:47-08:00</xap:MetadataDate>
      </rdf:Description>
      <rdf:Description
   rdf:about="">
         <xapTPg:MaxPageSize
   rdf:parseType="Resource">
            <stDim:w>612.000000</stDim:w>
            <stDim:h>792.000000</stDim:h>
            <stDim:unit>Points</stDim:unit>
         </xapTPg:MaxPageSize>
         <xapTPg:NPages>1</xapTPg:NPages>
         <xapTPg:HasVisibleTransparency>False</xapTPg:HasVisibleTransparency>
         <xapTPg:HasVisibleOverprint>False</xapTPg:HasVisibleOverprint>
         <xapTPg:PlateNames>
            <rdf:Seq>
               <rdf:li>Cyan</rdf:li>
               <rdf:li>Magenta</rdf:li>
               <rdf:li>Yellow</rdf:li>
               <rdf:li>Black</rdf:li>
            </rdf:Seq>
         </xapTPg:PlateNames>
         <xapTPg:SwatchGroups>
            <rdf:Seq>
               <rdf:li
   rdf:parseType="Resource">
                  <xapG:groupName>Default Swatch Group</xapG:groupName>
                  <xapG:groupType>0</xapG:groupType>
               </rdf:li>
            </rdf:Seq>
         </xapTPg:SwatchGroups>
      </rdf:Description>
      <rdf:Description
   rdf:about="">
         <dc:format>image/svg+xml</dc:format>
      </rdf:Description>
      <rdf:Description
   rdf:about="">
         <xapMM:InstanceID>uuid:906ECD8CA6BADC11828F907C0EB444D3</xapMM:InstanceID>
      </rdf:Description>
   <cc:Work
   rdf:about=""><dc:format>image/svg+xml</dc:format><dc:type
     rdf:resource="http://purl.org/dc/dcmitype/StillImage" /></cc:Work></rdf:RDF></metadata></x:xmpmeta>
                                                                                                    
                                                                                                    
                                                                                                    
                                                                                                    
                                                                                                    
                                                                                                    
                                                                                                    
                                                                                                    
                                                                                                    
                                                                                                    
                                                                                                    
                                                                                                    
                                                                                                    
                                                                                                    
                                                                                                    
                                                                                                    
                                                                                                    
                                                                                                    
                                                                                                    
                                                                                                    
                           
<?xpacket end="w"?>
	</metadata>
<g
   id="Layer_1"
   i:layer="yes"
   i:dimmedPercent="50"
   i:rgbTrio="#4F008000FFFF"
   style="fill:#ff6833;fill-opacity:1;stroke:#0c506e;stroke-opacity:1">
	<g
   id="g7"
   style="fill:#ff6833;fill-opacity:1;stroke:#0c506e;stroke-opacity:1">
		<g
   id="surface0"
   i:knockout="Off"
   style="fill:#ff6833;fill-opacity:1;stroke:#0c506e;stroke-opacity:1">
			<path
   fill="none"
   stroke="#000000"
   stroke-width="0.1"
   stroke-miterlimit="10"
   d="M144.658,16.912     c7.312-0.844,14.992,2.021,19.906,7.516c3.338,4.104,5.582,9.271,5.557,14.614c-0.641,6.519-3.93,12.959-9.409,16.695     c-6.481,4.577-15.329,5.468-22.59,2.248c-10.624-4.166-16.777-17.874-11.318-28.261C129.909,22.597,137.09,17.95,144.658,16.912z     "
   id="path10"
   style="fill:#ff6833;fill-opacity:1;stroke:#0c506e;stroke-opacity:1" />
			<path
   d="M144.658,16.912c7.312-0.844,14.992,2.021,19.906,7.516c3.338,4.104,5.582,9.271,5.557,14.614     c-0.641,6.519-3.93,12.959-9.409,16.695c-6.481,4.577-15.329,5.468-22.59,2.248c-10.624-4.166-16.777-17.874-11.318-28.261     C129.909,22.597,137.09,17.95,144.658,16.912z"
   id="path12"
   style="fill:#ff6833;fill-opacity:1;stroke:#0c506e;stroke-opacity:1" />
			<path
   fill="none"
   stroke="#000000"
   stroke-width="0.1"
   stroke-miterlimit="10"
   d="M44.423,30.838     c-2.817-5.21,0.547-12.559,6.537-13.283c4.416-0.86,8.452,2.278,10.209,6.125c11.972,25.155,23.869,50.35,35.844,75.505     c1.495,3.016,1.9,6.747-0.006,9.686c-1.405,1.625,0.022,3.477,0.614,5.095c13.457,0.021,26.779-4.122,38.231-11.104     C152.279,93.675,166.549,80,174.674,62.86c2.092-3.658,3.09-8.144,6.299-11.033c4.471-2.88,10.094,0.565,12.4,4.681     c1.918,2.798,1.064,6.245,0.677,9.346c-1.42,9.474-7.114,17.813-14.427,23.795c-13.925,13.432-31.899,22.203-50.651,26.534     c-9.92,2.298-20.263,2.209-30.227,0.234c2.274,4.862,4.956,9.607,6.548,14.742c0.794,2.889-4.045,4.335-5.375,1.846     c-3.352-6.381-6.134-13.064-9.174-19.603c-4.343,0.292-8.341-2.257-10.091-6.196C68.542,81.768,56.473,56.305,44.423,30.838z"
   id="path14"
   style="fill:#ff6833;fill-opacity:1;stroke:#0c506e;stroke-opacity:1" />
			<path
   d="M44.423,30.838c-2.817-5.21,0.547-12.559,6.537-13.283c4.416-0.86,8.452,2.278,10.209,6.125     c11.972,25.155,23.869,50.35,35.844,75.505c1.495,3.016,1.9,6.747-0.006,9.686c-1.405,1.625,0.022,3.477,0.614,5.095     c13.457,0.021,26.779-4.122,38.231-11.104C152.279,93.675,166.549,80,174.674,62.86c2.092-3.658,3.09-8.144,6.299-11.033     c4.471-2.88,10.094,0.565,12.4,4.681c1.918,2.798,1.064,6.245,0.677,9.346c-1.42,9.474-7.114,17.813-14.427,23.795     c-13.925,13.432-31.899,22.203-50.651,26.534c-9.92,2.298-20.263,2.209-30.227,0.234c2.274,4.862,4.956,9.607,6.548,14.742     c0.794,2.889-4.045,4.335-5.375,1.846c-3.352-6.381-6.134-13.064-9.174-19.603c-4.343,0.292-8.341-2.257-10.091-6.196     C68.542,81.768,56.473,56.305,44.423,30.838z"
   id="path16"
   style="fill:#ff6833;fill-opacity:1;stroke:#0c506e;stroke-opacity:1" />
			<path
   fill="none"
   stroke="#000000"
   stroke-width="0.1"
   stroke-miterlimit="10"
   d="M188.439,128.345     c3.707-1.756,7.861-0.72,11.764-0.496c6.953,5.37,10.998,13.599,12.551,22.112c1.756,9.391,2.412,18.939,4.111,28.34     c3.319,19.909,10.459,38.875,17.217,57.807c5.802,14.305,10.967,28.868,17.118,43.029c-0.001,0.626-0.003,1.877-0.005,2.503     c-1.01-0.575-1.881-1.302-2.612-2.18c-6.281-7.747-12.46-15.577-18.8-23.274c-9.127-10.516-15.061-23.234-21.68-35.359     c-9.469-19.349-18.385-39.107-24.224-59.896c-2.379-7.38-3.478-15.307-2.355-23.015     C182.045,133.856,184.521,129.868,188.439,128.345z"
   id="path18"
   style="fill:#ff6833;fill-opacity:1;stroke:#0c506e;stroke-opacity:1" />
			<path
   d="M188.439,128.345c3.707-1.756,7.861-0.72,11.764-0.496c6.953,5.37,10.998,13.599,12.551,22.112     c1.756,9.391,2.412,18.939,4.111,28.34c3.319,19.909,10.459,38.875,17.217,57.807c5.802,14.305,10.967,28.868,17.118,43.029     c-0.001,0.626-0.003,1.877-0.005,2.503c-1.01-0.575-1.881-1.302-2.612-2.18c-6.281-7.747-12.46-15.577-18.8-23.274     c-9.127-10.516-15.061-23.234-21.68-35.359c-9.469-19.349-18.385-39.107-24.224-59.896c-2.379-7.38-3.478-15.307-2.355-23.015     C182.045,133.856,184.521,129.868,188.439,128.345z"
   id="path20"
   style="fill:#ff6833;fill-opacity:1;stroke:#0c506e;stroke-opacity:1" />
			<path
   fill="none"
   stroke="#000000"
   stroke-width="0.1"
   stroke-miterlimit="10"
   d="M159.344,142.57     c3.762-1.021,8.434-2.71,11.691,0.37c3.977,3.571,3.49,9.486,2.499,14.252c-1.12,7.202-4.968,13.544-8.845,19.571     c-5.561,7.785-11.559,15.303-16.221,23.688c-8.418,14.93-14.837,30.863-21.201,46.746c-4.352,11.992-8.473,24.075-13.347,35.871     c-2.638-0.877-1.087-4.07-1.147-6.014c2.51-16.055,4.029-32.276,7.495-48.174c4.284-21.729,10.47-43.117,18.949-63.588     C143.258,155.926,149.297,146.231,159.344,142.57z"
   id="path22"
   style="fill:#ff6833;fill-opacity:1;stroke:#0c506e;stroke-opacity:1" />
			<path
   d="M159.344,142.57c3.762-1.021,8.434-2.71,11.691,0.37c3.977,3.571,3.49,9.486,2.499,14.252     c-1.12,7.202-4.968,13.544-8.845,19.571c-5.561,7.785-11.559,15.303-16.221,23.688c-8.418,14.93-14.837,30.863-21.201,46.746     c-4.352,11.992-8.473,24.075-13.347,35.871c-2.638-0.877-1.087-4.07-1.147-6.014c2.51-16.055,4.029-32.276,7.495-48.174     c4.284-21.729,10.47-43.117,18.949-63.588C143.258,155.926,149.297,146.231,159.344,142.57z"
   id="path24"
   style="fill:#ff6833;fill-opacity:1;stroke:#0c506e;stroke-opacity:1" />
			<path
   fill="none"
   stroke="#000000"
   stroke-width="0.1"
   stroke-miterlimit="10"
   d="M52.38,181.4     c0.013-0.646,0.037-1.938,0.049-2.585c8.712,0.005,17.425,0.009,26.138-0.002c0.014,0.646,0.042,1.938,0.056,2.585     c1.331-0.012,2.663-0.02,3.996-0.025c0,33.67,0.006,67.338-0.003,101.008c-2.078-0.004-4.154-0.004-6.23,0     c-0.018-33.525,0.011-67.051-0.015-100.576c-2.581,0.018-5.162,0.018-7.741,0c-0.026,33.525,0.002,67.051-0.014,100.576     c-2.078-0.004-4.154-0.004-6.23,0c-0.018-33.525,0.011-67.051-0.015-100.576c-2.581,0.018-5.161,0.018-7.741,0     c-0.026,33.525,0.002,67.051-0.014,100.576c-2.078-0.004-4.154-0.004-6.23,0c-0.009-33.67-0.003-67.338-0.003-101.008     C49.714,181.379,51.047,181.388,52.38,181.4z"
   id="path26"
   style="fill:#ff6833;fill-opacity:1;stroke:#0c506e;stroke-opacity:1" />
			<path
   d="M52.38,181.4c0.013-0.646,0.037-1.938,0.049-2.585c8.712,0.005,17.425,0.009,26.138-0.002     c0.014,0.646,0.042,1.938,0.056,2.585c1.331-0.012,2.663-0.02,3.996-0.025c0,33.67,0.006,67.338-0.003,101.008     c-2.078-0.004-4.154-0.004-6.23,0c-0.018-33.525,0.011-67.051-0.015-100.576c-2.581,0.018-5.162,0.018-7.741,0     c-0.026,33.525,0.002,67.051-0.014,100.576c-2.078-0.004-4.154-0.004-6.23,0c-0.018-33.525,0.011-67.051-0.015-100.576     c-2.581,0.018-5.161,0.018-7.741,0c-0.026,33.525,0.002,67.051-0.014,100.576c-2.078-0.004-4.154-0.004-6.23,0     c-0.009-33.67-0.003-67.338-0.003-101.008C49.714,181.379,51.047,181.388,52.38,181.4z"
   id="path28"
   style="fill:#ff6833;fill-opacity:1;stroke:#0c506e;stroke-opacity:1" />
		</g>
	</g>
</g>
</svg>