<?xml version="1.0" encoding="UTF-8" standalone="no"?>
<!-- Generator: Adobe Illustrator 13.0.0, SVG Export Plug-In . SVG Version: 6.00 Build 14948)  -->

<svg
   xmlns:i="http://ns.adobe.com/AdobeIllustrator/10.0/"
   xmlns:svg="http://www.w3.org/2000/svg"
   xmlns="http://www.w3.org/2000/svg"
   xmlns:sodipodi="http://sodipodi.sourceforge.net/DTD/sodipodi-0.dtd"
   xmlns:inkscape="http://www.inkscape.org/namespaces/inkscape"
   version="1.1"
   i:viewOrigin="156.5 545.5"
   i:rulerOrigin="0 0"
   i:pageBounds="0 792 612 0"
   x="0px"
   y="0px"
   width="300px"
   height="300px"
   viewBox="0 0 300 300"
   enable-background="new 0 0 300 300"
   xml:space="preserve"
   id="svg2"
   inkscape:version="0.48.2 r9819"
   sodipodi:docname="croquet.svg"><defs
     id="defs34" /><sodipodi:namedview
     pagecolor="#ffffff"
     bordercolor="#666666"
     borderopacity="1"
     objecttolerance="10"
     gridtolerance="10"
     guidetolerance="10"
     inkscape:pageopacity="0"
     inkscape:pageshadow="2"
     inkscape:window-width="1280"
     inkscape:window-height="968"
     id="namedview32"
     showgrid="false"
     inkscape:zoom="0.78666667"
     inkscape:cx="-64.194915"
     inkscape:cy="150"
     inkscape:window-x="-4"
     inkscape:window-y="-4"
     inkscape:window-maximized="1"
     inkscape:current-layer="svg2" /><g
     id="Layer_1"
     i:knockout="Off"
     i:layer="yes"
     i:dimmedPercent="50"
     i:rgbTrio="#4F008000FFFF"
     style="stroke:#0c506e;stroke-opacity:1;fill:#ff6833;fill-opacity:1"><g
       i:knockout="Off"
       id="g7"
       style="stroke:#0c506e;stroke-opacity:1;fill:#ff6833;fill-opacity:1"><g
         id="g9"
         style="stroke:#0c506e;stroke-opacity:1;fill:#ff6833;fill-opacity:1"><g
           id="surface0"
           i:knockout="Off"
           style="stroke:#0c506e;stroke-opacity:1;fill:#ff6833;fill-opacity:1"><path
             fill="none"
             stroke="#000000"
             stroke-width="0.1"
             stroke-miterlimit="10"
             d="M158.736,13.938      c9.684-1.25,19.874,4.852,22.896,14.237c4.309,10.428-1.948,23.551-12.515,27.246c-6.574,2.723-14.358,1.577-20.155-2.437      c-7.29-5.231-11.196-15.295-8.141-23.934C143.212,21.063,150.477,15.003,158.736,13.938z"
             id="path12"
             style="stroke:#0c506e;stroke-opacity:1;fill:#ff6833;fill-opacity:1" /><path
             d="M158.736,13.938c9.684-1.25,19.874,4.852,22.896,14.237c4.309,10.428-1.948,23.551-12.515,27.246      c-6.574,2.723-14.358,1.577-20.155-2.437c-7.29-5.231-11.196-15.295-8.141-23.934C143.212,21.063,150.477,15.003,158.736,13.938      z"
             id="path14"
             style="stroke:#0c506e;stroke-opacity:1;fill:#ff6833;fill-opacity:1" /><path
             fill="none"
             stroke="#000000"
             stroke-width="0.1"
             stroke-miterlimit="10"
             d="M124.149,71.221      c1.066-4.205,4.467-7.209,8.487-8.537c2.638,0.978,5.781,1.787,7.158,4.52c3.311,6.087,2.554,13.332,1.854,19.96      c-2.995,17.688-9.292,34.861-18.648,50.182c6.042-3.938,11.218-9.04,16.58-13.825c7.033-8.286,13.827-16.781,20.817-25.108      c6.689-7.924,11.462-17.193,17.271-25.734c2.457-3.455,4.982-7.193,8.934-9.073c5.612-2.382,12.664,2.357,12.591,8.466      c-0.918,6.076-4.894,11.037-7.939,16.188c-10.822,16.051-24.125,30.953-40.917,40.907c-7.913,4.273-16.255,7.678-24.329,11.627      c-3.28,1.645-5.223,4.917-7.684,7.5c-22.954,25.717-45.673,51.651-68.749,77.255c3.637,3.754,7.489,7.303,11.469,10.689      c-1.996,2.786-4.476,5.173-6.865,7.615c-9.47-8.729-18.998-17.395-28.544-26.037c2.285-2.658,4.738-5.162,7.164-7.688      c4.057,3.798,8.111,7.601,12.149,11.417c19.928-22.278,39.77-44.63,59.66-66.941c3.595-3.75,5.059-8.845,7.309-13.399      c1.45-3.371,3.5-6.578,3.963-10.287c1.454-9.026,3.001-18.037,4.504-27.055C122.173,93.048,121.431,81.889,124.149,71.221z"
             id="path16"
             style="stroke:#0c506e;stroke-opacity:1;fill:#ff6833;fill-opacity:1" /><path
             d="M124.149,71.221c1.066-4.205,4.467-7.209,8.487-8.537c2.638,0.978,5.781,1.787,7.158,4.52      c3.311,6.087,2.554,13.332,1.854,19.96c-2.995,17.688-9.292,34.861-18.648,50.182c6.042-3.938,11.218-9.04,16.58-13.825      c7.033-8.286,13.827-16.781,20.817-25.108c6.689-7.924,11.462-17.193,17.271-25.734c2.457-3.455,4.982-7.193,8.934-9.073      c5.612-2.382,12.664,2.357,12.591,8.466c-0.918,6.076-4.894,11.037-7.939,16.188c-10.822,16.051-24.125,30.953-40.917,40.907      c-7.913,4.273-16.255,7.678-24.329,11.627c-3.28,1.645-5.223,4.917-7.684,7.5c-22.954,25.717-45.673,51.651-68.749,77.255      c3.637,3.754,7.489,7.303,11.469,10.689c-1.996,2.786-4.476,5.173-6.865,7.615c-9.47-8.729-18.998-17.395-28.544-26.037      c2.285-2.658,4.738-5.162,7.164-7.688c4.057,3.798,8.111,7.601,12.149,11.417c19.928-22.278,39.77-44.63,59.66-66.941      c3.595-3.75,5.059-8.845,7.309-13.399c1.45-3.371,3.5-6.578,3.963-10.287c1.454-9.026,3.001-18.037,4.504-27.055      C122.173,93.048,121.431,81.889,124.149,71.221z"
             id="path18"
             style="stroke:#0c506e;stroke-opacity:1;fill:#ff6833;fill-opacity:1" /><path
             fill="none"
             stroke="#000000"
             stroke-width="0.1"
             stroke-miterlimit="10"
             d="M167.811,142.317      c3.023-1.499,6.459-3.5,9.871-1.866c4.33,2.084,6.072,7.032,8.039,11.086c8.83,23.856,11.185,49.428,13.115,74.606      c1.045,16.703,2.567,33.373,3.753,50.071c0.245,3.928,0.869,7.854,0.573,11.8c-2.84-3.021-2.694-7.438-4.064-11.141      c-4.231-12.742-8.655-25.423-12.937-38.149c-7.237-20.462-16.272-40.388-21.052-61.636c-1.479-8.225-3.32-16.729-1.364-25.039      C164.268,148.497,166.336,145.51,167.811,142.317z"
             id="path20"
             style="stroke:#0c506e;stroke-opacity:1;fill:#ff6833;fill-opacity:1" /><path
             d="M167.811,142.317c3.023-1.499,6.459-3.5,9.871-1.866c4.33,2.084,6.072,7.032,8.039,11.086      c8.83,23.856,11.185,49.428,13.115,74.606c1.045,16.703,2.567,33.373,3.753,50.071c0.245,3.928,0.869,7.854,0.573,11.8      c-2.84-3.021-2.694-7.438-4.064-11.141c-4.231-12.742-8.655-25.423-12.937-38.149c-7.237-20.462-16.272-40.388-21.052-61.636      c-1.479-8.225-3.32-16.729-1.364-25.039C164.268,148.497,166.336,145.51,167.811,142.317z"
             id="path22"
             style="stroke:#0c506e;stroke-opacity:1;fill:#ff6833;fill-opacity:1" /><path
             fill="none"
             stroke="#000000"
             stroke-width="0.1"
             stroke-miterlimit="10"
             d="M149.12,141.243      c3.049-1.781,7.587-0.935,9.33,2.291c2.45,3.993,2.045,8.998,1.675,13.478c-2.384,28.922-12.445,56.387-21.779,83.625      c-4.692,13.349-9.154,26.777-13.732,40.166c-0.845,2.411-1.507,4.938-2.93,7.097c-0.837-3.958,0.681-7.873,0.957-11.812      c2.169-20.361,5.088-40.664,5.87-61.146c1.628-19.323,2.934-38.979,9.144-57.492      C139.701,151.045,143.391,144.965,149.12,141.243z"
             id="path24"
             style="stroke:#0c506e;stroke-opacity:1;fill:#ff6833;fill-opacity:1" /><path
             d="M149.12,141.243c3.049-1.781,7.587-0.935,9.33,2.291c2.45,3.993,2.045,8.998,1.675,13.478      c-2.384,28.922-12.445,56.387-21.779,83.625c-4.692,13.349-9.154,26.777-13.732,40.166c-0.845,2.411-1.507,4.938-2.93,7.097      c-0.837-3.958,0.681-7.873,0.957-11.812c2.169-20.361,5.088-40.664,5.87-61.146c1.628-19.323,2.934-38.979,9.144-57.492      C139.701,151.045,143.391,144.965,149.12,141.243z"
             id="path26"
             style="stroke:#0c506e;stroke-opacity:1;fill:#ff6833;fill-opacity:1" /></g></g></g><g
       i:knockout="Off"
       id="g28"
       style="stroke:#0c506e;stroke-opacity:1;fill:#ff6833;fill-opacity:1"><path
         i:knockout="Off"
         d="M161.621,269.532c5.18,0,9.379,4.199,9.379,9.378c0,5.18-4.199,9.379-9.379,9.379    c-5.179,0-9.378-4.199-9.378-9.379C152.243,273.731,156.442,269.532,161.621,269.532 M161.621,275.532    c-1.862,0-3.378,1.516-3.378,3.378c0,1.863,1.516,3.379,3.378,3.379c1.863,0,3.379-1.516,3.379-3.379    C165,277.048,163.484,275.532,161.621,275.532L161.621,275.532z"
         id="path30"
         style="stroke:#0c506e;stroke-opacity:1;fill:#ff6833;fill-opacity:1" /></g></g></svg>