<?xml version="1.0" encoding="UTF-8" standalone="no"?>
<!-- Generator: Adobe Illustrator 14.0.0, SVG Export Plug-In . SVG Version: 6.00 Build 43363)  -->

<svg
   xmlns:dc="http://purl.org/dc/elements/1.1/"
   xmlns:cc="http://creativecommons.org/ns#"
   xmlns:rdf="http://www.w3.org/1999/02/22-rdf-syntax-ns#"
   xmlns:svg="http://www.w3.org/2000/svg"
   xmlns="http://www.w3.org/2000/svg"
   xmlns:sodipodi="http://sodipodi.sourceforge.net/DTD/sodipodi-0.dtd"
   xmlns:inkscape="http://www.inkscape.org/namespaces/inkscape"
   version="1.1"
   id="Layer_1"
   x="0px"
   y="0px"
   width="300px"
   height="300px"
   viewBox="0 0 300 300"
   enable-background="new 0 0 300 300"
   xml:space="preserve"
   inkscape:version="0.48.2 r9819"
   sodipodi:docname="diving.svg"><metadata
   id="metadata17"><rdf:RDF><cc:Work
       rdf:about=""><dc:format>image/svg+xml</dc:format><dc:type
         rdf:resource="http://purl.org/dc/dcmitype/StillImage" /></cc:Work></rdf:RDF></metadata><defs
   id="defs15" /><sodipodi:namedview
   pagecolor="#ffffff"
   bordercolor="#666666"
   borderopacity="1"
   objecttolerance="10"
   gridtolerance="10"
   guidetolerance="10"
   inkscape:pageopacity="0"
   inkscape:pageshadow="2"
   inkscape:window-width="703"
   inkscape:window-height="480"
   id="namedview13"
   showgrid="false"
   inkscape:zoom="0.78666667"
   inkscape:cx="150"
   inkscape:cy="150"
   inkscape:window-x="0"
   inkscape:window-y="0"
   inkscape:window-maximized="0"
   inkscape:current-layer="Layer_1" />
<path
   d="M113.726,183.221c1.494,3.236,2.299,7.313,5.506,9.322c-0.726-16.253-4.121-32.315-6.186-48.462  c-4.128-28.273-7.81-56.752-16.081-84.19c-2.264-7.196-3.01-15.523-8.642-21.077c-5.36-4.727-13.7-0.617-16.417,5.118  c-3.661,7.742-1.76,16.641,0.393,24.545C84.178,107.4,99.745,145.029,113.726,183.221z"
   id="path3"
   style="fill:#ff6833;fill-opacity:1;stroke:#0c506e;stroke-opacity:1" />
<path
   d="M122.637,190.447c0.381,0.129,1.145,0.388,1.527,0.517c0.532-4.456,2.288-8.626,3.002-13.044  c3.553-18.67,7.569-37.258,10.655-56.014c1.767-10.887,2.25-21.917,2.893-32.91c0.197-4.131-0.028-8.735-2.8-12.056  c-4.126-4.445-12.126-3.352-15.381,1.603c-2.881,3.888-3.628,8.822-3.912,13.528c-1.108,28.99,1.848,57.917,2.68,86.878  C121.371,182.814,121.682,186.688,122.637,190.447z"
   id="path5"
   style="fill:#ff6833;fill-opacity:1;stroke:#0c506e;stroke-opacity:1" />
<path
   d="M69.891,213.424c-23.293-0.106-46.595-0.011-69.89-0.043v6c24.084-0.063,48.171,0.125,72.254-0.096  C74.198,216.992,73.371,213.103,69.891,213.424z"
   id="path7"
   style="fill:#ff6833;fill-opacity:1;stroke:#0c506e;stroke-opacity:1" />
<path
   d="M277.99,243.739c-12.891,2.566-21.861,14.261-35.034,16.046c-10.323,1.901-19.42-4.479-28.427-8.405  c-9.453-4.844-20.195-8.837-30.953-6.508c-9.317,1.724-17.324,7.112-26.042,10.511c-7.09,3.299-15.395,5.021-23.047,2.758  c-8.97-2.778-16.691-9.034-26.232-10.047c-11.529-1.451-22.646,2.944-33.235,6.911c-1.884,0.839-4.856,1.378-4.788,4.021  c-0.576,2.508,2.838,3.32,4.66,2.652c10.011-3.376,19.981-8.195,30.794-7.719c10.069,0.896,18.226,7.554,27.723,10.313  c4.992,1.306,10.262,1.127,15.338,0.438c14.521-2.491,26.244-13.594,41.217-14.362c12.86-0.077,23.281,8.494,34.907,12.693  c8.478,4.135,18.678,4.207,27.332,0.551c8.672-3.091,15.459-9.853,24.125-12.941c1.966-0.833,4.605-0.546,5.924-2.495  C283.573,245.532,280.604,242.75,277.99,243.739z"
   id="path9"
   style="fill:#ff6833;fill-opacity:1;stroke:#0c506e;stroke-opacity:1" />
<circle
   cx="164.968"
   cy="107.345"
   r="22"
   id="circle11"
   style="fill:#ff6833;fill-opacity:1;stroke:#0c506e;stroke-opacity:1" />
</svg>