<?xml version="1.0" encoding="UTF-8" standalone="no"?>
<!-- Generator: Adobe Illustrator 14.0.0, SVG Export Plug-In . SVG Version: 6.00 Build 43363)  -->

<svg
   xmlns:dc="http://purl.org/dc/elements/1.1/"
   xmlns:cc="http://creativecommons.org/ns#"
   xmlns:rdf="http://www.w3.org/1999/02/22-rdf-syntax-ns#"
   xmlns:svg="http://www.w3.org/2000/svg"
   xmlns="http://www.w3.org/2000/svg"
   xmlns:sodipodi="http://sodipodi.sourceforge.net/DTD/sodipodi-0.dtd"
   xmlns:inkscape="http://www.inkscape.org/namespaces/inkscape"
   version="1.1"
   id="Layer_1"
   x="0px"
   y="0px"
   width="300px"
   height="300px"
   viewBox="0 0 300 300"
   enable-background="new 0 0 300 300"
   xml:space="preserve"
   inkscape:version="0.48.2 r9819"
   sodipodi:docname="equestrian.svg"><metadata
   id="metadata11"><rdf:RDF><cc:Work
       rdf:about=""><dc:format>image/svg+xml</dc:format><dc:type
         rdf:resource="http://purl.org/dc/dcmitype/StillImage" /></cc:Work></rdf:RDF></metadata><defs
   id="defs9" /><sodipodi:namedview
   pagecolor="#ffffff"
   bordercolor="#666666"
   borderopacity="1"
   objecttolerance="10"
   gridtolerance="10"
   guidetolerance="10"
   inkscape:pageopacity="0"
   inkscape:pageshadow="2"
   inkscape:window-width="703"
   inkscape:window-height="480"
   id="namedview7"
   showgrid="false"
   inkscape:zoom="0.78666667"
   inkscape:cx="150"
   inkscape:cy="150"
   inkscape:window-x="0"
   inkscape:window-y="0"
   inkscape:window-maximized="0"
   inkscape:current-layer="Layer_1" />
<circle
   cx="164.965"
   cy="70.347"
   r="22"
   id="circle3"
   style="fill:#ff6833;fill-opacity:1;stroke:#0c506e;stroke-opacity:1" />
<path
   d="M285.327,154.463c-11.075-29.043-22.297-58.033-33.214-87.136c-15.564,1.841-31.457,6.05-44.076,15.737  c-6.564,4.717-11.795,10.968-16.719,17.31c-7.554,10.242-14.363,21.008-21.954,31.222c-8.002-2.827-16.348-6.306-21.779-13.134  c-6.285-7.294-7.154-17.382-8.27-26.534c-0.68-5.214-2.606-11.579-8.423-12.946c-9.11-2.061-16.693,7.563-16.543,16.015  c0.301,9.396,4.844,18.042,9.857,25.768c8.233,12.521,23.149,18.847,37.616,20.412c-4.876,5.415-11.633,8.564-18.293,11.192  c-9.359,3.402-19.165,5.655-29.09,6.507c-9.817-7.817-22.074-11.285-33.574-15.77c-5.722-1.692-13.026-2.477-17.63,2.148  c-3.446,3.698-6.104,9.307-3.82,14.292c-15.275-1.327-30.447-3.462-45.535-6.162c-0.409,1.979-0.828,3.957-1.285,5.927  c16.793,3.137,33.774,5.705,50.854,6.481c2.551,0.714,4.302,2.975,6.614,4.194c8.059,4.53,17.263,6.203,25.997,8.94  c5.344,1.713,10.664,5.475,12.281,11.064c-0.927,5.807-4.634,10.698-7.96,15.381c-11.96,13.367-23.564,27.068-36.097,39.912  c-1.679,1.73-3.491,3.427-4.493,5.67c3.146-0.321,5.877-1.977,8.582-3.471c9.807-5.027,19.155-10.885,28.765-16.271  c5.116-2.726,9.842-6.149,14.217-9.943c10.141-9.038,20.084-20.21,21.81-34.227c0.831-9.258-5.779-16.631-11.944-22.622  c14.367-2.657,29.176-6.249,41.077-15.154c2.952-1.966,4.866-5.044,7.519-7.3c11.729-0.394,23.487,0.061,35.213-0.726  c2.238-0.235,5.166,0.181,6.396-2.208c-8.143-1.424-16.47-1.545-24.538-3.412c-3.674-0.812-7.385-1.443-11.032-2.36  c3.555-5.005,7.155-9.979,10.503-15.129c7.724-10.982,15.036-22.755,26.13-30.712c10.268-7.649,22.883-11.27,35.361-13.252  c10.025,26.728,20.389,53.333,30.479,80.035l-0.214,0.646c-4.425,3.024-9.006,5.833-13.555,8.668  c-1.157,1.026-2.299-0.031-3.221-0.749c-12.409-10.003-24.898-19.902-37.311-29.899c-1.57-1.228-3.051-2.694-4.983-3.331  c-2.349-0.667-4.735,2.314-3.188,4.365c2.699,3.171,6.394,5.303,9.488,8.067c0.153,21.876-0.131,43.764,0.139,65.632  c-0.081,2.505,2.79,2.898,4.699,2.791c0.807-1.659,1.664-3.378,1.452-5.284c-0.055-19.438,0.032-38.876-0.046-58.314  c10.41,8.571,20.939,17.014,31.605,25.266c7.313-4.709,14.668-9.374,21.991-14.063C286.61,157.211,285.611,155.588,285.327,154.463z  "
   id="path5"
   style="fill:#ff6833;fill-opacity:1;stroke:#0c506e;stroke-opacity:1" />
</svg>