<?xml version="1.0" encoding="UTF-8" standalone="no"?>
<!-- Generator: Adobe Illustrator 14.0.0, SVG Export Plug-In . SVG Version: 6.00 Build 43363)  -->

<svg
   xmlns:dc="http://purl.org/dc/elements/1.1/"
   xmlns:cc="http://creativecommons.org/ns#"
   xmlns:rdf="http://www.w3.org/1999/02/22-rdf-syntax-ns#"
   xmlns:svg="http://www.w3.org/2000/svg"
   xmlns="http://www.w3.org/2000/svg"
   xmlns:sodipodi="http://sodipodi.sourceforge.net/DTD/sodipodi-0.dtd"
   xmlns:inkscape="http://www.inkscape.org/namespaces/inkscape"
   version="1.1"
   id="Layer_1"
   x="0px"
   y="0px"
   width="300px"
   height="300px"
   viewBox="0 0 300 300"
   enable-background="new 0 0 300 300"
   xml:space="preserve"
   inkscape:version="0.48.2 r9819"
   sodipodi:docname="fencing.svg"><metadata
   id="metadata17"><rdf:RDF><cc:Work
       rdf:about=""><dc:format>image/svg+xml</dc:format><dc:type
         rdf:resource="http://purl.org/dc/dcmitype/StillImage" /></cc:Work></rdf:RDF></metadata><defs
   id="defs15" /><sodipodi:namedview
   pagecolor="#ffffff"
   bordercolor="#666666"
   borderopacity="1"
   objecttolerance="10"
   gridtolerance="10"
   guidetolerance="10"
   inkscape:pageopacity="0"
   inkscape:pageshadow="2"
   inkscape:window-width="703"
   inkscape:window-height="480"
   id="namedview13"
   showgrid="false"
   inkscape:zoom="0.78666667"
   inkscape:cx="150"
   inkscape:cy="150"
   inkscape:window-x="0"
   inkscape:window-y="0"
   inkscape:window-maximized="0"
   inkscape:current-layer="Layer_1" />
<path
   d="M86.719,98.177c6.218,3.646,14.559,6.958,21.271,2.658c3.289-1.597,4.886-5.442,4.841-8.93  c-1.07-5.993-6.729-9.388-11.619-12.112c-9.361-4.88-20.392-8.12-26.916-16.987c-7.026-11.083-7.355-25.015-5.286-37.601  c1.772-5.475,4.263-10.694,6.061-16.164c-0.418,0.117-1.253,0.351-1.671,0.468c-6.337,5.847-9.999,13.903-12.686,21.951  c-4.618,16.148-3.671,34.592,5.704,48.917C71.653,87.836,79.135,93.314,86.719,98.177z"
   id="path3"
   style="fill:#ff6833;fill-opacity:1;stroke:#0c506e;stroke-opacity:1" />
<path
   d="M260.987,131.848c-1.292-0.137-2.858,0.275-3.888-0.739c-4.641-3.924-9.032-8.135-13.448-12.307  c-0.043,4.083-0.027,8.168-0.048,12.252c-10.529-1.001-21.028-2.325-31.533-3.556c-13.396-1.748-25.248-8.629-37.889-12.854  c-6.906-2.434-14.95-2.71-21.434,1.066c-3.179,1.724-3.316,6.125-1.469,8.888c4.192,7.684,13.647,9.41,21.472,11.044  c12.358,1.583,24.815,2.453,37.275,2.768c11.254,0.31,22.443-1.152,33.573-2.631c-0.022,4.03,0.028,8.062,0.304,12.086  c4.975-4.031,9.19-8.942,14.209-12.9c13.95-0.347,27.928-0.04,41.889-0.144v-3C286.996,131.835,273.991,131.79,260.987,131.848z"
   id="path5"
   style="fill:#ff6833;fill-opacity:1;stroke:#0c506e;stroke-opacity:1" />
<path
   d="M101.656,175.035c0.475-6.606-1.444-13.866-7.253-17.691c-4.654-0.321-9.977,0.151-13.354,3.76  c-4.699,4.545-6.321,11.189-7.178,17.446c-1.63,13.472-1.086,27.088-2.372,40.587c-0.786,6.619-3.567,12.797-6.652,18.635  c-5.394,10.496-12.39,20.113-20.16,28.971c-7.607,9.049-17.531,15.704-27.212,22.293c0.61,0.098,1.83,0.294,2.44,0.393  c24.218-5.776,44.948-22.061,59.385-41.996c7.229-10.599,12.434-22.523,15.511-34.973  C97.815,200.145,100.905,187.73,101.656,175.035z"
   id="path7"
   style="fill:#ff6833;fill-opacity:1;stroke:#0c506e;stroke-opacity:1" />
<path
   d="M138.389,175.547c-4.396-4.091-9.263-7.987-15.14-9.65c-5.112-1.453-11.095-2.705-15.772,0.633  c-3.088,2.721-3.812,7.488-2.955,11.32c3.792,9.474,12.719,15.269,20.452,21.295c4.84,4.294,11.534,7.783,12.778,14.757  c-1.429,4.103-4.589,7.215-7.464,10.34c-12.199,12.637-26.716,22.655-40.033,34.021c0.385,0.152,1.155,0.453,1.54,0.604  c10.719-3.593,21.663-6.913,31.589-12.45c7.552-3.94,15.117-7.971,21.868-13.209c4.069-3.192,8.208-6.566,10.827-11.11  c2.296-4.967,2.681-10.717,1.239-15.982C154.229,194.329,147.261,183.799,138.389,175.547z"
   id="path9"
   style="fill:#ff6833;fill-opacity:1;stroke:#0c506e;stroke-opacity:1" />
<circle
   cx="149.968"
   cy="78.344"
   r="22"
   id="circle11"
   style="fill:#ff6833;fill-opacity:1;stroke:#0c506e;stroke-opacity:1" />
</svg>