<?xml version="1.0" encoding="UTF-8" standalone="no"?>
<!-- Generator: Adobe Illustrator 14.0.0, SVG Export Plug-In . SVG Version: 6.00 Build 43363)  -->

<svg
   xmlns:dc="http://purl.org/dc/elements/1.1/"
   xmlns:cc="http://creativecommons.org/ns#"
   xmlns:rdf="http://www.w3.org/1999/02/22-rdf-syntax-ns#"
   xmlns:svg="http://www.w3.org/2000/svg"
   xmlns="http://www.w3.org/2000/svg"
   xmlns:sodipodi="http://sodipodi.sourceforge.net/DTD/sodipodi-0.dtd"
   xmlns:inkscape="http://www.inkscape.org/namespaces/inkscape"
   version="1.1"
   id="Layer_1"
   x="0px"
   y="0px"
   width="300px"
   height="300px"
   viewBox="0 0 300 300"
   enable-background="new 0 0 300 300"
   xml:space="preserve"
   inkscape:version="0.48.2 r9819"
   sodipodi:docname="field_hockey.svg"><metadata
   id="metadata15"><rdf:RDF><cc:Work
       rdf:about=""><dc:format>image/svg+xml</dc:format><dc:type
         rdf:resource="http://purl.org/dc/dcmitype/StillImage" /></cc:Work></rdf:RDF></metadata><defs
   id="defs13" /><sodipodi:namedview
   pagecolor="#ffffff"
   bordercolor="#666666"
   borderopacity="1"
   objecttolerance="10"
   gridtolerance="10"
   guidetolerance="10"
   inkscape:pageopacity="0"
   inkscape:pageshadow="2"
   inkscape:window-width="1280"
   inkscape:window-height="968"
   id="namedview11"
   showgrid="false"
   inkscape:zoom="0.78666667"
   inkscape:cx="-99.788136"
   inkscape:cy="150"
   inkscape:window-x="-4"
   inkscape:window-y="-4"
   inkscape:window-maximized="1"
   inkscape:current-layer="Layer_1" />
<path
   d="M253.457,250.646c-2.139,2.158-4.124,4.615-7.463,4.697c-2.473-0.771-5.089-1.498-7.059-3.271  c-3.002-2.679-4.452-6.536-6.031-10.126c-9.207-23.041-18.124-46.204-27.417-69.205c-0.98-0.765-1.912-1.616-2.423-2.767  c-4.739-8.295-8.141-17.403-9.513-26.876c-1.007-8.525,0.534-17.064,1.223-25.552c0.698-9.297,4.541-18.222,3.958-27.632  c-0.465-5.597-7.191-10.814-12.477-7.52c-4.813,2.859-6.553,8.594-7.634,13.747c-2.958,13.518-4.219,27.859-0.364,41.333  c1.285,5.05,3.322,10.144,6.833,14.057c-2.979,1.066-2.228-2.396-3.097-3.881c-3.351-6.261-6.573-12.739-7.768-19.811  c-1.343-7.923-2.676-15.853-3.879-23.797c-1.334-10.685,3.148-22.2-2.146-32.245c-1.129-3.112-4.526-3.89-7.199-5.158  c-3.118,0.877-6.516,1.992-8.313,4.909c-4.042,6.015-3.689,13.611-3.507,20.533c1.083,13.666,2.625,27.612,8.266,40.264  c6.123,14.158,17.006,25.562,28.53,35.518c4.197,3.786,9.396,6.062,14.132,9.019c1.365,2.396,2.137,5.075,3.215,7.608  c8.283,21.152,16.763,42.23,24.951,63.42c3.362,7.174,10.277,13.757,18.768,12.955c5.131,0.614,9.752-3.34,11.291-8.017  C257.646,250.918,255.419,249.024,253.457,250.646z"
   id="path3"
   style="fill:#ff6833;fill-opacity:1;stroke:#0c506e;stroke-opacity:1" />
<path
   d="M151.076,137.833c-2.924-7.364-7.121-14.738-14.116-18.907c-4.671-2.372-11.351-3.39-14.966,1.332  c-3.209,3.695-1.286,9.067-3.828,12.993c-1.297-6.519-3.207-13.069-6.782-18.731c-2.994-4.947-7.625-9.184-13.57-9.929  c-3.804,2.056-6.824,5.589-7.461,9.97c-1.774,9.7,1.794,19.232,3.958,28.56c1.735,6.157,2.583,12.509,3.494,18.826  c0.26,2.063,0.119,4.589-1.72,5.924c-8.338,7.651-20.338,8.531-31.092,8.967c-8.99,0.483-17.462-2.938-26.161-4.544  c1.32,3.071,4.439,4.814,6.626,7.235c4.405,4.707,10.773,6.564,16.75,8.367c10.212,3.186,21.099,4.601,31.746,3.241  c8.032-1.052,14.997-5.968,20.222-11.941c3.676-4.605,4.955-10.589,5.68-16.305c0.96-9.833,0.736-19.889-1.592-29.524  c2.424-0.791,2.021,2.336,2.59,3.846c3.752,14.995,15.982,26.416,18.466,41.854c1.219,8.282,2.501,16.725,1.308,25.092  c-0.936,9.119-4.408,17.69-8.198,25.953c-6.081,12.607-12.884,25-21.621,35.975c3.158-0.822,5.317-3.496,7.674-5.572  c9.238-10.053,20.793-18.354,27.309-30.629c6.222-13.041,12.829-26.342,14.376-40.908c1.047-11.117-1.258-22.181-3.715-32.967  C154.836,149.902,153.685,143.628,151.076,137.833z"
   id="path5"
   style="fill:#ff6833;fill-opacity:1;stroke:#0c506e;stroke-opacity:1" />
<path
   d="M250.87,247.865c4.761,0,8.62-3.859,8.62-8.62s-3.859-8.62-8.62-8.62s-8.62,3.859-8.62,8.62S246.109,247.865,250.87,247.865  z M250.87,236.625c1.444,0,2.62,1.176,2.62,2.62s-1.176,2.62-2.62,2.62s-2.62-1.176-2.62-2.62S249.426,236.625,250.87,236.625z"
   id="path7"
   style="fill:#ff6833;fill-opacity:1;stroke:#0c506e;stroke-opacity:1" />
<circle
   cx="199.408"
   cy="55.365"
   r="22"
   id="circle9"
   style="fill:#ff6833;fill-opacity:1;stroke:#0c506e;stroke-opacity:1" />
</svg>