<?xml version="1.0" encoding="UTF-8" standalone="no"?>
<!-- Generator: Adobe Illustrator 13.0.0, SVG Export Plug-In . SVG Version: 6.00 Build 14948)  -->

<svg
   xmlns:dc="http://purl.org/dc/elements/1.1/"
   xmlns:cc="http://creativecommons.org/ns#"
   xmlns:rdf="http://www.w3.org/1999/02/22-rdf-syntax-ns#"
   xmlns:svg="http://www.w3.org/2000/svg"
   xmlns="http://www.w3.org/2000/svg"
   xmlns:xlink="http://www.w3.org/1999/xlink"
   xmlns:sodipodi="http://sodipodi.sourceforge.net/DTD/sodipodi-0.dtd"
   xmlns:inkscape="http://www.inkscape.org/namespaces/inkscape"
   version="1.1"
   id="Layer_1"
   x="0px"
   y="0px"
   width="300px"
   height="300px"
   viewBox="0 0 300 300"
   enable-background="new 0 0 300 300"
   xml:space="preserve"
   inkscape:version="0.48.2 r9819"
   sodipodi:docname="figure_skating.svg"><metadata
   id="metadata36"><rdf:RDF><cc:Work
       rdf:about=""><dc:format>image/svg+xml</dc:format><dc:type
         rdf:resource="http://purl.org/dc/dcmitype/StillImage" /></cc:Work></rdf:RDF></metadata><defs
   id="defs34" /><sodipodi:namedview
   pagecolor="#ffffff"
   bordercolor="#666666"
   borderopacity="1"
   objecttolerance="10"
   gridtolerance="10"
   guidetolerance="10"
   inkscape:pageopacity="0"
   inkscape:pageshadow="2"
   inkscape:window-width="711"
   inkscape:window-height="513"
   id="namedview32"
   showgrid="false"
   inkscape:zoom="0.78666667"
   inkscape:cx="150"
   inkscape:cy="150"
   inkscape:window-x="0"
   inkscape:window-y="0"
   inkscape:window-maximized="0"
   inkscape:current-layer="Layer_1" />
<g
   id="g3"
   style="fill:#ff6833;fill-opacity:1;stroke:#0c506e;stroke-opacity:1">
	<defs
   id="defs5">
		<rect
   id="SVGID_1_"
   width="300"
   height="300" />
	</defs>
	<clipPath
   id="SVGID_2_">
		<use
   xlink:href="#SVGID_1_"
   overflow="visible"
   id="use9" />
	</clipPath>
	<g
   id="surface0"
   clip-path="url(#SVGID_2_)"
   style="fill:#ff6833;fill-opacity:1;stroke:#0c506e;stroke-opacity:1">
		<path
   fill="none"
   stroke="#000000"
   stroke-width="0.1"
   stroke-miterlimit="10"
   d="M82.433,11.655    C85.532,7.507,90.777,4.186,96.11,5.8c9.34,2.532,17.336,8.248,25.995,12.367c-0.543,2.055-1.499,3.96-2.707,5.701    c-8.019-4.135-15.641-9.289-24.312-11.979c-2.965-1.109-5.812,0.805-7.404,3.2C85.78,14.192,84.074,12.955,82.433,11.655z"
   id="path12"
   style="fill:#ff6833;fill-opacity:1;stroke:#0c506e;stroke-opacity:1" />
		<path
   d="M82.433,11.655C85.532,7.507,90.777,4.186,96.11,5.8c9.34,2.532,17.336,8.248,25.995,12.367    c-0.543,2.055-1.499,3.96-2.707,5.701c-8.019-4.135-15.641-9.289-24.312-11.979c-2.965-1.109-5.812,0.805-7.404,3.2    C85.78,14.192,84.074,12.955,82.433,11.655z"
   id="path14"
   style="fill:#ff6833;fill-opacity:1;stroke:#0c506e;stroke-opacity:1" />
		<path
   fill="none"
   stroke="#000000"
   stroke-width="0.1"
   stroke-miterlimit="10"
   d="M128.369,22.563    c4.627,0.35,8.693,2.832,12.727,4.905c7.911,5.113,15.666,10.552,22.761,16.765c4.454,4.314,8.827,8.716,13.308,13.006    c4.103-5.028,10.34-8.308,16.86-8.458c9.265-0.143,18.321,6.152,20.866,15.172c4.094,11.043-3.43,24.276-14.708,27.175    c-0.042,3.726-0.136,8.738-4.2,10.406c-4.205,1.005-9.216-0.024-12.162-3.376c-4.119-4.294-7.445-9.261-10.625-14.268    c-9.997-16.178-18.506-33.534-31.525-47.606c-3.98-4.491-8.943-7.992-12.973-12.415L128.369,22.563z"
   id="path16"
   style="fill:#ff6833;fill-opacity:1;stroke:#0c506e;stroke-opacity:1" />
		<path
   d="M128.369,22.563c4.627,0.35,8.693,2.832,12.727,4.905c7.911,5.113,15.666,10.552,22.761,16.765    c4.454,4.314,8.827,8.716,13.308,13.006c4.103-5.028,10.34-8.308,16.86-8.458c9.265-0.143,18.321,6.152,20.866,15.172    c4.094,11.043-3.43,24.276-14.708,27.175c-0.042,3.726-0.136,8.738-4.2,10.406c-4.205,1.005-9.216-0.024-12.162-3.376    c-4.119-4.294-7.445-9.261-10.625-14.268c-9.997-16.178-18.506-33.534-31.525-47.606c-3.98-4.491-8.943-7.992-12.973-12.415    L128.369,22.563z"
   id="path18"
   style="fill:#ff6833;fill-opacity:1;stroke:#0c506e;stroke-opacity:1" />
		<path
   fill="none"
   stroke="#000000"
   stroke-width="0.1"
   stroke-miterlimit="10"
   d="M106.571,30.4    c1.195-1.749,2.184-3.889,4.329-4.639c-0.584,5.803-1.961,11.488-2.91,17.237c-2.65,12.641-2.042,25.734-0.165,38.438    c0.81,3.535,1.354,7.246,3.077,10.483c3.956,6.267,9.354,11.547,15.446,15.738c5.771,4.219,12.406,7.305,17.56,12.328    c2.264,3.198,4.848,6.866,4.281,11c-0.278,3.978-2.807,7.239-5.156,10.268c-6.997,1.015-14.242-0.187-20.24-4.021    c-9.203-5.579-16.794-13.496-22.678-22.454c-2.382-4.002-4.599-8.208-5.446-12.835c-2.106-9.821-2.866-19.949-2.109-29.971    c0.597-9.39,2.077-18.911,6.1-27.496C100.992,39.619,103.777,34.999,106.571,30.4z"
   id="path20"
   style="fill:#ff6833;fill-opacity:1;stroke:#0c506e;stroke-opacity:1" />
		<path
   d="M106.571,30.4c1.195-1.749,2.184-3.889,4.329-4.639c-0.584,5.803-1.961,11.488-2.91,17.237    c-2.65,12.641-2.042,25.734-0.165,38.438c0.81,3.535,1.354,7.246,3.077,10.483c3.956,6.267,9.354,11.547,15.446,15.738    c5.771,4.219,12.406,7.305,17.56,12.328c2.264,3.198,4.848,6.866,4.281,11c-0.278,3.978-2.807,7.239-5.156,10.268    c-6.997,1.015-14.242-0.187-20.24-4.021c-9.203-5.579-16.794-13.496-22.678-22.454c-2.382-4.002-4.599-8.208-5.446-12.835    c-2.106-9.821-2.866-19.949-2.109-29.971c0.597-9.39,2.077-18.911,6.1-27.496C100.992,39.619,103.777,34.999,106.571,30.4z"
   id="path22"
   style="fill:#ff6833;fill-opacity:1;stroke:#0c506e;stroke-opacity:1" />
		<path
   fill="none"
   stroke="#000000"
   stroke-width="0.1"
   stroke-miterlimit="10"
   d="M148.969,139.669    c3.089,0.646,6.519,1.124,8.707,3.658c4.547,5.019,5.436,12.138,5.225,18.646c0.059,11.667,0.063,23.358-1.224,34.972    c-2.604,23.951-5.218,47.901-7.868,71.848c-0.83,5.174-0.945,10.513-2.756,15.484c-1.558-1.9-1.485-4.433-1.797-6.742    c-1.484-13.236-3.279-26.434-4.852-39.658c-1.333-13.31-2.291-26.654-3.722-39.953c-1.314-14.281-2.851-28.604-2.29-42.967    c0.424-4.289,1.218-9.052,4.492-12.153C144.658,141.337,146.882,140.579,148.969,139.669z"
   id="path24"
   style="fill:#ff6833;fill-opacity:1;stroke:#0c506e;stroke-opacity:1" />
		<path
   d="M148.969,139.669c3.089,0.646,6.519,1.124,8.707,3.658c4.547,5.019,5.436,12.138,5.225,18.646    c0.059,11.667,0.063,23.358-1.224,34.972c-2.604,23.951-5.218,47.901-7.868,71.848c-0.83,5.174-0.945,10.513-2.756,15.484    c-1.558-1.9-1.485-4.433-1.797-6.742c-1.484-13.236-3.279-26.434-4.852-39.658c-1.333-13.31-2.291-26.654-3.722-39.953    c-1.314-14.281-2.851-28.604-2.29-42.967c0.424-4.289,1.218-9.052,4.492-12.153C144.658,141.337,146.882,140.579,148.969,139.669z    "
   id="path26"
   style="fill:#ff6833;fill-opacity:1;stroke:#0c506e;stroke-opacity:1" />
		<path
   fill="none"
   stroke="#000000"
   stroke-width="0.1"
   stroke-miterlimit="10"
   d="M177.094,282.393    c2.139,0.381,4.264,0.843,6.39,1.31c-1.063,2.933-1.731,6.341-4.322,8.381c-2.665,2.517-6.448,3.185-9.968,3.484    c-8.187,0.222-16.375-0.082-24.555-0.395c-0.016-2.008-0.021-4.015-0.023-6.017c8.879-0.057,17.837,1.208,26.667-0.062    C174.707,288.706,177.08,285.795,177.094,282.393z"
   id="path28"
   style="fill:#ff6833;fill-opacity:1;stroke:#0c506e;stroke-opacity:1" />
		<path
   d="M177.094,282.393c2.139,0.381,4.264,0.843,6.39,1.31c-1.063,2.933-1.731,6.341-4.322,8.381    c-2.665,2.517-6.448,3.185-9.968,3.484c-8.187,0.222-16.375-0.082-24.555-0.395c-0.016-2.008-0.021-4.015-0.023-6.017    c8.879-0.057,17.837,1.208,26.667-0.062C174.707,288.706,177.08,285.795,177.094,282.393z"
   id="path30"
   style="fill:#ff6833;fill-opacity:1;stroke:#0c506e;stroke-opacity:1" />
	</g>
</g>
</svg>