<?xml version="1.0" encoding="UTF-8" standalone="no"?>
<!-- Generator: Adobe Illustrator 14.0.0, SVG Export Plug-In . SVG Version: 6.00 Build 43363)  -->

<svg
   xmlns:dc="http://purl.org/dc/elements/1.1/"
   xmlns:cc="http://creativecommons.org/ns#"
   xmlns:rdf="http://www.w3.org/1999/02/22-rdf-syntax-ns#"
   xmlns:svg="http://www.w3.org/2000/svg"
   xmlns="http://www.w3.org/2000/svg"
   xmlns:sodipodi="http://sodipodi.sourceforge.net/DTD/sodipodi-0.dtd"
   xmlns:inkscape="http://www.inkscape.org/namespaces/inkscape"
   version="1.1"
   id="Layer_1"
   x="0px"
   y="0px"
   width="300px"
   height="300px"
   viewBox="0 0 300 300"
   enable-background="new 0 0 300 300"
   xml:space="preserve"
   inkscape:version="0.48.2 r9819"
   sodipodi:docname="football.svg"><metadata
   id="metadata19"><rdf:RDF><cc:Work
       rdf:about=""><dc:format>image/svg+xml</dc:format><dc:type
         rdf:resource="http://purl.org/dc/dcmitype/StillImage" /></cc:Work></rdf:RDF></metadata><defs
   id="defs17" /><sodipodi:namedview
   pagecolor="#ffffff"
   bordercolor="#666666"
   borderopacity="1"
   objecttolerance="10"
   gridtolerance="10"
   guidetolerance="10"
   inkscape:pageopacity="0"
   inkscape:pageshadow="2"
   inkscape:window-width="703"
   inkscape:window-height="480"
   id="namedview15"
   showgrid="false"
   inkscape:zoom="0.78666667"
   inkscape:cx="150"
   inkscape:cy="150"
   inkscape:window-x="0"
   inkscape:window-y="0"
   inkscape:window-maximized="0"
   inkscape:current-layer="Layer_1" />
<path
   d="M120.163,79.848c13.524,1.706,27.135,3.15,40.786,2.92c6.136,0.008,12.645,0.205,18.295-2.561  c3.264-2.302,6.336-6.75,4.238-10.794c-2.514-4.375-7.617-6.611-12.402-7.435c-10.658-0.759-21.28,0.821-31.893,1.574  c-17.685,1.791-35.369,3.786-53.137,4.463c-10.848,1.287-21.983,1.338-32.54,4.277c1.434,0.517,2.92,0.902,4.445,1.015  C78.669,75.657,99.371,78.226,120.163,79.848z"
   id="path3"
   style="fill:#ff6833;fill-opacity:1;stroke:#0c506e;stroke-opacity:1" />
<path
   d="M260.076,102.089c-2.561-8.924-8.135-17.373-16.873-21.197c-4.596-0.393-10.525,1.21-11.93,6.181  c-1.16,8.042,3.834,15.196,8.121,21.52c3.7,5.441,8.387,10.613,9.594,17.304c-6.599,4.915-13.533,9.385-20.786,13.265  c-4.949,2.22-10.175,3.736-15.184,5.809c-3.356,1.432-7.125,2.438-9.666,5.218c2.133,0.869,4.462,0.535,6.695,0.437  c11.242-0.83,22.604-1.738,33.441-5.044c7.444-2.449,15.104-5.919,19.707-12.57c1.763-3.357,2.134-7.266,2.271-11.001  C265.609,114.938,261.767,108.768,260.076,102.089z"
   id="path5"
   style="fill:#ff6833;fill-opacity:1;stroke:#0c506e;stroke-opacity:1" />
<path
   d="M157.645,125.861c-8.942,1.175-15.687,7.964-21.519,14.284c-6.569,6.822-11.853,14.711-17.584,22.217  c-3.4,5.105-6.497,10.625-7.638,16.72c-0.617,3.571,1.544,7.505,5.177,8.353c4.871,1.979,10.235-0.073,14.003-3.334  c11.879-10.753,23.484-22.082,32.369-35.512c2.999-4.355,5.368-9.311,5.926-14.62c0.085-2.156-0.413-4.946-2.795-5.651  C163.034,127.285,160.53,125.435,157.645,125.861z"
   id="path7"
   style="fill:#ff6833;fill-opacity:1;stroke:#0c506e;stroke-opacity:1" />
<path
   d="M175.107,147.4c-10.387,5.202-16.377,15.62-23.266,24.471c-20.378,28.703-38.357,58.995-57.394,88.583  c-2.573,4.779-5.659,9.358-7.552,14.462c1.414-0.42,2.876-0.931,3.811-2.147c5.827-6.854,12.319-13.102,19.184-18.907  c13.409-11.194,25.265-24.072,37.965-36.037c10.576-10.434,21.542-20.546,30.744-32.264c6.287-8.013,12.593-16.424,15.554-26.307  c1.354-4.176,0.764-9.204-2.48-12.361C186.611,143.643,180.15,144.657,175.107,147.4z"
   id="path9"
   style="fill:#ff6833;fill-opacity:1;stroke:#0c506e;stroke-opacity:1" />
<path
   d="M54.287,206.147c-12.682,0-22.963,10.28-22.963,22.963c0,12.682,10.281,22.963,22.963,22.963  c12.682,0,22.963-10.281,22.963-22.963C77.25,216.428,66.969,206.147,54.287,206.147z M54.287,246.073  c-9.354,0-16.963-7.609-16.963-16.963c0-9.354,7.609-16.963,16.963-16.963s16.963,7.608,16.963,16.963  C71.25,238.464,63.641,246.073,54.287,246.073z"
   id="path11"
   style="fill:#ff6833;fill-opacity:1;stroke:#0c506e;stroke-opacity:1" />
<circle
   cx="220.968"
   cy="50.342"
   r="22"
   id="circle13"
   style="fill:#ff6833;fill-opacity:1;stroke:#0c506e;stroke-opacity:1" />
</svg>