<?xml version="1.0" encoding="UTF-8" standalone="no"?>
<!-- Generator: Adobe Illustrator 13.0.0, SVG Export Plug-In . SVG Version: 6.00 Build 14948)  -->

<svg
   xmlns:xapMM="http://ns.adobe.com/xap/1.0/mm/"
   xmlns:xapG="http://ns.adobe.com/xap/1.0/g/"
   xmlns:stDim="http://ns.adobe.com/xap/1.0/sType/Dimensions#"
   xmlns:xapTPg="http://ns.adobe.com/xap/1.0/t/pg/"
   xmlns:xapGImg="http://ns.adobe.com/xap/1.0/g/img/"
   xmlns:xap="http://ns.adobe.com/xap/1.0/"
   xmlns:i="http://ns.adobe.com/AdobeIllustrator/10.0/"
   xmlns:x="adobe:ns:meta/"
   xmlns:dc="http://purl.org/dc/elements/1.1/"
   xmlns:cc="http://creativecommons.org/ns#"
   xmlns:rdf="http://www.w3.org/1999/02/22-rdf-syntax-ns#"
   xmlns:svg="http://www.w3.org/2000/svg"
   xmlns="http://www.w3.org/2000/svg"
   xmlns:sodipodi="http://sodipodi.sourceforge.net/DTD/sodipodi-0.dtd"
   xmlns:inkscape="http://www.inkscape.org/namespaces/inkscape"
   version="1.1"
   i:viewOrigin="156.5 545.5"
   i:rulerOrigin="0 0"
   i:pageBounds="0 792 612 0"
   x="0px"
   y="0px"
   width="300px"
   height="300px"
   viewBox="0 0 300 300"
   enable-background="new 0 0 300 300"
   xml:space="preserve"
   id="svg2"
   inkscape:version="0.48.2 r9819"
   sodipodi:docname="golf.svg"><defs
   id="defs28" /><sodipodi:namedview
   pagecolor="#ffffff"
   bordercolor="#666666"
   borderopacity="1"
   objecttolerance="10"
   gridtolerance="10"
   guidetolerance="10"
   inkscape:pageopacity="0"
   inkscape:pageshadow="2"
   inkscape:window-width="703"
   inkscape:window-height="480"
   id="namedview26"
   showgrid="false"
   inkscape:zoom="0.78666667"
   inkscape:cx="150"
   inkscape:cy="150"
   inkscape:window-x="0"
   inkscape:window-y="0"
   inkscape:window-maximized="0"
   inkscape:current-layer="svg2" />
<g
   id="Layer_1"
   i:layer="yes"
   i:dimmedPercent="50"
   i:rgbTrio="#4F008000FFFF"
   style="fill:#ff6833;fill-opacity:1;stroke:#0c506e;stroke-opacity:1">
	<g
   id="g7"
   style="fill:#ff6833;fill-opacity:1;stroke:#0c506e;stroke-opacity:1">
		<g
   id="surface0"
   i:knockout="Off"
   style="fill:#ff6833;fill-opacity:1;stroke:#0c506e;stroke-opacity:1">
			<path
   fill="none"
   stroke="#000000"
   stroke-width="0.1"
   stroke-miterlimit="10"
   d="M109.666,29.713     c3.501-7.494,11.189-12.595,19.445-12.921c7.78-0.217,15.555,3.789,19.64,10.468c1.938,2.626,2.054,6.071,3.652,8.83     c27.159,4.18,54.35,8.205,81.531,12.254c5.119-0.11,10.612,1.747,13.263,6.425c3.714,5.069,3.888,13.764-1.6,17.616     c-2.284,1.88-5.485,0.201-7.096-1.776c-3.442-4.524-3.737-10.431-4.353-15.862c-27.509-4.086-55.01-8.229-82.516-12.34     c-1.698,7.489-7.295,14.155-14.767,16.339c-6.979,2.474-15.075,0.874-20.857-3.654c-5.714-4.574-8.763-12.011-8.267-19.278     c-8.276-1.142-16.517-2.524-24.795-3.65c-4.531,4.39-8.014,10.326-7.879,16.802c0.033,8.19,5.771,15.512,13.07,18.784     c6.977,3.826,15.162,4.563,22.974,4.004c9.828-0.716,18.921-5.68,28.854-5.533c5.842,0.575,7.701,8.118,4.874,12.565     c-1.164,3.934-5.073,5.516-8.625,6.666c-16.829,4.789-35.368,3.864-51.375-3.362c-5.955-2.913-11.768-7.117-14.574-13.32     c-3.479-7.409-5.319-16.1-2.437-24.026c2.011-5.487,6.115-10.042,10.999-13.171c-1.434-0.378-2.855-0.796-4.275-1.214     c-0.253-0.624-0.76-1.871-1.014-2.495c0.344-0.655,1.033-1.966,1.376-2.621c4.057-0.394,8.066,0.495,12.058,1.088     C94.538,27.447,102.095,28.624,109.666,29.713z"
   id="path10"
   style="fill:#ff6833;fill-opacity:1;stroke:#0c506e;stroke-opacity:1" />
			<path
   d="M109.666,29.713c3.501-7.494,11.189-12.595,19.445-12.921c7.78-0.217,15.555,3.789,19.64,10.468     c1.938,2.626,2.054,6.071,3.652,8.83c27.159,4.18,54.35,8.205,81.531,12.254c5.119-0.11,10.612,1.747,13.263,6.425     c3.714,5.069,3.888,13.764-1.6,17.616c-2.284,1.88-5.485,0.201-7.096-1.776c-3.442-4.524-3.737-10.431-4.353-15.862     c-27.509-4.086-55.01-8.229-82.516-12.34c-1.698,7.489-7.295,14.155-14.767,16.339c-6.979,2.474-15.075,0.874-20.857-3.654     c-5.714-4.574-8.763-12.011-8.267-19.278c-8.276-1.142-16.517-2.524-24.795-3.65c-4.531,4.39-8.014,10.326-7.879,16.802     c0.033,8.19,5.771,15.512,13.07,18.784c6.977,3.826,15.162,4.563,22.974,4.004c9.828-0.716,18.921-5.68,28.854-5.533     c5.842,0.575,7.701,8.118,4.874,12.565c-1.164,3.934-5.073,5.516-8.625,6.666c-16.829,4.789-35.368,3.864-51.375-3.362     c-5.955-2.913-11.768-7.117-14.574-13.32c-3.479-7.409-5.319-16.1-2.437-24.026c2.011-5.487,6.115-10.042,10.999-13.171     c-1.434-0.378-2.855-0.796-4.275-1.214c-0.253-0.624-0.76-1.871-1.014-2.495c0.344-0.655,1.033-1.966,1.376-2.621     c4.057-0.394,8.066,0.495,12.058,1.088C94.538,27.447,102.095,28.624,109.666,29.713z"
   id="path12"
   style="fill:#ff6833;fill-opacity:1;stroke:#0c506e;stroke-opacity:1" />
			<path
   fill="none"
   stroke="#000000"
   stroke-width="0.1"
   stroke-miterlimit="10"
   d="M139.673,137.589     c3.024-4.891,9.335-4.622,14.291-3.698c4.044,3.92,7.464,8.617,9.085,14.07c3.314,11.416,3.356,23.416,5.415,35.063     c4.904,29.31,15.561,57.214,25.206,85.202c1.459,4.957,4.834,9.488,4.564,14.824c-6.948-7.615-12.173-16.616-18.559-24.695     c-6.42-8.143-10.791-17.597-15.41-26.811c-10.447-22.422-19.86-45.481-25.714-69.566     C137.149,154.006,135.523,145.009,139.673,137.589z"
   id="path14"
   style="fill:#ff6833;fill-opacity:1;stroke:#0c506e;stroke-opacity:1" />
			<path
   d="M139.673,137.589c3.024-4.891,9.335-4.622,14.291-3.698c4.044,3.92,7.464,8.617,9.085,14.07     c3.314,11.416,3.356,23.416,5.415,35.063c4.904,29.31,15.561,57.214,25.206,85.202c1.459,4.957,4.834,9.488,4.564,14.824     c-6.948-7.615-12.173-16.616-18.559-24.695c-6.42-8.143-10.791-17.597-15.41-26.811c-10.447-22.422-19.86-45.481-25.714-69.566     C137.149,154.006,135.523,145.009,139.673,137.589z"
   id="path16"
   style="fill:#ff6833;fill-opacity:1;stroke:#0c506e;stroke-opacity:1" />
			<path
   fill="none"
   stroke="#000000"
   stroke-width="0.1"
   stroke-miterlimit="10"
   d="M110.28,152.255     c3.717-6.649,10.322-11.504,17.881-12.742c3.35,1.255,6.515,3.731,6.922,7.535c2.382,12.616-3.846,24.603-9.657,35.357     c-10.367,18.641-15.508,39.528-20.688,60.053c-3.142,13.292-5.474,26.771-8.909,39.995c-0.999-1.244-2.032-2.605-1.726-4.309     c0.03-11.704,0.338-23.404,0.204-35.111c0.725-19.498,2.656-38.969,6.082-58.186C102.862,173.783,104.644,162.268,110.28,152.255     z"
   id="path18"
   style="fill:#ff6833;fill-opacity:1;stroke:#0c506e;stroke-opacity:1" />
			<path
   d="M110.28,152.255c3.717-6.649,10.322-11.504,17.881-12.742c3.35,1.255,6.515,3.731,6.922,7.535     c2.382,12.616-3.846,24.603-9.657,35.357c-10.367,18.641-15.508,39.528-20.688,60.053c-3.142,13.292-5.474,26.771-8.909,39.995     c-0.999-1.244-2.032-2.605-1.726-4.309c0.03-11.704,0.338-23.404,0.204-35.111c0.725-19.498,2.656-38.969,6.082-58.186     C102.862,173.783,104.644,162.268,110.28,152.255z"
   id="path20"
   style="fill:#ff6833;fill-opacity:1;stroke:#0c506e;stroke-opacity:1" />
		</g>
	</g>
	<g
   i:knockout="Off"
   id="g22"
   style="fill:#ff6833;fill-opacity:1;stroke:#0c506e;stroke-opacity:1">
		<path
   i:knockout="Off"
   d="M144.75,266.25c4.142,0,7.5,3.359,7.5,7.5c0,4.143-3.358,7.5-7.5,7.5s-7.5-3.357-7.5-7.5    S140.608,266.25,144.75,266.25 M144.75,272.25c-0.827,0-1.5,0.673-1.5,1.5s0.673,1.5,1.5,1.5s1.5-0.673,1.5-1.5    S145.577,272.25,144.75,272.25L144.75,272.25z"
   id="path24"
   style="fill:#ff6833;fill-opacity:1;stroke:#0c506e;stroke-opacity:1" />
	</g>
</g>
</svg>