<?xml version="1.0" encoding="UTF-8" standalone="no"?>
<!-- Generator: Adobe Illustrator 14.0.0, SVG Export Plug-In . SVG Version: 6.00 Build 43363)  -->

<svg
   xmlns:dc="http://purl.org/dc/elements/1.1/"
   xmlns:cc="http://creativecommons.org/ns#"
   xmlns:rdf="http://www.w3.org/1999/02/22-rdf-syntax-ns#"
   xmlns:svg="http://www.w3.org/2000/svg"
   xmlns="http://www.w3.org/2000/svg"
   xmlns:sodipodi="http://sodipodi.sourceforge.net/DTD/sodipodi-0.dtd"
   xmlns:inkscape="http://www.inkscape.org/namespaces/inkscape"
   version="1.1"
   id="Layer_1"
   x="0px"
   y="0px"
   width="300px"
   height="300px"
   viewBox="0 0 300 300"
   enable-background="new 0 0 300 300"
   xml:space="preserve"
   inkscape:version="0.48.2 r9819"
   sodipodi:docname="gymnastics.svg"><metadata
   id="metadata15"><rdf:RDF><cc:Work
       rdf:about=""><dc:format>image/svg+xml</dc:format><dc:type
         rdf:resource="http://purl.org/dc/dcmitype/StillImage" /></cc:Work></rdf:RDF></metadata><defs
   id="defs13" /><sodipodi:namedview
   pagecolor="#ffffff"
   bordercolor="#666666"
   borderopacity="1"
   objecttolerance="10"
   gridtolerance="10"
   guidetolerance="10"
   inkscape:pageopacity="0"
   inkscape:pageshadow="2"
   inkscape:window-width="703"
   inkscape:window-height="480"
   id="namedview11"
   showgrid="false"
   inkscape:zoom="0.78666667"
   inkscape:cx="150"
   inkscape:cy="150"
   inkscape:window-x="0"
   inkscape:window-y="0"
   inkscape:window-maximized="0"
   inkscape:current-layer="Layer_1" />
<path
   d="M250.877,14.914c-14.088,12.23-28.292,24.328-42.548,36.362c-20.063,16.949-39.824,35.173-52.834,58.305  c-2.341,4.735-2.097,12.168,3.404,14.562c7.348,2.1,15.379-1.442,19.969-7.296c22.044-26.027,41.151-54.333,60.896-82.097  c5.353-8.016,12.459-14.918,16.586-23.705C253.994,11.458,252.518,13.384,250.877,14.914z"
   id="path3"
   style="fill:#ff6833;fill-opacity:1;stroke:#0c506e;stroke-opacity:1" />
<path
   d="M148.662,119.604c1.64-4.645,0.402-9.736-1.252-14.2c-2.846-7.184-8.792-12.348-13.938-17.864  c-21.47-22.579-45.776-42.186-68.282-63.684c-4.535-3.959-8.345-8.95-13.769-11.755c0.178,2.716,2.467,4.458,3.829,6.607  c8.762,13.244,17.919,26.229,26.433,39.638c15.038,22.679,30.429,45.927,52.195,62.787c2.162,1.466,4.162,3.935,7.039,3.59  C144.281,125.001,147.63,122.824,148.662,119.604z"
   id="path5"
   style="fill:#ff6833;fill-opacity:1;stroke:#0c506e;stroke-opacity:1" />
<path
   d="M162.193,195.781c-1.5-3.092-4.726-5.012-8.068-5.429c-4.312,1.224-8.241,4.448-9.73,8.757  c-1.161,3.747-1.58,7.713-1.548,11.628c0.916,13.774,2.991,27.431,5.189,41.049c2.458,14.2,4.887,28.415,7.966,42.497  c1.023-0.426,1.568-1.16,1.633-2.203c3.359-27.271,5.12-54.701,6.267-82.139C163.849,205.209,164.445,200.14,162.193,195.781z"
   id="path7"
   style="fill:#ff6833;fill-opacity:1;stroke:#0c506e;stroke-opacity:1" />
<circle
   cx="188.969"
   cy="214.352"
   r="22"
   id="circle9"
   style="fill:#ff6833;fill-opacity:1;stroke:#0c506e;stroke-opacity:1" />
</svg>