<?xml version="1.0" encoding="UTF-8" standalone="no"?>
<!-- Generator: Adobe Illustrator 13.0.0, SVG Export Plug-In . SVG Version: 6.00 Build 14948)  -->

<svg
   xmlns:xapMM="http://ns.adobe.com/xap/1.0/mm/"
   xmlns:xapG="http://ns.adobe.com/xap/1.0/g/"
   xmlns:stDim="http://ns.adobe.com/xap/1.0/sType/Dimensions#"
   xmlns:xapTPg="http://ns.adobe.com/xap/1.0/t/pg/"
   xmlns:xapGImg="http://ns.adobe.com/xap/1.0/g/img/"
   xmlns:xap="http://ns.adobe.com/xap/1.0/"
   xmlns:i="http://ns.adobe.com/AdobeIllustrator/10.0/"
   xmlns:x="adobe:ns:meta/"
   xmlns:dc="http://purl.org/dc/elements/1.1/"
   xmlns:cc="http://creativecommons.org/ns#"
   xmlns:rdf="http://www.w3.org/1999/02/22-rdf-syntax-ns#"
   xmlns:svg="http://www.w3.org/2000/svg"
   xmlns="http://www.w3.org/2000/svg"
   xmlns:sodipodi="http://sodipodi.sourceforge.net/DTD/sodipodi-0.dtd"
   xmlns:inkscape="http://www.inkscape.org/namespaces/inkscape"
   version="1.1"
   i:viewOrigin="156.5 545.5"
   i:rulerOrigin="0 0"
   i:pageBounds="0 792 612 0"
   x="0px"
   y="0px"
   width="300px"
   height="300px"
   viewBox="0 0 300 300"
   enable-background="new 0 0 300 300"
   xml:space="preserve"
   id="svg2"
   inkscape:version="0.48.2 r9819"
   sodipodi:docname="jeu_de_paume.svg"><defs
   id="defs42" /><sodipodi:namedview
   pagecolor="#ffffff"
   bordercolor="#666666"
   borderopacity="1"
   objecttolerance="10"
   gridtolerance="10"
   guidetolerance="10"
   inkscape:pageopacity="0"
   inkscape:pageshadow="2"
   inkscape:window-width="703"
   inkscape:window-height="480"
   id="namedview40"
   showgrid="false"
   inkscape:zoom="0.78666667"
   inkscape:cx="150"
   inkscape:cy="150"
   inkscape:window-x="0"
   inkscape:window-y="0"
   inkscape:window-maximized="0"
   inkscape:current-layer="svg2" />
<g
   id="Layer_1"
   i:layer="yes"
   i:dimmedPercent="50"
   i:rgbTrio="#4F008000FFFF"
   style="stroke:#0c506e;stroke-opacity:1;fill:#ff6833;fill-opacity:1">
	<g
   id="g7"
   style="stroke:#0c506e;stroke-opacity:1;fill:#ff6833;fill-opacity:1">
		<g
   id="surface0"
   i:knockout="Off"
   style="stroke:#0c506e;stroke-opacity:1;fill:#ff6833;fill-opacity:1">
			<path
   fill="none"
   stroke="#000000"
   stroke-width="0.1"
   stroke-miterlimit="10"
   d="M167.689,52.952     c5.615-0.764,11.427,1.063,15.938,4.408c5.184,3.907,7.924,10.311,8.521,16.647c-0.318,7.4-3.98,14.954-10.54,18.743     c-5.698,3.429-12.971,4.205-19.147,1.612c-10.098-3.749-16.239-16.032-12.646-26.293     C152.199,60.092,159.44,54.021,167.689,52.952z"
   id="path10"
   style="stroke:#0c506e;stroke-opacity:1;fill:#ff6833;fill-opacity:1" />
			<path
   d="M167.689,52.952c5.615-0.764,11.427,1.063,15.938,4.408c5.184,3.907,7.924,10.311,8.521,16.647     c-0.318,7.4-3.98,14.954-10.54,18.743c-5.698,3.429-12.971,4.205-19.147,1.612c-10.098-3.749-16.239-16.032-12.646-26.293     C152.199,60.092,159.44,54.021,167.689,52.952z"
   id="path12"
   style="stroke:#0c506e;stroke-opacity:1;fill:#ff6833;fill-opacity:1" />
			<path
   fill="none"
   stroke="#000000"
   stroke-width="0.1"
   stroke-miterlimit="10"
   d="M12.289,80.436     c3.292-4.745,8.785-7.999,14.615-8.168c14.142-1.258,28.313,9.713,30.247,23.839c0.607,3.048-0.672,6.023-1.101,9.002     c6,4.009,12.297,7.753,18.745,11.019c20.032,5.181,41.814,4.143,61.065-3.606c6.584-2.765,12.841-7.489,20.261-7.331     c6.696,0.548,8.601,9.882,4.425,14.344c-4.715,5.241-12.055,6.45-18.623,7.796c-5.024,0.797-9.997,1.964-15.064,2.459     c-11.19,0.224-22.515,0.573-33.522-1.829c-0.035,0.842-0.104,2.526-0.14,3.369c-3.077,1.816-6.145,0.039-8.727-1.75     c-7.073-4.303-14.162-8.587-21.446-12.527c-3.731-2.02-6.904-4.915-10.739-6.767c-3.729,3.045-8.449,5.039-13.313,4.937     c-11.382,0.249-22.322-6.978-27.075-17.233C9.633,92.452,9.429,85.793,12.289,80.436z"
   id="path14"
   style="stroke:#0c506e;stroke-opacity:1;fill:#ff6833;fill-opacity:1" />
			<path
   d="M12.289,80.436c3.292-4.745,8.785-7.999,14.615-8.168c14.142-1.258,28.313,9.713,30.247,23.839     c0.607,3.048-0.672,6.023-1.101,9.002c6,4.009,12.297,7.753,18.745,11.019c20.032,5.181,41.814,4.143,61.065-3.606     c6.584-2.765,12.841-7.489,20.261-7.331c6.696,0.548,8.601,9.882,4.425,14.344c-4.715,5.241-12.055,6.45-18.623,7.796     c-5.024,0.797-9.997,1.964-15.064,2.459c-11.19,0.224-22.515,0.573-33.522-1.829c-0.035,0.842-0.104,2.526-0.14,3.369     c-3.077,1.816-6.145,0.039-8.727-1.75c-7.073-4.303-14.162-8.587-21.446-12.527c-3.731-2.02-6.904-4.915-10.739-6.767     c-3.729,3.045-8.449,5.039-13.313,4.937c-11.382,0.249-22.322-6.978-27.075-17.233C9.633,92.452,9.429,85.793,12.289,80.436z"
   id="path16"
   style="stroke:#0c506e;stroke-opacity:1;fill:#ff6833;fill-opacity:1" />
			<path
   fill="none"
   stroke="#FFFFFF"
   stroke-width="0.1"
   stroke-miterlimit="10"
   d="M25.53,78.66     c11.92-2.254,24.575,7.27,25.642,19.378c-0.239,4.269-2.707,8.703-6.939,10.099c-9.413,3.137-20.221-1.964-25.312-10.145     C16,93.72,15.507,87.848,17.954,83.255C19.824,80.878,22.573,79.257,25.53,78.66z"
   id="path18"
   style="stroke:#0c506e;stroke-opacity:1;fill:#ff6833;fill-opacity:1" />
			<path
   fill="#FFFFFF"
   d="M25.53,78.66c11.92-2.254,24.575,7.27,25.642,19.378c-0.239,4.269-2.707,8.703-6.939,10.099     c-9.413,3.137-20.221-1.964-25.312-10.145C16,93.72,15.507,87.848,17.954,83.255C19.824,80.878,22.573,79.257,25.53,78.66z"
   id="path20"
   style="stroke:#0c506e;stroke-opacity:1;fill:#ff6833;fill-opacity:1" />
			<path
   fill="none"
   stroke="#000000"
   stroke-width="0.1"
   stroke-miterlimit="10"
   d="M214.136,101.357     c5.64-2.335,11.978-2.573,17.974-1.836c10.477,1.97,20.87,5.416,29.645,11.611c4.96,3.875,9.789,8.724,11.088,15.126     c3.086,14.474-2.619,30.16-13.905,39.65c-2.78,1.977-4.923,5.879-8.69,5.667c6.875-9.031,10.263-20.398,10.311-31.688     c0.005-5.234-2.635-10.292-7.047-13.142c-10.703-7.35-24.409-6.529-36.234-10.926c-3.699-1.167-6.258-4.328-7.442-7.917     C208.912,104.905,211.609,102.406,214.136,101.357z"
   id="path22"
   style="stroke:#0c506e;stroke-opacity:1;fill:#ff6833;fill-opacity:1" />
			<path
   d="M214.136,101.357c5.64-2.335,11.978-2.573,17.974-1.836c10.477,1.97,20.87,5.416,29.645,11.611     c4.96,3.875,9.789,8.724,11.088,15.126c3.086,14.474-2.619,30.16-13.905,39.65c-2.78,1.977-4.923,5.879-8.69,5.667     c6.875-9.031,10.263-20.398,10.311-31.688c0.005-5.234-2.635-10.292-7.047-13.142c-10.703-7.35-24.409-6.529-36.234-10.926     c-3.699-1.167-6.258-4.328-7.442-7.917C208.912,104.905,211.609,102.406,214.136,101.357z"
   id="path24"
   style="stroke:#0c506e;stroke-opacity:1;fill:#ff6833;fill-opacity:1" />
			<path
   fill="none"
   stroke="#000000"
   stroke-width="0.1"
   stroke-miterlimit="10"
   d="M206.591,160.853     c3.589-7.113,14.757-6.396,18.925-0.272c3.535,4.709,3.914,10.828,4.512,16.468c0.955,13.415,0.115,27.341,5.024,40.12     c4.245,9.896,13.774,15.988,23.126,20.457c10.726,5.433,22.539,8.01,33.722,12.25c-2.38,2.905-6.612,1.395-9.782,1.065     c-11.38-2.558-22.757-5.128-34.135-7.681c-10.074-2.482-20.65-6.707-26.668-15.64c-8.186-15.088-13.767-31.597-16.365-48.567     C204.424,173.02,203.715,166.432,206.591,160.853z"
   id="path26"
   style="stroke:#0c506e;stroke-opacity:1;fill:#ff6833;fill-opacity:1" />
			<path
   d="M206.591,160.853c3.589-7.113,14.757-6.396,18.925-0.272c3.535,4.709,3.914,10.828,4.512,16.468     c0.955,13.415,0.115,27.341,5.024,40.12c4.245,9.896,13.774,15.988,23.126,20.457c10.726,5.433,22.539,8.01,33.722,12.25     c-2.38,2.905-6.612,1.395-9.782,1.065c-11.38-2.558-22.757-5.128-34.135-7.681c-10.074-2.482-20.65-6.707-26.668-15.64     c-8.186-15.088-13.767-31.597-16.365-48.567C204.424,173.02,203.715,166.432,206.591,160.853z"
   id="path28"
   style="stroke:#0c506e;stroke-opacity:1;fill:#ff6833;fill-opacity:1" />
			<path
   fill="none"
   stroke="#000000"
   stroke-width="0.1"
   stroke-miterlimit="10"
   d="M184.045,158.668     c4.395-1.514,9.656-2.251,13.824,0.289c2.72,1.489,3.781,4.619,4.843,7.336c1.644,4.957-1.427,10.118-5.263,13.119     c-5.43,4.15-11.516,7.32-17.455,10.665c-33.648,19.224-67.917,37.327-101.78,56.166c-5.821,3.333-12.011,5.963-18.349,8.14     c-0.462-0.377-0.923-0.75-1.383-1.119c2.119-1.07,4.217-2.199,6.128-3.614c29.266-23.435,58.737-46.624,88.071-69.979     C162.56,171.892,172.271,163.472,184.045,158.668z"
   id="path30"
   style="stroke:#0c506e;stroke-opacity:1;fill:#ff6833;fill-opacity:1" />
			<path
   d="M184.045,158.668c4.395-1.514,9.656-2.251,13.824,0.289c2.72,1.489,3.781,4.619,4.843,7.336     c1.644,4.957-1.427,10.118-5.263,13.119c-5.43,4.15-11.516,7.32-17.455,10.665c-33.648,19.224-67.917,37.327-101.78,56.166     c-5.821,3.333-12.011,5.963-18.349,8.14c-0.462-0.377-0.923-0.75-1.383-1.119c2.119-1.07,4.217-2.199,6.128-3.614     c29.266-23.435,58.737-46.624,88.071-69.979C162.56,171.892,172.271,163.472,184.045,158.668z"
   id="path32"
   style="stroke:#0c506e;stroke-opacity:1;fill:#ff6833;fill-opacity:1" />
		</g>
	</g>
	<g
   i:knockout="Off"
   id="g34"
   style="stroke:#0c506e;stroke-opacity:1;fill:#ff6833;fill-opacity:1">
		<path
   i:knockout="Off"
   fill="#FFFFFF"
   d="M35.333,138.833c-3.309,0-6-2.69-6-6c0-3.309,2.691-6,6-6s6,2.691,6,6    C41.333,136.143,38.643,138.833,35.333,138.833L35.333,138.833z"
   id="path36"
   style="stroke:#0c506e;stroke-opacity:1;fill:#ff6833;fill-opacity:1" />
		<path
   i:knockout="Off"
   d="M35.333,123.833c4.971,0,9,4.029,9,9c0,4.971-4.029,9-9,9s-9-4.029-9-9    C26.333,127.863,30.363,123.833,35.333,123.833 M35.333,129.833c-1.654,0-3,1.346-3,3s1.346,3,3,3s3-1.346,3-3    S36.988,129.833,35.333,129.833L35.333,129.833z"
   id="path38"
   style="stroke:#0c506e;stroke-opacity:1;fill:#ff6833;fill-opacity:1" />
	</g>
</g>
</svg>