<?xml version="1.0" encoding="UTF-8" standalone="no"?>
<!-- Generator: Adobe Illustrator 14.0.0, SVG Export Plug-In . SVG Version: 6.00 Build 43363)  -->

<svg
   xmlns:dc="http://purl.org/dc/elements/1.1/"
   xmlns:cc="http://creativecommons.org/ns#"
   xmlns:rdf="http://www.w3.org/1999/02/22-rdf-syntax-ns#"
   xmlns:svg="http://www.w3.org/2000/svg"
   xmlns="http://www.w3.org/2000/svg"
   xmlns:sodipodi="http://sodipodi.sourceforge.net/DTD/sodipodi-0.dtd"
   xmlns:inkscape="http://www.inkscape.org/namespaces/inkscape"
   version="1.1"
   id="Layer_1"
   x="0px"
   y="0px"
   width="300px"
   height="300px"
   viewBox="0 0 300 300"
   enable-background="new 0 0 300 300"
   xml:space="preserve"
   inkscape:version="0.48.2 r9819"
   sodipodi:docname="judo.svg"><metadata
   id="metadata23"><rdf:RDF><cc:Work
       rdf:about=""><dc:format>image/svg+xml</dc:format><dc:type
         rdf:resource="http://purl.org/dc/dcmitype/StillImage" /></cc:Work></rdf:RDF></metadata><defs
   id="defs21" /><sodipodi:namedview
   pagecolor="#ffffff"
   bordercolor="#666666"
   borderopacity="1"
   objecttolerance="10"
   gridtolerance="10"
   guidetolerance="10"
   inkscape:pageopacity="0"
   inkscape:pageshadow="2"
   inkscape:window-width="703"
   inkscape:window-height="480"
   id="namedview19"
   showgrid="false"
   inkscape:zoom="0.78666667"
   inkscape:cx="150"
   inkscape:cy="150"
   inkscape:window-x="0"
   inkscape:window-y="0"
   inkscape:window-maximized="0"
   inkscape:current-layer="Layer_1" />
<path
   d="M178.721,105.261c6.671,11.506,14.358,23,25.678,30.422c3.973,2.714,8.627,5.42,13.646,4.376  c3.57-1.393,6.022-5.196,5.605-9.049c0.238-7.559-5.034-13.573-9.909-18.714c-8.441-9.282-17.638-18.002-24.538-28.555  c-4.547-6.174-7.235-13.39-10.623-20.203c-3.007-6.746-6.404-13.419-7.886-20.714c-2.287-9.82-1.731-20.008-3.386-29.909  c-2.166,2.112-2.01,5.352-2.771,8.092c-2.488,10.462-1.611,21.287-1.098,31.913C164.627,71.207,169.807,89.239,178.721,105.261z"
   id="path3"
   style="fill:#ff6833;fill-opacity:1;stroke:#0c506e;stroke-opacity:1" />
<path
   d="M237.053,153.481c4.7,1.495,9.674-1.487,11.824-5.67c3.41-6.425,2.259-14.001,1.275-20.892  c-1.965-15.899-4.385-32.167-1.278-48.083c2.382-9.462,3.456-19.251,6.704-28.487c3.928-10.529,11.057-19.371,16.459-29.123  l-1.658,0.293c-4.763,3.759-9.363,7.84-13.275,12.498c-7.098,9.754-14.354,19.516-19.591,30.438  c-6.034,12.15-9.494,25.409-11.358,38.8c-1.544,13.451-1.589,27.484,3.254,40.315C231.151,147.343,233.025,151.668,237.053,153.481z  "
   id="path5"
   style="fill:#ff6833;fill-opacity:1;stroke:#0c506e;stroke-opacity:1" />
<path
   d="M124.332,137.707c9.366,6.249,19.315,12.007,30.29,14.877c8.549,2.411,17.104,4.804,25.633,7.286  c1.588,0.475,3.231,0.754,4.898,0.744c-1.037-0.907-2.117-1.779-3.329-2.431c-8.479-4.443-16.968-8.898-25.093-13.965  c-8.945-6.572-17.439-13.883-24.444-22.533c-3.604-4.725-7.12-9.517-10.771-14.205c-3.414-4.511-7.062-9.068-11.928-12.079  c-3.085-1.863-6.724-1.669-10.064-0.72c-1.581,2.226-3.57,4.425-3.778,7.286c-0.59,4.703,1.845,9.047,4.34,12.832  C106.505,124.011,115.405,131.068,124.332,137.707z"
   id="path7"
   style="fill:#ff6833;fill-opacity:1;stroke:#0c506e;stroke-opacity:1" />
<path
   d="M73.504,156.573c-5.582-2.175-11.768,1.851-13.751,7.137c-3.955,8.935-1.915,18.884-2.168,28.302  c-0.501,8.674,0.064,17.453-1.734,26.017c-1.44,11.016-5.978,21.253-9.166,31.813c-2.346,5.944-4.9,11.898-8.608,17.142  c-4.947,6.617-10.261,12.962-15.073,19.682l1.702-0.049c4.122-2.862,8.33-5.653,12.176-8.887  c6.121-5.837,11.559-12.342,16.904-18.883c12.277-15.257,21.009-33.287,25.329-52.388c2.316-11.634,4.549-23.757,1.8-35.527  C79.792,165.681,78.508,159.515,73.504,156.573z"
   id="path9"
   style="fill:#ff6833;fill-opacity:1;stroke:#0c506e;stroke-opacity:1" />
<path
   d="M145.464,249.058c-1.026-20.812-7.357-41.348-18.42-59.023c-7.081-11.726-16.265-23.118-29.162-28.624  c-4.945-2.552-11.822,0.854-12.002,6.581c-1.026,7.064,3.052,13.502,7.584,18.511c9.547,10.499,20.011,20.357,27.563,32.479  c4.551,7.159,7.371,15.209,11.186,22.751c4.743,9.732,7.246,20.441,7.743,31.24c0.693,5.086,0.044,10.453,1.957,15.291  c2.673-8.479,4.298-17.392,3.93-26.315C145.608,257.653,145.797,253.347,145.464,249.058z"
   id="path11"
   style="fill:#ff6833;fill-opacity:1;stroke:#0c506e;stroke-opacity:1" />
<path
   d="M241.463,233.249c-10.104-5.344-19.133-12.492-27.131-20.626c-6.672-5.994-12.472-13.406-20.863-17.099  c-3.469-1.723-7.268-0.792-10.807,0.116c-1.475,2.865-2.99,5.996-2.304,9.318c1.236,5.198,4.79,9.414,8.58,13.011  c10.519,9.733,23.455,16.333,36.61,21.747c13.339,5.462,27.923,5.817,41.986,8.034c3.196,0.3,6.516,1.496,9.664,0.353  C265.595,242.447,252.539,240.053,241.463,233.249z"
   id="path13"
   style="fill:#ff6833;fill-opacity:1;stroke:#0c506e;stroke-opacity:1" />
<circle
   cx="138.381"
   cy="83.343"
   r="21.875"
   id="circle15"
   style="fill:#ff6833;fill-opacity:1;stroke:#0c506e;stroke-opacity:1" />
<circle
   cx="151.375"
   cy="179.348"
   r="21.875"
   id="circle17"
   style="fill:#ff6833;fill-opacity:1;stroke:#0c506e;stroke-opacity:1" />
</svg>