<?xml version="1.0" encoding="UTF-8" standalone="no"?>
<!-- Generator: Adobe Illustrator 14.0.0, SVG Export Plug-In . SVG Version: 6.00 Build 43363)  -->

<svg
   xmlns:dc="http://purl.org/dc/elements/1.1/"
   xmlns:cc="http://creativecommons.org/ns#"
   xmlns:rdf="http://www.w3.org/1999/02/22-rdf-syntax-ns#"
   xmlns:svg="http://www.w3.org/2000/svg"
   xmlns="http://www.w3.org/2000/svg"
   xmlns:sodipodi="http://sodipodi.sourceforge.net/DTD/sodipodi-0.dtd"
   xmlns:inkscape="http://www.inkscape.org/namespaces/inkscape"
   version="1.1"
   id="Layer_1"
   x="0px"
   y="0px"
   width="300px"
   height="300px"
   viewBox="0 0 300 300"
   enable-background="new 0 0 300 300"
   xml:space="preserve"
   inkscape:version="0.48.2 r9819"
   sodipodi:docname="modern_pentathlon.svg"><metadata
   id="metadata21"><rdf:RDF><cc:Work
       rdf:about=""><dc:format>image/svg+xml</dc:format><dc:type
         rdf:resource="http://purl.org/dc/dcmitype/StillImage" /></cc:Work></rdf:RDF></metadata><defs
   id="defs19" /><sodipodi:namedview
   pagecolor="#ffffff"
   bordercolor="#666666"
   borderopacity="1"
   objecttolerance="10"
   gridtolerance="10"
   guidetolerance="10"
   inkscape:pageopacity="0"
   inkscape:pageshadow="2"
   inkscape:window-width="703"
   inkscape:window-height="480"
   id="namedview17"
   showgrid="false"
   inkscape:zoom="0.78666667"
   inkscape:cx="150"
   inkscape:cy="150"
   inkscape:window-x="191"
   inkscape:window-y="195"
   inkscape:window-maximized="0"
   inkscape:current-layer="Layer_1" />
<path
   d="M285.332,154.477c-11.076-29.047-22.301-58.043-33.219-87.151c-14.867,1.762-29.974,5.664-42.328,14.443  c-7.634,5.219-13.721,12.291-19.229,19.635c-7.231,9.945-13.857,20.315-21.185,30.192c-8.021-2.821-16.377-6.32-21.811-13.165  c-6.277-7.309-7.131-17.407-8.252-26.565c-0.683-5.204-2.626-11.543-8.438-12.887c-9.125-2.037-16.694,7.615-16.518,16.077  c0.351,9.633,5.067,18.481,10.292,26.348c8.329,12.155,22.993,18.204,37.216,19.811c-5.123,5.504-12.072,8.771-18.99,11.407  c-9.141,3.255-18.695,5.388-28.359,6.279c-6.388-4.976-13.861-8.393-21.393-11.244c-7.003-2.072-13.569-6.255-21.123-5.841  c-8.681-0.364-15.628,9.752-12.653,17.728c-15.25-1.322-30.396-3.461-45.459-6.156c-0.409,1.978-0.833,3.955-1.298,5.924  c16.794,3.136,33.776,5.711,50.857,6.49c2.537,0.7,4.277,2.936,6.567,4.15c8.064,4.57,17.3,6.231,26.051,8.979  c5.356,1.707,10.583,5.458,12.305,11.017c-0.952,5.836-4.649,10.763-8.012,15.458c-11.951,13.357-23.537,27.057-36.076,39.877  c-1.719,1.741-3.408,3.548-4.63,5.688c1.437-0.28,2.92-0.485,4.248-1.142c11.403-5.677,22.243-12.391,33.325-18.657  c5.895-3.175,11.321-7.203,16.2-11.78c9.318-8.608,18.16-19.295,19.741-32.318c0.846-9.262-5.767-16.65-11.937-22.643  c7.654-1.625,15.446-2.869,22.773-5.719c8.771-3.239,17.741-7.361,23.785-14.766c0.811-0.723,1.423-2.077,2.672-2.042  c12.577-0.281,25.191,0.177,37.738-0.923c1.446,0.024,2.48-0.953,3.45-1.885c-8.197-1.503-16.596-1.582-24.729-3.464  c-3.68-0.817-7.398-1.45-11.055-2.359c5.459-7.435,10.394-15.231,15.819-22.688c6.785-10.196,14.816-20.007,25.513-26.289  c9.266-5.646,19.951-8.26,30.517-10.194c10.376,26.772,20.42,53.673,30.841,80.427c-4.957,3.427-10.121,6.542-15.204,9.776  c-12.938-10.266-25.81-20.617-38.704-30.937c-1.801-1.388-3.451-3.099-5.645-3.849c-2.338-0.587-4.685,2.347-3.133,4.381  c2.692,3.176,6.383,5.314,9.483,8.069c0.106,21.658-0.049,43.32,0.074,64.977c-0.373,2.795,2.506,3.658,4.755,3.514  c0.782-1.715,1.667-3.473,1.457-5.421c-0.036-19.396,0.005-38.79-0.023-58.185c10.461,8.498,20.924,17.009,31.617,25.211  c7.275-4.75,14.649-9.363,21.954-14.066C286.609,157.218,285.615,155.603,285.332,154.477z"
   id="path3"
   style="fill:#ff6833;fill-opacity:1;stroke:#0c506e;stroke-opacity:1" />
<circle
   cx="56.378"
   cy="29.348"
   r="7.5"
   id="circle5"
   style="fill:#ff6833;fill-opacity:1;stroke:#0c506e;stroke-opacity:1" />
<circle
   cx="28.384"
   cy="50.315"
   r="7.5"
   id="circle7"
   style="fill:#ff6833;fill-opacity:1;stroke:#0c506e;stroke-opacity:1" />
<circle
   cx="38.382"
   cy="84.407"
   r="7.5"
   id="circle9"
   style="fill:#ff6833;fill-opacity:1;stroke:#0c506e;stroke-opacity:1" />
<circle
   cx="75.378"
   cy="84.317"
   r="7.5"
   id="circle11"
   style="fill:#ff6833;fill-opacity:1;stroke:#0c506e;stroke-opacity:1" />
<circle
   cx="85.433"
   cy="50.273"
   r="7.5"
   id="circle13"
   style="fill:#ff6833;fill-opacity:1;stroke:#0c506e;stroke-opacity:1" />
<circle
   cx="164.965"
   cy="70.348"
   r="21.875"
   id="circle15"
   style="fill:#ff6833;fill-opacity:1;stroke:#0c506e;stroke-opacity:1" />
</svg>