<?xml version="1.0" encoding="UTF-8" standalone="no"?>
<!-- Generator: Adobe Illustrator 13.0.0, SVG Export Plug-In . SVG Version: 6.00 Build 14948)  -->

<svg
   xmlns:xapMM="http://ns.adobe.com/xap/1.0/mm/"
   xmlns:xapG="http://ns.adobe.com/xap/1.0/g/"
   xmlns:stDim="http://ns.adobe.com/xap/1.0/sType/Dimensions#"
   xmlns:xapTPg="http://ns.adobe.com/xap/1.0/t/pg/"
   xmlns:xapGImg="http://ns.adobe.com/xap/1.0/g/img/"
   xmlns:xap="http://ns.adobe.com/xap/1.0/"
   xmlns:i="http://ns.adobe.com/AdobeIllustrator/10.0/"
   xmlns:x="adobe:ns:meta/"
   xmlns:dc="http://purl.org/dc/elements/1.1/"
   xmlns:cc="http://creativecommons.org/ns#"
   xmlns:rdf="http://www.w3.org/1999/02/22-rdf-syntax-ns#"
   xmlns:svg="http://www.w3.org/2000/svg"
   xmlns="http://www.w3.org/2000/svg"
   xmlns:sodipodi="http://sodipodi.sourceforge.net/DTD/sodipodi-0.dtd"
   xmlns:inkscape="http://www.inkscape.org/namespaces/inkscape"
   version="1.1"
   i:viewOrigin="156.5 545.5"
   i:rulerOrigin="0 0"
   i:pageBounds="0 792 612 0"
   x="0px"
   y="0px"
   width="300px"
   height="300px"
   viewBox="0 0 300 300"
   enable-background="new 0 0 300 300"
   xml:space="preserve"
   id="svg2"
   inkscape:version="0.48.2 r9819"
   sodipodi:docname="motor_boating.svg">
<path
   inkscape:connector-curvature="0"
   style="fill:#ff6833;stroke:#0c506e;stroke-width:0.10000000000000001;stroke-miterlimit:10;stroke-opacity:1;fill-opacity:1"
   id="path10"
   d="m 216.586,69.898 c 7.244,-0.694 14.902,2.278 19.453,8.038 3.159,3.607 4.612,8.367 5.107,13.06 -0.199,7.189 -3.86,14.232 -9.894,18.229 -5.751,3.687 -13.224,4.826 -19.681,2.402 -9.923,-3.109 -16.676,-14.335 -14.311,-24.533 1.967,-9.13 10.06,-16.241 19.326,-17.196 z"
   stroke-miterlimit="10" /><path
   inkscape:connector-curvature="0"
   style="stroke:#0c506e;stroke-opacity:1;fill:#ff6833;fill-opacity:1"
   id="path12"
   d="m 216.586,69.898 c 7.244,-0.694 14.902,2.278 19.453,8.038 3.159,3.607 4.612,8.367 5.107,13.06 -0.199,7.189 -3.86,14.232 -9.894,18.229 -5.751,3.687 -13.224,4.826 -19.681,2.402 -9.923,-3.109 -16.676,-14.335 -14.311,-24.533 1.967,-9.13 10.06,-16.241 19.326,-17.196 z" /><path
   style="stroke:#0c506e;stroke-opacity:1;fill:#ff6833;fill-opacity:1"
   d="M 172.03125 101.5 C 159.50625 101.517 146.9295 104.736 136.0625 111 C 124.9045 116.995 118.8505 129.47525 116.8125 141.53125 C 108.1865 142.46125 99.5605 143.26375 90.9375 144.21875 C 88.5425 140.83275 85.9515 135.825 81.0625 136.375 C 65.6875 136.397 50.3125 136.395 34.9375 136.375 C 30.3605 135.889 27.43975 140.17475 24.96875 143.34375 C 22.12175 146.93675 22.8755 151.6755 22.8125 155.9375 C 22.9565 161.0335 22.53625 166.171 23.03125 171.25 C 24.12225 175.181 26.94325 178.3885 30.03125 180.9375 C 32.31625 183.0275 35.567 182.2185 38.375 182.4375 C 38.365 191.6975 38.37425 200.95775 38.40625 210.21875 C 32.74225 208.44275 26.6835 207.48675 20.8125 208.84375 C 13.4545 210.66475 6.705 214.2535 0 217.6875 L 0 224.65625 C 8.317 220.54725 16.53475 215.265 25.96875 214.375 C 38.77975 214.131 48.6595 223.58825 60.1875 227.65625 C 68.2885 231.48325 77.98325 230.90725 85.90625 226.90625 C 93.14725 223.87225 98.65925 217.8335 106.03125 215.0625 C 108.60225 214.0995 111.173 213.14225 113.5 211.65625 C 107.708 195.28125 102.41 178.751 96.625 162.375 C 164.418 162.353 232.209 162.418 300 162.375 L 300 156.28125 C 291.412 155.94025 282.5175 157.3785 274.1875 154.6875 C 267.9925 152.6235 262.2425 148.9905 258.0625 143.9375 C 253.5825 138.1405 253.99425 130.424 252.40625 123.625 C 250.92625 117.142 241.7425 114.03725 236.9375 118.90625 C 233.1695 121.42825 234.0975 126.3935 234.8125 130.1875 C 237.6815 140.8515 244.86625 149.9345 253.65625 156.4375 C 199.82225 156.1785 145.98825 156.634 92.15625 156.25 C 92.18525 154.17 92.22925 152.077 92.28125 150 C 107.54025 148.646 122.771 147.04925 138 145.40625 C 139.896 145.44225 140.86475 143.791 141.71875 142.375 C 141.28075 141.657 140.40675 140.218 139.96875 139.5 C 133.61875 139.503 127.333 140.67675 121 140.96875 C 126.428 131.01875 136.548 124.857 146.875 121 C 151.75 119.332 156.8715 118.11625 162.0625 118.40625 C 169.2205 118.49725 176.76 120.50975 183.625 117.59375 C 187.199 116.06075 190.59 110.95 187.5 107.5 C 184.125 102.455 177.58925 101.721 172.03125 101.5 z M 57.71875 142.625 C 65.88625 142.62963 74.05125 142.6415 82.21875 142.625 C 83.74075 144.843 85.9655 147.00125 85.8125 149.90625 C 85.8445 155.63925 85.8445 161.39 85.8125 167.125 C 85.8815 170.662 83.48575 173.525 81.71875 176.375 C 65.75775 176.31 49.79775 176.526 33.84375 176.25 C 31.84275 174.612 30.00025 172.4435 29.28125 169.9375 C 29.04625 163.5945 29.24025 157.25225 29.15625 150.90625 C 28.67925 147.53325 31.4465 145.15925 33.1875 142.65625 C 41.355 142.61525 49.55125 142.62037 57.71875 142.625 z M 92.0625 167.875 C 96.4305 181.381 101.10175 194.79475 105.71875 208.21875 C 95.15975 212.06275 87.316 221.3745 76.125 223.6875 C 71.385 224.9675 66.58075 223.47475 62.09375 221.96875 C 67.20475 208.70075 72.73925 195.60125 78.03125 182.40625 C 79.91025 182.38825 81.77525 182.3935 83.65625 182.4375 C 88.27025 178.9825 91.4605 173.633 92.0625 167.875 z M 44.625 182.375 C 53.468 182.385 62.31225 182.36625 71.15625 182.40625 C 66.08725 194.53925 61.315 206.8005 56.25 218.9375 C 52.411 216.8785 48.55525 214.84625 44.65625 212.90625 C 44.54125 202.73325 44.654 192.548 44.625 182.375 z "
   id="path16" />
</svg>