<?xml version="1.0" encoding="UTF-8" standalone="no"?>
<!-- Generator: Adobe Illustrator 13.0.0, SVG Export Plug-In . SVG Version: 6.00 Build 14948)  -->

<svg
   xmlns:xapMM="http://ns.adobe.com/xap/1.0/mm/"
   xmlns:xapG="http://ns.adobe.com/xap/1.0/g/"
   xmlns:stDim="http://ns.adobe.com/xap/1.0/sType/Dimensions#"
   xmlns:xapTPg="http://ns.adobe.com/xap/1.0/t/pg/"
   xmlns:xapGImg="http://ns.adobe.com/xap/1.0/g/img/"
   xmlns:xap="http://ns.adobe.com/xap/1.0/"
   xmlns:i="http://ns.adobe.com/AdobeIllustrator/10.0/"
   xmlns:x="adobe:ns:meta/"
   xmlns:dc="http://purl.org/dc/elements/1.1/"
   xmlns:cc="http://creativecommons.org/ns#"
   xmlns:rdf="http://www.w3.org/1999/02/22-rdf-syntax-ns#"
   xmlns:svg="http://www.w3.org/2000/svg"
   xmlns="http://www.w3.org/2000/svg"
   xmlns:sodipodi="http://sodipodi.sourceforge.net/DTD/sodipodi-0.dtd"
   xmlns:inkscape="http://www.inkscape.org/namespaces/inkscape"
   version="1.1"
   i:viewOrigin="156.5 545.5"
   i:rulerOrigin="0 0"
   i:pageBounds="0 792 612 0"
   x="0px"
   y="0px"
   width="300px"
   height="300px"
   viewBox="0 0 300 300"
   enable-background="new 0 0 300 300"
   xml:space="preserve"
   id="svg2"
   inkscape:version="0.48.2 r9819"
   sodipodi:docname="pelota_basque.svg"><defs
   id="defs40" /><sodipodi:namedview
   pagecolor="#ffffff"
   bordercolor="#666666"
   borderopacity="1"
   objecttolerance="10"
   gridtolerance="10"
   guidetolerance="10"
   inkscape:pageopacity="0"
   inkscape:pageshadow="2"
   inkscape:window-width="703"
   inkscape:window-height="480"
   id="namedview38"
   showgrid="false"
   inkscape:zoom="0.78666667"
   inkscape:cx="150"
   inkscape:cy="150"
   inkscape:window-x="0"
   inkscape:window-y="0"
   inkscape:window-maximized="0"
   inkscape:current-layer="svg2" />
<g
   id="Layer_1"
   i:layer="yes"
   i:dimmedPercent="50"
   i:rgbTrio="#4F008000FFFF"
   style="fill:#ff6833;fill-opacity:1;stroke:#0c506e;stroke-opacity:1">
	<g
   id="g7"
   style="fill:#ff6833;fill-opacity:1;stroke:#0c506e;stroke-opacity:1">
		<g
   id="surface0"
   i:knockout="Off"
   style="fill:#ff6833;fill-opacity:1;stroke:#0c506e;stroke-opacity:1">
			<path
   fill="none"
   stroke="#000000"
   stroke-width="0.1"
   stroke-miterlimit="10"
   d="M244.125,35.768     c2.13,2.748,0.646,6.211,0.354,9.287c-1.303,6.6-2.61,13.201-3.977,19.788c-4.58,17.084-16.093,31.083-27.801,43.878     c-4.744,4.223-8.541,11.127-15.67,11.181c-5.896,0.812-11.504-5.206-9.663-11.04c0.218-2.537,2.565-3.824,4.397-5.172     c14.758-10.536,28.782-22.773,38.477-38.276C235.283,55.725,240.234,45.98,244.125,35.768z"
   id="path10"
   style="fill:#ff6833;fill-opacity:1;stroke:#0c506e;stroke-opacity:1" />
			<path
   d="M244.125,35.768c2.13,2.748,0.646,6.211,0.354,9.287c-1.303,6.6-2.61,13.201-3.977,19.788     c-4.58,17.084-16.093,31.083-27.801,43.878c-4.744,4.223-8.541,11.127-15.67,11.181c-5.896,0.812-11.504-5.206-9.663-11.04     c0.218-2.537,2.565-3.824,4.397-5.172c14.758-10.536,28.782-22.773,38.477-38.276C235.283,55.725,240.234,45.98,244.125,35.768z"
   id="path12"
   style="fill:#ff6833;fill-opacity:1;stroke:#0c506e;stroke-opacity:1" />
			<path
   fill="none"
   stroke="#000000"
   stroke-width="0.1"
   stroke-miterlimit="10"
   d="M49.825,49.818     c7.148-7.179,17.467-10.011,27.332-10.528c0.921,1.945,1.748,3.985,1.447,6.187c-3.934,1.354-8.314,1.699-11.693,4.35     c-6.622,4.632-8.643,13.176-9.561,20.74c-1.627,21.894,5.001,43.516,14.263,63.115c7.467,3.93,16.048,4.759,24.346,5.028     c4.222,0.277,8.517-0.066,12.584-1.269c8.974-2.88,15.783-9.971,24.586-13.221c4.016-1.211,9.51-0.006,11.153,4.285     c1.383,2.717,0.147,5.84-1.3,8.254c-3.376,5.205-9.041,8.406-14.747,10.47c-8.355,3.243-17.487,2.568-26.267,2.61     c-9.301-0.496-18.875-1.89-27.129-6.472c-8.154-4.104-14.586-11.096-19.016-18.992c-8.572-13.588-15.041-28.988-15.988-45.175     C39.149,68.653,41.913,57.259,49.825,49.818z"
   id="path14"
   style="fill:#ff6833;fill-opacity:1;stroke:#0c506e;stroke-opacity:1" />
			<path
   d="M49.825,49.818c7.148-7.179,17.467-10.011,27.332-10.528c0.921,1.945,1.748,3.985,1.447,6.187     c-3.934,1.354-8.314,1.699-11.693,4.35c-6.622,4.632-8.643,13.176-9.561,20.74c-1.627,21.894,5.001,43.516,14.263,63.115     c7.467,3.93,16.048,4.759,24.346,5.028c4.222,0.277,8.517-0.066,12.584-1.269c8.974-2.88,15.783-9.971,24.586-13.221     c4.016-1.211,9.51-0.006,11.153,4.285c1.383,2.717,0.147,5.84-1.3,8.254c-3.376,5.205-9.041,8.406-14.747,10.47     c-8.355,3.243-17.487,2.568-26.267,2.61c-9.301-0.496-18.875-1.89-27.129-6.472c-8.154-4.104-14.586-11.096-19.016-18.992     c-8.572-13.588-15.041-28.988-15.988-45.175C39.149,68.653,41.913,57.259,49.825,49.818z"
   id="path16"
   style="fill:#ff6833;fill-opacity:1;stroke:#0c506e;stroke-opacity:1" />
			<path
   fill="none"
   stroke="#FFFFFF"
   stroke-width="0.1"
   stroke-miterlimit="10"
   d="M48.509,62.519     c1.738-4.724,5.495-8.15,8.954-11.619c-5.02,6.92-6.229,15.814-6.664,24.136c-0.338,13.449,2.587,26.695,6.165,39.578     c-4.876-10.353-9.458-21.083-10.697-32.571C46.001,75.482,45.762,68.653,48.509,62.519z"
   id="path18"
   style="fill:#ff6833;fill-opacity:1;stroke:#0c506e;stroke-opacity:1" />
			<path
   fill="#FFFFFF"
   d="M48.509,62.519c1.738-4.724,5.495-8.15,8.954-11.619c-5.02,6.92-6.229,15.814-6.664,24.136     c-0.338,13.449,2.587,26.695,6.165,39.578c-4.876-10.353-9.458-21.083-10.697-32.571C46.001,75.482,45.762,68.653,48.509,62.519z     "
   id="path20"
   style="fill:#ff6833;fill-opacity:1;stroke:#0c506e;stroke-opacity:1" />
			<path
   fill="none"
   stroke="#000000"
   stroke-width="0.1"
   stroke-miterlimit="10"
   d="M155.741,63.939     c8.688-1.071,17.955,3.643,21.772,11.618c6.005,10.473,0.533,25.162-10.602,29.544c-6.722,3.077-14.895,2.093-20.917-2.1     c-7.339-5.235-11.24-15.357-8.151-24.022C140.258,71.023,147.504,64.999,155.741,63.939z"
   id="path22"
   style="fill:#ff6833;fill-opacity:1;stroke:#0c506e;stroke-opacity:1" />
			<path
   d="M155.741,63.939c8.688-1.071,17.955,3.643,21.772,11.618c6.005,10.473,0.533,25.162-10.602,29.544     c-6.722,3.077-14.895,2.093-20.917-2.1c-7.339-5.235-11.24-15.357-8.151-24.022C140.258,71.023,147.504,64.999,155.741,63.939z"
   id="path24"
   style="fill:#ff6833;fill-opacity:1;stroke:#0c506e;stroke-opacity:1" />
			<path
   fill="none"
   stroke="#000000"
   stroke-width="0.1"
   stroke-miterlimit="10"
   d="M174.482,188.994     c0.469-3.965,3.882-6.855,7.465-8.097c3.975-0.266,7.918,1.162,11.517,2.743c12.171,6.438,20.735,18.767,23.558,32.145     c2.045,8.279,0.434,17.361-4.596,24.282c-7.144,9.097-16.414,16.675-27.201,21.004c-7.973,3.579-16.504,5.677-25.004,7.575     c-3.953,1.002-7.918,2.603-12.074,2.104c8.14-5.388,17.558-8.31,26.335-12.438c11.05-5.641,21.26-14.819,24.498-27.197     c2.023-6.217,0.869-13.627-4.067-18.176c-5.311-4.752-12.218-7.604-16.818-13.186     C175.805,196.707,173.729,192.934,174.482,188.994z"
   id="path26"
   style="fill:#ff6833;fill-opacity:1;stroke:#0c506e;stroke-opacity:1" />
			<path
   d="M174.482,188.994c0.469-3.965,3.882-6.855,7.465-8.097c3.975-0.266,7.918,1.162,11.517,2.743     c12.171,6.438,20.735,18.767,23.558,32.145c2.045,8.279,0.434,17.361-4.596,24.282c-7.144,9.097-16.414,16.675-27.201,21.004     c-7.973,3.579-16.504,5.677-25.004,7.575c-3.953,1.002-7.918,2.603-12.074,2.104c8.14-5.388,17.558-8.31,26.335-12.438     c11.05-5.641,21.26-14.819,24.498-27.197c2.023-6.217,0.869-13.627-4.067-18.176c-5.311-4.752-12.218-7.604-16.818-13.186     C175.805,196.707,173.729,192.934,174.482,188.994z"
   id="path28"
   style="fill:#ff6833;fill-opacity:1;stroke:#0c506e;stroke-opacity:1" />
			<path
   fill="none"
   stroke="#000000"
   stroke-width="0.1"
   stroke-miterlimit="10"
   d="M147.012,195.006     c2.957-6.598,9.936-12.748,17.605-10.639c1.823,2.384,4.793,4.166,5.274,7.354c1.521,5.611-0.011,11.409-1.489,16.854     c-1.896,6.341-4.396,12.517-7.581,18.325c-7.499,15.258-17.064,29.691-29.447,41.434c-11.611,11.432-25.923,19.722-40.884,25.957     c-1.209,0.4-2.455,0.543-3.737,0.428c5.313-4.364,10.734-8.604,15.914-13.128c10.025-9.138,17.601-20.513,24.97-31.795     c3.083-5.647,7.124-10.813,9.18-16.974C140.859,220.399,141.729,207.038,147.012,195.006z"
   id="path30"
   style="fill:#ff6833;fill-opacity:1;stroke:#0c506e;stroke-opacity:1" />
			<path
   d="M147.012,195.006c2.957-6.598,9.936-12.748,17.605-10.639c1.823,2.384,4.793,4.166,5.274,7.354     c1.521,5.611-0.011,11.409-1.489,16.854c-1.896,6.341-4.396,12.517-7.581,18.325c-7.499,15.258-17.064,29.691-29.447,41.434     c-11.611,11.432-25.923,19.722-40.884,25.957c-1.209,0.4-2.455,0.543-3.737,0.428c5.313-4.364,10.734-8.604,15.914-13.128     c10.025-9.138,17.601-20.513,24.97-31.795c3.083-5.647,7.124-10.813,9.18-16.974     C140.859,220.399,141.729,207.038,147.012,195.006z"
   id="path32"
   style="fill:#ff6833;fill-opacity:1;stroke:#0c506e;stroke-opacity:1" />
		</g>
	</g>
	<g
   i:knockout="Off"
   id="g34"
   style="fill:#ff6833;fill-opacity:1;stroke:#0c506e;stroke-opacity:1">
		<path
   i:knockout="Off"
   d="M250.333,4.333c4.418,0,8,3.582,8,8s-3.582,8-8,8s-8-3.582-8-8S245.915,4.333,250.333,4.333     M250.333,10.333c-1.103,0-2,0.897-2,2s0.897,2,2,2s2-0.897,2-2S251.436,10.333,250.333,10.333L250.333,10.333z"
   id="path36"
   style="fill:#ff6833;fill-opacity:1;stroke:#0c506e;stroke-opacity:1" />
	</g>
</g>
</svg>