<?xml version="1.0" encoding="UTF-8" standalone="no"?>
<!-- Generator: Adobe Illustrator 13.0.0, SVG Export Plug-In . SVG Version: 6.00 Build 14948)  -->

<svg
   xmlns:xapMM="http://ns.adobe.com/xap/1.0/mm/"
   xmlns:xapG="http://ns.adobe.com/xap/1.0/g/"
   xmlns:stDim="http://ns.adobe.com/xap/1.0/sType/Dimensions#"
   xmlns:xapTPg="http://ns.adobe.com/xap/1.0/t/pg/"
   xmlns:xapGImg="http://ns.adobe.com/xap/1.0/g/img/"
   xmlns:xap="http://ns.adobe.com/xap/1.0/"
   xmlns:i="http://ns.adobe.com/AdobeIllustrator/10.0/"
   xmlns:x="adobe:ns:meta/"
   xmlns:dc="http://purl.org/dc/elements/1.1/"
   xmlns:cc="http://creativecommons.org/ns#"
   xmlns:rdf="http://www.w3.org/1999/02/22-rdf-syntax-ns#"
   xmlns:svg="http://www.w3.org/2000/svg"
   xmlns="http://www.w3.org/2000/svg"
   xmlns:sodipodi="http://sodipodi.sourceforge.net/DTD/sodipodi-0.dtd"
   xmlns:inkscape="http://www.inkscape.org/namespaces/inkscape"
   version="1.1"
   i:viewOrigin="156.5 545.5"
   i:rulerOrigin="0 0"
   i:pageBounds="0 792 612 0"
   x="0px"
   y="0px"
   width="300px"
   height="300px"
   viewBox="0 0 300 300"
   enable-background="new 0 0 300 300"
   xml:space="preserve"
   id="svg2"
   inkscape:version="0.48.2 r9819"
   sodipodi:docname="polo.svg">
<path
   inkscape:connector-curvature="0"
   style="fill:#ff6833;fill-opacity:1;stroke:#0c506e;stroke-width:0.1;stroke-miterlimit:10;stroke-opacity:1"
   id="path10"
   d="m 101.592,34.896 c 7.245,-0.695 14.903,2.286 19.45,8.047 3.171,3.601 4.599,8.37 5.108,13.057 -0.241,5.962 -2.646,11.915 -7.106,15.972 -6.027,5.739 -15.511,7.543 -23.221,4.381 C 85.029,72.58 78.512,59.003 83.468,48.429 86.417,40.96 93.691,35.807 101.592,34.896 z"
   stroke-miterlimit="10" /><path
   inkscape:connector-curvature="0"
   style="fill:#ff6833;fill-opacity:1;stroke:#0c506e;stroke-opacity:1"
   id="path12"
   d="m 101.592,34.896 c 7.245,-0.695 14.903,2.286 19.45,8.047 3.171,3.601 4.599,8.37 5.108,13.057 -0.241,5.962 -2.646,11.915 -7.106,15.972 -6.027,5.739 -15.511,7.543 -23.221,4.381 C 85.029,72.58 78.512,59.003 83.468,48.429 86.417,40.96 93.691,35.807 101.592,34.896 z" /><path
   style="fill:#ff6833;fill-opacity:1;stroke:#0c506e;stroke-opacity:1"
   d="M 81.6875 78.21875 C 80.379406 78.243609 79.102 78.5055 77.90625 79.03125 C 72.81425 80.83325 68.3595 84.773 66.6875 90 C 63.8155 99.039 64.61325 108.73925 66.40625 117.90625 C 67.88525 126.24325 73.0635 133.2545 78.5625 139.4375 C 89.2075 149.8605 103.1395 155.76675 116.8125 161.09375 C 123.0245 163.24375 128.54225 166.90425 134.65625 169.28125 C 128.01725 170.89025 121.324 172.37325 114.5 172.90625 C 106.851 167.00625 97.81875 163.187 88.71875 160.125 C 84.85175 158.787 81.1605 156.79275 77.0625 156.21875 C 72.3365 155.35675 66.796 155.578 63.25 159.25 C 59.791 162.951 57.18125 168.52925 59.40625 173.53125 C 44.13925 172.20925 28.955 170.071 13.875 167.375 C 13.469 169.354 13.05175 171.3425 12.59375 173.3125 C 29.40475 176.4485 46.404 179.0265 63.5 179.8125 C 66.023 180.5525 67.7685 182.75475 70.0625 183.96875 C 78.1205 188.50775 87.3275 190.1975 96.0625 192.9375 C 101.4145 194.6315 106.564 198.373 108.375 203.875 C 107.133 210.601 102.84825 216.39425 98.53125 221.53125 C 88.04725 233.12525 77.96875 245.10775 67.09375 256.34375 C 64.56075 259.14875 61.61525 261.62925 59.65625 264.90625 C 62.89725 264.76125 65.64625 262.96975 68.40625 261.46875 C 78.23025 256.42975 87.59075 250.55125 97.21875 245.15625 C 103.31775 241.87425 108.9195 237.66925 113.9375 232.90625 C 123.0475 224.39625 131.60925 213.8475 133.15625 201.0625 C 133.99825 191.7965 127.38775 184.4325 121.21875 178.4375 C 127.33075 177.1265 133.525 176.09875 139.5 174.21875 C 140.904 173.83275 142.49675 173.118 143.84375 174.125 C 170.94475 188.06 198.323 201.475 225.375 215.5 C 225.35 218.141 225.3935 220.8065 225.6875 223.4375 C 227.1435 223.9255 228.62125 224.28675 230.15625 224.46875 C 231.16725 222.61375 231.75025 220.58475 231.78125 218.46875 C 237.70325 221.94475 244.00875 224.697 250.09375 227.875 C 247.16575 234.015 243.8125 239.958 240.9375 246.125 C 243.9175 247.724 246.8735 249.39975 249.9375 250.84375 C 256.7855 237.06075 263.965 223.4395 270.875 209.6875 C 267.897 208.0595 264.915 206.41025 261.875 204.90625 C 259.068 210.73425 255.94475 216.41375 253.09375 222.21875 C 245.93575 218.60875 238.67275 215.136 231.59375 211.375 C 231.60675 194.521 231.63275 177.6665 231.59375 160.8125 C 242.01975 169.3555 252.53875 177.8335 263.21875 186.0625 C 270.51975 181.3415 277.8695 176.695 285.1875 172 C 286.5785 171.247 285.658 169.6575 285.375 168.5625 C 274.295 139.4845 263.053 110.47875 252.125 81.34375 C 236.349 83.20575 220.22425 87.50775 207.53125 97.46875 C 200.64625 102.54375 195.20675 109.24925 190.09375 116.03125 C 181.05675 128.64225 172.729 141.771 163 153.875 C 157.848 160.059 150.44975 163.87075 142.96875 166.46875 C 137.61375 164.66475 132.89125 161.374 127.65625 159.25 C 127.18925 159.45 126.24825 159.8615 125.78125 160.0625 C 116.12625 153.6075 106.01375 147.53325 97.96875 139.03125 C 91.98375 132.89525 87.488 124.76725 87.375 116.03125 C 87.146 107.35325 91.0145 99.35025 92.3125 90.90625 C 92.5085 88.51325 92.72725 85.91625 91.40625 83.78125 C 89.6445 80.22025 85.611781 78.144172 81.6875 78.21875 z M 247.78125 88.125 C 257.96225 115.011 268.393 141.837 278.5 168.75 C 273.426 171.896 268.41775 175.1665 263.34375 178.3125 C 249.10875 167.0785 235.0775 155.564 220.8125 144.375 C 219.2235 142.803 217.168 143.78475 215.5 144.59375 C 215.575 145.42375 215.7375 147.07725 215.8125 147.90625 C 218.5965 151.02125 222.21675 153.21975 225.34375 155.96875 C 225.44875 173.43875 225.29225 190.905 225.40625 208.375 C 200.27925 195.524 174.95375 183.0715 149.84375 170.1875 C 156.03775 167.9185 161.756 164.30975 166.375 159.59375 C 176.103 147.68075 184.45525 134.7595 193.28125 122.1875 C 199.36125 113.4925 206.3765 105.12725 215.4375 99.40625 C 225.1065 93.04825 236.50025 90.047 247.78125 88.125 z "
   id="path16" />
</svg>