<?xml version="1.0" encoding="UTF-8" standalone="no"?>
<!-- Generator: Adobe Illustrator 13.0.0, SVG Export Plug-In . SVG Version: 6.00 Build 14948)  -->

<svg
   xmlns:xapMM="http://ns.adobe.com/xap/1.0/mm/"
   xmlns:xapG="http://ns.adobe.com/xap/1.0/g/"
   xmlns:stDim="http://ns.adobe.com/xap/1.0/sType/Dimensions#"
   xmlns:xapTPg="http://ns.adobe.com/xap/1.0/t/pg/"
   xmlns:xapGImg="http://ns.adobe.com/xap/1.0/g/img/"
   xmlns:xap="http://ns.adobe.com/xap/1.0/"
   xmlns:i="http://ns.adobe.com/AdobeIllustrator/10.0/"
   xmlns:x="adobe:ns:meta/"
   xmlns:dc="http://purl.org/dc/elements/1.1/"
   xmlns:cc="http://creativecommons.org/ns#"
   xmlns:rdf="http://www.w3.org/1999/02/22-rdf-syntax-ns#"
   xmlns:svg="http://www.w3.org/2000/svg"
   xmlns="http://www.w3.org/2000/svg"
   xmlns:sodipodi="http://sodipodi.sourceforge.net/DTD/sodipodi-0.dtd"
   xmlns:inkscape="http://www.inkscape.org/namespaces/inkscape"
   version="1.1"
   i:viewOrigin="156.5 545.5"
   i:rulerOrigin="0 0"
   i:pageBounds="0 792 612 0"
   x="0px"
   y="0px"
   width="300px"
   height="300px"
   viewBox="0 0 300 300"
   enable-background="new 0 0 300 300"
   xml:space="preserve"
   id="svg2"
   inkscape:version="0.48.2 r9819"
   sodipodi:docname="rackets.svg"><defs
   id="defs40" /><sodipodi:namedview
   pagecolor="#ffffff"
   bordercolor="#666666"
   borderopacity="1"
   objecttolerance="10"
   gridtolerance="10"
   guidetolerance="10"
   inkscape:pageopacity="0"
   inkscape:pageshadow="2"
   inkscape:window-width="703"
   inkscape:window-height="480"
   id="namedview38"
   showgrid="false"
   inkscape:zoom="0.78666667"
   inkscape:cx="150"
   inkscape:cy="150"
   inkscape:window-x="0"
   inkscape:window-y="0"
   inkscape:window-maximized="0"
   inkscape:current-layer="svg2" />
<g
   id="Layer_1"
   i:layer="yes"
   i:dimmedPercent="50"
   i:rgbTrio="#4F008000FFFF"
   style="fill:#ff6833;fill-opacity:1;stroke:#0c506e;stroke-opacity:1">
	<g
   id="g7"
   style="fill:#ff6833;fill-opacity:1;stroke:#0c506e;stroke-opacity:1">
		<g
   id="surface0"
   i:knockout="Off"
   style="fill:#ff6833;fill-opacity:1;stroke:#0c506e;stroke-opacity:1">
			<path
   fill="none"
   stroke="#000000"
   stroke-width="0.1"
   stroke-miterlimit="10"
   d="M168.724,49.939     c8.953-1.121,18.478,3.936,22.118,12.292c5.506,10.405-0.06,24.562-10.904,28.857c-6.945,3.2-15.429,2.026-21.52-2.489     c-6.908-5.356-10.573-15.094-7.605-23.525C153.2,57.081,160.459,51.01,168.724,49.939z"
   id="path10"
   style="fill:#ff6833;fill-opacity:1;stroke:#0c506e;stroke-opacity:1" />
			<path
   d="M168.724,49.939c8.953-1.121,18.478,3.936,22.118,12.292c5.506,10.405-0.06,24.562-10.904,28.857     c-6.945,3.2-15.429,2.026-21.52-2.489c-6.908-5.356-10.573-15.094-7.605-23.525C153.2,57.081,160.459,51.01,168.724,49.939z"
   id="path12"
   style="fill:#ff6833;fill-opacity:1;stroke:#0c506e;stroke-opacity:1" />
			<path
   fill="none"
   stroke="#000000"
   stroke-width="0.1"
   stroke-miterlimit="10"
   d="M10.747,71.773     c6.156-4.572,14.543-3.907,21.086-0.562c6.746,4.546,11.623,12.762,9.509,21.074c10.124,6.374,20.469,12.39,30.655,18.664     c2.702,1.75,5.719,3.015,8.929,3.421c21.194,4.064,44.053,1.951,63.223-8.374c4.555-2.114,9.595-4.81,14.751-3.446     c5.676,2.219,6.318,10.538,2.172,14.51c-5.068,5.054-12.504,6.104-19.209,7.469c-5.962,0.875-11.858,2.563-17.933,2.356     c-9.845,0.131-19.798,0.251-29.461-1.923c0.455,2.661-1.667,5.183-4.47,4.108c-6.046-3.132-11.594-7.157-17.557-10.451     c-4.789-2.858-10.075-4.969-14.274-8.724c-6.597-4.29-13.407-8.256-20.106-12.39c-6.64,4.73-15.847,4.289-22.58-0.02     c-4.674-3.831-8.993-9.078-9.018-15.424C6.619,78.315,6.863,73.633,10.747,71.773z"
   id="path14"
   style="fill:#ff6833;fill-opacity:1;stroke:#0c506e;stroke-opacity:1" />
			<path
   d="M10.747,71.773c6.156-4.572,14.543-3.907,21.086-0.562c6.746,4.546,11.623,12.762,9.509,21.074     c10.124,6.374,20.469,12.39,30.655,18.664c2.702,1.75,5.719,3.015,8.929,3.421c21.194,4.064,44.053,1.951,63.223-8.374     c4.555-2.114,9.595-4.81,14.751-3.446c5.676,2.219,6.318,10.538,2.172,14.51c-5.068,5.054-12.504,6.104-19.209,7.469     c-5.962,0.875-11.858,2.563-17.933,2.356c-9.845,0.131-19.798,0.251-29.461-1.923c0.455,2.661-1.667,5.183-4.47,4.108     c-6.046-3.132-11.594-7.157-17.557-10.451c-4.789-2.858-10.075-4.969-14.274-8.724c-6.597-4.29-13.407-8.256-20.106-12.39     c-6.64,4.73-15.847,4.289-22.58-0.02c-4.674-3.831-8.993-9.078-9.018-15.424C6.619,78.315,6.863,73.633,10.747,71.773z"
   id="path16"
   style="fill:#ff6833;fill-opacity:1;stroke:#0c506e;stroke-opacity:1" />
			<path
   fill="none"
   stroke="#FFFFFF"
   stroke-width="0.1"
   stroke-miterlimit="10"
   d="M12.941,79.104     c0.286-2.646,3.303-3.168,5.104-4.514c3.76-0.081,7.736,0.333,11.01,2.323c2.883,2.459,5.815,5.373,6.598,9.237     c0.284,2.708-0.173,6.224-3.045,7.412C23.61,98.18,10.733,89.306,12.941,79.104z"
   id="path18"
   style="fill:#ff6833;fill-opacity:1;stroke:#0c506e;stroke-opacity:1" />
			<path
   fill="#FFFFFF"
   d="M12.941,79.104c0.286-2.646,3.303-3.168,5.104-4.514c3.76-0.081,7.736,0.333,11.01,2.323     c2.883,2.459,5.815,5.373,6.598,9.237c0.284,2.708-0.173,6.224-3.045,7.412C23.61,98.18,10.733,89.306,12.941,79.104z"
   id="path20"
   style="fill:#ff6833;fill-opacity:1;stroke:#0c506e;stroke-opacity:1" />
			<path
   fill="none"
   stroke="#000000"
   stroke-width="0.1"
   stroke-miterlimit="10"
   d="M217.05,97.608     c5.187-1.526,10.712-1.809,16.06-1.087c10.449,1.976,20.814,5.398,29.581,11.56c4.985,3.89,9.851,8.752,11.154,15.188     c2.757,13.268-1.659,27.805-11.414,37.248c-3.067,2.81-5.935,6.013-9.554,8.095l-1.619-0.112     c6.924-8.983,10.238-20.378,10.299-31.641c0-5.284-2.709-10.368-7.182-13.206c-10.895-7.411-24.852-6.378-36.767-11.119     c-3.694-1.315-6.003-4.826-7.004-8.46C210.568,100.496,214.09,98.552,217.05,97.608z"
   id="path22"
   style="fill:#ff6833;fill-opacity:1;stroke:#0c506e;stroke-opacity:1" />
			<path
   d="M217.05,97.608c5.187-1.526,10.712-1.809,16.06-1.087c10.449,1.976,20.814,5.398,29.581,11.56     c4.985,3.89,9.851,8.752,11.154,15.188c2.757,13.268-1.659,27.805-11.414,37.248c-3.067,2.81-5.935,6.013-9.554,8.095     l-1.619-0.112c6.924-8.983,10.238-20.378,10.299-31.641c0-5.284-2.709-10.368-7.182-13.206     c-10.895-7.411-24.852-6.378-36.767-11.119c-3.694-1.315-6.003-4.826-7.004-8.46C210.568,100.496,214.09,98.552,217.05,97.608z"
   id="path24"
   style="fill:#ff6833;fill-opacity:1;stroke:#0c506e;stroke-opacity:1" />
			<path
   fill="none"
   stroke="#000000"
   stroke-width="0.1"
   stroke-miterlimit="10"
   d="M207.615,157.812     c3.602-7.059,14.701-6.346,18.875-0.266c3.557,4.711,3.938,10.843,4.536,16.495c0.926,13.231,0.168,26.912,4.794,39.575     c4.015,9.951,13.409,16.21,22.715,20.69c10.887,5.605,22.906,8.273,34.314,12.525c-2.428,3.109-7.002,1.354-10.309,0.986     c-11.182-2.529-22.366-5.047-33.55-7.557c-10.097-2.486-20.708-6.726-26.716-15.701c-7.891-14.547-13.304-30.415-16.07-46.729     C205.438,171.23,204.505,163.965,207.615,157.812z"
   id="path26"
   style="fill:#ff6833;fill-opacity:1;stroke:#0c506e;stroke-opacity:1" />
			<path
   d="M207.615,157.812c3.602-7.059,14.701-6.346,18.875-0.266c3.557,4.711,3.938,10.843,4.536,16.495     c0.926,13.231,0.168,26.912,4.794,39.575c4.015,9.951,13.409,16.21,22.715,20.69c10.887,5.605,22.906,8.273,34.314,12.525     c-2.428,3.109-7.002,1.354-10.309,0.986c-11.182-2.529-22.366-5.047-33.55-7.557c-10.097-2.486-20.708-6.726-26.716-15.701     c-7.891-14.547-13.304-30.415-16.07-46.729C205.438,171.23,204.505,163.965,207.615,157.812z"
   id="path28"
   style="fill:#ff6833;fill-opacity:1;stroke:#0c506e;stroke-opacity:1" />
			<path
   fill="none"
   stroke="#000000"
   stroke-width="0.1"
   stroke-miterlimit="10"
   d="M184.461,156.667     c4.109-1.944,9.04-3.316,13.447-1.535c4.569,1.858,6.26,7.379,6.299,11.915c-0.662,6.375-6.433,10.312-11.321,13.582     c-34.555,21.877-70.118,42.1-105.087,63.301c-4.949,2.574-9.95,5.697-15.617,6.218c1.672-1.704,3.77-2.868,5.643-4.318     c28.1-24.605,56.606-48.757,84.855-73.198C169.545,166.812,176.416,160.824,184.461,156.667z"
   id="path30"
   style="fill:#ff6833;fill-opacity:1;stroke:#0c506e;stroke-opacity:1" />
			<path
   d="M184.461,156.667c4.109-1.944,9.04-3.316,13.447-1.535c4.569,1.858,6.26,7.379,6.299,11.915     c-0.662,6.375-6.433,10.312-11.321,13.582c-34.555,21.877-70.118,42.1-105.087,63.301c-4.949,2.574-9.95,5.697-15.617,6.218     c1.672-1.704,3.77-2.868,5.643-4.318c28.1-24.605,56.606-48.757,84.855-73.198C169.545,166.812,176.416,160.824,184.461,156.667z     "
   id="path32"
   style="fill:#ff6833;fill-opacity:1;stroke:#0c506e;stroke-opacity:1" />
		</g>
	</g>
	<g
   i:knockout="Off"
   id="g34"
   style="fill:#ff6833;fill-opacity:1;stroke:#0c506e;stroke-opacity:1">
		<path
   i:knockout="Off"
   d="M18.375,113.375c4.971,0,9,4.029,9,9s-4.029,9-9,9s-9-4.029-9-9S13.404,113.375,18.375,113.375     M18.375,119.375c-1.654,0-3,1.346-3,3s1.346,3,3,3s3-1.346,3-3S20.029,119.375,18.375,119.375L18.375,119.375z"
   id="path36"
   style="fill:#ff6833;fill-opacity:1;stroke:#0c506e;stroke-opacity:1" />
	</g>
</g>
</svg>