<?xml version="1.0" encoding="UTF-8" standalone="no"?>
<!-- Created with Inkscape (http://www.inkscape.org/) -->

<svg
   xmlns:dc="http://purl.org/dc/elements/1.1/"
   xmlns:cc="http://creativecommons.org/ns#"
   xmlns:rdf="http://www.w3.org/1999/02/22-rdf-syntax-ns#"
   xmlns:svg="http://www.w3.org/2000/svg"
   xmlns="http://www.w3.org/2000/svg"
   xmlns:sodipodi="http://sodipodi.sourceforge.net/DTD/sodipodi-0.dtd"
   xmlns:inkscape="http://www.inkscape.org/namespaces/inkscape"
   id="svg2816"
   version="1.1"
   inkscape:version="0.48.2 r9819"
   width="300"
   height="300"
   sodipodi:docname="sailing.svg">
  <metadata
     id="metadata2822">
    <rdf:RDF>
      <cc:Work
         rdf:about="">
        <dc:format>image/svg+xml</dc:format>
        <dc:type
           rdf:resource="http://purl.org/dc/dcmitype/StillImage" />
        <dc:title />
      </cc:Work>
    </rdf:RDF>
  </metadata>
  <defs
     id="defs2820">
    <inkscape:perspective
       sodipodi:type="inkscape:persp3d"
       inkscape:vp_x="0 : 0.5 : 1"
       inkscape:vp_y="0 : 1000 : 0"
       inkscape:vp_z="1 : 0.5 : 1"
       inkscape:persp3d-origin="0.5 : 0.33333333 : 1"
       id="perspective2824" />
  </defs>
  <sodipodi:namedview
     pagecolor="#ffffff"
     bordercolor="#666666"
     borderopacity="1"
     objecttolerance="10"
     gridtolerance="10"
     guidetolerance="10"
     inkscape:pageopacity="0"
     inkscape:pageshadow="2"
     inkscape:window-width="1280"
     inkscape:window-height="968"
     id="namedview2818"
     showgrid="false"
     inkscape:zoom="1.5301741"
     inkscape:cx="149.39768"
     inkscape:cy="181.29534"
     inkscape:window-x="-4"
     inkscape:window-y="-4"
     inkscape:window-maximized="1"
     inkscape:current-layer="svg2816" />
  <path
     sodipodi:type="arc"
     style="opacity:1;fill:#ff6833;fill-opacity:1;stroke:#0c506e;stroke-opacity:1"
     id="path3600"
     sodipodi:cx="241.83006"
     sodipodi:cy="124.18301"
     sodipodi:rx="21.568628"
     sodipodi:ry="20.915033"
     d="m 263.39869,124.18301 a 21.568628,20.915033 0 1 1 -43.13726,0 21.568628,20.915033 0 1 1 43.13726,0 z"
     transform="matrix(1.030303,0,0,1.0624893,-6.0209939,-3.8779387)" />
  <path
     style="fill:#ff6833;stroke:#0c506e;stroke-width:1px;stroke-linecap:butt;stroke-linejoin:miter;stroke-opacity:1;fill-opacity:1"
     d="m 195.77744,154.06407 c 0,0 16.74674,-0.79746 19.13913,-0.39873 2.3924,0.39873 6.37972,1.99366 6.37972,5.98098 0,3.98732 -1.59493,7.57591 -8.37338,9.17084 -6.77844,1.59492 -21.1328,-3.58859 -21.1328,-3.58859 l 3.98733,-11.1645 z"
     id="path3604" />
  <path
     style="fill:#ff6833;fill-opacity:1;stroke:#0c506e;stroke-width:1px;stroke-linecap:butt;stroke-linejoin:miter;stroke-opacity:1"
     d="m 268.34667,157.65266 c -5.96019,0.12495 -9.62652,6.56327 -9.00617,12.41368 0.89849,8.47353 -7.96166,16.28248 -16.58078,16.39317 -13.69828,2.21177 -27.98902,-1.40139 -39.57172,-8.87202 -4.23461,-1.15148 -6.79346,-5.83389 -11.40884,-5.97201 -0.23435,5.13495 4.55365,8.18218 7.68842,11.48428 14.99402,15.52487 38.79195,22.6004 59.60194,16.11924 14.06281,-5.29079 22.4214,-22.75963 16.82829,-36.88888 -1.41715,-2.71752 -4.28495,-5.21433 -7.55114,-4.67746 z"
     id="path3606"
     sodipodi:nodetypes="csccccccc" />
  <path
     style="fill:none;stroke:#ff6833;stroke-width:7;stroke-linecap:butt;stroke-linejoin:miter;stroke-opacity:1;stroke-miterlimit:4;stroke-dasharray:none"
     d="m -8.4957653,232.6874 c 0,0 162.0730553,4.57464 326.1066853,-22.2197 164.03362,-26.79433 162.07306,-25.48729 162.07306,-25.48729"
     id="path3677" />
  <path
     style="fill:none;stroke:#ff6833;stroke-width:7;stroke-linecap:butt;stroke-linejoin:miter;stroke-opacity:1;stroke-miterlimit:4;stroke-dasharray:none"
     d="M -5.8816836,291.50423 C 18.480938,278.04488 49.188655,274.989 74.945925,286.34572 c 37.844555,6.98124 48.145385,-4.3711 70.714855,-14.56317 25.76572,-11.63545 49.83876,-1.92463 72.98013,7.12408 24.59643,9.61767 52.17199,-5.50196 75.55659,-17.52378 5.53347,-2.84471 12.90453,-3.44946 19.49229,-2.55467"
     id="path3679"
     sodipodi:nodetypes="ccsssc" />
  <path
     style="fill:none;stroke:#ff6833;stroke-width:7;stroke-linecap:butt;stroke-linejoin:miter;stroke-miterlimit:4;stroke-opacity:1;stroke-dasharray:none"
     d="M 235.26734,-12.382753 179.71811,226.15219"
     id="path3768" />
  <path
     style="fill:none;stroke:#ff6833;stroke-width:7;stroke-linecap:butt;stroke-linejoin:miter;stroke-miterlimit:4;stroke-opacity:1;stroke-dasharray:none"
     d="m 96.72102,-15.650356 c 0,0 -83.650612,103.909745 -100.6421427,162.726586"
     id="path3772" />
  <path
     style="fill:none;stroke:#ff6833;stroke-width:7;stroke-linecap:butt;stroke-linejoin:miter;stroke-opacity:1;stroke-miterlimit:4;stroke-dasharray:none;fill-opacity:1"
     d="m 45.746428,54.276328 c 0,0 47.053469,-13.723928 175.143472,-1.307041"
     id="path3774" />
  <path
     style="fill:none;stroke:#ff6833;stroke-width:7;stroke-linecap:butt;stroke-linejoin:miter;stroke-opacity:1;stroke-miterlimit:4;stroke-dasharray:none"
     d="m 14.377449,105.25092 c 0,0 100.642141,-12.416888 193.442041,-0.65352"
     id="path3776" />
  <path
     style="fill:none;stroke:#ff6833;stroke-width:7;stroke-linecap:butt;stroke-linejoin:miter;stroke-opacity:1;stroke-miterlimit:4;stroke-dasharray:none"
     d="m 184.94627,204.58602 c 0,0 -92.146373,-13.07041 -194.0955557,1.96056"
     id="path3778" />
</svg>
