<?xml version="1.0" encoding="UTF-8" standalone="no"?>
<!-- Generator: Adobe Illustrator 14.0.0, SVG Export Plug-In . SVG Version: 6.00 Build 43363)  -->

<svg
   xmlns:dc="http://purl.org/dc/elements/1.1/"
   xmlns:cc="http://creativecommons.org/ns#"
   xmlns:rdf="http://www.w3.org/1999/02/22-rdf-syntax-ns#"
   xmlns:svg="http://www.w3.org/2000/svg"
   xmlns="http://www.w3.org/2000/svg"
   xmlns:sodipodi="http://sodipodi.sourceforge.net/DTD/sodipodi-0.dtd"
   xmlns:inkscape="http://www.inkscape.org/namespaces/inkscape"
   version="1.1"
   id="Layer_1"
   x="0px"
   y="0px"
   width="300px"
   height="300px"
   viewBox="0 0 300 300"
   enable-background="new 0 0 300 300"
   xml:space="preserve"
   inkscape:version="0.48.2 r9819"
   sodipodi:docname="softball.svg"><metadata
   id="metadata19"><rdf:RDF><cc:Work
       rdf:about=""><dc:format>image/svg+xml</dc:format><dc:type
         rdf:resource="http://purl.org/dc/dcmitype/StillImage" /></cc:Work></rdf:RDF></metadata><defs
   id="defs17" /><sodipodi:namedview
   pagecolor="#ffffff"
   bordercolor="#666666"
   borderopacity="1"
   objecttolerance="10"
   gridtolerance="10"
   guidetolerance="10"
   inkscape:pageopacity="0"
   inkscape:pageshadow="2"
   inkscape:window-width="703"
   inkscape:window-height="480"
   id="namedview15"
   showgrid="false"
   inkscape:zoom="0.78666667"
   inkscape:cx="150"
   inkscape:cy="150"
   inkscape:window-x="0"
   inkscape:window-y="0"
   inkscape:window-maximized="0"
   inkscape:current-layer="Layer_1" />
<path
   d="M69.38,89.667c7.242,6.251,15.547,11.268,24.38,14.927c4.409,1.742,9.733,2.571,14.133,0.429  c6.593-3.838,6.421-14.167,0.629-18.635c-6.093-5.132-14.068-6.744-21.334-9.504c-4.765-1.582-9.744-3.867-12.435-8.34  c-3.9-6.051-3.15-14.221,0.616-20.148c6.995-11.656,18.755-19.365,30.433-25.744c-13.156,0.129-26.843,4.207-36.25,13.786  c-6.384,5.582-11.805,12.889-12.857,21.521C54.712,69.898,60.784,81.728,69.38,89.667z"
   id="path3"
   style="fill:#ff6833;fill-opacity:1;stroke:#0c506e;stroke-opacity:1" />
<path
   d="M287.466,60.99c-1.129-12.287-14.081-22.661-26.337-19.456c-5.992,1.388-10.298,6.79-11.596,12.636  c-2.061,7.247-3.793,16.309,1.813,22.444c-4.84,6.519-12.861,8.773-19.859,12.102c-4.819,2.132-9.97,3.406-15.136,4.35  c-14.802,2.097-29.374-2.604-44.088-3.235c-3.898,0.532-8.06,1.669-10.815,4.665c-1.529,2.031-2.472,4.949-1.313,7.369  c2.054,5.848,7.942,9.382,13.769,10.574c10.278,2.557,20.818,0.223,31.211,0.053c16.219-1.375,29.762-11.432,41.921-21.413  c3.794-2.698,6.185-6.783,8.435-10.753c2.362,1.113,4.854,2.205,7.531,2.092c7.056,0.485,13.122-3.879,18.264-8.178  C285.149,71.046,288.023,66.16,287.466,60.99z"
   id="path5"
   style="fill:#ff6833;fill-opacity:1;stroke:#0c506e;stroke-opacity:1" />
<path
   d="M124.298,170.25c-6.692,5.076-8.705,13.625-11.873,20.963c-3.066,8.276-6.74,16.374-11.538,23.8  c-9.982,14.135-23.752,24.898-37.259,35.453c-9.614,6.545-19.021,13.396-28.731,19.798c2.395-0.032,4.755-0.522,6.989-1.376  c13.438-5.001,26.924-9.935,39.943-15.968c17.1-7.967,33.101-19.31,44.061-34.875c7.831-10.999,15.003-22.906,18.204-36.146  c1.197-4.495,0.72-9.307-1.888-13.213C136.839,164.492,129.175,166.035,124.298,170.25z"
   id="path7"
   style="fill:#ff6833;fill-opacity:1;stroke:#0c506e;stroke-opacity:1" />
<path
   d="M181.589,173.664c-6.948-2.793-14.007-5.763-21.513-6.535c-4.924,1.227-10.926,4.156-11.301,9.9  c0.591,5.862,4.18,10.955,8.11,15.144c5.093,4.806,11.875,7.109,18.251,9.669c6.771,2.336,12.979,6.005,19.153,9.571  c6.377,3.93,8.232,11.698,9.735,18.516c2.762,16.146,1.671,32.593,0.763,48.851c3.716-4.707,6.955-9.99,8.284-15.9  c4.048-15.323,6.655-31.07,6.972-46.931c-0.276-6.584-2.969-12.774-6.882-17.994C205.085,187.185,193.668,179.35,181.589,173.664z"
   id="path9"
   style="fill:#ff6833;fill-opacity:1;stroke:#0c506e;stroke-opacity:1" />
<path
   d="M113.313,38.251c4.384,0,7.938-3.554,7.938-7.938s-3.554-7.938-7.938-7.938c-4.384,0-7.938,3.554-7.938,7.938  S108.929,38.251,113.313,38.251z M113.313,28.375c1.068,0,1.938,0.869,1.938,1.938s-0.869,1.938-1.938,1.938  s-1.938-0.869-1.938-1.938S112.245,28.375,113.313,28.375z"
   id="path11"
   style="fill:#ff6833;fill-opacity:1;stroke:#0c506e;stroke-opacity:1" />
<circle
   cx="137.938"
   cy="64.438"
   r="22.175"
   id="circle13"
   style="fill:#ff6833;fill-opacity:1;stroke:#0c506e;stroke-opacity:1" />
</svg>