<?xml version="1.0" encoding="UTF-8" standalone="no"?>
<!-- Generator: Adobe Illustrator 14.0.0, SVG Export Plug-In . SVG Version: 6.00 Build 43363)  -->

<svg
   xmlns:dc="http://purl.org/dc/elements/1.1/"
   xmlns:cc="http://creativecommons.org/ns#"
   xmlns:rdf="http://www.w3.org/1999/02/22-rdf-syntax-ns#"
   xmlns:svg="http://www.w3.org/2000/svg"
   xmlns="http://www.w3.org/2000/svg"
   xmlns:sodipodi="http://sodipodi.sourceforge.net/DTD/sodipodi-0.dtd"
   xmlns:inkscape="http://www.inkscape.org/namespaces/inkscape"
   version="1.1"
   id="Layer_1"
   x="0px"
   y="0px"
   width="300px"
   height="300px"
   viewBox="0 0 300 300"
   enable-background="new 0 0 300 300"
   xml:space="preserve"
   inkscape:version="0.48.2 r9819"
   sodipodi:docname="table_tennis.svg"><metadata
   id="metadata17"><rdf:RDF><cc:Work
       rdf:about=""><dc:format>image/svg+xml</dc:format><dc:type
         rdf:resource="http://purl.org/dc/dcmitype/StillImage" /></cc:Work></rdf:RDF></metadata><defs
   id="defs15" /><sodipodi:namedview
   pagecolor="#ffffff"
   bordercolor="#666666"
   borderopacity="1"
   objecttolerance="10"
   gridtolerance="10"
   guidetolerance="10"
   inkscape:pageopacity="0"
   inkscape:pageshadow="2"
   inkscape:window-width="703"
   inkscape:window-height="480"
   id="namedview13"
   showgrid="false"
   inkscape:zoom="0.78666667"
   inkscape:cx="150"
   inkscape:cy="150"
   inkscape:window-x="0"
   inkscape:window-y="0"
   inkscape:window-maximized="0"
   inkscape:current-layer="Layer_1" />
<path
   d="M61.178,135.847c0.784,9.821,3.822,19.98,10.938,27.111c6.938,7.215,15.158,13.828,25.016,16.389  c13.089,1.806,26.986-2.501,36.611-11.604c6.007-5.465,9.713-13.741,9.087-21.892c-0.528-6.434-9.192-10.441-14.272-6.218  c-7.041,5.411-9.795,14.688-17.006,19.951c-3.449,2.916-8.19,4.59-12.675,3.438c-8.26-1.887-15.386-6.924-21.886-12.156  c-5.375-4.092-8.739-10.092-12.208-15.745c9.785-3.165,14.975-15.207,11.855-24.697c-3.177-5.816-7.307-11.859-13.796-14.244  c-6.685-2.453-14.528,0.356-18.629,6.045c-3.575,4.824-4.167,11.072-4.539,16.868C41.567,128.843,50.841,137.369,61.178,135.847z   M54.092,102.146c6.572-2.762,12.598,3.012,15.477,8.396c3.051,4.452,1.899,10.674-1.304,14.729  c-3.301,4.924-10.596,5.906-15.51,2.937c-3.199-1.724-5.05-5.122-6.402-8.353C45.699,113.392,47.226,104.766,54.092,102.146z"
   id="path3"
   style="fill:#ff6833;fill-opacity:1;stroke:#0c506e;stroke-opacity:1" />
<path
   d="M153.825,181.343c-4.995,0.797-9.92-0.515-14.795-1.425c-3.016-0.461-5.595-2.439-8.7-2.477  c0.775,2.447,3.05,3.76,4.858,5.365c6.149,5.211,13.602,9.466,21.841,9.783c9.801,0.628,20.207,0.926,29.204-3.648  c8.05-3.957,13.647-11.533,17.313-19.519c3.841-8.333,5.012-18.015,2.771-26.94c-2.288-5.599-5.248-12.034-11.395-14.165  c-3.905-0.692-9.259,0.527-10.704,4.72c-2.058,5.61,0.104,11.534,1.053,17.149c1.67,6.818,2.135,14.844-2.081,20.84  C175.402,178.463,164.111,180.198,153.825,181.343z"
   id="path5"
   style="fill:#ff6833;fill-opacity:1;stroke:#0c506e;stroke-opacity:1" />
<path
   d="M280.065,210.152c-0.773-2.054-3.257-1.705-5.006-1.791c-83.973,0.065-167.95-0.037-251.922,0.051  c-2.369-0.422-4.774,2.281-3.262,4.402c0.83,2.121,3.347,1.401,5.121,1.587c84.744-0.12,169.493,0.136,254.235-0.128  C279.503,212.939,281.284,211.424,280.065,210.152z"
   id="path7"
   style="fill:#ff6833;fill-opacity:1;stroke:#0c506e;stroke-opacity:1" />
<circle
   cx="105.292"
   cy="146.959"
   r="5.625"
   id="circle9"
   style="fill:#ff6833;fill-opacity:1;stroke:#0c506e;stroke-opacity:1" />
<circle
   cx="155.909"
   cy="106.924"
   r="22.243"
   id="circle11"
   style="fill:#ff6833;fill-opacity:1;stroke:#0c506e;stroke-opacity:1" />
</svg>