<?xml version="1.0" encoding="UTF-8" standalone="no"?>
<!-- Generator: Adobe Illustrator 13.0.0, SVG Export Plug-In . SVG Version: 6.00 Build 14948)  -->

<svg
   xmlns:xapMM="http://ns.adobe.com/xap/1.0/mm/"
   xmlns:xapG="http://ns.adobe.com/xap/1.0/g/"
   xmlns:stDim="http://ns.adobe.com/xap/1.0/sType/Dimensions#"
   xmlns:xapTPg="http://ns.adobe.com/xap/1.0/t/pg/"
   xmlns:xapGImg="http://ns.adobe.com/xap/1.0/g/img/"
   xmlns:xap="http://ns.adobe.com/xap/1.0/"
   xmlns:i="http://ns.adobe.com/AdobeIllustrator/10.0/"
   xmlns:x="adobe:ns:meta/"
   xmlns:dc="http://purl.org/dc/elements/1.1/"
   xmlns:cc="http://creativecommons.org/ns#"
   xmlns:rdf="http://www.w3.org/1999/02/22-rdf-syntax-ns#"
   xmlns:svg="http://www.w3.org/2000/svg"
   xmlns="http://www.w3.org/2000/svg"
   xmlns:sodipodi="http://sodipodi.sourceforge.net/DTD/sodipodi-0.dtd"
   xmlns:inkscape="http://www.inkscape.org/namespaces/inkscape"
   version="1.1"
   i:viewOrigin="156.5 545.5"
   i:rulerOrigin="0 0"
   i:pageBounds="0 792 612 0"
   x="0px"
   y="0px"
   width="300px"
   height="300px"
   viewBox="0 0 300 300"
   enable-background="new 0 0 300 300"
   xml:space="preserve"
   id="svg2"
   inkscape:version="0.48.2 r9819"
   sodipodi:docname="tug_of_war.svg">
<path
   inkscape:connector-curvature="0"
   style="fill:#ff6833;fill-opacity:1;stroke:#0c506e;stroke-width:0.1;stroke-miterlimit:10;stroke-opacity:1"
   id="path10"
   d="m 32.694,64.938 c 5.834,-0.757 11.885,1.196 16.454,4.835 4.856,3.925 7.393,10.081 7.998,16.18 -0.279,6.198 -2.796,12.498 -7.542,16.627 -5.806,5.023 -14.385,6.814 -21.602,3.984 -9.49,-3.23 -15.719,-13.896 -13.91,-23.745 1.575,-9.167 9.343,-16.722 18.602,-17.881 z"
   stroke-miterlimit="10" /><path
   inkscape:connector-curvature="0"
   style="fill:#ff6833;fill-opacity:1;stroke:#0c506e;stroke-opacity:1"
   id="path12"
   d="m 32.694,64.938 c 5.834,-0.757 11.885,1.196 16.454,4.835 4.856,3.925 7.393,10.081 7.998,16.18 -0.279,6.198 -2.796,12.498 -7.542,16.627 -5.806,5.023 -14.385,6.814 -21.602,3.984 -9.49,-3.23 -15.719,-13.896 -13.91,-23.745 1.575,-9.167 9.343,-16.722 18.602,-17.881 z" /><path
   inkscape:connector-curvature="0"
   style="fill:#ff6833;fill-opacity:1;stroke:#0c506e;stroke-width:0.1;stroke-miterlimit:10;stroke-opacity:1"
   id="path14"
   d="m 175.662,64.944 c 8.21,-1.02 17.03,3.072 21.146,10.338 3.035,5.252 4.371,11.771 2.066,17.561 -3.078,11.081 -16.123,17.824 -26.953,14.033 -9.939,-2.869 -16.662,-13.797 -14.85,-23.957 1.542,-9.197 9.308,-16.802 18.591,-17.975 z"
   stroke-miterlimit="10" /><path
   inkscape:connector-curvature="0"
   style="fill:#ff6833;fill-opacity:1;stroke:#0c506e;stroke-opacity:1"
   id="path16"
   d="m 175.662,64.944 c 8.21,-1.02 17.03,3.072 21.146,10.338 3.035,5.252 4.371,11.771 2.066,17.561 -3.078,11.081 -16.123,17.824 -26.953,14.033 -9.939,-2.869 -16.662,-13.797 -14.85,-23.957 1.542,-9.197 9.308,-16.802 18.591,-17.975 z" /><path
   inkscape:connector-curvature="0"
   style="fill:#ff6833;fill-opacity:1;stroke:#0c506e;stroke-width:0.1;stroke-miterlimit:10;stroke-opacity:1"
   id="path18"
   d="m 7.785,122.972 c -0.186,-6.459 7.96,-10.28 13.33,-8.193 7.511,5.79 12.812,13.878 19.275,20.741 1.968,1.821 3.437,5.163 6.565,4.854 10.528,0.1 21.061,-0.143 31.587,0.106 -6.334,-1.717 -12,-5.162 -17.725,-8.262 -4.137,-2.261 -8.627,-5.938 -8.205,-11.174 -0.038,-4.385 4.036,-8.021 8.369,-7.619 5.613,0.699 10.671,3.41 15.601,6.012 11.222,6.166 22.189,12.809 33.693,18.453 2.724,1.294 5.588,2.607 8.68,2.496 14.237,0.046 28.478,-0.105 42.715,0.069 -5.457,-4.678 -11.248,-10.785 -10.838,-18.512 0.641,-5.682 7.066,-8.182 12.098,-7.751 4.881,2.536 8.084,7.276 11.724,11.249 4.431,4.873 8.36,10.258 13.241,14.689 11.17,0.677 22.426,-0.063 33.627,0.35 -7.561,-2.298 -14.563,-6.261 -21.172,-10.523 -4.881,-3.01 -6.682,-10.721 -2.029,-14.707 4.32,-3.558 10.08,-0.991 14.572,0.829 14.424,7 27.797,16.004 42.371,22.722 2.118,0.972 4.401,1.642 6.758,1.585 12.658,0.002 25.318,-0.012 37.979,-0.005 v 9.99 c -4.183,-0.021 -8.369,0.169 -12.545,-0.108 1.557,0.482 3.086,1.029 4.6,1.654 -7.694,0.714 -15.417,0.004 -23.09,-0.613 -9.822,-1.229 -19.762,-1.05 -29.627,-0.782 -2.891,2.376 -5.404,5.269 -8.739,7.073 -10.356,5.758 -22.669,8.18 -34.396,6.219 -8.994,-2.24 -16.305,-8.252 -23.873,-13.221 -9.267,-0.632 -18.604,0.158 -27.886,-0.346 1.56,0.486 3.096,1.038 4.608,1.669 -7.702,0.716 -15.432,0.003 -23.112,-0.615 -9.821,-1.225 -19.76,-1.053 -29.624,-0.773 -2.874,2.393 -5.395,5.269 -8.728,7.074 -10.348,5.748 -22.646,8.169 -34.361,6.216 -8.411,-2.23 -15.656,-7.378 -22.542,-12.506 -1.318,-1.085 -3.09,-0.901 -4.677,-0.957 -8.67,0.041 -17.34,0.021 -26.009,0.025 v -10.001 c 5.489,0.14 11.007,-0.358 16.47,0.352 l 0.833,0.033 c 0.306,-0.098 0.917,-0.293 1.223,-0.392 -5.095,-4.556 -10.566,-10.104 -10.741,-17.4 z"
   stroke-miterlimit="10" /><path
   inkscape:connector-curvature="0"
   style="fill:#ff6833;fill-opacity:1;stroke:#0c506e;stroke-opacity:1"
   id="path20"
   d="m 7.785,122.972 c -0.186,-6.459 7.96,-10.28 13.33,-8.193 7.511,5.79 12.812,13.878 19.275,20.741 1.968,1.821 3.437,5.163 6.565,4.854 10.528,0.1 21.061,-0.143 31.587,0.106 -6.334,-1.717 -12,-5.162 -17.725,-8.262 -4.137,-2.261 -8.627,-5.938 -8.205,-11.174 -0.038,-4.385 4.036,-8.021 8.369,-7.619 5.613,0.699 10.671,3.41 15.601,6.012 11.222,6.166 22.189,12.809 33.693,18.453 2.724,1.294 5.588,2.607 8.68,2.496 14.237,0.046 28.478,-0.105 42.715,0.069 -5.457,-4.678 -11.248,-10.785 -10.838,-18.512 0.641,-5.682 7.066,-8.182 12.098,-7.751 4.881,2.536 8.084,7.276 11.724,11.249 4.431,4.873 8.36,10.258 13.241,14.689 11.17,0.677 22.426,-0.063 33.627,0.35 -7.561,-2.298 -14.563,-6.261 -21.172,-10.523 -4.881,-3.01 -6.682,-10.721 -2.029,-14.707 4.32,-3.558 10.08,-0.991 14.572,0.829 14.424,7 27.797,16.004 42.371,22.722 2.118,0.972 4.401,1.642 6.758,1.585 12.658,0.002 25.318,-0.012 37.979,-0.005 v 9.99 c -4.183,-0.021 -8.369,0.169 -12.545,-0.108 1.557,0.482 3.086,1.029 4.6,1.654 -7.694,0.714 -15.417,0.004 -23.09,-0.613 -9.822,-1.229 -19.762,-1.05 -29.627,-0.782 -2.891,2.376 -5.404,5.269 -8.739,7.073 -10.356,5.758 -22.669,8.18 -34.396,6.219 -8.994,-2.24 -16.305,-8.252 -23.873,-13.221 -9.267,-0.632 -18.604,0.158 -27.886,-0.346 1.56,0.486 3.096,1.038 4.608,1.669 -7.702,0.716 -15.432,0.003 -23.112,-0.615 -9.821,-1.225 -19.76,-1.053 -29.624,-0.773 -2.874,2.393 -5.395,5.269 -8.728,7.074 -10.348,5.748 -22.646,8.169 -34.361,6.216 -8.411,-2.23 -15.656,-7.378 -22.542,-12.506 -1.318,-1.085 -3.09,-0.901 -4.677,-0.957 -8.67,0.041 -17.34,0.021 -26.009,0.025 v -10.001 c 5.489,0.14 11.007,-0.358 16.47,0.352 l 0.833,0.033 c 0.306,-0.098 0.917,-0.293 1.223,-0.392 -5.095,-4.556 -10.566,-10.104 -10.741,-17.4 z" /><path
   style="fill:#ff6833;fill-opacity:1;stroke:#0c506e;stroke-opacity:1"
   d="M 50.53125 179.71875 C 46.929 179.66798 43.300125 181.12262 40.90625 183.84375 C 37.85225 188.00475 39.12775 193.62175 41.09375 197.96875 C 44.02975 203.71075 47.9315 208.97775 52.5625 213.46875 C 69.8325 231.19375 87.548 248.48925 104.75 266.28125 C 103.585 275.83425 100.743 285.06325 99.125 294.53125 C 99.51 294.30325 100.27025 293.854 100.65625 293.625 C 104.34525 286.646 107.22775 279.22075 110.34375 271.96875 C 116.30275 277.92475 122.07275 284.07575 127.96875 290.09375 C 130.07375 292.04175 132.052 294.45475 135 295.09375 C 134.349 292.90975 133.07075 291.01 131.84375 289.125 C 126.27475 280.281 120.259 271.721 114.5 263 C 118.26 252.932 121.53575 242.62475 123.71875 232.09375 C 124.99775 226.10975 125.4355 219.43675 122.1875 213.96875 C 119.5005 208.71375 114.04775 205.961 109.84375 202.125 C 100.88875 194.955 92.06075 187.3415 81.59375 182.4375 C 77.53275 180.4475 72.4725 180.0635 68.4375 182.3125 C 66.2805 183.4155 65.476 185.86425 64.5 187.90625 C 61.942 184.94225 58.9925 182.228 55.3125 180.75 C 53.807187 180.09875 52.168636 179.74183 50.53125 179.71875 z M 76 203.4375 C 82.911 208.5835 90.39775 212.8785 97.84375 217.1875 C 101.73475 219.4265 105.17075 222.34 108.34375 225.5 C 108.36175 234.283 107.666 243.06325 106.625 251.78125 C 96.613 235.55125 86.1 219.6185 76 203.4375 z "
   id="path24" /><path
   style="fill:#ff6833;fill-opacity:1;stroke:#0c506e;stroke-opacity:1"
   d="M 193.09375 179.75 C 192.708 179.75567 192.32962 179.76962 191.9375 179.8125 C 187.5385 180.2285 182.71875 183.14225 182.21875 187.90625 C 181.34175 195.68325 186.348 202.34475 190.75 208.21875 C 195.476 213.74275 200.827 218.7125 205.875 223.9375 C 219.82 238.0475 233.926 251.98975 247.75 266.21875 C 246.715 274.47475 244.59225 282.55025 242.78125 290.65625 C 242.49725 292.04425 242.04075 293.537 242.84375 294.875 C 247.12875 287.644 249.974 279.63575 253.375 271.96875 C 259.317 277.93775 265.07575 284.07375 270.96875 290.09375 C 273.09075 292.01975 275.03725 294.5265 278.03125 295.0625 C 277.32725 292.9045 276.06775 291.006 274.84375 289.125 C 269.27275 280.283 263.257 271.72 257.5 263 C 261.262 252.925 264.53675 242.6005 266.71875 232.0625 C 267.99775 226.0775 268.4395 219.43375 265.1875 213.96875 C 262.5045 208.73975 257.066 205.97225 252.875 202.15625 C 243.923 194.98625 235.11225 187.38475 224.65625 182.46875 C 220.57425 180.45675 215.46225 180.06775 211.40625 182.34375 C 209.26425 183.46275 208.492 185.87325 207.5 187.90625 C 203.95344 183.62 198.87993 179.66501 193.09375 179.75 z M 218.96875 203.4375 C 225.67375 208.4255 232.91425 212.63125 240.15625 216.78125 C 244.20725 219.24325 248.301 221.97475 251.25 225.71875 C 251.508 234.42675 250.579 243.13325 249.625 251.78125 C 239.594 235.54525 229.10475 219.6115 218.96875 203.4375 z "
   id="path28" />
</svg>