<?xml version="1.0" encoding="UTF-8" standalone="no"?>
<svg
   xmlns:dc="http://purl.org/dc/elements/1.1/"
   xmlns:cc="http://creativecommons.org/ns#"
   xmlns:rdf="http://www.w3.org/1999/02/22-rdf-syntax-ns#"
   xmlns:svg="http://www.w3.org/2000/svg"
   xmlns="http://www.w3.org/2000/svg"
   xmlns:sodipodi="http://sodipodi.sourceforge.net/DTD/sodipodi-0.dtd"
   xmlns:inkscape="http://www.inkscape.org/namespaces/inkscape"
   version="1.1"
   x="0px"
   y="0px"
   width="300px"
   height="300px"
   viewBox="0 0 300 300"
   id="svg2"
   inkscape:version="0.48.2 r9819"
   sodipodi:docname="volleyball.svg">
  <metadata
     id="metadata16">
    <rdf:RDF>
      <cc:Work
         rdf:about="">
        <dc:format>image/svg+xml</dc:format>
        <dc:type
           rdf:resource="http://purl.org/dc/dcmitype/StillImage" />
      </cc:Work>
    </rdf:RDF>
  </metadata>
  <defs
     id="defs14" />
  <sodipodi:namedview
     pagecolor="#ffffff"
     bordercolor="#666666"
     borderopacity="1"
     objecttolerance="10"
     gridtolerance="10"
     guidetolerance="10"
     inkscape:pageopacity="0"
     inkscape:pageshadow="2"
     inkscape:window-width="703"
     inkscape:window-height="480"
     id="namedview12"
     showgrid="false"
     inkscape:zoom="0.78666667"
     inkscape:cx="150"
     inkscape:cy="150"
     inkscape:window-x="0"
     inkscape:window-y="0"
     inkscape:window-maximized="0"
     inkscape:current-layer="svg2" />
  <path
     d="M116.371,75.388c11.985-10.679,26.72-17.383,41.229-23.866c8.893-4.089,17.825-8.089,26.68-12.256  c2.578-1.274,5.676-1.421,7.92-3.35c-5.123,0.103-10.041,1.8-15.064,2.632c-23.095,4.322-44.977,13.069-67.032,20.886  c-8.308,3.248-16.417,7.029-24.1,11.57c-1.892,1.161-3.453,2.758-5.007,4.323C53.998,75.455,26.999,75.337,0,75.386v5.994  c26.362-0.006,52.725,0.014,79.087-0.011c0.112,3.692,2.295,7.376,5.986,8.394c11.264,1.974,19.072-10.357,30.362-8.431  c-0.772,2.067-1.481,4.346-0.618,6.513c2.414,6.201,7.81,10.873,13.746,13.614c9.256,3.568,18.589,7.058,28.289,9.234  c19.788,4.619,40.249,1.988,60.214,0.136c-0.38-0.279-1.137-0.836-1.514-1.115c-5.43-1.42-11.043-1.954-16.579-2.794  c-15.089-2.902-30.562-5.449-44.277-12.775c-7.732-2.9-14.105-8.178-20.81-12.813C189.257,81.449,244.629,81.34,300,81.386V75.38  C238.791,75.386,177.581,75.37,116.371,75.388z"
     id="path4"
     style="fill:#ff6833;fill-opacity:1;stroke:#0c506e;stroke-opacity:1" />
  <path
     d="M131.948,159.255c-3.7-3.969-7.099-8.355-11.729-11.323c-2.61-1.886-5.914-2.117-8.977-2.667  c-1.951,1.323-4.46,2.281-5.473,4.585c-1.598,3.113-0.734,6.684-0.503,9.991c-2.456-0.896-3.251-3.509-4.644-5.45  c-3.406-5.423-8.127-10.623-14.701-11.893c-2.903,0.575-5.997,2.044-7.269,4.895c-1.526,3.835-0.763,8.05-0.232,12.007  c-26.14-0.04-52.281-0.017-78.422-0.015v5.994c26.772,0.012,53.543-0.023,80.314,0.02c7.927,20.172,23.751,36.512,29.292,57.738  c6.085,19.142,11.167,38.62,15.391,58.225c0.704-3.401,0.269-6.88,0.172-10.313c-0.446-8.668-0.511-17.381-1.828-25.979  c-1.509-10.099-3.142-20.176-4.694-30.266c-2.103-17.095-8.607-33.213-12.275-49.972c2.44,2.052,3.455,5.16,5.114,7.784  c7.12,11.814,17.309,21.311,25.387,32.426c8.637,10.543,13.473,23.428,19.475,35.506c3.993,7.779,6.964,16.012,10.36,24.058  c1.976,4.995,4.425,9.866,5.447,15.184c0.352-0.03,1.058-0.089,1.412-0.118c-2.281-11.514-4.658-23.027-7.574-34.396  c-4.506-14.188-9.129-28.342-13.807-42.471c-5.466-12.516-11.064-24.979-16.692-37.424c54.836,0.003,109.671-0.009,164.507,0.006  v-6.006C243.983,159.296,187.954,159.552,131.948,159.255z"
     id="path6"
     style="fill:#ff6833;fill-opacity:1;stroke:#0c506e;stroke-opacity:1" />
  <path
     d="M185.313,53.464c0,11.305,9.163,20.469,20.469,20.469c11.305,0,20.469-9.164,20.469-20.469  c0-11.305-9.164-20.469-20.469-20.469S185.313,42.159,185.313,53.464z M205.781,38.995c7.979,0,14.469,6.491,14.469,14.469  s-6.49,14.469-14.469,14.469c-7.979,0-14.469-6.491-14.469-14.469S197.802,38.995,205.781,38.995z"
     id="path8"
     style="fill:#ff6833;fill-opacity:1;stroke:#0c506e;stroke-opacity:1" />
  <circle
     cx="95.5"
     cy="40.35"
     r="21.875"
     id="circle10"
     style="fill:#ff6833;fill-opacity:1;stroke:#0c506e;stroke-opacity:1" />
</svg>
