<?xml version="1.0" encoding="UTF-8" standalone="no"?>
<!-- Generator: Adobe Illustrator 14.0.0, SVG Export Plug-In . SVG Version: 6.00 Build 43363)  -->

<svg
   xmlns:dc="http://purl.org/dc/elements/1.1/"
   xmlns:cc="http://creativecommons.org/ns#"
   xmlns:rdf="http://www.w3.org/1999/02/22-rdf-syntax-ns#"
   xmlns:svg="http://www.w3.org/2000/svg"
   xmlns="http://www.w3.org/2000/svg"
   xmlns:sodipodi="http://sodipodi.sourceforge.net/DTD/sodipodi-0.dtd"
   xmlns:inkscape="http://www.inkscape.org/namespaces/inkscape"
   version="1.1"
   id="Layer_1"
   x="0px"
   y="0px"
   width="300px"
   height="300px"
   viewBox="0 0 300 300"
   enable-background="new 0 0 300 300"
   xml:space="preserve"
   inkscape:version="0.48.2 r9819"
   sodipodi:docname="wrestling.svg"><metadata
   id="metadata21"><rdf:RDF><cc:Work
       rdf:about=""><dc:format>image/svg+xml</dc:format><dc:type
         rdf:resource="http://purl.org/dc/dcmitype/StillImage" /></cc:Work></rdf:RDF></metadata><defs
   id="defs19" /><sodipodi:namedview
   pagecolor="#ffffff"
   bordercolor="#666666"
   borderopacity="1"
   objecttolerance="10"
   gridtolerance="10"
   guidetolerance="10"
   inkscape:pageopacity="0"
   inkscape:pageshadow="2"
   inkscape:window-width="703"
   inkscape:window-height="480"
   id="namedview17"
   showgrid="false"
   inkscape:zoom="0.78666667"
   inkscape:cx="150"
   inkscape:cy="150"
   inkscape:window-x="0"
   inkscape:window-y="0"
   inkscape:window-maximized="0"
   inkscape:current-layer="Layer_1" />
<path
   d="M186.656,113.442c-2.599-4.81-9.816-6.478-14.129-3.049c-2.26,2.441-3.353,5.699-4.346,8.81  c-2.253,8.23-3.348,15.964-6.681,24.297l-1.811-0.216c-5.52-0.72-11.082-0.967-16.641-1.054  c-9.888-1.082-20.063-3.998-27.792-10.507c-8.384-8.569-8.574-21.427-8.922-32.663c-0.351-5.878,0.133-12.279-3.005-17.528  c-4.125-4.503-12.228-3.91-16.292,0.438c-4.967,4.945-5.627,12.43-5.906,19.062c0.135,13.432,5.563,27.056,15.513,36.219  c8.136,7.588,19.432,10.801,30.365,10.936c7.316,0.019,14.712,1.2,21.962-0.246c2.915-0.832,5.838-1.627,8.801-2.285  c1.394-0.323,3.435-0.823,3.435-0.823c-2.676,3.159-6.595,8.807-10.327,10.836c-6.896,3.92-15.117,4.634-22.9,4.603  c-5.797-0.774-11.612-2.256-17.503-1.437c2.204,2.621,5.468,3.728,8.442,5.211c5.541,2.853,11.914,2.961,17.914,4.142  c10.938,1.588,22.991,0.852,32.124-6.04c5.762-3.953,9.832-9.764,13.451-15.626c3.736-6.185,5.836-13.274,6.453-20.452  C189.094,121.784,189.166,117.146,186.656,113.442z"
   id="path3"
   style="stroke:#0c506e;stroke-opacity:1;fill:#ff6833;fill-opacity:1" />
<path
   d="M50.566,134.139c-5.344,0.898-9.063,5.546-11.064,10.278c-3.844,9.398-3.99,19.708-5.601,29.608  c-0.969,9.362-5.507,17.759-8.561,26.528c-4.544,12.722-15.863,20.892-25.341,29.78v8.656c6.276-4.06,13.086-7.303,18.922-12.029  c19.831-14.612,35.745-35.407,41.687-59.568c1.949-8.439,3.472-17.512,0.741-25.958C59.972,136.925,55.319,133.549,50.566,134.139z"
   id="path5"
   style="stroke:#0c506e;stroke-opacity:1;fill:#ff6833;fill-opacity:1" />
<path
   d="M82.814,138.983c-5.108-3.734-13.542-2.87-17.171,2.518c-2.68,5.527,0.001,11.79,3.176,16.492  c8.028,11.097,19.44,19.168,31.04,26.141c3.277,2.169,5.753,5.822,4.982,9.918c-1.156,11.56-5.383,22.548-9.767,33.224  c-2.967,7.276-7.299,13.922-10.292,21.173c1.392-0.792,2.79-1.601,3.852-2.825c7.623-8.072,15.126-16.332,21.288-25.6  c5.773-8.496,11.313-17.746,12.601-28.122c1.026-6.527-2.296-12.604-5.345-18.11C108.388,159.912,96.491,148.051,82.814,138.983z"
   id="path7"
   style="stroke:#0c506e;stroke-opacity:1;fill:#ff6833;fill-opacity:1" />
<path
   d="M204.966,204.271c-1.489-3.534-3.796-7.661-1.94-11.479c1.734-4.514,5.942-7.285,8.73-11.072  c5.702-7.417,11.614-14.937,14.848-23.825c2.274-5.454,3.97-11.946,0.965-17.477c-3.624-6.501-13.837-5.174-17.972,0.107  c-10.767,12.684-18.934,27.648-23.593,43.629c-2.094,7.287-2.689,15.523,1.256,22.318c7.706,13.001,20.199,22.068,32.109,30.93  c5.639,3.323,10.846,7.772,17.184,9.655c-2.019-3.06-4.86-5.437-7.19-8.241C219.73,228.483,211.3,216.917,204.966,204.271z"
   id="path9"
   style="stroke:#0c506e;stroke-opacity:1;fill:#ff6833;fill-opacity:1" />
<path
   d="M278.108,208.916c-3.856-4.522-5.993-10.137-8.723-15.339c-2.236-4.702-5.045-9.189-6.436-14.245  c-3.021-11.303-4.16-23.328-9.716-33.796c-2.432-4.754-7.104-7.731-12.174-9.006c-2.607,1.387-5.723,2.496-7.258,5.204  c-2.65,4.438-2.361,9.866-1.723,14.803c2.66,18.67,12.115,35.854,24.764,49.636c11.997,12.952,27.139,22.575,43.158,29.78v-8.178  C292.638,221.576,284.104,216.596,278.108,208.916z"
   id="path11"
   style="stroke:#0c506e;stroke-opacity:1;fill:#ff6833;fill-opacity:1" />
<circle
   cx="134.381"
   cy="72.342"
   r="21.6"
   id="circle13"
   style="stroke:#0c506e;stroke-opacity:1;fill:#ff6833;fill-opacity:1" />
<circle
   cx="141.388"
   cy="117.344"
   r="21.599"
   id="circle15"
   style="stroke:#0c506e;stroke-opacity:1;fill:#ff6833;fill-opacity:1" />
</svg>